<?xml version="1.0" encoding="utf-8" standalone="no"?>
<!DOCTYPE svg PUBLIC "-//W3C//DTD SVG 1.1//EN"
  "http://www.w3.org/Graphics/SVG/1.1/DTD/svg11.dtd">
<!-- Created with matplotlib (http://matplotlib.org/) -->
<svg height="261pt" version="1.1" viewBox="0 0 373 261" width="373pt" xmlns="http://www.w3.org/2000/svg" xmlns:xlink="http://www.w3.org/1999/xlink">
 <defs>
  <style type="text/css">
*{stroke-linecap:butt;stroke-linejoin:round;}
  </style>
 </defs>
 <g id="figure_1">
  <g id="patch_1">
   <path d="M 0 261.997857 
L 373.911414 261.997857 
L 373.911414 0 
L 0 0 
z
" style="fill:none;"/>
  </g>
  <g id="axes_1">
   <g id="patch_2">
    <path d="M 26.930079 238.94218 
L 361.730079 238.94218 
L 361.730079 21.50218 
L 26.930079 21.50218 
z
" style="fill:#ffffff;"/>
   </g>
   <g id="matplotlib.axis_1">
    <g id="xtick_1">
     <g id="line2d_1">
      <path clip-path="url(#p2a1f38f9ec)" d="M 26.930079 238.94218 
L 26.930079 21.50218 
" style="fill:none;stroke:#b0b0b0;stroke-linecap:square;stroke-width:0.8;"/>
     </g>
     <g id="line2d_2">
      <defs>
       <path d="M 0 0 
L 0 3.5 
" id="m2ce7b63518" style="stroke:#000000;stroke-width:0.8;"/>
      </defs>
      <g>
       <use style="stroke:#000000;stroke-width:0.8;" x="26.930079" xlink:href="#m2ce7b63518" y="238.94218"/>
      </g>
     </g>
     <g id="text_1">
      <!-- $0$ -->
      <defs>
       <path d="M 42 31.640625 
C 42 37.75 41.90625 48.125 37.703125 56.109375 
C 34 63.109375 28.09375 65.59375 22.90625 65.59375 
C 18.09375 65.59375 12 63.40625 8.203125 56.203125 
C 4.203125 48.71875 3.796875 39.4375 3.796875 31.640625 
C 3.796875 25.953125 3.90625 17.28125 7 9.671875 
C 11.296875 -0.609375 19 -2 22.90625 -2 
C 27.5 -2 34.5 -0.109375 38.59375 9.375 
C 41.59375 16.28125 42 24.359375 42 31.640625 
M 22.90625 -0.40625 
C 16.5 -0.40625 12.703125 5.078125 11.296875 12.6875 
C 10.203125 18.5625 10.203125 27.15625 10.203125 32.75 
C 10.203125 40.4375 10.203125 46.828125 11.5 52.921875 
C 13.40625 61.390625 19 64 22.90625 64 
C 27 64 32.296875 61.296875 34.203125 53.125 
C 35.5 47.4375 35.59375 40.734375 35.59375 32.75 
C 35.59375 26.25 35.59375 18.265625 34.40625 12.375 
C 32.296875 1.484375 26.40625 -0.40625 22.90625 -0.40625 
" id="CMR17-48"/>
      </defs>
      <g transform="translate(24.439411 252.860678)scale(0.1 -0.1)">
       <use transform="scale(0.996264)" xlink:href="#CMR17-48"/>
      </g>
     </g>
    </g>
    <g id="xtick_2">
     <g id="line2d_3">
      <path clip-path="url(#p2a1f38f9ec)" d="M 93.890079 238.94218 
L 93.890079 21.50218 
" style="fill:none;stroke:#b0b0b0;stroke-linecap:square;stroke-width:0.8;"/>
     </g>
     <g id="line2d_4">
      <g>
       <use style="stroke:#000000;stroke-width:0.8;" x="93.890079" xlink:href="#m2ce7b63518" y="238.94218"/>
      </g>
     </g>
     <g id="text_2">
      <!-- $2$ -->
      <defs>
       <path d="M 41.703125 15.453125 
L 39.90625 15.453125 
C 38.90625 8.375 38.09375 7.171875 37.703125 6.5625 
C 37.203125 5.765625 30 5.765625 28.59375 5.765625 
L 9.40625 5.765625 
C 13 9.671875 20 16.75 28.5 24.953125 
C 34.59375 30.734375 41.703125 37.53125 41.703125 47.421875 
C 41.703125 59.21875 32.296875 66 21.796875 66 
C 10.796875 66 4.09375 56.3125 4.09375 47.34375 
C 4.09375 43.4375 7 42.9375 8.203125 42.9375 
C 9.203125 42.9375 12.203125 43.546875 12.203125 47.03125 
C 12.203125 50.109375 9.59375 51 8.203125 51 
C 7.59375 51 7 50.90625 6.59375 50.703125 
C 8.5 59.21875 14.296875 63.40625 20.40625 63.40625 
C 29.09375 63.40625 34.796875 56.515625 34.796875 47.421875 
C 34.796875 38.734375 29.703125 31.25 24 24.75 
L 4.09375 2.28125 
L 4.09375 0 
L 39.296875 0 
z
" id="CMR17-50"/>
      </defs>
      <g transform="translate(91.399411 252.860678)scale(0.1 -0.1)">
       <use transform="scale(0.996264)" xlink:href="#CMR17-50"/>
      </g>
     </g>
    </g>
    <g id="xtick_3">
     <g id="line2d_5">
      <path clip-path="url(#p2a1f38f9ec)" d="M 160.850079 238.94218 
L 160.850079 21.50218 
" style="fill:none;stroke:#b0b0b0;stroke-linecap:square;stroke-width:0.8;"/>
     </g>
     <g id="line2d_6">
      <g>
       <use style="stroke:#000000;stroke-width:0.8;" x="160.850079" xlink:href="#m2ce7b63518" y="238.94218"/>
      </g>
     </g>
     <g id="text_3">
      <!-- $4$ -->
      <defs>
       <path d="M 33.59375 64.40625 
C 33.59375 66.5 33.5 66.5 31.703125 66.5 
L 2 19.59375 
L 2 17 
L 27.796875 17 
L 27.796875 7.140625 
C 27.796875 3.5 27.59375 2.5 20.59375 2.5 
L 18.703125 2.5 
L 18.703125 0 
C 21.90625 0 27.296875 0 30.703125 0 
C 34.09375 0 39.5 0 42.703125 0 
L 42.703125 2.5 
L 40.796875 2.5 
C 33.796875 2.5 33.59375 3.5 33.59375 7.140625 
L 33.59375 17 
L 43.796875 17 
L 43.796875 19.59375 
L 33.59375 19.59375 
z
M 28.09375 57.859375 
L 28.09375 19.59375 
L 4 19.59375 
z
" id="CMR17-52"/>
      </defs>
      <g transform="translate(158.359411 252.860678)scale(0.1 -0.1)">
       <use transform="scale(0.996264)" xlink:href="#CMR17-52"/>
      </g>
     </g>
    </g>
    <g id="xtick_4">
     <g id="line2d_7">
      <path clip-path="url(#p2a1f38f9ec)" d="M 227.810079 238.94218 
L 227.810079 21.50218 
" style="fill:none;stroke:#b0b0b0;stroke-linecap:square;stroke-width:0.8;"/>
     </g>
     <g id="line2d_8">
      <g>
       <use style="stroke:#000000;stroke-width:0.8;" x="227.810079" xlink:href="#m2ce7b63518" y="238.94218"/>
      </g>
     </g>
     <g id="text_4">
      <!-- $6$ -->
      <defs>
       <path d="M 10.59375 34 
C 10.59375 57.65625 21.796875 63 28.296875 63 
C 30.40625 63 35.5 62.640625 37.5 59 
C 35.90625 59 32.90625 59 32.90625 55.515625 
C 32.90625 52.828125 35.09375 51.921875 36.5 51.921875 
C 37.40625 51.921875 40.09375 52.3125 40.09375 55.625 
C 40.09375 61.78125 35.09375 65.296875 28.203125 65.296875 
C 16.296875 65.296875 3.796875 52.96875 3.796875 31 
C 3.796875 3.953125 15.09375 -2 23.09375 -2 
C 32.796875 -2 42 6.671875 42 20.046875 
C 42 32.515625 33.90625 41.59375 23.703125 41.59375 
C 17.59375 41.59375 13.09375 37.609375 10.59375 30.625 
z
M 23.09375 0.390625 
C 10.796875 0.390625 10.796875 18.75 10.796875 22.4375 
C 10.796875 29.625 14.203125 40 23.5 40 
C 25.203125 40 30.09375 40 33.40625 33.125 
C 35.203125 29.21875 35.203125 25.140625 35.203125 20.140625 
C 35.203125 14.75 35.203125 10.78125 33.09375 6.78125 
C 30.90625 2.671875 27.703125 0.390625 23.09375 0.390625 
" id="CMR17-54"/>
      </defs>
      <g transform="translate(225.319411 252.860678)scale(0.1 -0.1)">
       <use transform="scale(0.996264)" xlink:href="#CMR17-54"/>
      </g>
     </g>
    </g>
    <g id="xtick_5">
     <g id="line2d_9">
      <path clip-path="url(#p2a1f38f9ec)" d="M 294.770079 238.94218 
L 294.770079 21.50218 
" style="fill:none;stroke:#b0b0b0;stroke-linecap:square;stroke-width:0.8;"/>
     </g>
     <g id="line2d_10">
      <g>
       <use style="stroke:#000000;stroke-width:0.8;" x="294.770079" xlink:href="#m2ce7b63518" y="238.94218"/>
      </g>
     </g>
     <g id="text_5">
      <!-- $8$ -->
      <defs>
       <path d="M 27.203125 35.375 
C 33.5 38.546875 39.90625 43.328125 39.90625 50.984375 
C 39.90625 60.015625 31.09375 65.296875 23 65.296875 
C 13.90625 65.296875 5.90625 58.734375 5.90625 49.6875 
C 5.90625 47.203125 6.5 42.921875 10.40625 39.140625 
C 11.40625 38.15625 15.59375 35.171875 18.296875 33.28125 
C 13.796875 30.984375 3.296875 25.53125 3.296875 14.59375 
C 3.296875 4.359375 13.09375 -2 22.796875 -2 
C 33.5 -2 42.5 5.65625 42.5 15.78125 
C 42.5 24.84375 36.40625 29.015625 32.40625 31.703125 
z
M 14.09375 44.09375 
C 13.296875 44.59375 9.296875 47.671875 9.296875 52.359375 
C 9.296875 58.421875 15.59375 63 22.796875 63 
C 30.703125 63 36.5 57.4375 36.5 50.96875 
C 36.5 41.703125 26.09375 36.421875 25.59375 36.421875 
C 25.5 36.421875 25.40625 36.421875 24.59375 37.03125 
z
M 32.5 23.734375 
C 34 22.640625 38.796875 19.375 38.796875 13.296875 
C 38.796875 5.953125 31.40625 0.390625 23 0.390625 
C 13.90625 0.390625 7 6.84375 7 14.6875 
C 7 22.546875 13.09375 29.09375 20 32.1875 
z
" id="CMR17-56"/>
      </defs>
      <g transform="translate(292.279411 252.860678)scale(0.1 -0.1)">
       <use transform="scale(0.996264)" xlink:href="#CMR17-56"/>
      </g>
     </g>
    </g>
    <g id="xtick_6">
     <g id="line2d_11">
      <path clip-path="url(#p2a1f38f9ec)" d="M 361.730079 238.94218 
L 361.730079 21.50218 
" style="fill:none;stroke:#b0b0b0;stroke-linecap:square;stroke-width:0.8;"/>
     </g>
     <g id="line2d_12">
      <g>
       <use style="stroke:#000000;stroke-width:0.8;" x="361.730079" xlink:href="#m2ce7b63518" y="238.94218"/>
      </g>
     </g>
     <g id="text_6">
      <!-- $10$ -->
      <defs>
       <path d="M 26.59375 63.40625 
C 26.59375 65.5 26.5 65.5 25.09375 65.5 
C 21.203125 61.1875 15.296875 59.796875 9.703125 59.796875 
C 9.40625 59.796875 8.90625 59.796875 8.796875 59.5 
C 8.703125 59.296875 8.703125 59.09375 8.703125 57 
C 11.796875 57 17 57.59375 21 59.984375 
L 21 7.203125 
C 21 3.6875 20.796875 2.5 12.203125 2.5 
L 9.203125 2.5 
L 9.203125 0 
C 14 0 19 0 23.796875 0 
C 28.59375 0 33.59375 0 38.40625 0 
L 38.40625 2.5 
L 35.40625 2.5 
C 26.796875 2.5 26.59375 3.59375 26.59375 7.15625 
z
" id="CMR17-49"/>
      </defs>
      <g transform="translate(356.748744 252.860678)scale(0.1 -0.1)">
       <use transform="scale(0.996264)" xlink:href="#CMR17-49"/>
       <use transform="translate(45.690477 0)scale(0.996264)" xlink:href="#CMR17-48"/>
      </g>
     </g>
    </g>
   </g>
   <g id="matplotlib.axis_2">
    <g id="ytick_1">
     <g id="line2d_13">
      <path clip-path="url(#p2a1f38f9ec)" d="M 26.930079 238.94218 
L 361.730079 238.94218 
" style="fill:none;stroke:#b0b0b0;stroke-linecap:square;stroke-width:0.8;"/>
     </g>
     <g id="line2d_14">
      <defs>
       <path d="M 0 0 
L -3.5 0 
" id="mf795bae841" style="stroke:#000000;stroke-width:0.8;"/>
      </defs>
      <g>
       <use style="stroke:#000000;stroke-width:0.8;" x="26.930079" xlink:href="#mf795bae841" y="238.94218"/>
      </g>
     </g>
     <g id="text_7">
      <!-- $0.0$ -->
      <defs>
       <path d="M 18.40625 4.796875 
C 18.40625 7.6875 16 9.671875 13.59375 9.671875 
C 10.703125 9.671875 8.703125 7.28125 8.703125 4.890625 
C 8.703125 2 11.09375 0 13.5 0 
C 16.40625 0 18.40625 2.390625 18.40625 4.796875 
" id="CMMI12-58"/>
      </defs>
      <g transform="translate(7.2 242.401429)scale(0.1 -0.1)">
       <use transform="scale(0.996264)" xlink:href="#CMR17-48"/>
       <use transform="translate(45.690477 0)scale(0.996264)" xlink:href="#CMMI12-58"/>
       <use transform="translate(72.787654 0)scale(0.996264)" xlink:href="#CMR17-48"/>
      </g>
     </g>
    </g>
    <g id="ytick_2">
     <g id="line2d_15">
      <path clip-path="url(#p2a1f38f9ec)" d="M 26.930079 211.76218 
L 361.730079 211.76218 
" style="fill:none;stroke:#b0b0b0;stroke-linecap:square;stroke-width:0.8;"/>
     </g>
     <g id="line2d_16">
      <g>
       <use style="stroke:#000000;stroke-width:0.8;" x="26.930079" xlink:href="#mf795bae841" y="211.76218"/>
      </g>
     </g>
     <g id="text_8">
      <!-- $0.2$ -->
      <g transform="translate(7.2 215.221429)scale(0.1 -0.1)">
       <use transform="scale(0.996264)" xlink:href="#CMR17-48"/>
       <use transform="translate(45.690477 0)scale(0.996264)" xlink:href="#CMMI12-58"/>
       <use transform="translate(72.787654 0)scale(0.996264)" xlink:href="#CMR17-50"/>
      </g>
     </g>
    </g>
    <g id="ytick_3">
     <g id="line2d_17">
      <path clip-path="url(#p2a1f38f9ec)" d="M 26.930079 184.58218 
L 361.730079 184.58218 
" style="fill:none;stroke:#b0b0b0;stroke-linecap:square;stroke-width:0.8;"/>
     </g>
     <g id="line2d_18">
      <g>
       <use style="stroke:#000000;stroke-width:0.8;" x="26.930079" xlink:href="#mf795bae841" y="184.58218"/>
      </g>
     </g>
     <g id="text_9">
      <!-- $0.4$ -->
      <g transform="translate(7.2 188.041429)scale(0.1 -0.1)">
       <use transform="scale(0.996264)" xlink:href="#CMR17-48"/>
       <use transform="translate(45.690477 0)scale(0.996264)" xlink:href="#CMMI12-58"/>
       <use transform="translate(72.787654 0)scale(0.996264)" xlink:href="#CMR17-52"/>
      </g>
     </g>
    </g>
    <g id="ytick_4">
     <g id="line2d_19">
      <path clip-path="url(#p2a1f38f9ec)" d="M 26.930079 157.40218 
L 361.730079 157.40218 
" style="fill:none;stroke:#b0b0b0;stroke-linecap:square;stroke-width:0.8;"/>
     </g>
     <g id="line2d_20">
      <g>
       <use style="stroke:#000000;stroke-width:0.8;" x="26.930079" xlink:href="#mf795bae841" y="157.40218"/>
      </g>
     </g>
     <g id="text_10">
      <!-- $0.6$ -->
      <g transform="translate(7.2 160.861429)scale(0.1 -0.1)">
       <use transform="scale(0.996264)" xlink:href="#CMR17-48"/>
       <use transform="translate(45.690477 0)scale(0.996264)" xlink:href="#CMMI12-58"/>
       <use transform="translate(72.787654 0)scale(0.996264)" xlink:href="#CMR17-54"/>
      </g>
     </g>
    </g>
    <g id="ytick_5">
     <g id="line2d_21">
      <path clip-path="url(#p2a1f38f9ec)" d="M 26.930079 130.22218 
L 361.730079 130.22218 
" style="fill:none;stroke:#b0b0b0;stroke-linecap:square;stroke-width:0.8;"/>
     </g>
     <g id="line2d_22">
      <g>
       <use style="stroke:#000000;stroke-width:0.8;" x="26.930079" xlink:href="#mf795bae841" y="130.22218"/>
      </g>
     </g>
     <g id="text_11">
      <!-- $0.8$ -->
      <g transform="translate(7.2 133.681429)scale(0.1 -0.1)">
       <use transform="scale(0.996264)" xlink:href="#CMR17-48"/>
       <use transform="translate(45.690477 0)scale(0.996264)" xlink:href="#CMMI12-58"/>
       <use transform="translate(72.787654 0)scale(0.996264)" xlink:href="#CMR17-56"/>
      </g>
     </g>
    </g>
    <g id="ytick_6">
     <g id="line2d_23">
      <path clip-path="url(#p2a1f38f9ec)" d="M 26.930079 103.04218 
L 361.730079 103.04218 
" style="fill:none;stroke:#b0b0b0;stroke-linecap:square;stroke-width:0.8;"/>
     </g>
     <g id="line2d_24">
      <g>
       <use style="stroke:#000000;stroke-width:0.8;" x="26.930079" xlink:href="#mf795bae841" y="103.04218"/>
      </g>
     </g>
     <g id="text_12">
      <!-- $1.0$ -->
      <g transform="translate(7.2 106.501429)scale(0.1 -0.1)">
       <use transform="scale(0.996264)" xlink:href="#CMR17-49"/>
       <use transform="translate(45.690477 0)scale(0.996264)" xlink:href="#CMMI12-58"/>
       <use transform="translate(72.787654 0)scale(0.996264)" xlink:href="#CMR17-48"/>
      </g>
     </g>
    </g>
    <g id="ytick_7">
     <g id="line2d_25">
      <path clip-path="url(#p2a1f38f9ec)" d="M 26.930079 75.86218 
L 361.730079 75.86218 
" style="fill:none;stroke:#b0b0b0;stroke-linecap:square;stroke-width:0.8;"/>
     </g>
     <g id="line2d_26">
      <g>
       <use style="stroke:#000000;stroke-width:0.8;" x="26.930079" xlink:href="#mf795bae841" y="75.86218"/>
      </g>
     </g>
     <g id="text_13">
      <!-- $1.2$ -->
      <g transform="translate(7.2 79.321429)scale(0.1 -0.1)">
       <use transform="scale(0.996264)" xlink:href="#CMR17-49"/>
       <use transform="translate(45.690477 0)scale(0.996264)" xlink:href="#CMMI12-58"/>
       <use transform="translate(72.787654 0)scale(0.996264)" xlink:href="#CMR17-50"/>
      </g>
     </g>
    </g>
    <g id="ytick_8">
     <g id="line2d_27">
      <path clip-path="url(#p2a1f38f9ec)" d="M 26.930079 48.68218 
L 361.730079 48.68218 
" style="fill:none;stroke:#b0b0b0;stroke-linecap:square;stroke-width:0.8;"/>
     </g>
     <g id="line2d_28">
      <g>
       <use style="stroke:#000000;stroke-width:0.8;" x="26.930079" xlink:href="#mf795bae841" y="48.68218"/>
      </g>
     </g>
     <g id="text_14">
      <!-- $1.4$ -->
      <g transform="translate(7.2 52.141429)scale(0.1 -0.1)">
       <use transform="scale(0.996264)" xlink:href="#CMR17-49"/>
       <use transform="translate(45.690477 0)scale(0.996264)" xlink:href="#CMMI12-58"/>
       <use transform="translate(72.787654 0)scale(0.996264)" xlink:href="#CMR17-52"/>
      </g>
     </g>
    </g>
    <g id="ytick_9">
     <g id="line2d_29">
      <path clip-path="url(#p2a1f38f9ec)" d="M 26.930079 21.50218 
L 361.730079 21.50218 
" style="fill:none;stroke:#b0b0b0;stroke-linecap:square;stroke-width:0.8;"/>
     </g>
     <g id="line2d_30">
      <g>
       <use style="stroke:#000000;stroke-width:0.8;" x="26.930079" xlink:href="#mf795bae841" y="21.50218"/>
      </g>
     </g>
     <g id="text_15">
      <!-- $1.6$ -->
      <g transform="translate(7.2 24.961429)scale(0.1 -0.1)">
       <use transform="scale(0.996264)" xlink:href="#CMR17-49"/>
       <use transform="translate(45.690477 0)scale(0.996264)" xlink:href="#CMMI12-58"/>
       <use transform="translate(72.787654 0)scale(0.996264)" xlink:href="#CMR17-54"/>
      </g>
     </g>
    </g>
   </g>
   <g id="line2d_31">
    <path clip-path="url(#p2a1f38f9ec)" d="M 26.930079 238.94218 
L 27.769177 238.508271 
L 28.608274 237.267672 
L 29.447372 235.307194 
L 30.28647 232.707424 
L 31.125568 229.543052 
L 32.803763 221.791741 
L 34.481959 212.545017 
L 36.999252 196.765506 
L 40.355643 173.858267 
L 46.229327 133.69011 
L 49.585718 112.651781 
L 52.103011 98.297325 
L 54.620305 85.329543 
L 57.137598 73.827879 
L 58.815793 66.991952 
L 60.493989 60.822876 
L 62.172184 55.315328 
L 63.85038 50.459403 
L 65.528575 46.241491 
L 67.206771 42.645001 
L 68.884966 39.650955 
L 70.563162 37.238464 
L 72.241357 35.385123 
L 73.919553 34.067321 
L 75.597748 33.260496 
L 76.436846 33.040816 
L 77.275944 32.93934 
L 78.115041 32.952816 
L 79.793237 33.311477 
L 81.471432 34.090286 
L 83.149628 35.262448 
L 84.827823 36.800976 
L 86.506019 38.678776 
L 88.184214 40.86871 
L 89.86241 43.343675 
L 92.379703 47.531524 
L 94.896996 52.209584 
L 98.253387 59.055893 
L 102.448876 68.304275 
L 117.552635 102.523897 
L 120.909026 109.330715 
L 124.265417 115.56807 
L 126.782711 119.815105 
L 129.300004 123.656279 
L 131.817297 127.065698 
L 134.33459 130.023834 
L 136.851883 132.517438 
L 138.530079 133.918006 
L 140.208274 135.108192 
L 141.88647 136.088493 
L 143.564665 136.860503 
L 145.242861 137.42687 
L 146.921056 137.791245 
L 148.599252 137.958234 
L 150.277447 137.933341 
L 151.955643 137.722913 
L 153.633838 137.334075 
L 155.312034 136.774672 
L 157.829327 135.634509 
L 160.34662 134.160921 
L 162.863914 132.387458 
L 165.381207 130.349623 
L 168.737598 127.285251 
L 172.093989 123.906559 
L 177.128575 118.447511 
L 189.715041 104.517988 
L 193.91053 100.305556 
L 197.266921 97.233098 
L 200.623312 94.477041 
L 203.979703 92.075137 
L 206.496996 90.523298 
L 209.01429 89.194753 
L 211.531583 88.094619 
L 214.048876 87.225053 
L 216.566169 86.585362 
L 219.083462 86.172152 
L 221.600756 85.979496 
L 224.118049 85.999126 
L 226.635342 86.220644 
L 229.152635 86.631747 
L 232.509026 87.450439 
L 235.865417 88.544244 
L 239.221808 89.872802 
L 243.417297 91.798393 
L 248.451883 94.383795 
L 266.912034 104.188885 
L 271.107523 106.065504 
L 275.303011 107.696608 
L 279.4985 109.048514 
L 282.854891 109.913861 
L 286.211282 110.580312 
L 289.567673 111.046486 
L 292.924064 111.31529 
L 296.280455 111.393586 
L 300.475944 111.239735 
L 304.671432 110.8318 
L 308.866921 110.202977 
L 313.901508 109.210212 
L 319.775192 107.813273 
L 330.683462 104.914693 
L 339.07444 102.773992 
L 344.948124 101.475758 
L 350.821808 100.415788 
L 355.856395 99.728116 
L 360.890981 99.258235 
L 361.730079 99.201352 
L 361.730079 99.201352 
" style="fill:none;stroke:#0000ff;stroke-linecap:square;stroke-width:1.5;"/>
   </g>
   <g id="line2d_32">
    <path clip-path="url(#p2a1f38f9ec)" d="M 26.930079 238.94218 
L 27.769177 238.081083 
L 28.608274 235.648945 
L 29.447372 231.866092 
L 30.28647 226.942904 
L 31.964665 214.458856 
L 33.642861 199.633265 
L 39.516545 144.813164 
L 41.194741 131.277809 
L 42.872936 119.424808 
L 44.551132 109.396586 
L 46.229327 101.216153 
L 47.907523 94.813832 
L 48.74662 92.238531 
L 49.585718 90.052193 
L 50.424816 88.230727 
L 51.263914 86.748439 
L 52.103011 85.578564 
L 52.942109 84.693739 
L 53.781207 84.06643 
L 54.620305 83.669307 
L 55.459402 83.475567 
L 56.2985 83.459214 
L 57.137598 83.595289 
L 58.815793 84.231197 
L 60.493989 85.210698 
L 63.011282 87.008477 
L 66.367673 89.449316 
L 68.884966 90.999734 
L 70.563162 91.826159 
L 72.241357 92.468906 
L 73.919553 92.927632 
L 75.597748 93.211989 
L 78.115041 93.349733 
L 80.632335 93.208342 
L 83.988726 92.728326 
L 96.575192 90.509374 
L 100.77068 90.147417 
L 104.966169 90.029391 
L 110.000756 90.149963 
L 115.87444 90.539009 
L 124.265417 91.350084 
L 136.012786 92.732797 
L 149.43835 94.5424 
L 190.554139 100.272808 
L 203.140605 101.692048 
L 214.887974 102.792264 
L 226.635342 103.664619 
L 238.382711 104.312724 
L 250.969177 104.775231 
L 264.394741 105.03544 
L 279.4985 105.091801 
L 297.119553 104.923794 
L 321.453387 104.450036 
L 361.730079 103.545292 
L 361.730079 103.545292 
" style="fill:none;stroke:#ff0000;stroke-linecap:square;stroke-width:1.5;"/>
   </g>
   <g id="line2d_33">
    <path clip-path="url(#p2a1f38f9ec)" d="M 26.930079 238.94218 
L 27.769177 237.654345 
L 28.608274 234.036986 
L 29.447372 228.457039 
L 30.28647 221.272906 
L 31.964665 203.448304 
L 37.83835 133.388022 
L 39.516545 117.363075 
L 41.194741 104.522293 
L 42.033838 99.353601 
L 42.872936 95.01231 
L 43.712034 91.473729 
L 44.551132 88.70056 
L 45.390229 86.645255 
L 46.229327 85.252278 
L 47.068425 84.460223 
L 47.907523 84.203783 
L 48.74662 84.415538 
L 49.585718 85.027556 
L 50.424816 85.972801 
L 51.263914 87.186332 
L 52.942109 90.174865 
L 57.976696 100.083806 
L 59.654891 102.774474 
L 61.333086 104.904902 
L 63.011282 106.431712 
L 63.85038 106.970702 
L 64.689477 107.366784 
L 65.528575 107.627747 
L 66.367673 107.763076 
L 68.045868 107.700836 
L 69.724064 107.275136 
L 71.402259 106.585325 
L 73.919553 105.261235 
L 78.954139 102.492558 
L 81.471432 101.369458 
L 83.988726 100.510057 
L 86.506019 99.908813 
L 89.023312 99.524739 
L 92.379703 99.249342 
L 99.092485 99.01563 
L 105.805267 98.690782 
L 115.87444 97.912008 
L 125.104515 97.296961 
L 134.33459 96.928266 
L 146.921056 96.678231 
L 160.34662 96.624568 
L 174.611282 96.793353 
L 191.393237 97.225497 
L 212.37068 98.004464 
L 246.773688 99.550835 
L 287.889477 101.344263 
L 315.579703 102.322262 
L 341.591733 103.016055 
L 361.730079 103.400755 
L 361.730079 103.400755 
" style="fill:none;stroke:#000000;stroke-linecap:square;stroke-width:1.5;"/>
   </g>
   <g id="patch_3">
    <path d="M 26.930079 238.94218 
L 26.930079 21.50218 
" style="fill:none;stroke:#000000;stroke-linecap:square;stroke-linejoin:miter;stroke-width:0.8;"/>
   </g>
   <g id="patch_4">
    <path d="M 361.730079 238.94218 
L 361.730079 21.50218 
" style="fill:none;stroke:#000000;stroke-linecap:square;stroke-linejoin:miter;stroke-width:0.8;"/>
   </g>
   <g id="patch_5">
    <path d="M 26.930079 238.94218 
L 361.730079 238.94218 
" style="fill:none;stroke:#000000;stroke-linecap:square;stroke-linejoin:miter;stroke-width:0.8;"/>
   </g>
   <g id="patch_6">
    <path d="M 26.930079 21.50218 
L 361.730079 21.50218 
" style="fill:none;stroke:#000000;stroke-linecap:square;stroke-linejoin:miter;stroke-width:0.8;"/>
   </g>
   <g id="text_16">
    <!-- Step Response -->
    <defs>
     <path d="M 43.703125 65.140625 
C 39.296875 67.71875 34.5 70 26.40625 70 
C 13.5 70 5.203125 60.609375 5.203125 51.03125 
C 5.203125 47.265625 6.296875 43.015625 10.203125 38.671875 
C 14.09375 34.3125 18.5 33.140625 24.09375 31.765625 
C 26.40625 31.15625 30.296875 30.0625 31 29.78125 
C 36.59375 27.609375 39.296875 22.5625 39.296875 17.8125 
C 39.296875 11.59375 34.40625 4.96875 25.703125 4.96875 
C 22.703125 4.96875 13.90625 4.96875 5.59375 12.796875 
L 4.203125 4.96875 
C 12.40625 -1 21.296875 -2 25.796875 -2 
C 38.09375 -2 46.90625 7.625 46.90625 18.53125 
C 46.90625 22.5 45.703125 27.546875 41.5 32.203125 
C 37.40625 36.671875 33.796875 37.65625 25.59375 39.828125 
C 20.90625 41.03125 17.90625 41.828125 15.40625 44.890625 
C 13.703125 47.078125 12.796875 49.15625 12.796875 51.828125 
C 12.796875 57.390625 17.59375 63.4375 26.40625 63.4375 
C 30.796875 63.4375 36.5 62.53125 42.296875 57.1875 
z
" id="CMSS17-83"/>
     <path d="M 16.703125 37 
L 29.703125 37 
L 29.703125 42.765625 
L 16.703125 42.765625 
L 16.703125 55 
L 9.59375 55 
L 9.59375 42.765625 
L 1.703125 42.765625 
L 1.703125 37 
L 9.40625 37 
L 9.40625 11.703125 
C 9.40625 6 10.703125 -1 17.296875 -1 
C 22.296875 -1 26.90625 0.390625 31.296875 2.6875 
L 29.703125 8.5625 
C 27.296875 6.46875 24.40625 5.265625 21.296875 5.265625 
C 16.90625 5.265625 16.703125 10.875 16.703125 13.375 
z
" id="CMSS17-116"/>
     <path d="M 39.09375 21.515625 
C 39.09375 24.84375 38.90625 31.296875 35.703125 36.640625 
C 32.203125 42.390625 26.5 44 22.203125 44 
C 11.796875 44 3 34.1875 3 21.484375 
C 3 9.09375 12.09375 -1 23.59375 -1 
C 28.09375 -1 33.59375 0.296875 38.59375 3.875 
C 38.59375 4.28125 38.40625 6.46875 38.296875 6.5625 
C 38.296875 6.765625 38 9.84375 38 10.25 
C 33.203125 6.359375 27.703125 5.078125 23.703125 5.078125 
C 17.296875 5.078125 10.40625 10.421875 10.09375 21.515625 
z
M 10.90625 27 
C 12.203125 32.5625 16.59375 37.828125 22.203125 37.828125 
C 23.703125 37.828125 30.703125 37.828125 32.5 27 
z
" id="CMSS17-101"/>
     <path d="M 15.09375 5.203125 
C 18.40625 2.015625 22.90625 -0.078125 27.703125 -0.078125 
C 37 -0.078125 45 9.421875 45 22.0625 
C 45 33.734375 39 44 30.40625 44 
C 25.40625 44 19.40625 42.21875 14.90625 38.625 
L 14.90625 43.203125 
L 7.5 43.203125 
L 7.5 -19 
L 15.09375 -19 
z
M 15.09375 32.8125 
C 15.90625 34 19.296875 37.734375 24.796875 37.734375 
C 31.796875 37.734375 37.40625 30.625 37.40625 22.0625 
C 37.40625 12.296875 30.59375 6 23.90625 6 
C 21.90625 6 19.796875 6.484375 17.796875 8.171875 
C 15.09375 10.53125 15.09375 12 15.09375 13.390625 
z
" id="CMSS17-112"/>
     <path d="M 39.40625 32.953125 
L 39.59375 33.046875 
C 55.203125 38.421875 55.296875 49.171875 55.296875 51.0625 
C 55.296875 60.515625 45.703125 69.578125 31.296875 69.578125 
L 8.90625 69.578125 
L 8.90625 0.5 
L 17.09375 0.5 
L 17.09375 32 
L 31.796875 32 
L 49.5 0.5 
L 57.90625 0.5 
z
M 17.09375 38.078125 
L 17.09375 64 
L 30.203125 64 
C 42.90625 64 47.40625 56.828125 47.40625 51.046875 
C 47.40625 45.65625 43.40625 38.078125 30.203125 38.078125 
z
" id="CMSS17-82"/>
     <path d="M 32.203125 41.046875 
C 26.296875 43.859375 21.703125 43.859375 18.703125 43.859375 
C 11.59375 43.859375 3.09375 41.375 3.09375 31.296875 
C 3.09375 21.234375 14.09375 19.03125 17.09375 18.421875 
C 21.703125 17.53125 26.796875 16.53125 26.796875 11.5625 
C 26.796875 5.265625 19.59375 5.265625 18.296875 5.265625 
C 14.296875 5.265625 8.796875 6.359375 3.796875 9.96875 
L 2.59375 3.28125 
C 8.296875 0 13.796875 -1 18.40625 -1 
C 30.703125 -1 33.796875 6.5 33.796875 12.203125 
C 33.796875 17.09375 31 20.390625 29.09375 21.890625 
C 25.796875 24.5 24.59375 24.796875 16.40625 26.5 
C 15 26.703125 10.09375 27.796875 10.09375 32.28125 
C 10.09375 38 16.40625 38 17.796875 38 
C 24.296875 38 28.296875 35.984375 31 34.5 
z
" id="CMSS17-115"/>
     <path d="M 44.203125 21.1875 
C 44.203125 34 34.703125 44 23.5 44 
C 12 44 2.703125 33.703125 2.703125 21.1875 
C 2.703125 8.5 12.296875 -1 23.40625 -1 
C 34.796875 -1 44.203125 8.796875 44.203125 21.1875 
M 23.5 5.265625 
C 16.40625 5.265625 10.296875 11.078125 10.296875 22 
C 10.296875 33.609375 17.40625 37.921875 23.40625 37.921875 
C 29.90625 37.921875 36.59375 33.21875 36.59375 22 
C 36.59375 10.671875 30.09375 5.265625 23.5 5.265625 
" id="CMSS17-111"/>
     <path d="M 40.90625 29.328125 
C 40.90625 35.671875 39.40625 44 28.09375 44 
C 21.703125 44 17.5 40.71875 14.703125 37.328125 
L 14.703125 43.09375 
L 7.40625 43.09375 
L 7.40625 0 
L 15 0 
L 15 24.359375 
C 15 30.6875 17.40625 37.9375 24.203125 37.9375 
C 33 37.9375 33.296875 32 33.296875 28.578125 
L 33.296875 0 
L 40.90625 0 
z
" id="CMSS17-110"/>
    </defs>
    <g transform="translate(158.85865 15.50218)scale(0.12 -0.12)">
     <use transform="scale(0.996264)" xlink:href="#CMSS17-83"/>
     <use transform="translate(52.048516 0)scale(0.996264)" xlink:href="#CMSS17-116"/>
     <use transform="translate(85.880083 0)scale(0.996264)" xlink:href="#CMSS17-101"/>
     <use transform="translate(127.518905 0)scale(0.996264)" xlink:href="#CMSS17-112"/>
     <use transform="translate(206.952961 0)scale(0.996264)" xlink:href="#CMSS17-82"/>
     <use transform="translate(267.369116 0)scale(0.996264)" xlink:href="#CMSS17-101"/>
     <use transform="translate(309.007938 0)scale(0.996264)" xlink:href="#CMSS17-115"/>
     <use transform="translate(344.92148 0)scale(0.996264)" xlink:href="#CMSS17-112"/>
     <use transform="translate(395.728862 0)scale(0.996264)" xlink:href="#CMSS17-111"/>
     <use transform="translate(442.572485 0)scale(0.996264)" xlink:href="#CMSS17-110"/>
     <use transform="translate(490.777428 0)scale(0.996264)" xlink:href="#CMSS17-115"/>
     <use transform="translate(526.69097 0)scale(0.996264)" xlink:href="#CMSS17-101"/>
    </g>
   </g>
  </g>
 </g>
 <defs>
  <clipPath id="p2a1f38f9ec">
   <rect height="217.44" width="334.8" x="26.930079" y="21.50218"/>
  </clipPath>
 </defs>
</svg>
