<?xml version="1.0" encoding="utf-8" standalone="no"?>
<!DOCTYPE svg PUBLIC "-//W3C//DTD SVG 1.1//EN"
  "http://www.w3.org/Graphics/SVG/1.1/DTD/svg11.dtd">
<!-- Created with matplotlib (http://matplotlib.org/) -->
<svg height="276pt" version="1.1" viewBox="0 0 394 276" width="394pt" xmlns="http://www.w3.org/2000/svg" xmlns:xlink="http://www.w3.org/1999/xlink">
 <defs>
  <style type="text/css">
*{stroke-linecap:butt;stroke-linejoin:round;}
  </style>
 </defs>
 <g id="figure_1">
  <g id="patch_1">
   <path d="M 0 276.624693 
L 394.515835 276.624693 
L 394.515835 0 
L 0 0 
z
" style="fill:none;"/>
  </g>
  <g id="axes_1">
   <g id="patch_2">
    <path d="M 47.534499 239.606376 
L 382.334499 239.606376 
L 382.334499 22.166376 
L 47.534499 22.166376 
z
" style="fill:#ffffff;"/>
   </g>
   <g id="matplotlib.axis_1">
    <g id="xtick_1">
     <g id="line2d_1">
      <path clip-path="url(#p31431ff2e9)" d="M 47.534499 239.606376 
L 47.534499 22.166376 
" style="fill:none;stroke:#b0b0b0;stroke-linecap:square;stroke-width:0.8;"/>
     </g>
     <g id="line2d_2">
      <defs>
       <path d="M 0 0 
L 0 3.5 
" id="m30ea3db669" style="stroke:#000000;stroke-width:0.8;"/>
      </defs>
      <g>
       <use style="stroke:#000000;stroke-width:0.8;" x="47.534499" xlink:href="#m30ea3db669" y="239.606376"/>
      </g>
     </g>
     <g id="text_1">
      <!-- $0$ -->
      <defs>
       <path d="M 42 31.640625 
C 42 37.75 41.90625 48.125 37.703125 56.109375 
C 34 63.109375 28.09375 65.59375 22.90625 65.59375 
C 18.09375 65.59375 12 63.40625 8.203125 56.203125 
C 4.203125 48.71875 3.796875 39.4375 3.796875 31.640625 
C 3.796875 25.953125 3.90625 17.28125 7 9.671875 
C 11.296875 -0.609375 19 -2 22.90625 -2 
C 27.5 -2 34.5 -0.109375 38.59375 9.375 
C 41.59375 16.28125 42 24.359375 42 31.640625 
M 22.90625 -0.40625 
C 16.5 -0.40625 12.703125 5.078125 11.296875 12.6875 
C 10.203125 18.5625 10.203125 27.15625 10.203125 32.75 
C 10.203125 40.4375 10.203125 46.828125 11.5 52.921875 
C 13.40625 61.390625 19 64 22.90625 64 
C 27 64 32.296875 61.296875 34.203125 53.125 
C 35.5 47.4375 35.59375 40.734375 35.59375 32.75 
C 35.59375 26.25 35.59375 18.265625 34.40625 12.375 
C 32.296875 1.484375 26.40625 -0.40625 22.90625 -0.40625 
" id="CMR17-48"/>
      </defs>
      <g transform="translate(45.043832 253.524874)scale(0.1 -0.1)">
       <use transform="scale(0.996264)" xlink:href="#CMR17-48"/>
      </g>
     </g>
    </g>
    <g id="xtick_2">
     <g id="line2d_3">
      <path clip-path="url(#p31431ff2e9)" d="M 114.494499 239.606376 
L 114.494499 22.166376 
" style="fill:none;stroke:#b0b0b0;stroke-linecap:square;stroke-width:0.8;"/>
     </g>
     <g id="line2d_4">
      <g>
       <use style="stroke:#000000;stroke-width:0.8;" x="114.494499" xlink:href="#m30ea3db669" y="239.606376"/>
      </g>
     </g>
     <g id="text_2">
      <!-- $2$ -->
      <defs>
       <path d="M 41.703125 15.453125 
L 39.90625 15.453125 
C 38.90625 8.375 38.09375 7.171875 37.703125 6.5625 
C 37.203125 5.765625 30 5.765625 28.59375 5.765625 
L 9.40625 5.765625 
C 13 9.671875 20 16.75 28.5 24.953125 
C 34.59375 30.734375 41.703125 37.53125 41.703125 47.421875 
C 41.703125 59.21875 32.296875 66 21.796875 66 
C 10.796875 66 4.09375 56.3125 4.09375 47.34375 
C 4.09375 43.4375 7 42.9375 8.203125 42.9375 
C 9.203125 42.9375 12.203125 43.546875 12.203125 47.03125 
C 12.203125 50.109375 9.59375 51 8.203125 51 
C 7.59375 51 7 50.90625 6.59375 50.703125 
C 8.5 59.21875 14.296875 63.40625 20.40625 63.40625 
C 29.09375 63.40625 34.796875 56.515625 34.796875 47.421875 
C 34.796875 38.734375 29.703125 31.25 24 24.75 
L 4.09375 2.28125 
L 4.09375 0 
L 39.296875 0 
z
" id="CMR17-50"/>
      </defs>
      <g transform="translate(112.003832 253.524874)scale(0.1 -0.1)">
       <use transform="scale(0.996264)" xlink:href="#CMR17-50"/>
      </g>
     </g>
    </g>
    <g id="xtick_3">
     <g id="line2d_5">
      <path clip-path="url(#p31431ff2e9)" d="M 181.454499 239.606376 
L 181.454499 22.166376 
" style="fill:none;stroke:#b0b0b0;stroke-linecap:square;stroke-width:0.8;"/>
     </g>
     <g id="line2d_6">
      <g>
       <use style="stroke:#000000;stroke-width:0.8;" x="181.454499" xlink:href="#m30ea3db669" y="239.606376"/>
      </g>
     </g>
     <g id="text_3">
      <!-- $4$ -->
      <defs>
       <path d="M 33.59375 64.40625 
C 33.59375 66.5 33.5 66.5 31.703125 66.5 
L 2 19.59375 
L 2 17 
L 27.796875 17 
L 27.796875 7.140625 
C 27.796875 3.5 27.59375 2.5 20.59375 2.5 
L 18.703125 2.5 
L 18.703125 0 
C 21.90625 0 27.296875 0 30.703125 0 
C 34.09375 0 39.5 0 42.703125 0 
L 42.703125 2.5 
L 40.796875 2.5 
C 33.796875 2.5 33.59375 3.5 33.59375 7.140625 
L 33.59375 17 
L 43.796875 17 
L 43.796875 19.59375 
L 33.59375 19.59375 
z
M 28.09375 57.859375 
L 28.09375 19.59375 
L 4 19.59375 
z
" id="CMR17-52"/>
      </defs>
      <g transform="translate(178.963832 253.524874)scale(0.1 -0.1)">
       <use transform="scale(0.996264)" xlink:href="#CMR17-52"/>
      </g>
     </g>
    </g>
    <g id="xtick_4">
     <g id="line2d_7">
      <path clip-path="url(#p31431ff2e9)" d="M 248.414499 239.606376 
L 248.414499 22.166376 
" style="fill:none;stroke:#b0b0b0;stroke-linecap:square;stroke-width:0.8;"/>
     </g>
     <g id="line2d_8">
      <g>
       <use style="stroke:#000000;stroke-width:0.8;" x="248.414499" xlink:href="#m30ea3db669" y="239.606376"/>
      </g>
     </g>
     <g id="text_4">
      <!-- $6$ -->
      <defs>
       <path d="M 10.59375 34 
C 10.59375 57.65625 21.796875 63 28.296875 63 
C 30.40625 63 35.5 62.640625 37.5 59 
C 35.90625 59 32.90625 59 32.90625 55.515625 
C 32.90625 52.828125 35.09375 51.921875 36.5 51.921875 
C 37.40625 51.921875 40.09375 52.3125 40.09375 55.625 
C 40.09375 61.78125 35.09375 65.296875 28.203125 65.296875 
C 16.296875 65.296875 3.796875 52.96875 3.796875 31 
C 3.796875 3.953125 15.09375 -2 23.09375 -2 
C 32.796875 -2 42 6.671875 42 20.046875 
C 42 32.515625 33.90625 41.59375 23.703125 41.59375 
C 17.59375 41.59375 13.09375 37.609375 10.59375 30.625 
z
M 23.09375 0.390625 
C 10.796875 0.390625 10.796875 18.75 10.796875 22.4375 
C 10.796875 29.625 14.203125 40 23.5 40 
C 25.203125 40 30.09375 40 33.40625 33.125 
C 35.203125 29.21875 35.203125 25.140625 35.203125 20.140625 
C 35.203125 14.75 35.203125 10.78125 33.09375 6.78125 
C 30.90625 2.671875 27.703125 0.390625 23.09375 0.390625 
" id="CMR17-54"/>
      </defs>
      <g transform="translate(245.923832 253.524874)scale(0.1 -0.1)">
       <use transform="scale(0.996264)" xlink:href="#CMR17-54"/>
      </g>
     </g>
    </g>
    <g id="xtick_5">
     <g id="line2d_9">
      <path clip-path="url(#p31431ff2e9)" d="M 315.374499 239.606376 
L 315.374499 22.166376 
" style="fill:none;stroke:#b0b0b0;stroke-linecap:square;stroke-width:0.8;"/>
     </g>
     <g id="line2d_10">
      <g>
       <use style="stroke:#000000;stroke-width:0.8;" x="315.374499" xlink:href="#m30ea3db669" y="239.606376"/>
      </g>
     </g>
     <g id="text_5">
      <!-- $8$ -->
      <defs>
       <path d="M 27.203125 35.375 
C 33.5 38.546875 39.90625 43.328125 39.90625 50.984375 
C 39.90625 60.015625 31.09375 65.296875 23 65.296875 
C 13.90625 65.296875 5.90625 58.734375 5.90625 49.6875 
C 5.90625 47.203125 6.5 42.921875 10.40625 39.140625 
C 11.40625 38.15625 15.59375 35.171875 18.296875 33.28125 
C 13.796875 30.984375 3.296875 25.53125 3.296875 14.59375 
C 3.296875 4.359375 13.09375 -2 22.796875 -2 
C 33.5 -2 42.5 5.65625 42.5 15.78125 
C 42.5 24.84375 36.40625 29.015625 32.40625 31.703125 
z
M 14.09375 44.09375 
C 13.296875 44.59375 9.296875 47.671875 9.296875 52.359375 
C 9.296875 58.421875 15.59375 63 22.796875 63 
C 30.703125 63 36.5 57.4375 36.5 50.96875 
C 36.5 41.703125 26.09375 36.421875 25.59375 36.421875 
C 25.5 36.421875 25.40625 36.421875 24.59375 37.03125 
z
M 32.5 23.734375 
C 34 22.640625 38.796875 19.375 38.796875 13.296875 
C 38.796875 5.953125 31.40625 0.390625 23 0.390625 
C 13.90625 0.390625 7 6.84375 7 14.6875 
C 7 22.546875 13.09375 29.09375 20 32.1875 
z
" id="CMR17-56"/>
      </defs>
      <g transform="translate(312.883832 253.524874)scale(0.1 -0.1)">
       <use transform="scale(0.996264)" xlink:href="#CMR17-56"/>
      </g>
     </g>
    </g>
    <g id="xtick_6">
     <g id="line2d_11">
      <path clip-path="url(#p31431ff2e9)" d="M 382.334499 239.606376 
L 382.334499 22.166376 
" style="fill:none;stroke:#b0b0b0;stroke-linecap:square;stroke-width:0.8;"/>
     </g>
     <g id="line2d_12">
      <g>
       <use style="stroke:#000000;stroke-width:0.8;" x="382.334499" xlink:href="#m30ea3db669" y="239.606376"/>
      </g>
     </g>
     <g id="text_6">
      <!-- $10$ -->
      <defs>
       <path d="M 26.59375 63.40625 
C 26.59375 65.5 26.5 65.5 25.09375 65.5 
C 21.203125 61.1875 15.296875 59.796875 9.703125 59.796875 
C 9.40625 59.796875 8.90625 59.796875 8.796875 59.5 
C 8.703125 59.296875 8.703125 59.09375 8.703125 57 
C 11.796875 57 17 57.59375 21 59.984375 
L 21 7.203125 
C 21 3.6875 20.796875 2.5 12.203125 2.5 
L 9.203125 2.5 
L 9.203125 0 
C 14 0 19 0 23.796875 0 
C 28.59375 0 33.59375 0 38.40625 0 
L 38.40625 2.5 
L 35.40625 2.5 
C 26.796875 2.5 26.59375 3.59375 26.59375 7.15625 
z
" id="CMR17-49"/>
      </defs>
      <g transform="translate(377.353164 253.524874)scale(0.1 -0.1)">
       <use transform="scale(0.996264)" xlink:href="#CMR17-49"/>
       <use transform="translate(45.690477 0)scale(0.996264)" xlink:href="#CMR17-48"/>
      </g>
     </g>
    </g>
    <g id="text_7">
     <!-- t/sec -->
     <defs>
      <path d="M 16.703125 37 
L 29.703125 37 
L 29.703125 42.765625 
L 16.703125 42.765625 
L 16.703125 55 
L 9.59375 55 
L 9.59375 42.765625 
L 1.703125 42.765625 
L 1.703125 37 
L 9.40625 37 
L 9.40625 11.703125 
C 9.40625 6 10.703125 -1 17.296875 -1 
C 22.296875 -1 26.90625 0.390625 31.296875 2.6875 
L 29.703125 8.5625 
C 27.296875 6.46875 24.40625 5.265625 21.296875 5.265625 
C 16.90625 5.265625 16.703125 10.875 16.703125 13.375 
z
" id="CMSS17-116"/>
      <path d="M 41.203125 71.015625 
C 41.703125 72.296875 41.703125 72.5 41.703125 72.703125 
C 41.703125 73.890625 40.796875 74.5 40 74.5 
C 38.796875 74.5 38.40625 73.703125 38 72.5 
L 5.703125 -21.515625 
C 5.203125 -22.8125 5.203125 -23.015625 5.203125 -23.21875 
C 5.203125 -24.40625 6.09375 -25 6.90625 -25 
C 8.09375 -25 8.5 -24.203125 8.90625 -23.015625 
z
" id="CMSS17-47"/>
      <path d="M 32.203125 41.046875 
C 26.296875 43.859375 21.703125 43.859375 18.703125 43.859375 
C 11.59375 43.859375 3.09375 41.375 3.09375 31.296875 
C 3.09375 21.234375 14.09375 19.03125 17.09375 18.421875 
C 21.703125 17.53125 26.796875 16.53125 26.796875 11.5625 
C 26.796875 5.265625 19.59375 5.265625 18.296875 5.265625 
C 14.296875 5.265625 8.796875 6.359375 3.796875 9.96875 
L 2.59375 3.28125 
C 8.296875 0 13.796875 -1 18.40625 -1 
C 30.703125 -1 33.796875 6.5 33.796875 12.203125 
C 33.796875 17.09375 31 20.390625 29.09375 21.890625 
C 25.796875 24.5 24.59375 24.796875 16.40625 26.5 
C 15 26.703125 10.09375 27.796875 10.09375 32.28125 
C 10.09375 38 16.40625 38 17.796875 38 
C 24.296875 38 28.296875 35.984375 31 34.5 
z
" id="CMSS17-115"/>
      <path d="M 39.09375 21.515625 
C 39.09375 24.84375 38.90625 31.296875 35.703125 36.640625 
C 32.203125 42.390625 26.5 44 22.203125 44 
C 11.796875 44 3 34.1875 3 21.484375 
C 3 9.09375 12.09375 -1 23.59375 -1 
C 28.09375 -1 33.59375 0.296875 38.59375 3.875 
C 38.59375 4.28125 38.40625 6.46875 38.296875 6.5625 
C 38.296875 6.765625 38 9.84375 38 10.25 
C 33.203125 6.359375 27.703125 5.078125 23.703125 5.078125 
C 17.296875 5.078125 10.40625 10.421875 10.09375 21.515625 
z
M 10.90625 27 
C 12.203125 32.5625 16.59375 37.828125 22.203125 37.828125 
C 23.703125 37.828125 30.703125 37.828125 32.5 27 
z
" id="CMSS17-101"/>
      <path d="M 38.5 39.703125 
C 38.5 40.390625 33.90625 42.40625 32.703125 42.796875 
C 29.40625 44 25.203125 44 24.09375 44 
C 11.09375 44 3.296875 32.703125 3.296875 21.296875 
C 3.296875 9.296875 12 -1 23.703125 -1 
C 30.40625 -1 35.203125 1.1875 39.09375 3.78125 
L 38.5 10.375 
C 34.203125 7.078125 29.203125 5.265625 23.796875 5.265625 
C 16 5.265625 10.90625 12.09375 10.90625 21.390625 
C 10.90625 28.609375 14.203125 37.71875 24.203125 37.71875 
C 29.703125 37.71875 32.796875 36.609375 37.40625 33.515625 
z
" id="CMSS17-99"/>
     </defs>
     <g transform="translate(204.307678 266.934033)scale(0.1 -0.1)">
      <use transform="scale(0.996264)" xlink:href="#CMSS17-116"/>
      <use transform="translate(33.831567 0)scale(0.996264)" xlink:href="#CMSS17-47"/>
      <use transform="translate(80.67519 0)scale(0.996264)" xlink:href="#CMSS17-115"/>
      <use transform="translate(116.588732 0)scale(0.996264)" xlink:href="#CMSS17-101"/>
      <use transform="translate(158.227554 0)scale(0.996264)" xlink:href="#CMSS17-99"/>
     </g>
    </g>
   </g>
   <g id="matplotlib.axis_2">
    <g id="ytick_1">
     <g id="line2d_13">
      <path clip-path="url(#p31431ff2e9)" d="M 47.534499 239.606376 
L 382.334499 239.606376 
" style="fill:none;stroke:#b0b0b0;stroke-linecap:square;stroke-width:0.8;"/>
     </g>
     <g id="line2d_14">
      <defs>
       <path d="M 0 0 
L -3.5 0 
" id="m07b2adedbb" style="stroke:#000000;stroke-width:0.8;"/>
      </defs>
      <g>
       <use style="stroke:#000000;stroke-width:0.8;" x="47.534499" xlink:href="#m07b2adedbb" y="239.606376"/>
      </g>
     </g>
     <g id="text_8">
      <!-- $-2.0$ -->
      <defs>
       <path d="M 65.90625 23 
C 67.59375 23 69.40625 23 69.40625 25 
C 69.40625 27 67.59375 27 65.90625 27 
L 11.796875 27 
C 10.09375 27 8.296875 27 8.296875 25 
C 8.296875 23 10.09375 23 11.796875 23 
z
" id="CMSY10-0"/>
       <path d="M 18.40625 4.796875 
C 18.40625 7.6875 16 9.671875 13.59375 9.671875 
C 10.703125 9.671875 8.703125 7.28125 8.703125 4.890625 
C 8.703125 2 11.09375 0 13.5 0 
C 16.40625 0 18.40625 2.390625 18.40625 4.796875 
" id="CMMI12-58"/>
      </defs>
      <g transform="translate(20.055677 243.065625)scale(0.1 -0.1)">
       <use transform="scale(0.996264)" xlink:href="#CMSY10-0"/>
       <use transform="translate(77.487468 0)scale(0.996264)" xlink:href="#CMR17-50"/>
       <use transform="translate(123.177945 0)scale(0.996264)" xlink:href="#CMMI12-58"/>
       <use transform="translate(150.275122 0)scale(0.996264)" xlink:href="#CMR17-48"/>
      </g>
     </g>
    </g>
    <g id="ytick_2">
     <g id="line2d_15">
      <path clip-path="url(#p31431ff2e9)" d="M 47.534499 212.426376 
L 382.334499 212.426376 
" style="fill:none;stroke:#b0b0b0;stroke-linecap:square;stroke-width:0.8;"/>
     </g>
     <g id="line2d_16">
      <g>
       <use style="stroke:#000000;stroke-width:0.8;" x="47.534499" xlink:href="#m07b2adedbb" y="212.426376"/>
      </g>
     </g>
     <g id="text_9">
      <!-- $-1.5$ -->
      <defs>
       <path d="M 11.40625 57.6875 
C 12.40625 57.28125 16.5 56 20.703125 56 
C 30 56 35.09375 61.109375 38 64.0625 
C 38 64.953125 38 65.5 37.40625 65.5 
C 37.296875 65.5 37.09375 65.5 36.296875 65.046875 
C 32.796875 63.40625 28.703125 62.078125 23.703125 62.078125 
C 20.703125 62.078125 16.203125 62.484375 11.296875 64.671875 
C 10.203125 65.171875 10 65.171875 9.90625 65.171875 
C 9.40625 65.171875 9.296875 65.0625 9.296875 63.078125 
L 9.296875 34.421875 
C 9.296875 32.640625 9.296875 32.140625 10.296875 32.140625 
C 10.796875 32.140625 11 32.34375 11.5 33.03125 
C 14.703125 37.515625 19.09375 39.40625 24.09375 39.40625 
C 27.59375 39.40625 35.09375 37.21875 35.09375 20.140625 
C 35.09375 16.953125 35.09375 11.171875 32.09375 6.578125 
C 29.59375 2.484375 25.703125 0.390625 21.40625 0.390625 
C 14.796875 0.390625 8.09375 5 6.296875 12.71875 
C 6.703125 12.609375 7.5 12.421875 7.90625 12.421875 
C 9.203125 12.421875 11.703125 13.125 11.703125 16.21875 
C 11.703125 18.90625 9.796875 20 7.90625 20 
C 5.59375 20 4.09375 18.59375 4.09375 15.796875 
C 4.09375 7.09375 11 -2 21.59375 -2 
C 31.90625 -2 41.703125 6.875 41.703125 19.75 
C 41.703125 31.71875 33.90625 41 24.203125 41 
C 19.09375 41 14.796875 39.109375 11.40625 35.53125 
z
" id="CMR17-53"/>
      </defs>
      <g transform="translate(20.055677 215.885625)scale(0.1 -0.1)">
       <use transform="scale(0.996264)" xlink:href="#CMSY10-0"/>
       <use transform="translate(77.487468 0)scale(0.996264)" xlink:href="#CMR17-49"/>
       <use transform="translate(123.177945 0)scale(0.996264)" xlink:href="#CMMI12-58"/>
       <use transform="translate(150.275122 0)scale(0.996264)" xlink:href="#CMR17-53"/>
      </g>
     </g>
    </g>
    <g id="ytick_3">
     <g id="line2d_17">
      <path clip-path="url(#p31431ff2e9)" d="M 47.534499 185.246376 
L 382.334499 185.246376 
" style="fill:none;stroke:#b0b0b0;stroke-linecap:square;stroke-width:0.8;"/>
     </g>
     <g id="line2d_18">
      <g>
       <use style="stroke:#000000;stroke-width:0.8;" x="47.534499" xlink:href="#m07b2adedbb" y="185.246376"/>
      </g>
     </g>
     <g id="text_10">
      <!-- $-1.0$ -->
      <g transform="translate(20.055677 188.705625)scale(0.1 -0.1)">
       <use transform="scale(0.996264)" xlink:href="#CMSY10-0"/>
       <use transform="translate(77.487468 0)scale(0.996264)" xlink:href="#CMR17-49"/>
       <use transform="translate(123.177945 0)scale(0.996264)" xlink:href="#CMMI12-58"/>
       <use transform="translate(150.275122 0)scale(0.996264)" xlink:href="#CMR17-48"/>
      </g>
     </g>
    </g>
    <g id="ytick_4">
     <g id="line2d_19">
      <path clip-path="url(#p31431ff2e9)" d="M 47.534499 158.066376 
L 382.334499 158.066376 
" style="fill:none;stroke:#b0b0b0;stroke-linecap:square;stroke-width:0.8;"/>
     </g>
     <g id="line2d_20">
      <g>
       <use style="stroke:#000000;stroke-width:0.8;" x="47.534499" xlink:href="#m07b2adedbb" y="158.066376"/>
      </g>
     </g>
     <g id="text_11">
      <!-- $-0.5$ -->
      <g transform="translate(20.055677 161.525625)scale(0.1 -0.1)">
       <use transform="scale(0.996264)" xlink:href="#CMSY10-0"/>
       <use transform="translate(77.487468 0)scale(0.996264)" xlink:href="#CMR17-48"/>
       <use transform="translate(123.177945 0)scale(0.996264)" xlink:href="#CMMI12-58"/>
       <use transform="translate(150.275122 0)scale(0.996264)" xlink:href="#CMR17-53"/>
      </g>
     </g>
    </g>
    <g id="ytick_5">
     <g id="line2d_21">
      <path clip-path="url(#p31431ff2e9)" d="M 47.534499 130.886376 
L 382.334499 130.886376 
" style="fill:none;stroke:#b0b0b0;stroke-linecap:square;stroke-width:0.8;"/>
     </g>
     <g id="line2d_22">
      <g>
       <use style="stroke:#000000;stroke-width:0.8;" x="47.534499" xlink:href="#m07b2adedbb" y="130.886376"/>
      </g>
     </g>
     <g id="text_12">
      <!-- $0.0$ -->
      <g transform="translate(27.80442 134.345625)scale(0.1 -0.1)">
       <use transform="scale(0.996264)" xlink:href="#CMR17-48"/>
       <use transform="translate(45.690477 0)scale(0.996264)" xlink:href="#CMMI12-58"/>
       <use transform="translate(72.787654 0)scale(0.996264)" xlink:href="#CMR17-48"/>
      </g>
     </g>
    </g>
    <g id="ytick_6">
     <g id="line2d_23">
      <path clip-path="url(#p31431ff2e9)" d="M 47.534499 103.706376 
L 382.334499 103.706376 
" style="fill:none;stroke:#b0b0b0;stroke-linecap:square;stroke-width:0.8;"/>
     </g>
     <g id="line2d_24">
      <g>
       <use style="stroke:#000000;stroke-width:0.8;" x="47.534499" xlink:href="#m07b2adedbb" y="103.706376"/>
      </g>
     </g>
     <g id="text_13">
      <!-- $0.5$ -->
      <g transform="translate(27.80442 107.165625)scale(0.1 -0.1)">
       <use transform="scale(0.996264)" xlink:href="#CMR17-48"/>
       <use transform="translate(45.690477 0)scale(0.996264)" xlink:href="#CMMI12-58"/>
       <use transform="translate(72.787654 0)scale(0.996264)" xlink:href="#CMR17-53"/>
      </g>
     </g>
    </g>
    <g id="ytick_7">
     <g id="line2d_25">
      <path clip-path="url(#p31431ff2e9)" d="M 47.534499 76.526376 
L 382.334499 76.526376 
" style="fill:none;stroke:#b0b0b0;stroke-linecap:square;stroke-width:0.8;"/>
     </g>
     <g id="line2d_26">
      <g>
       <use style="stroke:#000000;stroke-width:0.8;" x="47.534499" xlink:href="#m07b2adedbb" y="76.526376"/>
      </g>
     </g>
     <g id="text_14">
      <!-- $1.0$ -->
      <g transform="translate(27.80442 79.985625)scale(0.1 -0.1)">
       <use transform="scale(0.996264)" xlink:href="#CMR17-49"/>
       <use transform="translate(45.690477 0)scale(0.996264)" xlink:href="#CMMI12-58"/>
       <use transform="translate(72.787654 0)scale(0.996264)" xlink:href="#CMR17-48"/>
      </g>
     </g>
    </g>
    <g id="ytick_8">
     <g id="line2d_27">
      <path clip-path="url(#p31431ff2e9)" d="M 47.534499 49.346376 
L 382.334499 49.346376 
" style="fill:none;stroke:#b0b0b0;stroke-linecap:square;stroke-width:0.8;"/>
     </g>
     <g id="line2d_28">
      <g>
       <use style="stroke:#000000;stroke-width:0.8;" x="47.534499" xlink:href="#m07b2adedbb" y="49.346376"/>
      </g>
     </g>
     <g id="text_15">
      <!-- $1.5$ -->
      <g transform="translate(27.80442 52.805625)scale(0.1 -0.1)">
       <use transform="scale(0.996264)" xlink:href="#CMR17-49"/>
       <use transform="translate(45.690477 0)scale(0.996264)" xlink:href="#CMMI12-58"/>
       <use transform="translate(72.787654 0)scale(0.996264)" xlink:href="#CMR17-53"/>
      </g>
     </g>
    </g>
    <g id="ytick_9">
     <g id="line2d_29">
      <path clip-path="url(#p31431ff2e9)" d="M 47.534499 22.166376 
L 382.334499 22.166376 
" style="fill:none;stroke:#b0b0b0;stroke-linecap:square;stroke-width:0.8;"/>
     </g>
     <g id="line2d_30">
      <g>
       <use style="stroke:#000000;stroke-width:0.8;" x="47.534499" xlink:href="#m07b2adedbb" y="22.166376"/>
      </g>
     </g>
     <g id="text_16">
      <!-- $2.0$ -->
      <g transform="translate(27.80442 25.625625)scale(0.1 -0.1)">
       <use transform="scale(0.996264)" xlink:href="#CMR17-50"/>
       <use transform="translate(45.690477 0)scale(0.996264)" xlink:href="#CMMI12-58"/>
       <use transform="translate(72.787654 0)scale(0.996264)" xlink:href="#CMR17-48"/>
      </g>
     </g>
    </g>
    <g id="text_17">
     <!-- Voltage -->
     <defs>
      <path d="M 61.09375 69 
L 53.296875 69 
L 36 21.28125 
C 35.5 19.890625 32.40625 10.75 31.796875 7.5625 
L 31.703125 7.5625 
C 30.90625 11.34375 27.703125 20.1875 26 25.0625 
L 14.40625 57.375 
L 10.09375 69 
L 1.296875 69 
L 26.796875 0 
L 35.59375 0 
z
" id="CMSS17-86"/>
      <path d="M 44.203125 21.1875 
C 44.203125 34 34.703125 44 23.5 44 
C 12 44 2.703125 33.703125 2.703125 21.1875 
C 2.703125 8.5 12.296875 -1 23.40625 -1 
C 34.796875 -1 44.203125 8.796875 44.203125 21.1875 
M 23.5 5.265625 
C 16.40625 5.265625 10.296875 11.078125 10.296875 22 
C 10.296875 33.609375 17.40625 37.921875 23.40625 37.921875 
C 29.90625 37.921875 36.59375 33.21875 36.59375 22 
C 36.59375 10.671875 30.09375 5.265625 23.5 5.265625 
" id="CMSS17-111"/>
      <path d="M 14.796875 69 
L 7.40625 69 
L 7.40625 0 
L 14.796875 0 
z
" id="CMSS17-108"/>
      <path d="M 37.59375 27.984375 
C 37.59375 37.375 30.90625 43.875 21.90625 43.875 
C 17.5 43.875 12.703125 43.078125 7.203125 39.890625 
L 7.796875 33.359375 
C 10.296875 35.125 14.59375 38 21.796875 38 
C 26.90625 38 30 34.0625 30 27.84375 
L 30 24 
C 14 24 4 19.34375 4 11.34375 
C 4 7.203125 6.5 -1 14.796875 -1 
C 16.296875 -1 24.40625 -1 30.203125 3.390625 
L 30.203125 -0.296875 
L 37.59375 -0.296875 
z
M 30 12.75 
C 30 10.953125 30 8.5625 27 6.78125 
C 24.40625 5.078125 21.09375 5.078125 19.703125 5.078125 
C 14.703125 5.078125 11.296875 7.984375 11.296875 11.625 
C 11.296875 18.921875 26.90625 18.921875 30 18.921875 
z
" id="CMSS17-97"/>
      <path d="M 44.5 43.875 
C 38.796875 43.875 33.90625 42.78125 29.90625 40.890625 
C 26.59375 43.390625 23.203125 43.875 20.90625 43.875 
C 12.203125 43.875 5.59375 36.703125 5.59375 28.34375 
C 5.59375 22.9375 8.59375 18.859375 8.796875 18.671875 
C 7 16.171875 6 13.484375 6 10.5 
C 6 7 7.40625 4.515625 8.5 3.125 
C 3.296875 -0.046875 2.59375 -4.90625 2.59375 -6.796875 
C 2.59375 -14.03125 11.703125 -20 23.40625 -20 
C 35.203125 -20 44.296875 -14.03125 44.296875 -6.6875 
C 44.296875 7 29 7 24.796875 7 
L 16.703125 7 
C 15.203125 7 11.203125 7 11.203125 12.359375 
C 11.203125 14.390625 12.09375 15.6875 12.203125 15.78125 
C 13.703125 14.6875 16.796875 13 20.90625 13 
C 29.203125 13 36.09375 19.96875 36.09375 28.546875 
C 36.09375 33.3125 33.90625 36.796875 33 38 
L 33.296875 38 
C 33.59375 38 37.796875 38 39.296875 38 
C 42.5 38 42.796875 37.9375 45.59375 37.796875 
z
M 20.90625 18.46875 
C 17.5 18.46875 12.703125 20.546875 12.703125 28.484375 
C 12.703125 37.109375 18.203125 38.5 20.796875 38.5 
C 24.203125 38.5 29 36.421875 29 28.484375 
C 29 19.859375 23.5 18.46875 20.90625 18.46875 
M 24.703125 -0.15625 
C 27.09375 -0.15625 37.203125 -0.15625 37.203125 -6.90625 
C 37.203125 -11.15625 31 -14.515625 23.5 -14.515625 
C 15.90625 -14.515625 9.703125 -11.25 9.703125 -6.796875 
C 9.703125 -6.296875 9.703125 -0.15625 16.59375 -0.15625 
z
" id="CMSS17-103"/>
     </defs>
     <g transform="translate(14.118498 146.646748)rotate(-90)scale(0.1 -0.1)">
      <use transform="scale(0.996264)" xlink:href="#CMSS17-86"/>
      <use transform="translate(59.615401 0)scale(0.996264)" xlink:href="#CMSS17-111"/>
      <use transform="translate(106.459025 0)scale(0.996264)" xlink:href="#CMSS17-108"/>
      <use transform="translate(128.639748 0)scale(0.996264)" xlink:href="#CMSS17-116"/>
      <use transform="translate(162.471314 0)scale(0.996264)" xlink:href="#CMSS17-97"/>
      <use transform="translate(207.393235 0)scale(0.996264)" xlink:href="#CMSS17-103"/>
      <use transform="translate(254.236858 0)scale(0.996264)" xlink:href="#CMSS17-101"/>
     </g>
    </g>
   </g>
   <g id="line2d_31">
    <path clip-path="url(#p31431ff2e9)" d="M 47.534499 76.526376 
L 48.205441 67.380521 
L 48.876383 58.871738 
L 50.218267 44.099576 
L 51.560151 32.801165 
L 52.231093 28.601907 
L 52.902034 25.428738 
L 53.572976 23.313491 
L 54.243918 22.277385 
L 54.91486 22.330815 
L 55.585802 23.473243 
L 56.256744 25.693211 
L 56.927686 28.968447 
L 57.598628 33.266096 
L 58.26957 38.543044 
L 59.611453 51.813799 
L 60.953337 68.249533 
L 62.966163 97.370152 
L 69.00464 191.231039 
L 70.346523 208.025615 
L 71.688407 221.732596 
L 72.359349 227.251323 
L 73.030291 231.803343 
L 73.701233 235.342992 
L 74.372175 237.834762 
L 75.043117 239.253655 
L 75.714059 239.585437 
L 76.385 238.826781 
L 77.055942 236.985296 
L 77.726884 234.079456 
L 78.397826 230.138412 
L 79.068768 225.201699 
L 80.410652 212.548853 
L 81.752535 196.627364 
L 83.094419 178.074509 
L 85.107245 146.957409 
L 89.132896 83.319252 
L 90.47478 64.810509 
L 91.816664 48.946535 
L 93.158548 36.362307 
L 93.829489 31.463222 
L 94.500431 27.561523 
L 95.171373 24.69635 
L 95.842315 22.896446 
L 96.513257 22.179867 
L 97.184199 22.553801 
L 97.855141 24.014498 
L 98.526083 26.547304 
L 99.197024 30.126811 
L 99.867966 34.717109 
L 101.20985 46.73621 
L 102.551734 62.123527 
L 103.893618 80.263163 
L 105.906443 111.021913 
L 109.932095 174.965612 
L 111.273978 193.866918 
L 112.615862 210.24735 
L 113.957746 223.451259 
L 114.628688 228.691276 
L 115.29963 232.950142 
L 115.970572 236.185132 
L 116.641513 238.363795 
L 117.312455 239.464274 
L 117.983397 239.475529 
L 118.654339 238.397448 
L 119.325281 236.240846 
L 119.996223 233.027357 
L 120.667165 228.789218 
L 121.338107 223.568945 
L 122.67999 210.400797 
L 124.021874 194.049984 
L 125.363758 175.170968 
L 128.047525 132.921902 
L 130.731293 90.3502 
L 132.744119 62.297762 
L 134.086002 46.878697 
L 135.427886 34.822145 
L 136.098828 30.211444 
L 136.76977 26.610685 
L 137.440712 24.055991 
L 138.111654 22.57299 
L 138.782596 22.176558 
L 139.453537 22.870674 
L 140.124479 24.648373 
L 140.795421 27.491822 
L 141.466363 31.372497 
L 142.137305 36.251467 
L 143.479189 48.798994 
L 144.821073 64.63217 
L 146.162956 83.117255 
L 148.175782 114.176898 
L 152.201433 177.87193 
L 153.543317 196.448216 
L 154.885201 212.400307 
L 156.227085 225.089701 
L 156.898026 230.046467 
L 157.568968 234.008488 
L 158.23991 236.936016 
L 158.910852 238.799683 
L 159.581794 239.580794 
L 160.252736 239.271513 
L 160.923678 237.874942 
L 161.59462 235.405091 
L 162.265562 231.886738 
L 162.936503 227.355177 
L 164.278387 215.443977 
L 165.620271 200.148254 
L 166.962155 182.080237 
L 168.97498 151.385441 
L 173.671574 77.648793 
L 175.013457 59.844458 
L 176.355341 44.883664 
L 177.697225 33.365238 
L 178.368167 29.046915 
L 179.039109 25.750217 
L 179.710051 23.508216 
L 180.380992 22.343403 
L 181.051934 22.267463 
L 181.722876 23.281158 
L 182.393818 25.374319 
L 183.06476 28.525947 
L 183.735702 32.704427 
L 184.406644 37.867841 
L 185.748527 50.932918 
L 187.090411 67.198233 
L 188.432295 86.012746 
L 191.116063 128.205175 
L 193.79983 170.822582 
L 195.812656 198.972694 
L 197.154539 214.48262 
L 198.496423 226.646501 
L 199.167365 231.315722 
L 199.838307 234.977463 
L 200.509249 237.594991 
L 201.180191 239.142048 
L 201.851133 239.603114 
L 202.522075 238.973564 
L 203.193016 237.259714 
L 203.863958 234.478755 
L 204.5349 230.658586 
L 205.205842 225.837531 
L 206.547726 213.395767 
L 207.88961 197.651462 
L 209.231493 179.2348 
L 211.244319 148.23371 
L 215.26997 84.48405 
L 216.611854 65.840877 
L 217.953738 49.801231 
L 219.295622 37.007121 
L 219.966564 31.992847 
L 220.637505 27.970645 
L 221.308447 24.980865 
L 221.979389 23.053501 
L 222.650331 22.207885 
L 223.321273 22.452503 
L 223.992215 23.784898 
L 224.663157 26.191706 
L 225.334099 29.648782 
L 226.00504 34.121446 
L 226.675982 39.564828 
L 228.017866 53.136134 
L 229.35975 69.819491 
L 231.372576 99.191301 
L 237.411053 192.809643 
L 238.752936 209.358933 
L 240.09482 222.76726 
L 240.765762 228.120311 
L 241.436704 232.497939 
L 242.107646 235.856228 
L 242.778588 238.161488 
L 243.449529 239.390594 
L 244.120471 239.531216 
L 244.791413 238.581943 
L 245.462355 236.552297 
L 246.133297 233.462641 
L 246.804239 229.343968 
L 247.475181 224.237596 
L 248.817065 211.27605 
L 250.158948 195.096807 
L 251.500832 176.347461 
L 253.513658 145.066946 
L 257.539309 81.610034 
L 258.881193 63.304756 
L 260.223077 47.704517 
L 261.56496 35.433736 
L 262.235902 30.706161 
L 262.906844 26.983567 
L 263.577786 24.303296 
L 264.248728 22.692238 
L 264.91967 22.166553 
L 265.590612 22.731516 
L 266.261554 24.381458 
L 266.932495 27.099827 
L 267.603437 30.859355 
L 268.274379 35.622326 
L 269.616263 47.957888 
L 270.958147 63.612767 
L 272.30003 81.960356 
L 274.312856 112.901798 
L 278.338507 176.703837 
L 279.680391 195.413239 
L 281.022275 211.539873 
L 282.364159 224.43825 
L 283.035101 229.509854 
L 283.706042 233.592095 
L 284.376984 236.644021 
L 285.047926 238.635015 
L 285.718868 239.545105 
L 286.38981 239.36516 
L 287.060752 238.096987 
L 287.731694 235.753306 
L 288.402636 232.35763 
L 289.073578 227.944021 
L 289.744519 222.556758 
L 291.086403 209.086664 
L 292.428287 192.486506 
L 294.441113 163.198663 
L 300.47959 69.495034 
L 301.821473 52.862189 
L 303.163357 39.352361 
L 303.834299 33.943075 
L 304.505241 29.506297 
L 305.176183 26.086536 
L 305.847125 23.718098 
L 306.518067 22.424742 
L 307.189008 22.219443 
L 307.85995 23.104261 
L 308.530892 25.070319 
L 309.201834 28.097895 
L 309.872776 32.156616 
L 310.543718 37.205766 
L 311.885602 50.063322 
L 313.227485 66.155922 
L 314.569369 84.83944 
L 316.582195 116.06575 
L 320.607846 179.586169 
L 321.94973 197.960913 
L 323.291614 213.650916 
L 324.633497 226.028163 
L 325.304439 230.813925 
L 325.975381 234.597241 
L 326.646323 237.340159 
L 327.317265 239.015162 
L 327.988207 239.605447 
L 328.659149 239.105092 
L 329.330091 237.519117 
L 330.001032 234.863432 
L 330.671974 231.164678 
L 331.342916 226.45996 
L 332.6848 214.231035 
L 334.026684 198.666136 
L 335.368568 180.388266 
L 337.381393 149.507563 
L 341.407045 85.655398 
L 342.748928 66.880426 
L 344.090812 50.667372 
L 345.432696 37.665185 
L 346.103638 32.53643 
L 346.77458 28.394293 
L 347.445521 25.280329 
L 348.116463 23.225776 
L 348.787405 22.251244 
L 349.458347 22.366509 
L 350.129289 23.570415 
L 350.800231 25.850886 
L 351.471173 29.185043 
L 352.142115 33.539441 
L 352.813057 38.870395 
L 354.15494 52.238802 
L 355.496824 68.755176 
L 357.50965 97.958018 
L 363.548127 191.743628 
L 364.89001 208.45944 
L 366.231894 222.070292 
L 366.902836 227.535622 
L 367.573778 232.031394 
L 368.24472 235.512507 
L 368.915662 237.94404 
L 369.586604 239.301599 
L 370.257546 239.571568 
L 370.928487 238.751236 
L 371.599429 236.848835 
L 372.270371 233.883447 
L 372.941313 229.884821 
L 373.612255 224.89307 
L 374.954139 212.139957 
L 376.296022 196.134568 
L 377.637906 177.517538 
L 379.650732 146.346536 
L 382.334499 103.134539 
L 382.334499 103.134539 
" style="fill:none;stroke:#ff0000;stroke-linecap:square;stroke-width:1.5;"/>
   </g>
   <g id="line2d_32">
    <path clip-path="url(#p31431ff2e9)" d="M 47.534499 130.886376 
L 49.547325 99.799884 
L 50.889209 81.334695 
L 52.231093 65.28639 
L 53.572976 52.154168 
L 54.91486 42.367781 
L 55.585802 38.836315 
L 56.256744 36.25472 
L 56.927686 34.644091 
L 57.598628 34.016655 
L 58.26957 34.375488 
L 58.940511 35.714358 
L 59.611453 38.017678 
L 60.282395 41.260579 
L 60.953337 45.409085 
L 62.295221 56.243282 
L 63.637105 70.079533 
L 64.978988 86.359278 
L 66.991814 113.908025 
L 71.017465 170.986102 
L 72.359349 187.79941 
L 73.701233 202.335413 
L 75.043117 214.012055 
L 75.714059 218.626993 
L 76.385 222.361806 
L 77.055942 225.179016 
L 77.726884 227.050352 
L 78.397826 227.957033 
L 79.068768 227.889957 
L 79.73971 226.849792 
L 80.410652 224.846968 
L 81.081594 221.901574 
L 81.752535 218.043153 
L 82.423477 213.31041 
L 83.765361 201.420156 
L 85.107245 186.706722 
L 87.120071 160.656541 
L 93.158548 76.798074 
L 94.500431 61.813537 
L 95.842315 49.593729 
L 96.513257 44.678337 
L 97.184199 40.627761 
L 97.855141 37.482635 
L 98.526083 35.274508 
L 99.197024 34.025534 
L 99.867966 33.748241 
L 100.538908 34.445411 
L 101.20985 36.110049 
L 101.880792 38.725458 
L 102.551734 42.2654 
L 103.222676 46.694362 
L 104.56456 58.033157 
L 105.906443 72.287994 
L 107.248327 88.888305 
L 109.261153 116.713868 
L 113.286804 173.56862 
L 114.628688 190.089298 
L 115.970572 204.240305 
L 117.312455 215.455228 
L 117.983397 219.816263 
L 118.654339 223.285178 
L 119.325281 225.827173 
L 119.996223 227.416749 
L 120.667165 228.037959 
L 121.338107 227.684571 
L 122.009049 226.36013 
L 122.67999 224.077923 
L 123.350932 220.860844 
L 124.021874 216.741167 
L 125.363758 205.967965 
L 126.705642 192.189528 
L 128.047525 175.957356 
L 130.060351 148.45011 
L 134.086002 91.318318 
L 135.427886 74.445646 
L 136.76977 59.832085 
L 138.111654 48.062562 
L 138.782596 43.396527 
L 139.453537 39.608165 
L 140.124479 36.735482 
L 140.795421 34.807294 
L 141.466363 33.842945 
L 142.137305 33.852109 
L 142.808247 34.834693 
L 143.479189 36.780842 
L 144.150131 39.671031 
L 144.821073 43.476267 
L 145.492014 48.158377 
L 146.833898 59.957016 
L 148.175782 74.594691 
L 150.188608 100.56738 
L 156.227085 184.494272 
L 157.568968 199.552096 
L 158.910852 211.861488 
L 159.581794 216.826683 
L 160.252736 220.929749 
L 160.923678 224.129525 
L 161.59462 226.393912 
L 162.265562 227.700193 
L 162.936503 228.035265 
L 163.607445 227.395766 
L 164.278387 225.788112 
L 164.949329 223.22843 
L 165.620271 219.742398 
L 166.291213 215.364987 
L 167.633097 204.120182 
L 168.97498 189.944101 
L 170.316864 173.404161 
L 172.32969 145.629621 
L 176.355341 88.723373 
L 177.697225 72.142139 
L 179.039109 57.912217 
L 180.380992 46.603177 
L 181.051934 42.190541 
L 181.722876 38.667678 
L 182.393818 36.069927 
L 183.06476 34.423348 
L 183.735702 33.74446 
L 184.406644 34.040072 
L 185.077586 35.30722 
L 185.748527 37.533191 
L 186.419469 40.695656 
L 187.090411 44.762889 
L 188.432295 55.439787 
L 189.774179 69.13653 
L 191.116063 85.304887 
L 193.128888 112.755301 
L 197.154539 169.926605 
L 198.496423 186.856317 
L 199.838307 201.545762 
L 201.180191 213.406976 
L 201.851133 218.123658 
L 202.522075 221.9652 
L 203.193016 224.893064 
L 203.863958 226.877879 
L 204.5349 227.899734 
L 205.205842 227.948378 
L 205.876784 227.023323 
L 206.547726 225.133848 
L 207.218668 222.298909 
L 207.88961 218.546945 
L 208.560552 213.915594 
L 209.902435 202.208931 
L 211.244319 187.647492 
L 212.586203 170.814119 
L 215.26997 133.090643 
L 217.953738 95.017785 
L 219.966564 69.889542 
L 221.308447 56.055591 
L 222.650331 45.216836 
L 223.321273 41.061424 
L 223.992215 37.807111 
L 224.663157 35.486544 
L 225.334099 34.123001 
L 226.00504 33.730162 
L 226.675982 34.311967 
L 227.346924 35.86258 
L 228.017866 38.366445 
L 228.688808 41.798444 
L 229.35975 46.124149 
L 230.701634 57.274568 
L 232.043517 71.371392 
L 233.385401 87.850377 
L 235.398227 115.572916 
L 239.423878 172.528651 
L 240.765762 189.169856 
L 242.107646 203.478192 
L 243.449529 214.880948 
L 244.120471 219.345029 
L 244.791413 222.921717 
L 245.462355 225.575132 
L 246.133297 227.278656 
L 246.804239 228.015198 
L 247.475181 227.777372 
L 248.146123 226.567562 
L 248.817065 224.397905 
L 249.488006 221.290166 
L 250.158948 217.275521 
L 250.82989 212.394244 
L 252.171774 200.235868 
L 253.513658 185.301692 
L 255.526483 159.027967 
L 261.56496 75.389199 
L 262.906844 60.624388 
L 264.248728 48.671902 
L 264.91967 43.90474 
L 265.590612 40.010153 
L 266.261554 37.027212 
L 266.932495 34.985839 
L 267.603437 33.906515 
L 268.274379 33.800065 
L 268.945321 34.667558 
L 269.616263 36.500292 
L 270.287205 39.279881 
L 270.958147 42.978441 
L 271.629089 47.558868 
L 272.970972 59.173144 
L 274.312856 73.657832 
L 275.65474 90.433164 
L 277.667566 118.403801 
L 281.693217 175.094608 
L 283.035101 191.432884 
L 284.376984 205.34771 
L 285.718868 216.282127 
L 286.38981 220.489738 
L 287.060752 223.798472 
L 287.731694 226.175138 
L 288.402636 227.595894 
L 289.073578 228.046486 
L 289.744519 227.522396 
L 290.415461 226.028879 
L 291.086403 223.58092 
L 291.757345 220.203074 
L 292.428287 215.929228 
L 293.770171 204.87359 
L 295.112055 190.85652 
L 296.453938 174.43907 
L 298.466764 146.769512 
L 302.492415 89.766298 
L 303.834299 73.06571 
L 305.176183 58.679466 
L 306.518067 47.183395 
L 307.189008 42.668026 
L 307.85995 39.03764 
L 308.530892 36.328655 
L 309.201834 34.568247 
L 309.872776 33.774075 
L 310.543718 33.954107 
L 311.21466 35.106537 
L 311.885602 37.219803 
L 312.556543 40.272707 
L 313.227485 44.234622 
L 313.898427 49.065803 
L 315.240311 61.133871 
L 316.582195 75.993869 
L 318.59502 102.192861 
L 324.633497 185.908831 
L 325.975381 200.748486 
L 327.317265 212.791823 
L 327.988207 217.609297 
L 328.659149 221.556791 
L 329.330091 224.594705 
L 330.001032 226.692563 
L 330.671974 227.829319 
L 331.342916 227.993571 
L 332.013858 227.18367 
L 332.6848 225.407742 
L 333.355742 222.683601 
L 334.026684 219.038576 
L 334.697626 214.509233 
L 336.039509 202.987755 
L 337.381393 188.580329 
L 338.723277 171.863629 
L 340.736103 143.941107 
L 344.761754 87.192879 
L 346.103638 70.792331 
L 347.445521 56.797122 
L 348.787405 45.767428 
L 349.458347 41.507767 
L 350.129289 38.144728 
L 350.800231 35.712046 
L 351.471173 34.234128 
L 352.142115 33.725798 
L 352.813057 34.192156 
L 353.483998 35.628523 
L 354.15494 38.020491 
L 354.825882 41.344064 
L 355.496824 45.5659 
L 356.838708 56.526368 
L 358.180592 70.463189 
L 359.522475 86.818524 
L 361.535301 114.434125 
L 365.560952 171.482805 
L 366.902836 188.242188 
L 368.24472 202.705833 
L 369.586604 214.294813 
L 370.257546 218.86131 
L 370.928487 222.545266 
L 371.599429 225.309726 
L 372.270371 227.126957 
L 372.941313 227.978729 
L 373.612255 227.856498 
L 374.283197 226.761489 
L 374.954139 224.704687 
L 375.625081 221.706727 
L 376.296022 217.797682 
L 376.966964 213.016766 
L 378.308848 201.039434 
L 379.650732 186.254137 
L 381.663558 160.130802 
L 382.334499 150.715556 
L 382.334499 150.715556 
" style="fill:none;stroke:#0000ff;stroke-linecap:square;stroke-width:1.5;"/>
   </g>
   <g id="patch_3">
    <path d="M 47.534499 239.606376 
L 47.534499 22.166376 
" style="fill:none;stroke:#000000;stroke-linecap:square;stroke-linejoin:miter;stroke-width:0.8;"/>
   </g>
   <g id="patch_4">
    <path d="M 382.334499 239.606376 
L 382.334499 22.166376 
" style="fill:none;stroke:#000000;stroke-linecap:square;stroke-linejoin:miter;stroke-width:0.8;"/>
   </g>
   <g id="patch_5">
    <path d="M 47.534499 239.606376 
L 382.334499 239.606376 
" style="fill:none;stroke:#000000;stroke-linecap:square;stroke-linejoin:miter;stroke-width:0.8;"/>
   </g>
   <g id="patch_6">
    <path d="M 47.534499 22.166376 
L 382.334499 22.166376 
" style="fill:none;stroke:#000000;stroke-linecap:square;stroke-linejoin:miter;stroke-width:0.8;"/>
   </g>
   <g id="text_18">
    <!-- $\omega$ = 5rad/s -->
    <defs>
     <path d="M 59.40625 37.421875 
C 59.40625 40.3125 58.59375 44 55.09375 44 
C 53.09375 44 50.796875 41.515625 50.796875 39.515625 
C 50.796875 38.625 51.203125 38.03125 52 37.125 
C 53.5 35.4375 55.40625 32.75 55.40625 28.078125 
C 55.40625 24.484375 53.203125 18.8125 51.59375 15.734375 
C 48.796875 10.25 44.203125 5.578125 39 5.578125 
C 32.703125 5.578125 30.296875 9.609375 29.203125 15.234375 
C 30.296875 17.859375 32.59375 24.375 32.59375 27 
C 32.59375 28.09375 32.203125 29 30.90625 29 
C 30.203125 29 29.40625 28.609375 28.90625 27.796875 
C 27.5 25.59375 26.203125 17.640625 26.296875 15.53125 
C 24.40625 11.8125 19 5.578125 12.59375 5.578125 
C 5.90625 5.578125 4.09375 11.453125 4.09375 17.125 
C 4.09375 27.46875 10.59375 36.53125 12.40625 39.015625 
C 13.40625 40.515625 14.09375 41.515625 14.09375 41.703125 
C 14.09375 42.40625 13.703125 43.5 12.796875 43.5 
C 11.203125 43.5 10.703125 42.203125 9.90625 41.015625 
C 4.796875 33.140625 1.203125 22.09375 1.203125 12.546875 
C 1.203125 6.375 3.5 -1 11 -1 
C 19.296875 -1 24.5 6.109375 26.59375 9.90625 
C 27.40625 4.296875 30.40625 -1 37.703125 -1 
C 45.296875 -1 50.09375 5.671875 53.703125 13.734375 
C 56.296875 19.515625 59.40625 31.953125 59.40625 37.421875 
" id="CMMI12-33"/>
     <path d="M 64.796875 31.515625 
C 66.296875 31.515625 67.796875 31.515625 67.796875 33.203125 
C 67.796875 35 66.09375 35 64.40625 35 
L 8.59375 35 
C 6.90625 35 5.203125 35 5.203125 33.203125 
C 5.203125 31.515625 6.703125 31.515625 8.203125 31.515625 
z
M 64.40625 14 
C 66.09375 14 67.796875 14 67.796875 15.796875 
C 67.796875 17.484375 66.296875 17.484375 64.796875 17.484375 
L 8.203125 17.484375 
C 6.703125 17.484375 5.203125 17.484375 5.203125 15.796875 
C 5.203125 14 6.90625 14 8.59375 14 
z
" id="CMSS17-61"/>
     <path d="M 14.59375 58.625 
L 39.09375 58.625 
L 39.09375 65 
L 7.296875 65 
L 7.296875 27.828125 
L 14 27.828125 
C 15.796875 31.96875 19.5 35 24.296875 35 
C 28.796875 35 33.796875 31.078125 33.796875 19.78125 
C 33.796875 7.703125 26.703125 4.171875 21.5 4.171875 
C 15.09375 4.171875 9.203125 8 6.59375 13.296875 
L 3.40625 7.796875 
C 8 0.765625 15.5 -2 21.5 -2 
C 33.09375 -2 42.203125 7.765625 42.203125 19.578125 
C 42.203125 31.71875 34.09375 41.078125 24.40625 41.078125 
C 20.90625 41.078125 17.5 39.890625 14.59375 37.484375 
z
" id="CMSS17-53"/>
     <path d="M 14.90625 21.296875 
C 14.90625 30.703125 21.796875 37 30.59375 37 
L 30.59375 43.578125 
C 24.203125 43.578125 18.203125 40.390625 14.59375 35.203125 
L 14.59375 43.09375 
L 7.5 43.09375 
L 7.5 0 
L 14.90625 0 
z
" id="CMSS17-114"/>
     <path d="M 40.796875 69 
L 33.40625 69 
L 33.40625 38.09375 
C 30.296875 40.671875 25.203125 43.0625 19.59375 43.0625 
C 10.5 43.0625 3.296875 33.296875 3.296875 21.03125 
C 3.296875 8.78125 10.40625 -1 19.296875 -1 
C 26.203125 -1 30.796875 2.6875 33.203125 4.78125 
L 33.203125 -0.203125 
L 40.796875 -0.203125 
z
M 33.203125 13.0625 
C 33.203125 11.671875 33.203125 10.203125 30.09375 7.53125 
C 28.09375 5.859375 25.703125 5.078125 23.40625 5.078125 
C 18 5.078125 10.90625 9 10.90625 20.9375 
C 10.90625 33.34375 18.90625 37 24.40625 37 
C 28.09375 37 31.09375 35.21875 33.203125 32.265625 
z
" id="CMSS17-100"/>
    </defs>
    <g transform="translate(186.730853 16.166376)scale(0.12 -0.12)">
     <use transform="scale(0.996264)" xlink:href="#CMMI12-33"/>
     <use transform="translate(95.547459 0)scale(0.996264)" xlink:href="#CMSS17-61"/>
     <use transform="translate(199.644506 0)scale(0.996264)" xlink:href="#CMSS17-53"/>
     <use transform="translate(246.48813 0)scale(0.996264)" xlink:href="#CMSS17-114"/>
     <use transform="translate(278.397902 0)scale(0.996264)" xlink:href="#CMSS17-97"/>
     <use transform="translate(323.319823 0)scale(0.996264)" xlink:href="#CMSS17-100"/>
     <use transform="translate(371.524766 0)scale(0.996264)" xlink:href="#CMSS17-47"/>
     <use transform="translate(418.36839 0)scale(0.996264)" xlink:href="#CMSS17-115"/>
    </g>
   </g>
  </g>
 </g>
 <defs>
  <clipPath id="p31431ff2e9">
   <rect height="217.44" width="334.8" x="47.534499" y="22.166376"/>
  </clipPath>
 </defs>
</svg>
