<?xml version="1.0" encoding="utf-8" standalone="no"?>
<!DOCTYPE svg PUBLIC "-//W3C//DTD SVG 1.1//EN"
  "http://www.w3.org/Graphics/SVG/1.1/DTD/svg11.dtd">
<!-- Created with matplotlib (http://matplotlib.org/) -->
<svg height="283pt" version="1.1" viewBox="0 0 406 283" width="406pt" xmlns="http://www.w3.org/2000/svg" xmlns:xlink="http://www.w3.org/1999/xlink">
 <defs>
  <style type="text/css">
*{stroke-linecap:butt;stroke-linejoin:round;}
  </style>
 </defs>
 <g id="figure_1">
  <g id="patch_1">
   <path d="M -0 283.529572 
L 406.914833 283.529572 
L 406.914833 0 
L -0 0 
z
" style="fill:none;"/>
  </g>
  <g id="axes_1">
   <g id="patch_2">
    <path d="M 61.414833 113.274739 
L 396.214833 113.274739 
L 396.214833 22.674739 
L 61.414833 22.674739 
z
" style="fill:#ffffff;"/>
   </g>
   <g id="matplotlib.axis_1">
    <g id="xtick_1">
     <g id="line2d_1">
      <path clip-path="url(#p3cc8512d56)" d="M 76.633015 113.274739 
L 76.633015 22.674739 
" style="fill:none;stroke:#b0b0b0;stroke-linecap:square;stroke-width:0.8;"/>
     </g>
     <g id="line2d_2">
      <defs>
       <path d="M 0 0 
L 0 3.5 
" id="mbe88ac707c" style="stroke:#000000;stroke-width:0.8;"/>
      </defs>
      <g>
       <use style="stroke:#000000;stroke-width:0.8;" x="76.633015" xlink:href="#mbe88ac707c" y="113.274739"/>
      </g>
     </g>
     <g id="text_1">
      <!-- $10^{-1}$ -->
      <defs>
       <path d="M 26.59375 63.40625 
C 26.59375 65.5 26.5 65.5 25.09375 65.5 
C 21.203125 61.1875 15.296875 59.796875 9.703125 59.796875 
C 9.40625 59.796875 8.90625 59.796875 8.796875 59.5 
C 8.703125 59.296875 8.703125 59.09375 8.703125 57 
C 11.796875 57 17 57.59375 21 59.984375 
L 21 7.203125 
C 21 3.6875 20.796875 2.5 12.203125 2.5 
L 9.203125 2.5 
L 9.203125 0 
C 14 0 19 0 23.796875 0 
C 28.59375 0 33.59375 0 38.40625 0 
L 38.40625 2.5 
L 35.40625 2.5 
C 26.796875 2.5 26.59375 3.59375 26.59375 7.15625 
z
" id="CMR17-49"/>
       <path d="M 42 31.640625 
C 42 37.75 41.90625 48.125 37.703125 56.109375 
C 34 63.109375 28.09375 65.59375 22.90625 65.59375 
C 18.09375 65.59375 12 63.40625 8.203125 56.203125 
C 4.203125 48.71875 3.796875 39.4375 3.796875 31.640625 
C 3.796875 25.953125 3.90625 17.28125 7 9.671875 
C 11.296875 -0.609375 19 -2 22.90625 -2 
C 27.5 -2 34.5 -0.109375 38.59375 9.375 
C 41.59375 16.28125 42 24.359375 42 31.640625 
M 22.90625 -0.40625 
C 16.5 -0.40625 12.703125 5.078125 11.296875 12.6875 
C 10.203125 18.5625 10.203125 27.15625 10.203125 32.75 
C 10.203125 40.4375 10.203125 46.828125 11.5 52.921875 
C 13.40625 61.390625 19 64 22.90625 64 
C 27 64 32.296875 61.296875 34.203125 53.125 
C 35.5 47.4375 35.59375 40.734375 35.59375 32.75 
C 35.59375 26.25 35.59375 18.265625 34.40625 12.375 
C 32.296875 1.484375 26.40625 -0.40625 22.90625 -0.40625 
" id="CMR17-48"/>
       <path d="M 65.90625 23 
C 67.59375 23 69.40625 23 69.40625 25 
C 69.40625 27 67.59375 27 65.90625 27 
L 11.796875 27 
C 10.09375 27 8.296875 27 8.296875 25 
C 8.296875 23 10.09375 23 11.796875 23 
z
" id="CMSY10-0"/>
      </defs>
      <g transform="translate(66.552729 127.193237)scale(0.1 -0.1)">
       <use transform="scale(0.996264)" xlink:href="#CMR17-49"/>
       <use transform="translate(45.690477 0)scale(0.996264)" xlink:href="#CMR17-48"/>
       <use transform="translate(91.380954 36.153639)scale(0.697382)" xlink:href="#CMSY10-0"/>
       <use transform="translate(145.621947 36.153639)scale(0.697382)" xlink:href="#CMR17-49"/>
      </g>
     </g>
    </g>
    <g id="xtick_2">
     <g id="line2d_3">
      <path clip-path="url(#p3cc8512d56)" d="M 152.723924 113.274739 
L 152.723924 22.674739 
" style="fill:none;stroke:#b0b0b0;stroke-linecap:square;stroke-width:0.8;"/>
     </g>
     <g id="line2d_4">
      <g>
       <use style="stroke:#000000;stroke-width:0.8;" x="152.723924" xlink:href="#mbe88ac707c" y="113.274739"/>
      </g>
     </g>
     <g id="text_2">
      <!-- $10^{0}$ -->
      <g transform="translate(145.75697 127.193237)scale(0.1 -0.1)">
       <use transform="scale(0.996264)" xlink:href="#CMR17-49"/>
       <use transform="translate(45.690477 0)scale(0.996264)" xlink:href="#CMR17-48"/>
       <use transform="translate(91.380954 36.153639)scale(0.697382)" xlink:href="#CMR17-48"/>
      </g>
     </g>
    </g>
    <g id="xtick_3">
     <g id="line2d_5">
      <path clip-path="url(#p3cc8512d56)" d="M 228.814833 113.274739 
L 228.814833 22.674739 
" style="fill:none;stroke:#b0b0b0;stroke-linecap:square;stroke-width:0.8;"/>
     </g>
     <g id="line2d_6">
      <g>
       <use style="stroke:#000000;stroke-width:0.8;" x="228.814833" xlink:href="#mbe88ac707c" y="113.274739"/>
      </g>
     </g>
     <g id="text_3">
      <!-- $10^{1}$ -->
      <g transform="translate(221.847879 127.193237)scale(0.1 -0.1)">
       <use transform="scale(0.996264)" xlink:href="#CMR17-49"/>
       <use transform="translate(45.690477 0)scale(0.996264)" xlink:href="#CMR17-48"/>
       <use transform="translate(91.380954 36.153639)scale(0.697382)" xlink:href="#CMR17-49"/>
      </g>
     </g>
    </g>
    <g id="xtick_4">
     <g id="line2d_7">
      <path clip-path="url(#p3cc8512d56)" d="M 304.905743 113.274739 
L 304.905743 22.674739 
" style="fill:none;stroke:#b0b0b0;stroke-linecap:square;stroke-width:0.8;"/>
     </g>
     <g id="line2d_8">
      <g>
       <use style="stroke:#000000;stroke-width:0.8;" x="304.905743" xlink:href="#mbe88ac707c" y="113.274739"/>
      </g>
     </g>
     <g id="text_4">
      <!-- $10^{2}$ -->
      <defs>
       <path d="M 41.703125 15.453125 
L 39.90625 15.453125 
C 38.90625 8.375 38.09375 7.171875 37.703125 6.5625 
C 37.203125 5.765625 30 5.765625 28.59375 5.765625 
L 9.40625 5.765625 
C 13 9.671875 20 16.75 28.5 24.953125 
C 34.59375 30.734375 41.703125 37.53125 41.703125 47.421875 
C 41.703125 59.21875 32.296875 66 21.796875 66 
C 10.796875 66 4.09375 56.3125 4.09375 47.34375 
C 4.09375 43.4375 7 42.9375 8.203125 42.9375 
C 9.203125 42.9375 12.203125 43.546875 12.203125 47.03125 
C 12.203125 50.109375 9.59375 51 8.203125 51 
C 7.59375 51 7 50.90625 6.59375 50.703125 
C 8.5 59.21875 14.296875 63.40625 20.40625 63.40625 
C 29.09375 63.40625 34.796875 56.515625 34.796875 47.421875 
C 34.796875 38.734375 29.703125 31.25 24 24.75 
L 4.09375 2.28125 
L 4.09375 0 
L 39.296875 0 
z
" id="CMR17-50"/>
      </defs>
      <g transform="translate(297.938789 127.193237)scale(0.1 -0.1)">
       <use transform="scale(0.996264)" xlink:href="#CMR17-49"/>
       <use transform="translate(45.690477 0)scale(0.996264)" xlink:href="#CMR17-48"/>
       <use transform="translate(91.380954 36.153639)scale(0.697382)" xlink:href="#CMR17-50"/>
      </g>
     </g>
    </g>
    <g id="xtick_5">
     <g id="line2d_9">
      <path clip-path="url(#p3cc8512d56)" d="M 380.996652 113.274739 
L 380.996652 22.674739 
" style="fill:none;stroke:#b0b0b0;stroke-linecap:square;stroke-width:0.8;"/>
     </g>
     <g id="line2d_10">
      <g>
       <use style="stroke:#000000;stroke-width:0.8;" x="380.996652" xlink:href="#mbe88ac707c" y="113.274739"/>
      </g>
     </g>
     <g id="text_5">
      <!-- $10^{3}$ -->
      <defs>
       <path d="M 22.09375 33.703125 
C 31 33.703125 34.90625 25.96875 34.90625 17.03125 
C 34.90625 5 28.5 0.390625 22.703125 0.390625 
C 17.40625 0.390625 8.796875 3.03125 6.09375 10.828125 
C 6.59375 10.625 7.09375 10.625 7.59375 10.625 
C 10 10.625 11.796875 12.21875 11.796875 14.8125 
C 11.796875 17.703125 9.59375 19 7.59375 19 
C 5.90625 19 3.296875 18.203125 3.296875 14.46875 
C 3.296875 5.234375 12.296875 -2 22.90625 -2 
C 34 -2 42.5 6.71875 42.5 16.953125 
C 42.5 26.671875 34.5 33.703125 25 34.796875 
C 32.59375 36.375 39.90625 43.0625 39.90625 52.015625 
C 39.90625 59.6875 32 65.296875 23 65.296875 
C 13.90625 65.296875 5.90625 59.828125 5.90625 52.015625 
C 5.90625 48.59375 8.5 48 9.796875 48 
C 11.90625 48 13.703125 49.296875 13.703125 51.890625 
C 13.703125 54.46875 11.90625 55.765625 9.796875 55.765625 
C 9.40625 55.765625 8.90625 55.765625 8.5 55.578125 
C 11.40625 61.859375 19.296875 63 22.796875 63 
C 26.296875 63 32.90625 61.328125 32.90625 51.875 
C 32.90625 49.109375 32.5 44.1875 29.09375 39.84375 
C 26.09375 36 22.703125 36 19.40625 35.6875 
C 18.90625 35.6875 16.59375 35.453125 16.203125 35.453125 
C 15.5 35.359375 15.09375 35.265625 15.09375 34.5 
C 15.09375 33.796875 15.203125 33.703125 17.203125 33.703125 
z
" id="CMR17-51"/>
      </defs>
      <g transform="translate(374.029698 127.193237)scale(0.1 -0.1)">
       <use transform="scale(0.996264)" xlink:href="#CMR17-49"/>
       <use transform="translate(45.690477 0)scale(0.996264)" xlink:href="#CMR17-48"/>
       <use transform="translate(91.380954 36.153639)scale(0.697382)" xlink:href="#CMR17-51"/>
      </g>
     </g>
    </g>
    <g id="xtick_6">
     <g id="line2d_11">
      <path clip-path="url(#p3cc8512d56)" d="M 64.846384 113.274739 
L 64.846384 22.674739 
" style="fill:none;stroke:#b0b0b0;stroke-linecap:square;stroke-width:0.8;"/>
     </g>
     <g id="line2d_12">
      <defs>
       <path d="M 0 0 
L 0 2 
" id="m97c24e24b9" style="stroke:#000000;stroke-width:0.6;"/>
      </defs>
      <g>
       <use style="stroke:#000000;stroke-width:0.6;" x="64.846384" xlink:href="#m97c24e24b9" y="113.274739"/>
      </g>
     </g>
    </g>
    <g id="xtick_7">
     <g id="line2d_13">
      <path clip-path="url(#p3cc8512d56)" d="M 69.259044 113.274739 
L 69.259044 22.674739 
" style="fill:none;stroke:#b0b0b0;stroke-linecap:square;stroke-width:0.8;"/>
     </g>
     <g id="line2d_14">
      <g>
       <use style="stroke:#000000;stroke-width:0.6;" x="69.259044" xlink:href="#m97c24e24b9" y="113.274739"/>
      </g>
     </g>
    </g>
    <g id="xtick_8">
     <g id="line2d_15">
      <path clip-path="url(#p3cc8512d56)" d="M 73.151286 113.274739 
L 73.151286 22.674739 
" style="fill:none;stroke:#b0b0b0;stroke-linecap:square;stroke-width:0.8;"/>
     </g>
     <g id="line2d_16">
      <g>
       <use style="stroke:#000000;stroke-width:0.6;" x="73.151286" xlink:href="#m97c24e24b9" y="113.274739"/>
      </g>
     </g>
    </g>
    <g id="xtick_9">
     <g id="line2d_17">
      <path clip-path="url(#p3cc8512d56)" d="M 99.538661 113.274739 
L 99.538661 22.674739 
" style="fill:none;stroke:#b0b0b0;stroke-linecap:square;stroke-width:0.8;"/>
     </g>
     <g id="line2d_18">
      <g>
       <use style="stroke:#000000;stroke-width:0.6;" x="99.538661" xlink:href="#m97c24e24b9" y="113.274739"/>
      </g>
     </g>
    </g>
    <g id="xtick_10">
     <g id="line2d_19">
      <path clip-path="url(#p3cc8512d56)" d="M 112.937605 113.274739 
L 112.937605 22.674739 
" style="fill:none;stroke:#b0b0b0;stroke-linecap:square;stroke-width:0.8;"/>
     </g>
     <g id="line2d_20">
      <g>
       <use style="stroke:#000000;stroke-width:0.6;" x="112.937605" xlink:href="#m97c24e24b9" y="113.274739"/>
      </g>
     </g>
    </g>
    <g id="xtick_11">
     <g id="line2d_21">
      <path clip-path="url(#p3cc8512d56)" d="M 122.444307 113.274739 
L 122.444307 22.674739 
" style="fill:none;stroke:#b0b0b0;stroke-linecap:square;stroke-width:0.8;"/>
     </g>
     <g id="line2d_22">
      <g>
       <use style="stroke:#000000;stroke-width:0.6;" x="122.444307" xlink:href="#m97c24e24b9" y="113.274739"/>
      </g>
     </g>
    </g>
    <g id="xtick_12">
     <g id="line2d_23">
      <path clip-path="url(#p3cc8512d56)" d="M 129.818278 113.274739 
L 129.818278 22.674739 
" style="fill:none;stroke:#b0b0b0;stroke-linecap:square;stroke-width:0.8;"/>
     </g>
     <g id="line2d_24">
      <g>
       <use style="stroke:#000000;stroke-width:0.6;" x="129.818278" xlink:href="#m97c24e24b9" y="113.274739"/>
      </g>
     </g>
    </g>
    <g id="xtick_13">
     <g id="line2d_25">
      <path clip-path="url(#p3cc8512d56)" d="M 135.843251 113.274739 
L 135.843251 22.674739 
" style="fill:none;stroke:#b0b0b0;stroke-linecap:square;stroke-width:0.8;"/>
     </g>
     <g id="line2d_26">
      <g>
       <use style="stroke:#000000;stroke-width:0.6;" x="135.843251" xlink:href="#m97c24e24b9" y="113.274739"/>
      </g>
     </g>
    </g>
    <g id="xtick_14">
     <g id="line2d_27">
      <path clip-path="url(#p3cc8512d56)" d="M 140.937293 113.274739 
L 140.937293 22.674739 
" style="fill:none;stroke:#b0b0b0;stroke-linecap:square;stroke-width:0.8;"/>
     </g>
     <g id="line2d_28">
      <g>
       <use style="stroke:#000000;stroke-width:0.6;" x="140.937293" xlink:href="#m97c24e24b9" y="113.274739"/>
      </g>
     </g>
    </g>
    <g id="xtick_15">
     <g id="line2d_29">
      <path clip-path="url(#p3cc8512d56)" d="M 145.349953 113.274739 
L 145.349953 22.674739 
" style="fill:none;stroke:#b0b0b0;stroke-linecap:square;stroke-width:0.8;"/>
     </g>
     <g id="line2d_30">
      <g>
       <use style="stroke:#000000;stroke-width:0.6;" x="145.349953" xlink:href="#m97c24e24b9" y="113.274739"/>
      </g>
     </g>
    </g>
    <g id="xtick_16">
     <g id="line2d_31">
      <path clip-path="url(#p3cc8512d56)" d="M 149.242195 113.274739 
L 149.242195 22.674739 
" style="fill:none;stroke:#b0b0b0;stroke-linecap:square;stroke-width:0.8;"/>
     </g>
     <g id="line2d_32">
      <g>
       <use style="stroke:#000000;stroke-width:0.6;" x="149.242195" xlink:href="#m97c24e24b9" y="113.274739"/>
      </g>
     </g>
    </g>
    <g id="xtick_17">
     <g id="line2d_33">
      <path clip-path="url(#p3cc8512d56)" d="M 175.62957 113.274739 
L 175.62957 22.674739 
" style="fill:none;stroke:#b0b0b0;stroke-linecap:square;stroke-width:0.8;"/>
     </g>
     <g id="line2d_34">
      <g>
       <use style="stroke:#000000;stroke-width:0.6;" x="175.62957" xlink:href="#m97c24e24b9" y="113.274739"/>
      </g>
     </g>
    </g>
    <g id="xtick_18">
     <g id="line2d_35">
      <path clip-path="url(#p3cc8512d56)" d="M 189.028514 113.274739 
L 189.028514 22.674739 
" style="fill:none;stroke:#b0b0b0;stroke-linecap:square;stroke-width:0.8;"/>
     </g>
     <g id="line2d_36">
      <g>
       <use style="stroke:#000000;stroke-width:0.6;" x="189.028514" xlink:href="#m97c24e24b9" y="113.274739"/>
      </g>
     </g>
    </g>
    <g id="xtick_19">
     <g id="line2d_37">
      <path clip-path="url(#p3cc8512d56)" d="M 198.535216 113.274739 
L 198.535216 22.674739 
" style="fill:none;stroke:#b0b0b0;stroke-linecap:square;stroke-width:0.8;"/>
     </g>
     <g id="line2d_38">
      <g>
       <use style="stroke:#000000;stroke-width:0.6;" x="198.535216" xlink:href="#m97c24e24b9" y="113.274739"/>
      </g>
     </g>
    </g>
    <g id="xtick_20">
     <g id="line2d_39">
      <path clip-path="url(#p3cc8512d56)" d="M 205.909187 113.274739 
L 205.909187 22.674739 
" style="fill:none;stroke:#b0b0b0;stroke-linecap:square;stroke-width:0.8;"/>
     </g>
     <g id="line2d_40">
      <g>
       <use style="stroke:#000000;stroke-width:0.6;" x="205.909187" xlink:href="#m97c24e24b9" y="113.274739"/>
      </g>
     </g>
    </g>
    <g id="xtick_21">
     <g id="line2d_41">
      <path clip-path="url(#p3cc8512d56)" d="M 211.93416 113.274739 
L 211.93416 22.674739 
" style="fill:none;stroke:#b0b0b0;stroke-linecap:square;stroke-width:0.8;"/>
     </g>
     <g id="line2d_42">
      <g>
       <use style="stroke:#000000;stroke-width:0.6;" x="211.93416" xlink:href="#m97c24e24b9" y="113.274739"/>
      </g>
     </g>
    </g>
    <g id="xtick_22">
     <g id="line2d_43">
      <path clip-path="url(#p3cc8512d56)" d="M 217.028203 113.274739 
L 217.028203 22.674739 
" style="fill:none;stroke:#b0b0b0;stroke-linecap:square;stroke-width:0.8;"/>
     </g>
     <g id="line2d_44">
      <g>
       <use style="stroke:#000000;stroke-width:0.6;" x="217.028203" xlink:href="#m97c24e24b9" y="113.274739"/>
      </g>
     </g>
    </g>
    <g id="xtick_23">
     <g id="line2d_45">
      <path clip-path="url(#p3cc8512d56)" d="M 221.440862 113.274739 
L 221.440862 22.674739 
" style="fill:none;stroke:#b0b0b0;stroke-linecap:square;stroke-width:0.8;"/>
     </g>
     <g id="line2d_46">
      <g>
       <use style="stroke:#000000;stroke-width:0.6;" x="221.440862" xlink:href="#m97c24e24b9" y="113.274739"/>
      </g>
     </g>
    </g>
    <g id="xtick_24">
     <g id="line2d_47">
      <path clip-path="url(#p3cc8512d56)" d="M 225.333104 113.274739 
L 225.333104 22.674739 
" style="fill:none;stroke:#b0b0b0;stroke-linecap:square;stroke-width:0.8;"/>
     </g>
     <g id="line2d_48">
      <g>
       <use style="stroke:#000000;stroke-width:0.6;" x="225.333104" xlink:href="#m97c24e24b9" y="113.274739"/>
      </g>
     </g>
    </g>
    <g id="xtick_25">
     <g id="line2d_49">
      <path clip-path="url(#p3cc8512d56)" d="M 251.72048 113.274739 
L 251.72048 22.674739 
" style="fill:none;stroke:#b0b0b0;stroke-linecap:square;stroke-width:0.8;"/>
     </g>
     <g id="line2d_50">
      <g>
       <use style="stroke:#000000;stroke-width:0.6;" x="251.72048" xlink:href="#m97c24e24b9" y="113.274739"/>
      </g>
     </g>
    </g>
    <g id="xtick_26">
     <g id="line2d_51">
      <path clip-path="url(#p3cc8512d56)" d="M 265.119424 113.274739 
L 265.119424 22.674739 
" style="fill:none;stroke:#b0b0b0;stroke-linecap:square;stroke-width:0.8;"/>
     </g>
     <g id="line2d_52">
      <g>
       <use style="stroke:#000000;stroke-width:0.6;" x="265.119424" xlink:href="#m97c24e24b9" y="113.274739"/>
      </g>
     </g>
    </g>
    <g id="xtick_27">
     <g id="line2d_53">
      <path clip-path="url(#p3cc8512d56)" d="M 274.626126 113.274739 
L 274.626126 22.674739 
" style="fill:none;stroke:#b0b0b0;stroke-linecap:square;stroke-width:0.8;"/>
     </g>
     <g id="line2d_54">
      <g>
       <use style="stroke:#000000;stroke-width:0.6;" x="274.626126" xlink:href="#m97c24e24b9" y="113.274739"/>
      </g>
     </g>
    </g>
    <g id="xtick_28">
     <g id="line2d_55">
      <path clip-path="url(#p3cc8512d56)" d="M 282.000097 113.274739 
L 282.000097 22.674739 
" style="fill:none;stroke:#b0b0b0;stroke-linecap:square;stroke-width:0.8;"/>
     </g>
     <g id="line2d_56">
      <g>
       <use style="stroke:#000000;stroke-width:0.6;" x="282.000097" xlink:href="#m97c24e24b9" y="113.274739"/>
      </g>
     </g>
    </g>
    <g id="xtick_29">
     <g id="line2d_57">
      <path clip-path="url(#p3cc8512d56)" d="M 288.02507 113.274739 
L 288.02507 22.674739 
" style="fill:none;stroke:#b0b0b0;stroke-linecap:square;stroke-width:0.8;"/>
     </g>
     <g id="line2d_58">
      <g>
       <use style="stroke:#000000;stroke-width:0.6;" x="288.02507" xlink:href="#m97c24e24b9" y="113.274739"/>
      </g>
     </g>
    </g>
    <g id="xtick_30">
     <g id="line2d_59">
      <path clip-path="url(#p3cc8512d56)" d="M 293.119112 113.274739 
L 293.119112 22.674739 
" style="fill:none;stroke:#b0b0b0;stroke-linecap:square;stroke-width:0.8;"/>
     </g>
     <g id="line2d_60">
      <g>
       <use style="stroke:#000000;stroke-width:0.6;" x="293.119112" xlink:href="#m97c24e24b9" y="113.274739"/>
      </g>
     </g>
    </g>
    <g id="xtick_31">
     <g id="line2d_61">
      <path clip-path="url(#p3cc8512d56)" d="M 297.531772 113.274739 
L 297.531772 22.674739 
" style="fill:none;stroke:#b0b0b0;stroke-linecap:square;stroke-width:0.8;"/>
     </g>
     <g id="line2d_62">
      <g>
       <use style="stroke:#000000;stroke-width:0.6;" x="297.531772" xlink:href="#m97c24e24b9" y="113.274739"/>
      </g>
     </g>
    </g>
    <g id="xtick_32">
     <g id="line2d_63">
      <path clip-path="url(#p3cc8512d56)" d="M 301.424014 113.274739 
L 301.424014 22.674739 
" style="fill:none;stroke:#b0b0b0;stroke-linecap:square;stroke-width:0.8;"/>
     </g>
     <g id="line2d_64">
      <g>
       <use style="stroke:#000000;stroke-width:0.6;" x="301.424014" xlink:href="#m97c24e24b9" y="113.274739"/>
      </g>
     </g>
    </g>
    <g id="xtick_33">
     <g id="line2d_65">
      <path clip-path="url(#p3cc8512d56)" d="M 327.811389 113.274739 
L 327.811389 22.674739 
" style="fill:none;stroke:#b0b0b0;stroke-linecap:square;stroke-width:0.8;"/>
     </g>
     <g id="line2d_66">
      <g>
       <use style="stroke:#000000;stroke-width:0.6;" x="327.811389" xlink:href="#m97c24e24b9" y="113.274739"/>
      </g>
     </g>
    </g>
    <g id="xtick_34">
     <g id="line2d_67">
      <path clip-path="url(#p3cc8512d56)" d="M 341.210333 113.274739 
L 341.210333 22.674739 
" style="fill:none;stroke:#b0b0b0;stroke-linecap:square;stroke-width:0.8;"/>
     </g>
     <g id="line2d_68">
      <g>
       <use style="stroke:#000000;stroke-width:0.6;" x="341.210333" xlink:href="#m97c24e24b9" y="113.274739"/>
      </g>
     </g>
    </g>
    <g id="xtick_35">
     <g id="line2d_69">
      <path clip-path="url(#p3cc8512d56)" d="M 350.717035 113.274739 
L 350.717035 22.674739 
" style="fill:none;stroke:#b0b0b0;stroke-linecap:square;stroke-width:0.8;"/>
     </g>
     <g id="line2d_70">
      <g>
       <use style="stroke:#000000;stroke-width:0.6;" x="350.717035" xlink:href="#m97c24e24b9" y="113.274739"/>
      </g>
     </g>
    </g>
    <g id="xtick_36">
     <g id="line2d_71">
      <path clip-path="url(#p3cc8512d56)" d="M 358.091006 113.274739 
L 358.091006 22.674739 
" style="fill:none;stroke:#b0b0b0;stroke-linecap:square;stroke-width:0.8;"/>
     </g>
     <g id="line2d_72">
      <g>
       <use style="stroke:#000000;stroke-width:0.6;" x="358.091006" xlink:href="#m97c24e24b9" y="113.274739"/>
      </g>
     </g>
    </g>
    <g id="xtick_37">
     <g id="line2d_73">
      <path clip-path="url(#p3cc8512d56)" d="M 364.115979 113.274739 
L 364.115979 22.674739 
" style="fill:none;stroke:#b0b0b0;stroke-linecap:square;stroke-width:0.8;"/>
     </g>
     <g id="line2d_74">
      <g>
       <use style="stroke:#000000;stroke-width:0.6;" x="364.115979" xlink:href="#m97c24e24b9" y="113.274739"/>
      </g>
     </g>
    </g>
    <g id="xtick_38">
     <g id="line2d_75">
      <path clip-path="url(#p3cc8512d56)" d="M 369.210021 113.274739 
L 369.210021 22.674739 
" style="fill:none;stroke:#b0b0b0;stroke-linecap:square;stroke-width:0.8;"/>
     </g>
     <g id="line2d_76">
      <g>
       <use style="stroke:#000000;stroke-width:0.6;" x="369.210021" xlink:href="#m97c24e24b9" y="113.274739"/>
      </g>
     </g>
    </g>
    <g id="xtick_39">
     <g id="line2d_77">
      <path clip-path="url(#p3cc8512d56)" d="M 373.622681 113.274739 
L 373.622681 22.674739 
" style="fill:none;stroke:#b0b0b0;stroke-linecap:square;stroke-width:0.8;"/>
     </g>
     <g id="line2d_78">
      <g>
       <use style="stroke:#000000;stroke-width:0.6;" x="373.622681" xlink:href="#m97c24e24b9" y="113.274739"/>
      </g>
     </g>
    </g>
    <g id="xtick_40">
     <g id="line2d_79">
      <path clip-path="url(#p3cc8512d56)" d="M 377.514923 113.274739 
L 377.514923 22.674739 
" style="fill:none;stroke:#b0b0b0;stroke-linecap:square;stroke-width:0.8;"/>
     </g>
     <g id="line2d_80">
      <g>
       <use style="stroke:#000000;stroke-width:0.6;" x="377.514923" xlink:href="#m97c24e24b9" y="113.274739"/>
      </g>
     </g>
    </g>
   </g>
   <g id="matplotlib.axis_2">
    <g id="ytick_1">
     <g id="line2d_81">
      <path clip-path="url(#p3cc8512d56)" d="M 61.414833 109.156557 
L 396.214833 109.156557 
" style="fill:none;stroke:#b0b0b0;stroke-linecap:square;stroke-width:0.8;"/>
     </g>
     <g id="line2d_82">
      <defs>
       <path d="M 0 0 
L -3.5 0 
" id="md4efda7751" style="stroke:#000000;stroke-width:0.8;"/>
      </defs>
      <g>
       <use style="stroke:#000000;stroke-width:0.8;" x="61.414833" xlink:href="#md4efda7751" y="109.156557"/>
      </g>
     </g>
     <g id="text_6">
      <!-- -100.0 -->
      <defs>
       <path d="M 26 19 
L 26 24.765625 
L 1 24.765625 
L 1 19 
z
" id="CMSS17-45"/>
       <path d="M 28.40625 67 
L 26.5 67 
C 21.09375 61.5625 14.796875 60.78125 8.40625 60.78125 
L 8.40625 55 
C 11.296875 55 16 55 20.703125 57.296875 
L 20.703125 5.765625 
L 8.90625 5.765625 
L 8.90625 0 
L 40.203125 0 
L 40.203125 5.765625 
L 28.40625 5.765625 
z
" id="CMSS17-49"/>
       <path d="M 43.09375 31.9375 
C 43.09375 37.578125 43 48.078125 38.90625 56.1875 
C 34.796875 64 28.203125 66.078125 23.5 66.078125 
C 16.703125 66.078125 10.90625 62.109375 7.90625 55.78125 
C 4.703125 49.15625 3.796875 42.328125 3.796875 31.9375 
C 3.796875 24.828125 4.09375 16.109375 7.703125 8.484375 
C 11.796875 0.078125 18.703125 -2 23.40625 -2 
C 29.59375 -2 35.59375 1.265625 39 8.09375 
C 42.5 15.21875 43.09375 23.03125 43.09375 31.9375 
M 23.40625 4.078125 
C 15.796875 4.078125 13.5 12.671875 12.796875 15.546875 
C 11.59375 20.46875 11.40625 25.21875 11.40625 33.03125 
C 11.40625 39.15625 11.40625 46.0625 13.296875 51.515625 
C 15.59375 57.828125 19.59375 60 23.40625 60 
C 30.796875 60 33.203125 52.6875 34 50.125 
C 35.5 44.890625 35.5 38.765625 35.5 33.03125 
C 35.5 23.84375 35.5 4.078125 23.40625 4.078125 
" id="CMSS17-48"/>
       <path d="M 17 7.96875 
L 9 7.96875 
L 9 0 
L 17 0 
z
" id="CMSS17-46"/>
      </defs>
      <g transform="translate(28.401209 112.615806)scale(0.1 -0.1)">
       <use transform="scale(0.996264)" xlink:href="#CMSS17-45"/>
       <use transform="translate(31.229113 0)scale(0.996264)" xlink:href="#CMSS17-49"/>
       <use transform="translate(78.072736 0)scale(0.996264)" xlink:href="#CMSS17-48"/>
       <use transform="translate(124.91636 0)scale(0.996264)" xlink:href="#CMSS17-48"/>
       <use transform="translate(171.759983 0)scale(0.996264)" xlink:href="#CMSS17-46"/>
       <use transform="translate(197.784188 0)scale(0.996264)" xlink:href="#CMSS17-48"/>
      </g>
     </g>
    </g>
    <g id="ytick_2">
     <g id="line2d_83">
      <path clip-path="url(#p3cc8512d56)" d="M 61.414833 99.234432 
L 396.214833 99.234432 
" style="fill:none;stroke:#b0b0b0;stroke-linecap:square;stroke-width:0.8;"/>
     </g>
     <g id="line2d_84">
      <g>
       <use style="stroke:#000000;stroke-width:0.8;" x="61.414833" xlink:href="#md4efda7751" y="99.234432"/>
      </g>
     </g>
     <g id="text_7">
      <!-- -80.0 -->
      <defs>
       <path d="M 30.203125 34.71875 
C 37.796875 37.1875 41.703125 43.125 41.703125 48.96875 
C 41.703125 58.15625 33.703125 66.078125 23.5 66.078125 
C 12.90625 66.078125 5.203125 57.9375 5.203125 49.125 
C 5.203125 43.4375 9 37.546875 16.703125 35.015625 
C 6.90625 31.203125 3.90625 23.625 3.90625 17.953125 
C 3.90625 6.96875 12.796875 -2 23.40625 -2 
C 34.40625 -2 43 7.109375 43 17.78125 
C 43 24.328125 39.09375 31.25 30.203125 34.71875 
M 23.5 38 
C 16.796875 38 12.296875 42.375 12.296875 49 
C 12.296875 55.71875 16.796875 60 23.5 60 
C 29.703125 60 34.59375 56.109375 34.59375 49 
C 34.59375 41.984375 29.796875 38 23.5 38 
M 23.5 4.171875 
C 17.796875 4.171875 11.703125 8.078125 11.703125 18.0625 
C 11.703125 28.328125 18.5 31.921875 23.40625 31.921875 
C 28.796875 31.921875 35.203125 28.125 35.203125 18.0625 
C 35.203125 7.671875 28.59375 4.171875 23.5 4.171875 
" id="CMSS17-56"/>
      </defs>
      <g transform="translate(33.382544 102.693681)scale(0.1 -0.1)">
       <use transform="scale(0.996264)" xlink:href="#CMSS17-45"/>
       <use transform="translate(31.229113 0)scale(0.996264)" xlink:href="#CMSS17-56"/>
       <use transform="translate(78.072736 0)scale(0.996264)" xlink:href="#CMSS17-48"/>
       <use transform="translate(124.91636 0)scale(0.996264)" xlink:href="#CMSS17-46"/>
       <use transform="translate(150.940565 0)scale(0.996264)" xlink:href="#CMSS17-48"/>
      </g>
     </g>
    </g>
    <g id="ytick_3">
     <g id="line2d_85">
      <path clip-path="url(#p3cc8512d56)" d="M 61.414833 89.312306 
L 396.214833 89.312306 
" style="fill:none;stroke:#b0b0b0;stroke-linecap:square;stroke-width:0.8;"/>
     </g>
     <g id="line2d_86">
      <g>
       <use style="stroke:#000000;stroke-width:0.8;" x="61.414833" xlink:href="#md4efda7751" y="89.312306"/>
      </g>
     </g>
     <g id="text_8">
      <!-- -60.0 -->
      <defs>
       <path d="M 39 64.078125 
C 34.796875 65.78125 31.796875 66.078125 29 66.078125 
C 16 66.078125 3.90625 52.625 3.90625 31.34375 
C 3.90625 4.140625 15.40625 -2 23.59375 -2 
C 28.09375 -2 32.59375 -0.609375 36.90625 4.375 
C 41.296875 9.640625 43 14.03125 43 21.703125 
C 43 34.046875 36.90625 45 27.796875 45 
C 21.203125 45 15.5 41.515625 12 37.125 
C 13 50.90625 19.59375 60 29.09375 60 
C 31.703125 60 35.09375 59.625 39 57.96875 
z
M 12.09375 21.390625 
C 12.09375 22.1875 12.09375 22.6875 12.203125 24.1875 
C 12.203125 31.953125 16.703125 38.921875 24 38.921875 
C 28.703125 38.921875 31.09375 36.4375 32.90625 33.359375 
C 35 29.46875 35.09375 25.78125 35.09375 21.6875 
C 35.09375 17.8125 35.09375 13.921875 32.796875 9.953125 
C 30.90625 6.859375 28.40625 4.171875 23.59375 4.171875 
C 14.09375 4.171875 12.5 17.40625 12.09375 21.390625 
" id="CMSS17-54"/>
      </defs>
      <g transform="translate(33.382544 92.771555)scale(0.1 -0.1)">
       <use transform="scale(0.996264)" xlink:href="#CMSS17-45"/>
       <use transform="translate(31.229113 0)scale(0.996264)" xlink:href="#CMSS17-54"/>
       <use transform="translate(78.072736 0)scale(0.996264)" xlink:href="#CMSS17-48"/>
       <use transform="translate(124.91636 0)scale(0.996264)" xlink:href="#CMSS17-46"/>
       <use transform="translate(150.940565 0)scale(0.996264)" xlink:href="#CMSS17-48"/>
      </g>
     </g>
    </g>
    <g id="ytick_4">
     <g id="line2d_87">
      <path clip-path="url(#p3cc8512d56)" d="M 61.414833 79.390181 
L 396.214833 79.390181 
" style="fill:none;stroke:#b0b0b0;stroke-linecap:square;stroke-width:0.8;"/>
     </g>
     <g id="line2d_88">
      <g>
       <use style="stroke:#000000;stroke-width:0.8;" x="61.414833" xlink:href="#md4efda7751" y="79.390181"/>
      </g>
     </g>
     <g id="text_9">
      <!-- -40.0 -->
      <defs>
       <path d="M 35.203125 17 
L 44.296875 17 
L 44.296875 23.078125 
L 35.203125 23.078125 
L 35.203125 65.5 
L 26.40625 65.5 
L 2.59375 23.078125 
L 2.59375 17 
L 27.296875 17 
L 27.296875 0 
L 35.203125 0 
z
M 10.296875 23.078125 
C 16.09375 33.234375 27.59375 53.734375 27.59375 60.703125 
L 27.59375 23.078125 
z
" id="CMSS17-52"/>
      </defs>
      <g transform="translate(33.382544 82.84943)scale(0.1 -0.1)">
       <use transform="scale(0.996264)" xlink:href="#CMSS17-45"/>
       <use transform="translate(31.229113 0)scale(0.996264)" xlink:href="#CMSS17-52"/>
       <use transform="translate(78.072736 0)scale(0.996264)" xlink:href="#CMSS17-48"/>
       <use transform="translate(124.91636 0)scale(0.996264)" xlink:href="#CMSS17-46"/>
       <use transform="translate(150.940565 0)scale(0.996264)" xlink:href="#CMSS17-48"/>
      </g>
     </g>
    </g>
    <g id="ytick_5">
     <g id="line2d_89">
      <path clip-path="url(#p3cc8512d56)" d="M 61.414833 69.468056 
L 396.214833 69.468056 
" style="fill:none;stroke:#b0b0b0;stroke-linecap:square;stroke-width:0.8;"/>
     </g>
     <g id="line2d_90">
      <g>
       <use style="stroke:#000000;stroke-width:0.8;" x="61.414833" xlink:href="#md4efda7751" y="69.468056"/>
      </g>
     </g>
     <g id="text_10">
      <!-- -20.0 -->
      <defs>
       <path d="M 25.796875 21.203125 
C 28.59375 24.078125 32.796875 27.5625 35.703125 31.046875 
C 38.5 34.4375 42.203125 39.234375 42.203125 46.203125 
C 42.203125 57.140625 34.796875 67 22.203125 67 
C 12.296875 67 6.59375 60.828125 3.90625 51.15625 
L 7.796875 45.765625 
C 10 54.84375 13.09375 60.625 20.90625 60.625 
C 29.5 60.625 34.296875 53.640625 34.296875 45.96875 
C 34.296875 36.796875 27.296875 29.703125 22 24.421875 
C 16.09375 18.546875 10.296875 12.5625 4.703125 6.375 
L 4.703125 0 
L 42.203125 0 
L 42.203125 6.765625 
L 25.203125 6.765625 
C 24 6.765625 22.796875 6.765625 21.59375 6.765625 
L 11.59375 6.765625 
L 11.59375 6.859375 
z
" id="CMSS17-50"/>
      </defs>
      <g transform="translate(33.382544 72.927305)scale(0.1 -0.1)">
       <use transform="scale(0.996264)" xlink:href="#CMSS17-45"/>
       <use transform="translate(31.229113 0)scale(0.996264)" xlink:href="#CMSS17-50"/>
       <use transform="translate(78.072736 0)scale(0.996264)" xlink:href="#CMSS17-48"/>
       <use transform="translate(124.91636 0)scale(0.996264)" xlink:href="#CMSS17-46"/>
       <use transform="translate(150.940565 0)scale(0.996264)" xlink:href="#CMSS17-48"/>
      </g>
     </g>
    </g>
    <g id="ytick_6">
     <g id="line2d_91">
      <path clip-path="url(#p3cc8512d56)" d="M 61.414833 59.54593 
L 396.214833 59.54593 
" style="fill:none;stroke:#b0b0b0;stroke-linecap:square;stroke-width:0.8;"/>
     </g>
     <g id="line2d_92">
      <g>
       <use style="stroke:#000000;stroke-width:0.8;" x="61.414833" xlink:href="#md4efda7751" y="59.54593"/>
      </g>
     </g>
     <g id="text_11">
      <!-- 0.0 -->
      <g transform="translate(41.684755 63.005179)scale(0.1 -0.1)">
       <use transform="scale(0.996264)" xlink:href="#CMSS17-48"/>
       <use transform="translate(46.843624 0)scale(0.996264)" xlink:href="#CMSS17-46"/>
       <use transform="translate(72.867828 0)scale(0.996264)" xlink:href="#CMSS17-48"/>
      </g>
     </g>
    </g>
    <g id="ytick_7">
     <g id="line2d_93">
      <path clip-path="url(#p3cc8512d56)" d="M 61.414833 49.623805 
L 396.214833 49.623805 
" style="fill:none;stroke:#b0b0b0;stroke-linecap:square;stroke-width:0.8;"/>
     </g>
     <g id="line2d_94">
      <g>
       <use style="stroke:#000000;stroke-width:0.8;" x="61.414833" xlink:href="#md4efda7751" y="49.623805"/>
      </g>
     </g>
     <g id="text_12">
      <!-- 20.0 -->
      <g transform="translate(36.703419 53.083054)scale(0.1 -0.1)">
       <use transform="scale(0.996264)" xlink:href="#CMSS17-50"/>
       <use transform="translate(46.843624 0)scale(0.996264)" xlink:href="#CMSS17-48"/>
       <use transform="translate(93.687247 0)scale(0.996264)" xlink:href="#CMSS17-46"/>
       <use transform="translate(119.711452 0)scale(0.996264)" xlink:href="#CMSS17-48"/>
      </g>
     </g>
    </g>
    <g id="ytick_8">
     <g id="line2d_95">
      <path clip-path="url(#p3cc8512d56)" d="M 61.414833 39.701679 
L 396.214833 39.701679 
" style="fill:none;stroke:#b0b0b0;stroke-linecap:square;stroke-width:0.8;"/>
     </g>
     <g id="line2d_96">
      <g>
       <use style="stroke:#000000;stroke-width:0.8;" x="61.414833" xlink:href="#md4efda7751" y="39.701679"/>
      </g>
     </g>
     <g id="text_13">
      <!-- 40.0 -->
      <g transform="translate(36.703419 43.160929)scale(0.1 -0.1)">
       <use transform="scale(0.996264)" xlink:href="#CMSS17-52"/>
       <use transform="translate(46.843624 0)scale(0.996264)" xlink:href="#CMSS17-48"/>
       <use transform="translate(93.687247 0)scale(0.996264)" xlink:href="#CMSS17-46"/>
       <use transform="translate(119.711452 0)scale(0.996264)" xlink:href="#CMSS17-48"/>
      </g>
     </g>
    </g>
    <g id="ytick_9">
     <g id="line2d_97">
      <path clip-path="url(#p3cc8512d56)" d="M 61.414833 29.779554 
L 396.214833 29.779554 
" style="fill:none;stroke:#b0b0b0;stroke-linecap:square;stroke-width:0.8;"/>
     </g>
     <g id="line2d_98">
      <g>
       <use style="stroke:#000000;stroke-width:0.8;" x="61.414833" xlink:href="#md4efda7751" y="29.779554"/>
      </g>
     </g>
     <g id="text_14">
      <!-- 60.0 -->
      <g transform="translate(36.703419 33.238803)scale(0.1 -0.1)">
       <use transform="scale(0.996264)" xlink:href="#CMSS17-54"/>
       <use transform="translate(46.843624 0)scale(0.996264)" xlink:href="#CMSS17-48"/>
       <use transform="translate(93.687247 0)scale(0.996264)" xlink:href="#CMSS17-46"/>
       <use transform="translate(119.711452 0)scale(0.996264)" xlink:href="#CMSS17-48"/>
      </g>
     </g>
    </g>
    <g id="text_15">
     <!-- Magnitude(dB) -->
     <defs>
      <path d="M 49.90625 37.046875 
L 45.09375 23.015625 
C 44.296875 20.421875 41.59375 12.359375 41 9.171875 
L 40.90625 9.171875 
C 40.59375 11.171875 40 13.265625 38.40625 18.34375 
C 37.5 21.328125 36.5 24.40625 35.5 27.203125 
L 20.703125 69 
L 9 69 
L 9 0 
L 16.796875 0 
L 16.796875 60.9375 
L 16.90625 60.9375 
C 16.90625 60.84375 17.796875 56.453125 23.90625 39.046875 
L 37.09375 1.5 
L 44.5 1.5 
L 56.40625 34.859375 
C 57.203125 37.15625 59.703125 44.421875 60.796875 47.90625 
C 61.796875 50.890625 64.296875 58.25 64.90625 61.140625 
L 65 61.140625 
L 65 0 
L 72.90625 0 
L 72.90625 69 
L 61.296875 69 
z
" id="CMSS17-77"/>
      <path d="M 37.59375 27.984375 
C 37.59375 37.375 30.90625 43.875 21.90625 43.875 
C 17.5 43.875 12.703125 43.078125 7.203125 39.890625 
L 7.796875 33.359375 
C 10.296875 35.125 14.59375 38 21.796875 38 
C 26.90625 38 30 34.0625 30 27.84375 
L 30 24 
C 14 24 4 19.34375 4 11.34375 
C 4 7.203125 6.5 -1 14.796875 -1 
C 16.296875 -1 24.40625 -1 30.203125 3.390625 
L 30.203125 -0.296875 
L 37.59375 -0.296875 
z
M 30 12.75 
C 30 10.953125 30 8.5625 27 6.78125 
C 24.40625 5.078125 21.09375 5.078125 19.703125 5.078125 
C 14.703125 5.078125 11.296875 7.984375 11.296875 11.625 
C 11.296875 18.921875 26.90625 18.921875 30 18.921875 
z
" id="CMSS17-97"/>
      <path d="M 44.5 43.875 
C 38.796875 43.875 33.90625 42.78125 29.90625 40.890625 
C 26.59375 43.390625 23.203125 43.875 20.90625 43.875 
C 12.203125 43.875 5.59375 36.703125 5.59375 28.34375 
C 5.59375 22.9375 8.59375 18.859375 8.796875 18.671875 
C 7 16.171875 6 13.484375 6 10.5 
C 6 7 7.40625 4.515625 8.5 3.125 
C 3.296875 -0.046875 2.59375 -4.90625 2.59375 -6.796875 
C 2.59375 -14.03125 11.703125 -20 23.40625 -20 
C 35.203125 -20 44.296875 -14.03125 44.296875 -6.6875 
C 44.296875 7 29 7 24.796875 7 
L 16.703125 7 
C 15.203125 7 11.203125 7 11.203125 12.359375 
C 11.203125 14.390625 12.09375 15.6875 12.203125 15.78125 
C 13.703125 14.6875 16.796875 13 20.90625 13 
C 29.203125 13 36.09375 19.96875 36.09375 28.546875 
C 36.09375 33.3125 33.90625 36.796875 33 38 
L 33.296875 38 
C 33.59375 38 37.796875 38 39.296875 38 
C 42.5 38 42.796875 37.953125 45.59375 37.796875 
z
M 20.90625 18.46875 
C 17.5 18.46875 12.703125 20.546875 12.703125 28.484375 
C 12.703125 37.109375 18.203125 38.5 20.796875 38.5 
C 24.203125 38.5 29 36.421875 29 28.484375 
C 29 19.859375 23.5 18.46875 20.90625 18.46875 
M 24.703125 -0.15625 
C 27.09375 -0.15625 37.203125 -0.15625 37.203125 -6.90625 
C 37.203125 -11.15625 31 -14.515625 23.5 -14.515625 
C 15.90625 -14.515625 9.703125 -11.25 9.703125 -6.796875 
C 9.703125 -6.296875 9.703125 -0.15625 16.59375 -0.15625 
z
" id="CMSS17-103"/>
      <path d="M 40.90625 29.328125 
C 40.90625 35.671875 39.40625 44 28.09375 44 
C 21.703125 44 17.5 40.71875 14.703125 37.328125 
L 14.703125 43.09375 
L 7.40625 43.09375 
L 7.40625 0 
L 15 0 
L 15 24.359375 
C 15 30.6875 17.40625 37.9375 24.203125 37.9375 
C 33 37.9375 33.296875 32 33.296875 28.578125 
L 33.296875 0 
L 40.90625 0 
z
" id="CMSS17-110"/>
      <path d="M 15.296875 65.359375 
L 6.90625 65.359375 
L 6.90625 57 
L 15.296875 57 
z
M 14.796875 42.796875 
L 7.40625 42.796875 
L 7.40625 0 
L 14.796875 0 
z
" id="CMSS17-105"/>
      <path d="M 16.703125 37 
L 29.703125 37 
L 29.703125 42.765625 
L 16.703125 42.765625 
L 16.703125 55 
L 9.59375 55 
L 9.59375 42.765625 
L 1.703125 42.765625 
L 1.703125 37 
L 9.40625 37 
L 9.40625 11.703125 
C 9.40625 6 10.703125 -1 17.296875 -1 
C 22.296875 -1 26.90625 0.390625 31.296875 2.6875 
L 29.703125 8.5625 
C 27.296875 6.46875 24.40625 5.265625 21.296875 5.265625 
C 16.90625 5.265625 16.703125 10.875 16.703125 13.375 
z
" id="CMSS17-116"/>
      <path d="M 40.90625 42.796875 
L 33.296875 42.796875 
L 33.296875 15.1875 
C 33.296875 7.78125 27.90625 4.78125 22.203125 4.78125 
C 15.59375 4.78125 15 6.984375 15 11.078125 
L 15 42.796875 
L 7.40625 42.796875 
L 7.40625 10.59375 
C 7.40625 2.796875 10.09375 -1 17 -1 
C 20.40625 -1 28.09375 -0.203125 33.5 4.78125 
L 33.5 0 
L 40.90625 0 
z
" id="CMSS17-117"/>
      <path d="M 40.796875 69 
L 33.40625 69 
L 33.40625 38.09375 
C 30.296875 40.671875 25.203125 43.0625 19.59375 43.0625 
C 10.5 43.0625 3.296875 33.296875 3.296875 21.046875 
C 3.296875 8.78125 10.40625 -1 19.296875 -1 
C 26.203125 -1 30.796875 2.6875 33.203125 4.78125 
L 33.203125 -0.203125 
L 40.796875 -0.203125 
z
M 33.203125 13.0625 
C 33.203125 11.671875 33.203125 10.203125 30.09375 7.53125 
C 28.09375 5.859375 25.703125 5.078125 23.40625 5.078125 
C 18 5.078125 10.90625 9 10.90625 20.9375 
C 10.90625 33.34375 18.90625 37 24.40625 37 
C 28.09375 37 31.09375 35.21875 33.203125 32.265625 
z
" id="CMSS17-100"/>
      <path d="M 39.09375 21.515625 
C 39.09375 24.84375 38.90625 31.296875 35.703125 36.640625 
C 32.203125 42.390625 26.5 44 22.203125 44 
C 11.796875 44 3 34.1875 3 21.484375 
C 3 9.09375 12.09375 -1 23.59375 -1 
C 28.09375 -1 33.59375 0.296875 38.59375 3.875 
C 38.59375 4.28125 38.40625 6.46875 38.296875 6.5625 
C 38.296875 6.765625 38 9.84375 38 10.25 
C 33.203125 6.359375 27.703125 5.078125 23.703125 5.078125 
C 17.296875 5.078125 10.40625 10.421875 10.09375 21.515625 
z
M 10.90625 27 
C 12.203125 32.5625 16.59375 37.828125 22.203125 37.828125 
C 23.703125 37.828125 30.703125 37.828125 32.5 27 
z
" id="CMSS17-101"/>
      <path d="M 25.203125 74.5 
C 19.796875 69.015625 7.40625 56.265625 7.40625 24.8125 
C 7.40625 -6.765625 19.796875 -19.421875 25.203125 -25 
L 31.296875 -25 
C 19 -12.25 15 5.578125 15 24.703125 
C 15 43.71875 18.796875 61.65625 31.296875 74.5 
z
" id="CMSS17-40"/>
      <path d="M 8.90625 69 
L 8.90625 0 
L 33.796875 0 
C 47.40625 0 57.296875 8.96875 57.296875 18.75 
C 57.296875 26.328125 50.796875 34 39.09375 36.203125 
C 52.09375 39.96875 54.703125 47.5 54.703125 51.765625 
C 54.703125 60.671875 44.90625 69 31.203125 69 
z
M 17 39 
L 17 63.421875 
L 28.5 63.421875 
C 38.796875 63.421875 46.90625 58.1875 46.90625 51.65625 
C 46.90625 45.71875 40.5 39 27.59375 39 
z
M 17 5.578125 
L 17 32.921875 
L 30.296875 32.921875 
C 41.09375 32.921875 49.40625 26.234375 49.40625 18.84375 
C 49.40625 12.0625 42.09375 5.578125 31 5.578125 
z
" id="CMSS17-66"/>
      <path d="M 11.296875 -25 
C 16.703125 -19.515625 29.09375 -6.765625 29.09375 24.703125 
C 29.09375 56.265625 16.703125 68.921875 11.296875 74.5 
L 5.203125 74.5 
C 17.5 61.75 21.5 43.921875 21.5 24.8125 
C 21.5 5.78125 17.703125 -12.15625 5.203125 -25 
z
" id="CMSS17-41"/>
     </defs>
     <g transform="translate(21.910549 99.910605)rotate(-90)scale(0.1 -0.1)">
      <use transform="scale(0.996264)" xlink:href="#CMSS17-77"/>
      <use transform="translate(81.67603 0)scale(0.996264)" xlink:href="#CMSS17-97"/>
      <use transform="translate(126.597951 0)scale(0.996264)" xlink:href="#CMSS17-103"/>
      <use transform="translate(173.441574 0)scale(0.996264)" xlink:href="#CMSS17-110"/>
      <use transform="translate(221.646517 0)scale(0.996264)" xlink:href="#CMSS17-105"/>
      <use transform="translate(243.82724 0)scale(0.996264)" xlink:href="#CMSS17-116"/>
      <use transform="translate(277.658807 0)scale(0.996264)" xlink:href="#CMSS17-117"/>
      <use transform="translate(325.86375 0)scale(0.996264)" xlink:href="#CMSS17-100"/>
      <use transform="translate(374.068693 0)scale(0.996264)" xlink:href="#CMSS17-101"/>
      <use transform="translate(415.707515 0)scale(0.996264)" xlink:href="#CMSS17-40"/>
      <use transform="translate(452.141429 0)scale(0.996264)" xlink:href="#CMSS17-100"/>
      <use transform="translate(500.346373 0)scale(0.996264)" xlink:href="#CMSS17-66"/>
      <use transform="translate(562.684413 0)scale(0.996264)" xlink:href="#CMSS17-41"/>
     </g>
    </g>
   </g>
   <g id="line2d_99">
    <path clip-path="url(#p3cc8512d56)" d="M 76.633015 26.792921 
L 179.107204 40.263237 
L 198.990256 43.090063 
L 212.755446 45.266558 
L 223.461704 47.172912 
L 234.167963 49.32156 
L 244.874221 51.733079 
L 255.58048 54.403016 
L 266.286738 57.325598 
L 276.992997 60.506895 
L 287.699256 63.95089 
L 298.405514 67.63597 
L 310.641238 72.077465 
L 327.465359 78.432056 
L 356.525204 89.685831 
L 380.996652 99.240027 
L 380.996652 99.240027 
" style="fill:none;stroke:#0000ff;stroke-linecap:square;stroke-width:1.5;"/>
   </g>
   <g id="line2d_100">
    <path clip-path="url(#p3cc8512d56)" d="M 273.85111 109.156557 
L 273.85111 29.779554 
" style="fill:none;stroke:#ff0000;stroke-dasharray:5.6,2.4;stroke-dashoffset:0;stroke-width:1.5;"/>
   </g>
   <g id="patch_3">
    <path d="M 61.414833 113.274739 
L 61.414833 22.674739 
" style="fill:none;stroke:#000000;stroke-linecap:square;stroke-linejoin:miter;stroke-width:0.8;"/>
   </g>
   <g id="patch_4">
    <path d="M 396.214833 113.274739 
L 396.214833 22.674739 
" style="fill:none;stroke:#000000;stroke-linecap:square;stroke-linejoin:miter;stroke-width:0.8;"/>
   </g>
   <g id="patch_5">
    <path d="M 61.414833 113.274739 
L 396.214833 113.274739 
" style="fill:none;stroke:#000000;stroke-linecap:square;stroke-linejoin:miter;stroke-width:0.8;"/>
   </g>
   <g id="patch_6">
    <path d="M 61.414833 22.674739 
L 396.214833 22.674739 
" style="fill:none;stroke:#000000;stroke-linecap:square;stroke-linejoin:miter;stroke-width:0.8;"/>
   </g>
   <g id="text_16">
    <!-- $10^5/s(s+10)(s+50)$ -->
    <defs>
     <path d="M 11.40625 57.6875 
C 12.40625 57.28125 16.5 56 20.703125 56 
C 30 56 35.09375 61.109375 38 64.0625 
C 38 64.953125 38 65.5 37.40625 65.5 
C 37.296875 65.5 37.09375 65.5 36.296875 65.046875 
C 32.796875 63.40625 28.703125 62.078125 23.703125 62.078125 
C 20.703125 62.078125 16.203125 62.484375 11.296875 64.671875 
C 10.203125 65.171875 10 65.171875 9.90625 65.171875 
C 9.40625 65.171875 9.296875 65.0625 9.296875 63.078125 
L 9.296875 34.421875 
C 9.296875 32.640625 9.296875 32.140625 10.296875 32.140625 
C 10.796875 32.140625 11 32.34375 11.5 33.03125 
C 14.703125 37.515625 19.09375 39.40625 24.09375 39.40625 
C 27.59375 39.40625 35.09375 37.21875 35.09375 20.140625 
C 35.09375 16.953125 35.09375 11.171875 32.09375 6.578125 
C 29.59375 2.484375 25.703125 0.390625 21.40625 0.390625 
C 14.796875 0.390625 8.09375 5 6.296875 12.71875 
C 6.703125 12.609375 7.5 12.421875 7.90625 12.421875 
C 9.203125 12.421875 11.703125 13.125 11.703125 16.21875 
C 11.703125 18.90625 9.796875 20 7.90625 20 
C 5.59375 20 4.09375 18.59375 4.09375 15.796875 
C 4.09375 7.09375 11 -2 21.59375 -2 
C 31.90625 -2 41.703125 6.875 41.703125 19.75 
C 41.703125 31.71875 33.90625 41 24.203125 41 
C 19.09375 41 14.796875 39.109375 11.40625 35.53125 
z
" id="CMR17-53"/>
     <path d="M 42.90625 71.28125 
C 42.90625 71.390625 43.5 72.90625 43.5 73.09375 
C 43.5 74.296875 42.5 75 41.703125 75 
C 41.203125 75 40.296875 75 39.5 72.796875 
L 6 -21.296875 
C 6 -21.40625 5.40625 -22.890625 5.40625 -23.09375 
C 5.40625 -24.296875 6.40625 -25 7.203125 -25 
C 7.796875 -25 8.703125 -24.890625 9.40625 -22.796875 
z
" id="CMMI12-61"/>
     <path d="M 22.796875 20 
C 24.5 19.703125 27.203125 19.109375 27.796875 19 
C 29.09375 18.625 33.59375 17.03125 33.59375 12.234375 
C 33.59375 9.15625 30.796875 1.09375 19.203125 1.09375 
C 17.09375 1.09375 9.59375 1.09375 7.59375 6.8125 
C 11.59375 6.3125 13.59375 9.421875 13.59375 11.640625 
C 13.59375 13.75 12.203125 14.84375 10.203125 14.84375 
C 8 14.84375 5.09375 13.140625 5.09375 8.625 
C 5.09375 2.703125 11.09375 -1 19.09375 -1 
C 34.296875 -1 38.796875 10.171875 38.796875 15.375 
C 38.796875 16.859375 38.796875 19.65625 35.59375 22.84375 
C 33.09375 25.25 30.703125 25.75 25.296875 26.84375 
C 22.59375 27.4375 18.296875 28.34375 18.296875 32.828125 
C 18.296875 34.828125 20.09375 42.015625 29.59375 42.015625 
C 33.796875 42.015625 37.90625 40.453125 38.90625 37 
C 34.5 37 34.296875 33.203125 34.296875 33.109375 
C 34.296875 31 36.203125 30.40625 37.09375 30.40625 
C 38.5 30.40625 41.296875 31.484375 41.296875 35.640625 
C 41.296875 39.765625 37.5 44 29.703125 44 
C 16.59375 44 13.09375 33.75 13.09375 29.671875 
C 13.09375 22.09375 20.5 20.5 22.796875 20 
" id="CMMI12-115"/>
     <path d="M 30.59375 -24.390625 
C 30.59375 -24.296875 30.59375 -24.09375 30.296875 -23.796875 
C 25.703125 -19.125 13.40625 -6.359375 13.40625 24.703125 
C 13.40625 55.765625 25.5 68.421875 30.40625 73.390625 
C 30.40625 73.5 30.59375 73.703125 30.59375 74 
C 30.59375 74.296875 30.296875 74.5 29.90625 74.5 
C 28.796875 74.5 20.296875 67.125 15.40625 56.15625 
C 10.40625 45.109375 9 34.359375 9 24.8125 
C 9 17.625 9.703125 5.484375 15.703125 -7.359375 
C 20.5 -17.734375 28.703125 -25 29.90625 -25 
C 30.40625 -25 30.59375 -24.796875 30.59375 -24.390625 
" id="CMR17-40"/>
     <path d="M 37.703125 23 
L 64.203125 23 
C 65.59375 23 67.296875 23 67.296875 24.6875 
C 67.296875 26.484375 65.703125 26.484375 64.203125 26.484375 
L 37.703125 26.484375 
L 37.703125 52.90625 
C 37.703125 54.296875 37.703125 56 36 56 
C 34.203125 56 34.203125 54.40625 34.203125 52.90625 
L 34.203125 26.484375 
L 7.703125 26.484375 
C 6.296875 26.484375 4.59375 26.484375 4.59375 24.796875 
C 4.59375 23 6.203125 23 7.703125 23 
L 34.203125 23 
L 34.203125 -3.40625 
C 34.203125 -4.796875 34.203125 -6.5 35.90625 -6.5 
C 37.703125 -6.5 37.703125 -4.90625 37.703125 -3.40625 
z
" id="CMR17-43"/>
     <path d="M 26.296875 24.703125 
C 26.296875 31.875 25.59375 44.015625 19.59375 56.859375 
C 14.796875 67.234375 6.59375 74.5 5.40625 74.5 
C 5.09375 74.5 4.703125 74.390625 4.703125 73.890625 
C 4.703125 73.703125 4.796875 73.59375 4.90625 73.390625 
C 9.703125 68.40625 21.90625 55.75 21.90625 24.75 
C 21.90625 -6.359375 9.796875 -19.015625 4.90625 -24.015625 
C 4.796875 -24.203125 4.703125 -24.3125 4.703125 -24.5 
C 4.703125 -25 5.09375 -25 5.40625 -25 
C 6.5 -25 15 -17.625 19.90625 -6.65625 
C 24.90625 4.390625 26.296875 15.140625 26.296875 24.703125 
" id="CMR17-41"/>
    </defs>
    <g transform="translate(174.169572 16.674739)scale(0.12 -0.12)">
     <use transform="scale(0.996264)" xlink:href="#CMR17-49"/>
     <use transform="translate(45.690477 0)scale(0.996264)" xlink:href="#CMR17-48"/>
     <use transform="translate(91.380954 36.153639)scale(0.697382)" xlink:href="#CMR17-53"/>
     <use transform="translate(123.862268 0)scale(0.996264)" xlink:href="#CMMI12-61"/>
     <use transform="translate(172.637187 0)scale(0.996264)" xlink:href="#CMMI12-115"/>
     <use transform="translate(218.587235 0)scale(0.996264)" xlink:href="#CMR17-40"/>
     <use transform="translate(253.868002 0)scale(0.996264)" xlink:href="#CMMI12-115"/>
     <use transform="translate(321.957257 0)scale(0.996264)" xlink:href="#CMR17-43"/>
     <use transform="translate(415.811252 0)scale(0.996264)" xlink:href="#CMR17-49"/>
     <use transform="translate(461.501729 0)scale(0.996264)" xlink:href="#CMR17-48"/>
     <use transform="translate(507.192206 0)scale(0.996264)" xlink:href="#CMR17-41"/>
     <use transform="translate(542.472974 0)scale(0.996264)" xlink:href="#CMR17-40"/>
     <use transform="translate(577.753742 0)scale(0.996264)" xlink:href="#CMMI12-115"/>
     <use transform="translate(645.842997 0)scale(0.996264)" xlink:href="#CMR17-43"/>
     <use transform="translate(739.696992 0)scale(0.996264)" xlink:href="#CMR17-53"/>
     <use transform="translate(785.387469 0)scale(0.996264)" xlink:href="#CMR17-48"/>
     <use transform="translate(831.077946 0)scale(0.996264)" xlink:href="#CMR17-41"/>
    </g>
   </g>
  </g>
  <g id="axes_2">
   <g id="patch_7">
    <path d="M 61.414833 240.114739 
L 396.214833 240.114739 
L 396.214833 149.514739 
L 61.414833 149.514739 
z
" style="fill:#ffffff;"/>
   </g>
   <g id="matplotlib.axis_3">
    <g id="xtick_41">
     <g id="line2d_101">
      <path clip-path="url(#p6ec757d42b)" d="M 76.633015 240.114739 
L 76.633015 149.514739 
" style="fill:none;stroke:#b0b0b0;stroke-linecap:square;stroke-width:0.8;"/>
     </g>
     <g id="line2d_102">
      <g>
       <use style="stroke:#000000;stroke-width:0.8;" x="76.633015" xlink:href="#mbe88ac707c" y="240.114739"/>
      </g>
     </g>
     <g id="text_17">
      <!-- $10^{-1}$ -->
      <g transform="translate(66.552729 254.033237)scale(0.1 -0.1)">
       <use transform="scale(0.996264)" xlink:href="#CMR17-49"/>
       <use transform="translate(45.690477 0)scale(0.996264)" xlink:href="#CMR17-48"/>
       <use transform="translate(91.380954 36.153639)scale(0.697382)" xlink:href="#CMSY10-0"/>
       <use transform="translate(145.621947 36.153639)scale(0.697382)" xlink:href="#CMR17-49"/>
      </g>
     </g>
    </g>
    <g id="xtick_42">
     <g id="line2d_103">
      <path clip-path="url(#p6ec757d42b)" d="M 152.723924 240.114739 
L 152.723924 149.514739 
" style="fill:none;stroke:#b0b0b0;stroke-linecap:square;stroke-width:0.8;"/>
     </g>
     <g id="line2d_104">
      <g>
       <use style="stroke:#000000;stroke-width:0.8;" x="152.723924" xlink:href="#mbe88ac707c" y="240.114739"/>
      </g>
     </g>
     <g id="text_18">
      <!-- $10^{0}$ -->
      <g transform="translate(145.75697 254.033237)scale(0.1 -0.1)">
       <use transform="scale(0.996264)" xlink:href="#CMR17-49"/>
       <use transform="translate(45.690477 0)scale(0.996264)" xlink:href="#CMR17-48"/>
       <use transform="translate(91.380954 36.153639)scale(0.697382)" xlink:href="#CMR17-48"/>
      </g>
     </g>
    </g>
    <g id="xtick_43">
     <g id="line2d_105">
      <path clip-path="url(#p6ec757d42b)" d="M 228.814833 240.114739 
L 228.814833 149.514739 
" style="fill:none;stroke:#b0b0b0;stroke-linecap:square;stroke-width:0.8;"/>
     </g>
     <g id="line2d_106">
      <g>
       <use style="stroke:#000000;stroke-width:0.8;" x="228.814833" xlink:href="#mbe88ac707c" y="240.114739"/>
      </g>
     </g>
     <g id="text_19">
      <!-- $10^{1}$ -->
      <g transform="translate(221.847879 254.033237)scale(0.1 -0.1)">
       <use transform="scale(0.996264)" xlink:href="#CMR17-49"/>
       <use transform="translate(45.690477 0)scale(0.996264)" xlink:href="#CMR17-48"/>
       <use transform="translate(91.380954 36.153639)scale(0.697382)" xlink:href="#CMR17-49"/>
      </g>
     </g>
    </g>
    <g id="xtick_44">
     <g id="line2d_107">
      <path clip-path="url(#p6ec757d42b)" d="M 304.905743 240.114739 
L 304.905743 149.514739 
" style="fill:none;stroke:#b0b0b0;stroke-linecap:square;stroke-width:0.8;"/>
     </g>
     <g id="line2d_108">
      <g>
       <use style="stroke:#000000;stroke-width:0.8;" x="304.905743" xlink:href="#mbe88ac707c" y="240.114739"/>
      </g>
     </g>
     <g id="text_20">
      <!-- $10^{2}$ -->
      <g transform="translate(297.938789 254.033237)scale(0.1 -0.1)">
       <use transform="scale(0.996264)" xlink:href="#CMR17-49"/>
       <use transform="translate(45.690477 0)scale(0.996264)" xlink:href="#CMR17-48"/>
       <use transform="translate(91.380954 36.153639)scale(0.697382)" xlink:href="#CMR17-50"/>
      </g>
     </g>
    </g>
    <g id="xtick_45">
     <g id="line2d_109">
      <path clip-path="url(#p6ec757d42b)" d="M 380.996652 240.114739 
L 380.996652 149.514739 
" style="fill:none;stroke:#b0b0b0;stroke-linecap:square;stroke-width:0.8;"/>
     </g>
     <g id="line2d_110">
      <g>
       <use style="stroke:#000000;stroke-width:0.8;" x="380.996652" xlink:href="#mbe88ac707c" y="240.114739"/>
      </g>
     </g>
     <g id="text_21">
      <!-- $10^{3}$ -->
      <g transform="translate(374.029698 254.033237)scale(0.1 -0.1)">
       <use transform="scale(0.996264)" xlink:href="#CMR17-49"/>
       <use transform="translate(45.690477 0)scale(0.996264)" xlink:href="#CMR17-48"/>
       <use transform="translate(91.380954 36.153639)scale(0.697382)" xlink:href="#CMR17-51"/>
      </g>
     </g>
    </g>
    <g id="xtick_46">
     <g id="line2d_111">
      <path clip-path="url(#p6ec757d42b)" d="M 64.846384 240.114739 
L 64.846384 149.514739 
" style="fill:none;stroke:#b0b0b0;stroke-linecap:square;stroke-width:0.8;"/>
     </g>
     <g id="line2d_112">
      <g>
       <use style="stroke:#000000;stroke-width:0.6;" x="64.846384" xlink:href="#m97c24e24b9" y="240.114739"/>
      </g>
     </g>
    </g>
    <g id="xtick_47">
     <g id="line2d_113">
      <path clip-path="url(#p6ec757d42b)" d="M 69.259044 240.114739 
L 69.259044 149.514739 
" style="fill:none;stroke:#b0b0b0;stroke-linecap:square;stroke-width:0.8;"/>
     </g>
     <g id="line2d_114">
      <g>
       <use style="stroke:#000000;stroke-width:0.6;" x="69.259044" xlink:href="#m97c24e24b9" y="240.114739"/>
      </g>
     </g>
    </g>
    <g id="xtick_48">
     <g id="line2d_115">
      <path clip-path="url(#p6ec757d42b)" d="M 73.151286 240.114739 
L 73.151286 149.514739 
" style="fill:none;stroke:#b0b0b0;stroke-linecap:square;stroke-width:0.8;"/>
     </g>
     <g id="line2d_116">
      <g>
       <use style="stroke:#000000;stroke-width:0.6;" x="73.151286" xlink:href="#m97c24e24b9" y="240.114739"/>
      </g>
     </g>
    </g>
    <g id="xtick_49">
     <g id="line2d_117">
      <path clip-path="url(#p6ec757d42b)" d="M 99.538661 240.114739 
L 99.538661 149.514739 
" style="fill:none;stroke:#b0b0b0;stroke-linecap:square;stroke-width:0.8;"/>
     </g>
     <g id="line2d_118">
      <g>
       <use style="stroke:#000000;stroke-width:0.6;" x="99.538661" xlink:href="#m97c24e24b9" y="240.114739"/>
      </g>
     </g>
    </g>
    <g id="xtick_50">
     <g id="line2d_119">
      <path clip-path="url(#p6ec757d42b)" d="M 112.937605 240.114739 
L 112.937605 149.514739 
" style="fill:none;stroke:#b0b0b0;stroke-linecap:square;stroke-width:0.8;"/>
     </g>
     <g id="line2d_120">
      <g>
       <use style="stroke:#000000;stroke-width:0.6;" x="112.937605" xlink:href="#m97c24e24b9" y="240.114739"/>
      </g>
     </g>
    </g>
    <g id="xtick_51">
     <g id="line2d_121">
      <path clip-path="url(#p6ec757d42b)" d="M 122.444307 240.114739 
L 122.444307 149.514739 
" style="fill:none;stroke:#b0b0b0;stroke-linecap:square;stroke-width:0.8;"/>
     </g>
     <g id="line2d_122">
      <g>
       <use style="stroke:#000000;stroke-width:0.6;" x="122.444307" xlink:href="#m97c24e24b9" y="240.114739"/>
      </g>
     </g>
    </g>
    <g id="xtick_52">
     <g id="line2d_123">
      <path clip-path="url(#p6ec757d42b)" d="M 129.818278 240.114739 
L 129.818278 149.514739 
" style="fill:none;stroke:#b0b0b0;stroke-linecap:square;stroke-width:0.8;"/>
     </g>
     <g id="line2d_124">
      <g>
       <use style="stroke:#000000;stroke-width:0.6;" x="129.818278" xlink:href="#m97c24e24b9" y="240.114739"/>
      </g>
     </g>
    </g>
    <g id="xtick_53">
     <g id="line2d_125">
      <path clip-path="url(#p6ec757d42b)" d="M 135.843251 240.114739 
L 135.843251 149.514739 
" style="fill:none;stroke:#b0b0b0;stroke-linecap:square;stroke-width:0.8;"/>
     </g>
     <g id="line2d_126">
      <g>
       <use style="stroke:#000000;stroke-width:0.6;" x="135.843251" xlink:href="#m97c24e24b9" y="240.114739"/>
      </g>
     </g>
    </g>
    <g id="xtick_54">
     <g id="line2d_127">
      <path clip-path="url(#p6ec757d42b)" d="M 140.937293 240.114739 
L 140.937293 149.514739 
" style="fill:none;stroke:#b0b0b0;stroke-linecap:square;stroke-width:0.8;"/>
     </g>
     <g id="line2d_128">
      <g>
       <use style="stroke:#000000;stroke-width:0.6;" x="140.937293" xlink:href="#m97c24e24b9" y="240.114739"/>
      </g>
     </g>
    </g>
    <g id="xtick_55">
     <g id="line2d_129">
      <path clip-path="url(#p6ec757d42b)" d="M 145.349953 240.114739 
L 145.349953 149.514739 
" style="fill:none;stroke:#b0b0b0;stroke-linecap:square;stroke-width:0.8;"/>
     </g>
     <g id="line2d_130">
      <g>
       <use style="stroke:#000000;stroke-width:0.6;" x="145.349953" xlink:href="#m97c24e24b9" y="240.114739"/>
      </g>
     </g>
    </g>
    <g id="xtick_56">
     <g id="line2d_131">
      <path clip-path="url(#p6ec757d42b)" d="M 149.242195 240.114739 
L 149.242195 149.514739 
" style="fill:none;stroke:#b0b0b0;stroke-linecap:square;stroke-width:0.8;"/>
     </g>
     <g id="line2d_132">
      <g>
       <use style="stroke:#000000;stroke-width:0.6;" x="149.242195" xlink:href="#m97c24e24b9" y="240.114739"/>
      </g>
     </g>
    </g>
    <g id="xtick_57">
     <g id="line2d_133">
      <path clip-path="url(#p6ec757d42b)" d="M 175.62957 240.114739 
L 175.62957 149.514739 
" style="fill:none;stroke:#b0b0b0;stroke-linecap:square;stroke-width:0.8;"/>
     </g>
     <g id="line2d_134">
      <g>
       <use style="stroke:#000000;stroke-width:0.6;" x="175.62957" xlink:href="#m97c24e24b9" y="240.114739"/>
      </g>
     </g>
    </g>
    <g id="xtick_58">
     <g id="line2d_135">
      <path clip-path="url(#p6ec757d42b)" d="M 189.028514 240.114739 
L 189.028514 149.514739 
" style="fill:none;stroke:#b0b0b0;stroke-linecap:square;stroke-width:0.8;"/>
     </g>
     <g id="line2d_136">
      <g>
       <use style="stroke:#000000;stroke-width:0.6;" x="189.028514" xlink:href="#m97c24e24b9" y="240.114739"/>
      </g>
     </g>
    </g>
    <g id="xtick_59">
     <g id="line2d_137">
      <path clip-path="url(#p6ec757d42b)" d="M 198.535216 240.114739 
L 198.535216 149.514739 
" style="fill:none;stroke:#b0b0b0;stroke-linecap:square;stroke-width:0.8;"/>
     </g>
     <g id="line2d_138">
      <g>
       <use style="stroke:#000000;stroke-width:0.6;" x="198.535216" xlink:href="#m97c24e24b9" y="240.114739"/>
      </g>
     </g>
    </g>
    <g id="xtick_60">
     <g id="line2d_139">
      <path clip-path="url(#p6ec757d42b)" d="M 205.909187 240.114739 
L 205.909187 149.514739 
" style="fill:none;stroke:#b0b0b0;stroke-linecap:square;stroke-width:0.8;"/>
     </g>
     <g id="line2d_140">
      <g>
       <use style="stroke:#000000;stroke-width:0.6;" x="205.909187" xlink:href="#m97c24e24b9" y="240.114739"/>
      </g>
     </g>
    </g>
    <g id="xtick_61">
     <g id="line2d_141">
      <path clip-path="url(#p6ec757d42b)" d="M 211.93416 240.114739 
L 211.93416 149.514739 
" style="fill:none;stroke:#b0b0b0;stroke-linecap:square;stroke-width:0.8;"/>
     </g>
     <g id="line2d_142">
      <g>
       <use style="stroke:#000000;stroke-width:0.6;" x="211.93416" xlink:href="#m97c24e24b9" y="240.114739"/>
      </g>
     </g>
    </g>
    <g id="xtick_62">
     <g id="line2d_143">
      <path clip-path="url(#p6ec757d42b)" d="M 217.028203 240.114739 
L 217.028203 149.514739 
" style="fill:none;stroke:#b0b0b0;stroke-linecap:square;stroke-width:0.8;"/>
     </g>
     <g id="line2d_144">
      <g>
       <use style="stroke:#000000;stroke-width:0.6;" x="217.028203" xlink:href="#m97c24e24b9" y="240.114739"/>
      </g>
     </g>
    </g>
    <g id="xtick_63">
     <g id="line2d_145">
      <path clip-path="url(#p6ec757d42b)" d="M 221.440862 240.114739 
L 221.440862 149.514739 
" style="fill:none;stroke:#b0b0b0;stroke-linecap:square;stroke-width:0.8;"/>
     </g>
     <g id="line2d_146">
      <g>
       <use style="stroke:#000000;stroke-width:0.6;" x="221.440862" xlink:href="#m97c24e24b9" y="240.114739"/>
      </g>
     </g>
    </g>
    <g id="xtick_64">
     <g id="line2d_147">
      <path clip-path="url(#p6ec757d42b)" d="M 225.333104 240.114739 
L 225.333104 149.514739 
" style="fill:none;stroke:#b0b0b0;stroke-linecap:square;stroke-width:0.8;"/>
     </g>
     <g id="line2d_148">
      <g>
       <use style="stroke:#000000;stroke-width:0.6;" x="225.333104" xlink:href="#m97c24e24b9" y="240.114739"/>
      </g>
     </g>
    </g>
    <g id="xtick_65">
     <g id="line2d_149">
      <path clip-path="url(#p6ec757d42b)" d="M 251.72048 240.114739 
L 251.72048 149.514739 
" style="fill:none;stroke:#b0b0b0;stroke-linecap:square;stroke-width:0.8;"/>
     </g>
     <g id="line2d_150">
      <g>
       <use style="stroke:#000000;stroke-width:0.6;" x="251.72048" xlink:href="#m97c24e24b9" y="240.114739"/>
      </g>
     </g>
    </g>
    <g id="xtick_66">
     <g id="line2d_151">
      <path clip-path="url(#p6ec757d42b)" d="M 265.119424 240.114739 
L 265.119424 149.514739 
" style="fill:none;stroke:#b0b0b0;stroke-linecap:square;stroke-width:0.8;"/>
     </g>
     <g id="line2d_152">
      <g>
       <use style="stroke:#000000;stroke-width:0.6;" x="265.119424" xlink:href="#m97c24e24b9" y="240.114739"/>
      </g>
     </g>
    </g>
    <g id="xtick_67">
     <g id="line2d_153">
      <path clip-path="url(#p6ec757d42b)" d="M 274.626126 240.114739 
L 274.626126 149.514739 
" style="fill:none;stroke:#b0b0b0;stroke-linecap:square;stroke-width:0.8;"/>
     </g>
     <g id="line2d_154">
      <g>
       <use style="stroke:#000000;stroke-width:0.6;" x="274.626126" xlink:href="#m97c24e24b9" y="240.114739"/>
      </g>
     </g>
    </g>
    <g id="xtick_68">
     <g id="line2d_155">
      <path clip-path="url(#p6ec757d42b)" d="M 282.000097 240.114739 
L 282.000097 149.514739 
" style="fill:none;stroke:#b0b0b0;stroke-linecap:square;stroke-width:0.8;"/>
     </g>
     <g id="line2d_156">
      <g>
       <use style="stroke:#000000;stroke-width:0.6;" x="282.000097" xlink:href="#m97c24e24b9" y="240.114739"/>
      </g>
     </g>
    </g>
    <g id="xtick_69">
     <g id="line2d_157">
      <path clip-path="url(#p6ec757d42b)" d="M 288.02507 240.114739 
L 288.02507 149.514739 
" style="fill:none;stroke:#b0b0b0;stroke-linecap:square;stroke-width:0.8;"/>
     </g>
     <g id="line2d_158">
      <g>
       <use style="stroke:#000000;stroke-width:0.6;" x="288.02507" xlink:href="#m97c24e24b9" y="240.114739"/>
      </g>
     </g>
    </g>
    <g id="xtick_70">
     <g id="line2d_159">
      <path clip-path="url(#p6ec757d42b)" d="M 293.119112 240.114739 
L 293.119112 149.514739 
" style="fill:none;stroke:#b0b0b0;stroke-linecap:square;stroke-width:0.8;"/>
     </g>
     <g id="line2d_160">
      <g>
       <use style="stroke:#000000;stroke-width:0.6;" x="293.119112" xlink:href="#m97c24e24b9" y="240.114739"/>
      </g>
     </g>
    </g>
    <g id="xtick_71">
     <g id="line2d_161">
      <path clip-path="url(#p6ec757d42b)" d="M 297.531772 240.114739 
L 297.531772 149.514739 
" style="fill:none;stroke:#b0b0b0;stroke-linecap:square;stroke-width:0.8;"/>
     </g>
     <g id="line2d_162">
      <g>
       <use style="stroke:#000000;stroke-width:0.6;" x="297.531772" xlink:href="#m97c24e24b9" y="240.114739"/>
      </g>
     </g>
    </g>
    <g id="xtick_72">
     <g id="line2d_163">
      <path clip-path="url(#p6ec757d42b)" d="M 301.424014 240.114739 
L 301.424014 149.514739 
" style="fill:none;stroke:#b0b0b0;stroke-linecap:square;stroke-width:0.8;"/>
     </g>
     <g id="line2d_164">
      <g>
       <use style="stroke:#000000;stroke-width:0.6;" x="301.424014" xlink:href="#m97c24e24b9" y="240.114739"/>
      </g>
     </g>
    </g>
    <g id="xtick_73">
     <g id="line2d_165">
      <path clip-path="url(#p6ec757d42b)" d="M 327.811389 240.114739 
L 327.811389 149.514739 
" style="fill:none;stroke:#b0b0b0;stroke-linecap:square;stroke-width:0.8;"/>
     </g>
     <g id="line2d_166">
      <g>
       <use style="stroke:#000000;stroke-width:0.6;" x="327.811389" xlink:href="#m97c24e24b9" y="240.114739"/>
      </g>
     </g>
    </g>
    <g id="xtick_74">
     <g id="line2d_167">
      <path clip-path="url(#p6ec757d42b)" d="M 341.210333 240.114739 
L 341.210333 149.514739 
" style="fill:none;stroke:#b0b0b0;stroke-linecap:square;stroke-width:0.8;"/>
     </g>
     <g id="line2d_168">
      <g>
       <use style="stroke:#000000;stroke-width:0.6;" x="341.210333" xlink:href="#m97c24e24b9" y="240.114739"/>
      </g>
     </g>
    </g>
    <g id="xtick_75">
     <g id="line2d_169">
      <path clip-path="url(#p6ec757d42b)" d="M 350.717035 240.114739 
L 350.717035 149.514739 
" style="fill:none;stroke:#b0b0b0;stroke-linecap:square;stroke-width:0.8;"/>
     </g>
     <g id="line2d_170">
      <g>
       <use style="stroke:#000000;stroke-width:0.6;" x="350.717035" xlink:href="#m97c24e24b9" y="240.114739"/>
      </g>
     </g>
    </g>
    <g id="xtick_76">
     <g id="line2d_171">
      <path clip-path="url(#p6ec757d42b)" d="M 358.091006 240.114739 
L 358.091006 149.514739 
" style="fill:none;stroke:#b0b0b0;stroke-linecap:square;stroke-width:0.8;"/>
     </g>
     <g id="line2d_172">
      <g>
       <use style="stroke:#000000;stroke-width:0.6;" x="358.091006" xlink:href="#m97c24e24b9" y="240.114739"/>
      </g>
     </g>
    </g>
    <g id="xtick_77">
     <g id="line2d_173">
      <path clip-path="url(#p6ec757d42b)" d="M 364.115979 240.114739 
L 364.115979 149.514739 
" style="fill:none;stroke:#b0b0b0;stroke-linecap:square;stroke-width:0.8;"/>
     </g>
     <g id="line2d_174">
      <g>
       <use style="stroke:#000000;stroke-width:0.6;" x="364.115979" xlink:href="#m97c24e24b9" y="240.114739"/>
      </g>
     </g>
    </g>
    <g id="xtick_78">
     <g id="line2d_175">
      <path clip-path="url(#p6ec757d42b)" d="M 369.210021 240.114739 
L 369.210021 149.514739 
" style="fill:none;stroke:#b0b0b0;stroke-linecap:square;stroke-width:0.8;"/>
     </g>
     <g id="line2d_176">
      <g>
       <use style="stroke:#000000;stroke-width:0.6;" x="369.210021" xlink:href="#m97c24e24b9" y="240.114739"/>
      </g>
     </g>
    </g>
    <g id="xtick_79">
     <g id="line2d_177">
      <path clip-path="url(#p6ec757d42b)" d="M 373.622681 240.114739 
L 373.622681 149.514739 
" style="fill:none;stroke:#b0b0b0;stroke-linecap:square;stroke-width:0.8;"/>
     </g>
     <g id="line2d_178">
      <g>
       <use style="stroke:#000000;stroke-width:0.6;" x="373.622681" xlink:href="#m97c24e24b9" y="240.114739"/>
      </g>
     </g>
    </g>
    <g id="xtick_80">
     <g id="line2d_179">
      <path clip-path="url(#p6ec757d42b)" d="M 377.514923 240.114739 
L 377.514923 149.514739 
" style="fill:none;stroke:#b0b0b0;stroke-linecap:square;stroke-width:0.8;"/>
     </g>
     <g id="line2d_180">
      <g>
       <use style="stroke:#000000;stroke-width:0.6;" x="377.514923" xlink:href="#m97c24e24b9" y="240.114739"/>
      </g>
     </g>
    </g>
    <g id="text_22">
     <!-- Frequency(rad/sec) -->
     <defs>
      <path d="M 45.59375 31 
L 45.59375 37.078125 
L 17.203125 37.078125 
L 17.203125 62 
L 29.40625 62 
C 30.59375 62 31.796875 62 33 62 
L 49.5 62 
L 49.5 68.359375 
L 8.796875 68.359375 
L 8.796875 -0.5 
L 17.203125 -0.5 
L 17.203125 31 
z
" id="CMSS17-70"/>
      <path d="M 14.90625 21.296875 
C 14.90625 30.703125 21.796875 37 30.59375 37 
L 30.59375 43.578125 
C 24.203125 43.578125 18.203125 40.390625 14.59375 35.203125 
L 14.59375 43.09375 
L 7.5 43.09375 
L 7.5 0 
L 14.90625 0 
z
" id="CMSS17-114"/>
      <path d="M 40.796875 44 
L 33.40625 44 
L 33.40625 37.9375 
C 33 38.4375 28.40625 44 20.59375 44 
C 11.5 44 3.296875 34.8125 3.296875 21.859375 
C 3.296875 9.890625 10.203125 -0.078125 19.203125 -0.078125 
C 23.40625 -0.078125 28.703125 1.421875 33.203125 5.703125 
L 33.203125 -19 
L 40.796875 -19 
z
M 33.40625 14.28125 
C 33.40625 13 33.40625 11.21875 30.296875 8.65625 
C 29.5 7.96875 27.296875 6 23.5 6 
C 16.40625 6 10.90625 13.28125 10.90625 21.859375 
C 10.90625 31.421875 17.59375 37.734375 24.40625 37.734375 
C 30.09375 37.734375 33.40625 32.203125 33.40625 28.078125 
z
" id="CMSS17-113"/>
      <path d="M 38.5 39.703125 
C 38.5 40.390625 33.90625 42.40625 32.703125 42.796875 
C 29.40625 44 25.203125 44 24.09375 44 
C 11.09375 44 3.296875 32.703125 3.296875 21.296875 
C 3.296875 9.296875 12 -1 23.703125 -1 
C 30.40625 -1 35.203125 1.1875 39.09375 3.78125 
L 38.5 10.375 
C 34.203125 7.078125 29.203125 5.265625 23.796875 5.265625 
C 16 5.265625 10.90625 12.09375 10.90625 21.390625 
C 10.90625 28.609375 14.203125 37.71875 24.203125 37.71875 
C 29.703125 37.71875 32.796875 36.609375 37.40625 33.515625 
z
" id="CMSS17-99"/>
      <path d="M 41.796875 43 
L 34 43 
C 25.5 20.21875 22.59375 10.96875 22.40625 5.984375 
L 22.296875 5.984375 
C 22 10.875 17.59375 22.8125 14.09375 31.359375 
L 9.40625 43 
L 1.296875 43 
L 19 0.203125 
C 17.90625 -2.78125 16.296875 -7.265625 15.796875 -8.265625 
C 13.59375 -13.828125 12.09375 -13.828125 10.5 -13.828125 
C 10.09375 -13.828125 6.90625 -13.828125 3.296875 -12.640625 
L 3.90625 -19.203125 
C 6.40625 -19.703125 8.90625 -20 10.703125 -20 
C 13.203125 -20 18.203125 -20 22.796875 -7.765625 
z
" id="CMSS17-121"/>
      <path d="M 41.203125 71.015625 
C 41.703125 72.296875 41.703125 72.5 41.703125 72.703125 
C 41.703125 73.890625 40.796875 74.5 40 74.5 
C 38.796875 74.5 38.40625 73.703125 38 72.5 
L 5.703125 -21.515625 
C 5.203125 -22.8125 5.203125 -23.015625 5.203125 -23.21875 
C 5.203125 -24.40625 6.09375 -25 6.90625 -25 
C 8.09375 -25 8.5 -24.203125 8.90625 -23.015625 
z
" id="CMSS17-47"/>
      <path d="M 32.203125 41.046875 
C 26.296875 43.859375 21.703125 43.859375 18.703125 43.859375 
C 11.59375 43.859375 3.09375 41.375 3.09375 31.296875 
C 3.09375 21.234375 14.09375 19.03125 17.09375 18.421875 
C 21.703125 17.53125 26.796875 16.53125 26.796875 11.5625 
C 26.796875 5.265625 19.59375 5.265625 18.296875 5.265625 
C 14.296875 5.265625 8.796875 6.359375 3.796875 9.96875 
L 2.59375 3.28125 
C 8.296875 0 13.796875 -1 18.40625 -1 
C 30.703125 -1 33.796875 6.5 33.796875 12.203125 
C 33.796875 17.09375 31 20.390625 29.09375 21.890625 
C 25.796875 24.5 24.59375 24.796875 16.40625 26.5 
C 15 26.703125 10.09375 27.796875 10.09375 32.28125 
C 10.09375 38 16.40625 38 17.796875 38 
C 24.296875 38 28.296875 35.984375 31 34.5 
z
" id="CMSS17-115"/>
     </defs>
     <g transform="translate(188.383048 267.442396)scale(0.1 -0.1)">
      <use transform="scale(0.996264)" xlink:href="#CMSS17-70"/>
      <use transform="translate(50.687105 0)scale(0.996264)" xlink:href="#CMSS17-114"/>
      <use transform="translate(82.596878 0)scale(0.996264)" xlink:href="#CMSS17-101"/>
      <use transform="translate(124.2357 0)scale(0.996264)" xlink:href="#CMSS17-113"/>
      <use transform="translate(172.440643 0)scale(0.996264)" xlink:href="#CMSS17-117"/>
      <use transform="translate(220.645586 0)scale(0.996264)" xlink:href="#CMSS17-101"/>
      <use transform="translate(262.284408 0)scale(0.996264)" xlink:href="#CMSS17-110"/>
      <use transform="translate(310.489351 0)scale(0.996264)" xlink:href="#CMSS17-99"/>
      <use transform="translate(352.128174 0)scale(0.996264)" xlink:href="#CMSS17-121"/>
      <use transform="translate(395.128315 0)scale(0.996264)" xlink:href="#CMSS17-40"/>
      <use transform="translate(431.562229 0)scale(0.996264)" xlink:href="#CMSS17-114"/>
      <use transform="translate(463.472002 0)scale(0.996264)" xlink:href="#CMSS17-97"/>
      <use transform="translate(508.393923 0)scale(0.996264)" xlink:href="#CMSS17-100"/>
      <use transform="translate(556.598866 0)scale(0.996264)" xlink:href="#CMSS17-47"/>
      <use transform="translate(603.442489 0)scale(0.996264)" xlink:href="#CMSS17-115"/>
      <use transform="translate(639.356031 0)scale(0.996264)" xlink:href="#CMSS17-101"/>
      <use transform="translate(680.994853 0)scale(0.996264)" xlink:href="#CMSS17-99"/>
      <use transform="translate(722.633675 0)scale(0.996264)" xlink:href="#CMSS17-41"/>
     </g>
    </g>
   </g>
   <g id="matplotlib.axis_4">
    <g id="ytick_10">
     <g id="line2d_181">
      <path clip-path="url(#p6ec757d42b)" d="M 61.414833 235.996557 
L 396.214833 235.996557 
" style="fill:none;stroke:#b0b0b0;stroke-linecap:square;stroke-width:0.8;"/>
     </g>
     <g id="line2d_182">
      <g>
       <use style="stroke:#000000;stroke-width:0.8;" x="61.414833" xlink:href="#md4efda7751" y="235.996557"/>
      </g>
     </g>
     <g id="text_23">
      <!-- -270.0 -->
      <defs>
       <path d="M 21.703125 59 
C 22.90625 59 24.09375 59 25.296875 59 
L 36.796875 59 
C 22.5 42.359375 14.296875 21.328125 14.296875 -0.5 
L 22.296875 -0.5 
C 22.296875 20.671875 29.296875 42.125 43 59.296875 
L 43 65.765625 
L 3.90625 65.765625 
L 3.90625 59 
z
" id="CMSS17-55"/>
      </defs>
      <g transform="translate(28.401209 239.455806)scale(0.1 -0.1)">
       <use transform="scale(0.996264)" xlink:href="#CMSS17-45"/>
       <use transform="translate(31.229113 0)scale(0.996264)" xlink:href="#CMSS17-50"/>
       <use transform="translate(78.072736 0)scale(0.996264)" xlink:href="#CMSS17-55"/>
       <use transform="translate(124.91636 0)scale(0.996264)" xlink:href="#CMSS17-48"/>
       <use transform="translate(171.759983 0)scale(0.996264)" xlink:href="#CMSS17-46"/>
       <use transform="translate(197.784188 0)scale(0.996264)" xlink:href="#CMSS17-48"/>
      </g>
     </g>
    </g>
    <g id="ytick_11">
     <g id="line2d_183">
      <path clip-path="url(#p6ec757d42b)" d="M 61.414833 215.405648 
L 396.214833 215.405648 
" style="fill:none;stroke:#b0b0b0;stroke-linecap:square;stroke-width:0.8;"/>
     </g>
     <g id="line2d_184">
      <g>
       <use style="stroke:#000000;stroke-width:0.8;" x="61.414833" xlink:href="#md4efda7751" y="215.405648"/>
      </g>
     </g>
     <g id="text_24">
      <!-- -225.0 -->
      <defs>
       <path d="M 14.59375 58.625 
L 39.09375 58.625 
L 39.09375 65 
L 7.296875 65 
L 7.296875 27.828125 
L 14 27.828125 
C 15.796875 31.96875 19.5 35 24.296875 35 
C 28.796875 35 33.796875 31.078125 33.796875 19.78125 
C 33.796875 7.703125 26.703125 4.171875 21.5 4.171875 
C 15.09375 4.171875 9.203125 8 6.59375 13.296875 
L 3.40625 7.796875 
C 8 0.765625 15.5 -2 21.5 -2 
C 33.09375 -2 42.203125 7.765625 42.203125 19.578125 
C 42.203125 31.71875 34.09375 41.078125 24.40625 41.078125 
C 20.90625 41.078125 17.5 39.890625 14.59375 37.484375 
z
" id="CMSS17-53"/>
      </defs>
      <g transform="translate(28.401209 218.864897)scale(0.1 -0.1)">
       <use transform="scale(0.996264)" xlink:href="#CMSS17-45"/>
       <use transform="translate(31.229113 0)scale(0.996264)" xlink:href="#CMSS17-50"/>
       <use transform="translate(78.072736 0)scale(0.996264)" xlink:href="#CMSS17-50"/>
       <use transform="translate(124.91636 0)scale(0.996264)" xlink:href="#CMSS17-53"/>
       <use transform="translate(171.759983 0)scale(0.996264)" xlink:href="#CMSS17-46"/>
       <use transform="translate(197.784188 0)scale(0.996264)" xlink:href="#CMSS17-48"/>
      </g>
     </g>
    </g>
    <g id="ytick_12">
     <g id="line2d_185">
      <path clip-path="url(#p6ec757d42b)" d="M 61.414833 194.814739 
L 396.214833 194.814739 
" style="fill:none;stroke:#b0b0b0;stroke-linecap:square;stroke-width:0.8;"/>
     </g>
     <g id="line2d_186">
      <g>
       <use style="stroke:#000000;stroke-width:0.8;" x="61.414833" xlink:href="#md4efda7751" y="194.814739"/>
      </g>
     </g>
     <g id="text_25">
      <!-- -180.0 -->
      <g transform="translate(28.401209 198.273988)scale(0.1 -0.1)">
       <use transform="scale(0.996264)" xlink:href="#CMSS17-45"/>
       <use transform="translate(31.229113 0)scale(0.996264)" xlink:href="#CMSS17-49"/>
       <use transform="translate(78.072736 0)scale(0.996264)" xlink:href="#CMSS17-56"/>
       <use transform="translate(124.91636 0)scale(0.996264)" xlink:href="#CMSS17-48"/>
       <use transform="translate(171.759983 0)scale(0.996264)" xlink:href="#CMSS17-46"/>
       <use transform="translate(197.784188 0)scale(0.996264)" xlink:href="#CMSS17-48"/>
      </g>
     </g>
    </g>
    <g id="ytick_13">
     <g id="line2d_187">
      <path clip-path="url(#p6ec757d42b)" d="M 61.414833 174.22383 
L 396.214833 174.22383 
" style="fill:none;stroke:#b0b0b0;stroke-linecap:square;stroke-width:0.8;"/>
     </g>
     <g id="line2d_188">
      <g>
       <use style="stroke:#000000;stroke-width:0.8;" x="61.414833" xlink:href="#md4efda7751" y="174.22383"/>
      </g>
     </g>
     <g id="text_26">
      <!-- -135.0 -->
      <defs>
       <path d="M 15.703125 31.640625 
L 22.5 31.640625 
C 31.90625 31.640625 34.59375 23.546875 34.59375 17.90625 
C 34.59375 10.203125 30.203125 4.171875 23 4.171875 
C 17.40625 4.171875 9.5 6.9375 5 14.25 
C 4.296875 10.796875 4.296875 10.59375 3.90625 8.21875 
C 8.59375 1.375 16.203125 -2 23.203125 -2 
C 34.59375 -2 43 7.390625 43 17.78125 
C 43 25.59375 37.5 32.140625 30 34.609375 
C 36 37.875 40.40625 44 40.40625 51.140625 
C 40.40625 59.453125 32.703125 66.078125 23.296875 66.078125 
C 14.703125 66.078125 8 60.8125 5.203125 55.15625 
C 5.90625 54.1875 7.703125 51.3125 8.59375 49.828125 
C 10.796875 55.65625 16.5 60 23.203125 60 
C 28.796875 60 32.5 56.359375 32.5 51.109375 
C 32.5 45.671875 29 39.734375 23.09375 38.359375 
C 22.703125 38.359375 16.5 37.765625 15.703125 37.671875 
z
" id="CMSS17-51"/>
      </defs>
      <g transform="translate(28.401209 177.683079)scale(0.1 -0.1)">
       <use transform="scale(0.996264)" xlink:href="#CMSS17-45"/>
       <use transform="translate(31.229113 0)scale(0.996264)" xlink:href="#CMSS17-49"/>
       <use transform="translate(78.072736 0)scale(0.996264)" xlink:href="#CMSS17-51"/>
       <use transform="translate(124.91636 0)scale(0.996264)" xlink:href="#CMSS17-53"/>
       <use transform="translate(171.759983 0)scale(0.996264)" xlink:href="#CMSS17-46"/>
       <use transform="translate(197.784188 0)scale(0.996264)" xlink:href="#CMSS17-48"/>
      </g>
     </g>
    </g>
    <g id="ytick_14">
     <g id="line2d_189">
      <path clip-path="url(#p6ec757d42b)" d="M 61.414833 153.632921 
L 396.214833 153.632921 
" style="fill:none;stroke:#b0b0b0;stroke-linecap:square;stroke-width:0.8;"/>
     </g>
     <g id="line2d_190">
      <g>
       <use style="stroke:#000000;stroke-width:0.8;" x="61.414833" xlink:href="#md4efda7751" y="153.632921"/>
      </g>
     </g>
     <g id="text_27">
      <!-- -90.0 -->
      <defs>
       <path d="M 6.796875 2.71875 
C 9.59375 0.328125 13.203125 -2 19.296875 -2 
C 31.40625 -2 43 11.265625 43 32.734375 
C 43 61.4375 30.5 66.078125 23.796875 66.078125 
C 17.09375 66.078125 12.796875 63.140625 9.09375 58.453125 
C 4.703125 53.078125 3.90625 48.28125 3.90625 42.703125 
C 3.90625 36.046875 5.09375 31.953125 7.90625 27.265625 
C 11.703125 21.203125 15.203125 19.921875 19.09375 19.921875 
C 25 19.921875 30.90625 22.796875 34.90625 27.75 
C 34.203125 14.09375 28.09375 4.171875 19.296875 4.171875 
C 15.703125 4.171875 12.796875 5.296875 9.90625 8.0625 
z
M 34.59375 42.90625 
C 34.703125 42.234375 34.703125 40.96875 34.703125 40.5625 
C 34.703125 32.40625 29.90625 26 22.90625 26 
C 18.296875 26 15.90625 28.328125 14.09375 31.34375 
C 11.90625 35.140625 11.796875 38.828125 11.796875 42.703125 
C 11.796875 46.5 11.796875 50.6875 14.59375 54.859375 
C 16.703125 57.859375 19.296875 60 23.796875 60 
C 33 60 34.5 46.875 34.59375 42.90625 
" id="CMSS17-57"/>
      </defs>
      <g transform="translate(33.382544 157.09217)scale(0.1 -0.1)">
       <use transform="scale(0.996264)" xlink:href="#CMSS17-45"/>
       <use transform="translate(31.229113 0)scale(0.996264)" xlink:href="#CMSS17-57"/>
       <use transform="translate(78.072736 0)scale(0.996264)" xlink:href="#CMSS17-48"/>
       <use transform="translate(124.91636 0)scale(0.996264)" xlink:href="#CMSS17-46"/>
       <use transform="translate(150.940565 0)scale(0.996264)" xlink:href="#CMSS17-48"/>
      </g>
     </g>
    </g>
    <g id="text_28">
     <!-- Phase(deg) -->
     <defs>
      <path d="M 32.90625 29 
C 44.90625 29 54.703125 38.328125 54.703125 49.34375 
C 54.703125 60.15625 45.296875 69.578125 32.296875 69.578125 
L 8.90625 69.578125 
L 8.90625 0 
L 17.296875 0 
L 17.296875 29 
z
M 30.09375 64 
C 41.703125 64 46.796875 56.671875 46.796875 49.328125 
C 46.796875 42.5 42.09375 34.78125 30.09375 34.78125 
L 17.09375 34.78125 
L 17.09375 64 
z
" id="CMSS17-80"/>
      <path d="M 40.90625 29.546875 
C 40.90625 35.8125 39.40625 44.0625 28.09375 44.0625 
C 21.796875 44.0625 17.703125 40.984375 14.796875 37.609375 
L 14.796875 69.5 
L 7.40625 69.5 
L 7.40625 0.5 
L 15 0.5 
L 15 24.578125 
C 15 30.828125 17.40625 38 24.203125 38 
C 33 38 33.296875 32.125 33.296875 28.734375 
L 33.296875 0.5 
L 40.90625 0.5 
z
" id="CMSS17-104"/>
     </defs>
     <g transform="translate(21.910549 218.240815)rotate(-90)scale(0.1 -0.1)">
      <use transform="scale(0.996264)" xlink:href="#CMSS17-80"/>
      <use transform="translate(59.735586 0)scale(0.996264)" xlink:href="#CMSS17-104"/>
      <use transform="translate(107.940529 0)scale(0.996264)" xlink:href="#CMSS17-97"/>
      <use transform="translate(152.86245 0)scale(0.996264)" xlink:href="#CMSS17-115"/>
      <use transform="translate(188.775992 0)scale(0.996264)" xlink:href="#CMSS17-101"/>
      <use transform="translate(230.414814 0)scale(0.996264)" xlink:href="#CMSS17-40"/>
      <use transform="translate(266.848728 0)scale(0.996264)" xlink:href="#CMSS17-100"/>
      <use transform="translate(315.053671 0)scale(0.996264)" xlink:href="#CMSS17-101"/>
      <use transform="translate(356.692493 0)scale(0.996264)" xlink:href="#CMSS17-103"/>
      <use transform="translate(403.536117 0)scale(0.996264)" xlink:href="#CMSS17-41"/>
     </g>
    </g>
   </g>
   <g id="line2d_191">
    <path clip-path="url(#p6ec757d42b)" d="M 76.633015 153.947518 
L 101.104463 154.292583 
L 117.928584 154.730239 
L 131.693774 155.296505 
L 142.400032 155.931392 
L 151.576825 156.663753 
L 160.753618 157.626222 
L 168.400946 158.652795 
L 176.048273 159.933805 
L 182.166135 161.17803 
L 188.283997 162.64927 
L 194.40186 164.376611 
L 200.519722 166.385285 
L 206.637584 168.691985 
L 212.755446 171.299411 
L 218.873308 174.191597 
L 224.99117 177.332461 
L 232.638497 181.527817 
L 243.344756 187.701995 
L 280.051928 209.15271 
L 287.699256 213.283415 
L 293.817118 216.352991 
L 299.93498 219.160807 
L 306.052842 221.676807 
L 312.170704 223.891102 
L 318.288566 225.811257 
L 324.406428 227.457147 
L 330.52429 228.855624 
L 336.642152 230.036225 
L 344.289479 231.250047 
L 351.936807 232.221764 
L 361.1136 233.132152 
L 370.290393 233.824554 
L 380.996652 234.424627 
L 380.996652 234.424627 
" style="fill:none;stroke:#0000ff;stroke-linecap:square;stroke-width:1.5;"/>
   </g>
   <g id="line2d_192">
    <path clip-path="url(#p6ec757d42b)" d="M 273.85111 153.632921 
L 273.85111 235.996557 
" style="fill:none;stroke:#ff0000;stroke-dasharray:5.6,2.4;stroke-dashoffset:0;stroke-width:1.5;"/>
   </g>
   <g id="patch_8">
    <path d="M 61.414833 240.114739 
L 61.414833 149.514739 
" style="fill:none;stroke:#000000;stroke-linecap:square;stroke-linejoin:miter;stroke-width:0.8;"/>
   </g>
   <g id="patch_9">
    <path d="M 396.214833 240.114739 
L 396.214833 149.514739 
" style="fill:none;stroke:#000000;stroke-linecap:square;stroke-linejoin:miter;stroke-width:0.8;"/>
   </g>
   <g id="patch_10">
    <path d="M 61.414833 240.114739 
L 396.214833 240.114739 
" style="fill:none;stroke:#000000;stroke-linecap:square;stroke-linejoin:miter;stroke-width:0.8;"/>
   </g>
   <g id="patch_11">
    <path d="M 61.414833 149.514739 
L 396.214833 149.514739 
" style="fill:none;stroke:#000000;stroke-linecap:square;stroke-linejoin:miter;stroke-width:0.8;"/>
   </g>
  </g>
 </g>
 <defs>
  <clipPath id="p3cc8512d56">
   <rect height="90.6" width="334.8" x="61.414833" y="22.674739"/>
  </clipPath>
  <clipPath id="p6ec757d42b">
   <rect height="90.6" width="334.8" x="61.414833" y="149.514739"/>
  </clipPath>
 </defs>
</svg>
