<?xml version="1.0" encoding="utf-8" standalone="no"?>
<!DOCTYPE svg PUBLIC "-//W3C//DTD SVG 1.1//EN"
  "http://www.w3.org/Graphics/SVG/1.1/DTD/svg11.dtd">
<!-- Created with matplotlib (http://matplotlib.org/) -->
<svg height="265pt" version="1.1" viewBox="0 0 394 265" width="394pt" xmlns="http://www.w3.org/2000/svg" xmlns:xlink="http://www.w3.org/1999/xlink">
 <defs>
  <style type="text/css">
*{stroke-linecap:butt;stroke-linejoin:round;}
  </style>
 </defs>
 <g id="figure_1">
  <g id="patch_1">
   <path d="M 0 265.158317 
L 394.694929 265.158317 
L 394.694929 0 
L 0 0 
z
" style="fill:none;"/>
  </g>
  <g id="axes_1">
   <g id="patch_2">
    <path d="M 49.194929 101.3 
L 383.994929 101.3 
L 383.994929 10.7 
L 49.194929 10.7 
z
" style="fill:#ffffff;"/>
   </g>
   <g id="matplotlib.axis_1">
    <g id="xtick_1">
     <g id="line2d_1">
      <path clip-path="url(#p854cea5370)" d="M 64.413111 101.3 
L 64.413111 10.7 
" style="fill:none;stroke:#b0b0b0;stroke-linecap:square;stroke-width:0.8;"/>
     </g>
     <g id="line2d_2">
      <defs>
       <path d="M 0 0 
L 0 3.5 
" id="m05cf677c23" style="stroke:#000000;stroke-width:0.8;"/>
      </defs>
      <g>
       <use style="stroke:#000000;stroke-width:0.8;" x="64.413111" xlink:href="#m05cf677c23" y="101.3"/>
      </g>
     </g>
     <g id="text_1">
      <!-- $10^{-2}$ -->
      <defs>
       <path d="M 26.59375 63.40625 
C 26.59375 65.5 26.5 65.5 25.09375 65.5 
C 21.203125 61.1875 15.296875 59.796875 9.703125 59.796875 
C 9.40625 59.796875 8.90625 59.796875 8.796875 59.5 
C 8.703125 59.296875 8.703125 59.09375 8.703125 57 
C 11.796875 57 17 57.59375 21 59.984375 
L 21 7.203125 
C 21 3.6875 20.796875 2.5 12.203125 2.5 
L 9.203125 2.5 
L 9.203125 0 
C 14 0 19 0 23.796875 0 
C 28.59375 0 33.59375 0 38.40625 0 
L 38.40625 2.5 
L 35.40625 2.5 
C 26.796875 2.5 26.59375 3.59375 26.59375 7.15625 
z
" id="CMR17-49"/>
       <path d="M 42 31.640625 
C 42 37.75 41.90625 48.125 37.703125 56.109375 
C 34 63.109375 28.09375 65.59375 22.90625 65.59375 
C 18.09375 65.59375 12 63.40625 8.203125 56.203125 
C 4.203125 48.71875 3.796875 39.4375 3.796875 31.640625 
C 3.796875 25.953125 3.90625 17.28125 7 9.671875 
C 11.296875 -0.609375 19 -2 22.90625 -2 
C 27.5 -2 34.5 -0.109375 38.59375 9.375 
C 41.59375 16.28125 42 24.359375 42 31.640625 
M 22.90625 -0.40625 
C 16.5 -0.40625 12.703125 5.078125 11.296875 12.6875 
C 10.203125 18.5625 10.203125 27.15625 10.203125 32.75 
C 10.203125 40.4375 10.203125 46.828125 11.5 52.921875 
C 13.40625 61.390625 19 64 22.90625 64 
C 27 64 32.296875 61.296875 34.203125 53.125 
C 35.5 47.4375 35.59375 40.734375 35.59375 32.75 
C 35.59375 26.25 35.59375 18.265625 34.40625 12.375 
C 32.296875 1.484375 26.40625 -0.40625 22.90625 -0.40625 
" id="CMR17-48"/>
       <path d="M 65.90625 23 
C 67.59375 23 69.40625 23 69.40625 25 
C 69.40625 27 67.59375 27 65.90625 27 
L 11.796875 27 
C 10.09375 27 8.296875 27 8.296875 25 
C 8.296875 23 10.09375 23 11.796875 23 
z
" id="CMSY10-0"/>
       <path d="M 41.703125 15.453125 
L 39.90625 15.453125 
C 38.90625 8.375 38.09375 7.171875 37.703125 6.5625 
C 37.203125 5.765625 30 5.765625 28.59375 5.765625 
L 9.40625 5.765625 
C 13 9.671875 20 16.75 28.5 24.953125 
C 34.59375 30.734375 41.703125 37.53125 41.703125 47.421875 
C 41.703125 59.21875 32.296875 66 21.796875 66 
C 10.796875 66 4.09375 56.3125 4.09375 47.34375 
C 4.09375 43.4375 7 42.9375 8.203125 42.9375 
C 9.203125 42.9375 12.203125 43.546875 12.203125 47.03125 
C 12.203125 50.109375 9.59375 51 8.203125 51 
C 7.59375 51 7 50.90625 6.59375 50.703125 
C 8.5 59.21875 14.296875 63.40625 20.40625 63.40625 
C 29.09375 63.40625 34.796875 56.515625 34.796875 47.421875 
C 34.796875 38.734375 29.703125 31.25 24 24.75 
L 4.09375 2.28125 
L 4.09375 0 
L 39.296875 0 
z
" id="CMR17-50"/>
      </defs>
      <g transform="translate(54.332824 115.218498)scale(0.1 -0.1)">
       <use transform="scale(0.996264)" xlink:href="#CMR17-49"/>
       <use transform="translate(45.690477 0)scale(0.996264)" xlink:href="#CMR17-48"/>
       <use transform="translate(91.380954 36.153639)scale(0.697382)" xlink:href="#CMSY10-0"/>
       <use transform="translate(145.621947 36.153639)scale(0.697382)" xlink:href="#CMR17-50"/>
      </g>
     </g>
    </g>
    <g id="xtick_2">
     <g id="line2d_3">
      <path clip-path="url(#p854cea5370)" d="M 140.50402 101.3 
L 140.50402 10.7 
" style="fill:none;stroke:#b0b0b0;stroke-linecap:square;stroke-width:0.8;"/>
     </g>
     <g id="line2d_4">
      <g>
       <use style="stroke:#000000;stroke-width:0.8;" x="140.50402" xlink:href="#m05cf677c23" y="101.3"/>
      </g>
     </g>
     <g id="text_2">
      <!-- $10^{-1}$ -->
      <g transform="translate(130.423734 115.218498)scale(0.1 -0.1)">
       <use transform="scale(0.996264)" xlink:href="#CMR17-49"/>
       <use transform="translate(45.690477 0)scale(0.996264)" xlink:href="#CMR17-48"/>
       <use transform="translate(91.380954 36.153639)scale(0.697382)" xlink:href="#CMSY10-0"/>
       <use transform="translate(145.621947 36.153639)scale(0.697382)" xlink:href="#CMR17-49"/>
      </g>
     </g>
    </g>
    <g id="xtick_3">
     <g id="line2d_5">
      <path clip-path="url(#p854cea5370)" d="M 216.594929 101.3 
L 216.594929 10.7 
" style="fill:none;stroke:#b0b0b0;stroke-linecap:square;stroke-width:0.8;"/>
     </g>
     <g id="line2d_6">
      <g>
       <use style="stroke:#000000;stroke-width:0.8;" x="216.594929" xlink:href="#m05cf677c23" y="101.3"/>
      </g>
     </g>
     <g id="text_3">
      <!-- $10^{0}$ -->
      <g transform="translate(209.627975 115.218498)scale(0.1 -0.1)">
       <use transform="scale(0.996264)" xlink:href="#CMR17-49"/>
       <use transform="translate(45.690477 0)scale(0.996264)" xlink:href="#CMR17-48"/>
       <use transform="translate(91.380954 36.153639)scale(0.697382)" xlink:href="#CMR17-48"/>
      </g>
     </g>
    </g>
    <g id="xtick_4">
     <g id="line2d_7">
      <path clip-path="url(#p854cea5370)" d="M 292.685838 101.3 
L 292.685838 10.7 
" style="fill:none;stroke:#b0b0b0;stroke-linecap:square;stroke-width:0.8;"/>
     </g>
     <g id="line2d_8">
      <g>
       <use style="stroke:#000000;stroke-width:0.8;" x="292.685838" xlink:href="#m05cf677c23" y="101.3"/>
      </g>
     </g>
     <g id="text_4">
      <!-- $10^{1}$ -->
      <g transform="translate(285.718884 115.218498)scale(0.1 -0.1)">
       <use transform="scale(0.996264)" xlink:href="#CMR17-49"/>
       <use transform="translate(45.690477 0)scale(0.996264)" xlink:href="#CMR17-48"/>
       <use transform="translate(91.380954 36.153639)scale(0.697382)" xlink:href="#CMR17-49"/>
      </g>
     </g>
    </g>
    <g id="xtick_5">
     <g id="line2d_9">
      <path clip-path="url(#p854cea5370)" d="M 368.776747 101.3 
L 368.776747 10.7 
" style="fill:none;stroke:#b0b0b0;stroke-linecap:square;stroke-width:0.8;"/>
     </g>
     <g id="line2d_10">
      <g>
       <use style="stroke:#000000;stroke-width:0.8;" x="368.776747" xlink:href="#m05cf677c23" y="101.3"/>
      </g>
     </g>
     <g id="text_5">
      <!-- $10^{2}$ -->
      <g transform="translate(361.809793 115.218498)scale(0.1 -0.1)">
       <use transform="scale(0.996264)" xlink:href="#CMR17-49"/>
       <use transform="translate(45.690477 0)scale(0.996264)" xlink:href="#CMR17-48"/>
       <use transform="translate(91.380954 36.153639)scale(0.697382)" xlink:href="#CMR17-50"/>
      </g>
     </g>
    </g>
    <g id="xtick_6">
     <g id="line2d_11">
      <path clip-path="url(#p854cea5370)" d="M 52.62648 101.3 
L 52.62648 10.7 
" style="fill:none;stroke:#b0b0b0;stroke-linecap:square;stroke-width:0.8;"/>
     </g>
     <g id="line2d_12">
      <defs>
       <path d="M 0 0 
L 0 2 
" id="m9a736b5f44" style="stroke:#000000;stroke-width:0.6;"/>
      </defs>
      <g>
       <use style="stroke:#000000;stroke-width:0.6;" x="52.62648" xlink:href="#m9a736b5f44" y="101.3"/>
      </g>
     </g>
    </g>
    <g id="xtick_7">
     <g id="line2d_13">
      <path clip-path="url(#p854cea5370)" d="M 57.03914 101.3 
L 57.03914 10.7 
" style="fill:none;stroke:#b0b0b0;stroke-linecap:square;stroke-width:0.8;"/>
     </g>
     <g id="line2d_14">
      <g>
       <use style="stroke:#000000;stroke-width:0.6;" x="57.03914" xlink:href="#m9a736b5f44" y="101.3"/>
      </g>
     </g>
    </g>
    <g id="xtick_8">
     <g id="line2d_15">
      <path clip-path="url(#p854cea5370)" d="M 60.931382 101.3 
L 60.931382 10.7 
" style="fill:none;stroke:#b0b0b0;stroke-linecap:square;stroke-width:0.8;"/>
     </g>
     <g id="line2d_16">
      <g>
       <use style="stroke:#000000;stroke-width:0.6;" x="60.931382" xlink:href="#m9a736b5f44" y="101.3"/>
      </g>
     </g>
    </g>
    <g id="xtick_9">
     <g id="line2d_17">
      <path clip-path="url(#p854cea5370)" d="M 87.318757 101.3 
L 87.318757 10.7 
" style="fill:none;stroke:#b0b0b0;stroke-linecap:square;stroke-width:0.8;"/>
     </g>
     <g id="line2d_18">
      <g>
       <use style="stroke:#000000;stroke-width:0.6;" x="87.318757" xlink:href="#m9a736b5f44" y="101.3"/>
      </g>
     </g>
    </g>
    <g id="xtick_10">
     <g id="line2d_19">
      <path clip-path="url(#p854cea5370)" d="M 100.717701 101.3 
L 100.717701 10.7 
" style="fill:none;stroke:#b0b0b0;stroke-linecap:square;stroke-width:0.8;"/>
     </g>
     <g id="line2d_20">
      <g>
       <use style="stroke:#000000;stroke-width:0.6;" x="100.717701" xlink:href="#m9a736b5f44" y="101.3"/>
      </g>
     </g>
    </g>
    <g id="xtick_11">
     <g id="line2d_21">
      <path clip-path="url(#p854cea5370)" d="M 110.224403 101.3 
L 110.224403 10.7 
" style="fill:none;stroke:#b0b0b0;stroke-linecap:square;stroke-width:0.8;"/>
     </g>
     <g id="line2d_22">
      <g>
       <use style="stroke:#000000;stroke-width:0.6;" x="110.224403" xlink:href="#m9a736b5f44" y="101.3"/>
      </g>
     </g>
    </g>
    <g id="xtick_12">
     <g id="line2d_23">
      <path clip-path="url(#p854cea5370)" d="M 117.598374 101.3 
L 117.598374 10.7 
" style="fill:none;stroke:#b0b0b0;stroke-linecap:square;stroke-width:0.8;"/>
     </g>
     <g id="line2d_24">
      <g>
       <use style="stroke:#000000;stroke-width:0.6;" x="117.598374" xlink:href="#m9a736b5f44" y="101.3"/>
      </g>
     </g>
    </g>
    <g id="xtick_13">
     <g id="line2d_25">
      <path clip-path="url(#p854cea5370)" d="M 123.623347 101.3 
L 123.623347 10.7 
" style="fill:none;stroke:#b0b0b0;stroke-linecap:square;stroke-width:0.8;"/>
     </g>
     <g id="line2d_26">
      <g>
       <use style="stroke:#000000;stroke-width:0.6;" x="123.623347" xlink:href="#m9a736b5f44" y="101.3"/>
      </g>
     </g>
    </g>
    <g id="xtick_14">
     <g id="line2d_27">
      <path clip-path="url(#p854cea5370)" d="M 128.717389 101.3 
L 128.717389 10.7 
" style="fill:none;stroke:#b0b0b0;stroke-linecap:square;stroke-width:0.8;"/>
     </g>
     <g id="line2d_28">
      <g>
       <use style="stroke:#000000;stroke-width:0.6;" x="128.717389" xlink:href="#m9a736b5f44" y="101.3"/>
      </g>
     </g>
    </g>
    <g id="xtick_15">
     <g id="line2d_29">
      <path clip-path="url(#p854cea5370)" d="M 133.130049 101.3 
L 133.130049 10.7 
" style="fill:none;stroke:#b0b0b0;stroke-linecap:square;stroke-width:0.8;"/>
     </g>
     <g id="line2d_30">
      <g>
       <use style="stroke:#000000;stroke-width:0.6;" x="133.130049" xlink:href="#m9a736b5f44" y="101.3"/>
      </g>
     </g>
    </g>
    <g id="xtick_16">
     <g id="line2d_31">
      <path clip-path="url(#p854cea5370)" d="M 137.022291 101.3 
L 137.022291 10.7 
" style="fill:none;stroke:#b0b0b0;stroke-linecap:square;stroke-width:0.8;"/>
     </g>
     <g id="line2d_32">
      <g>
       <use style="stroke:#000000;stroke-width:0.6;" x="137.022291" xlink:href="#m9a736b5f44" y="101.3"/>
      </g>
     </g>
    </g>
    <g id="xtick_17">
     <g id="line2d_33">
      <path clip-path="url(#p854cea5370)" d="M 163.409666 101.3 
L 163.409666 10.7 
" style="fill:none;stroke:#b0b0b0;stroke-linecap:square;stroke-width:0.8;"/>
     </g>
     <g id="line2d_34">
      <g>
       <use style="stroke:#000000;stroke-width:0.6;" x="163.409666" xlink:href="#m9a736b5f44" y="101.3"/>
      </g>
     </g>
    </g>
    <g id="xtick_18">
     <g id="line2d_35">
      <path clip-path="url(#p854cea5370)" d="M 176.80861 101.3 
L 176.80861 10.7 
" style="fill:none;stroke:#b0b0b0;stroke-linecap:square;stroke-width:0.8;"/>
     </g>
     <g id="line2d_36">
      <g>
       <use style="stroke:#000000;stroke-width:0.6;" x="176.80861" xlink:href="#m9a736b5f44" y="101.3"/>
      </g>
     </g>
    </g>
    <g id="xtick_19">
     <g id="line2d_37">
      <path clip-path="url(#p854cea5370)" d="M 186.315312 101.3 
L 186.315312 10.7 
" style="fill:none;stroke:#b0b0b0;stroke-linecap:square;stroke-width:0.8;"/>
     </g>
     <g id="line2d_38">
      <g>
       <use style="stroke:#000000;stroke-width:0.6;" x="186.315312" xlink:href="#m9a736b5f44" y="101.3"/>
      </g>
     </g>
    </g>
    <g id="xtick_20">
     <g id="line2d_39">
      <path clip-path="url(#p854cea5370)" d="M 193.689283 101.3 
L 193.689283 10.7 
" style="fill:none;stroke:#b0b0b0;stroke-linecap:square;stroke-width:0.8;"/>
     </g>
     <g id="line2d_40">
      <g>
       <use style="stroke:#000000;stroke-width:0.6;" x="193.689283" xlink:href="#m9a736b5f44" y="101.3"/>
      </g>
     </g>
    </g>
    <g id="xtick_21">
     <g id="line2d_41">
      <path clip-path="url(#p854cea5370)" d="M 199.714256 101.3 
L 199.714256 10.7 
" style="fill:none;stroke:#b0b0b0;stroke-linecap:square;stroke-width:0.8;"/>
     </g>
     <g id="line2d_42">
      <g>
       <use style="stroke:#000000;stroke-width:0.6;" x="199.714256" xlink:href="#m9a736b5f44" y="101.3"/>
      </g>
     </g>
    </g>
    <g id="xtick_22">
     <g id="line2d_43">
      <path clip-path="url(#p854cea5370)" d="M 204.808298 101.3 
L 204.808298 10.7 
" style="fill:none;stroke:#b0b0b0;stroke-linecap:square;stroke-width:0.8;"/>
     </g>
     <g id="line2d_44">
      <g>
       <use style="stroke:#000000;stroke-width:0.6;" x="204.808298" xlink:href="#m9a736b5f44" y="101.3"/>
      </g>
     </g>
    </g>
    <g id="xtick_23">
     <g id="line2d_45">
      <path clip-path="url(#p854cea5370)" d="M 209.220958 101.3 
L 209.220958 10.7 
" style="fill:none;stroke:#b0b0b0;stroke-linecap:square;stroke-width:0.8;"/>
     </g>
     <g id="line2d_46">
      <g>
       <use style="stroke:#000000;stroke-width:0.6;" x="209.220958" xlink:href="#m9a736b5f44" y="101.3"/>
      </g>
     </g>
    </g>
    <g id="xtick_24">
     <g id="line2d_47">
      <path clip-path="url(#p854cea5370)" d="M 213.1132 101.3 
L 213.1132 10.7 
" style="fill:none;stroke:#b0b0b0;stroke-linecap:square;stroke-width:0.8;"/>
     </g>
     <g id="line2d_48">
      <g>
       <use style="stroke:#000000;stroke-width:0.6;" x="213.1132" xlink:href="#m9a736b5f44" y="101.3"/>
      </g>
     </g>
    </g>
    <g id="xtick_25">
     <g id="line2d_49">
      <path clip-path="url(#p854cea5370)" d="M 239.500575 101.3 
L 239.500575 10.7 
" style="fill:none;stroke:#b0b0b0;stroke-linecap:square;stroke-width:0.8;"/>
     </g>
     <g id="line2d_50">
      <g>
       <use style="stroke:#000000;stroke-width:0.6;" x="239.500575" xlink:href="#m9a736b5f44" y="101.3"/>
      </g>
     </g>
    </g>
    <g id="xtick_26">
     <g id="line2d_51">
      <path clip-path="url(#p854cea5370)" d="M 252.899519 101.3 
L 252.899519 10.7 
" style="fill:none;stroke:#b0b0b0;stroke-linecap:square;stroke-width:0.8;"/>
     </g>
     <g id="line2d_52">
      <g>
       <use style="stroke:#000000;stroke-width:0.6;" x="252.899519" xlink:href="#m9a736b5f44" y="101.3"/>
      </g>
     </g>
    </g>
    <g id="xtick_27">
     <g id="line2d_53">
      <path clip-path="url(#p854cea5370)" d="M 262.406221 101.3 
L 262.406221 10.7 
" style="fill:none;stroke:#b0b0b0;stroke-linecap:square;stroke-width:0.8;"/>
     </g>
     <g id="line2d_54">
      <g>
       <use style="stroke:#000000;stroke-width:0.6;" x="262.406221" xlink:href="#m9a736b5f44" y="101.3"/>
      </g>
     </g>
    </g>
    <g id="xtick_28">
     <g id="line2d_55">
      <path clip-path="url(#p854cea5370)" d="M 269.780192 101.3 
L 269.780192 10.7 
" style="fill:none;stroke:#b0b0b0;stroke-linecap:square;stroke-width:0.8;"/>
     </g>
     <g id="line2d_56">
      <g>
       <use style="stroke:#000000;stroke-width:0.6;" x="269.780192" xlink:href="#m9a736b5f44" y="101.3"/>
      </g>
     </g>
    </g>
    <g id="xtick_29">
     <g id="line2d_57">
      <path clip-path="url(#p854cea5370)" d="M 275.805165 101.3 
L 275.805165 10.7 
" style="fill:none;stroke:#b0b0b0;stroke-linecap:square;stroke-width:0.8;"/>
     </g>
     <g id="line2d_58">
      <g>
       <use style="stroke:#000000;stroke-width:0.6;" x="275.805165" xlink:href="#m9a736b5f44" y="101.3"/>
      </g>
     </g>
    </g>
    <g id="xtick_30">
     <g id="line2d_59">
      <path clip-path="url(#p854cea5370)" d="M 280.899207 101.3 
L 280.899207 10.7 
" style="fill:none;stroke:#b0b0b0;stroke-linecap:square;stroke-width:0.8;"/>
     </g>
     <g id="line2d_60">
      <g>
       <use style="stroke:#000000;stroke-width:0.6;" x="280.899207" xlink:href="#m9a736b5f44" y="101.3"/>
      </g>
     </g>
    </g>
    <g id="xtick_31">
     <g id="line2d_61">
      <path clip-path="url(#p854cea5370)" d="M 285.311867 101.3 
L 285.311867 10.7 
" style="fill:none;stroke:#b0b0b0;stroke-linecap:square;stroke-width:0.8;"/>
     </g>
     <g id="line2d_62">
      <g>
       <use style="stroke:#000000;stroke-width:0.6;" x="285.311867" xlink:href="#m9a736b5f44" y="101.3"/>
      </g>
     </g>
    </g>
    <g id="xtick_32">
     <g id="line2d_63">
      <path clip-path="url(#p854cea5370)" d="M 289.204109 101.3 
L 289.204109 10.7 
" style="fill:none;stroke:#b0b0b0;stroke-linecap:square;stroke-width:0.8;"/>
     </g>
     <g id="line2d_64">
      <g>
       <use style="stroke:#000000;stroke-width:0.6;" x="289.204109" xlink:href="#m9a736b5f44" y="101.3"/>
      </g>
     </g>
    </g>
    <g id="xtick_33">
     <g id="line2d_65">
      <path clip-path="url(#p854cea5370)" d="M 315.591484 101.3 
L 315.591484 10.7 
" style="fill:none;stroke:#b0b0b0;stroke-linecap:square;stroke-width:0.8;"/>
     </g>
     <g id="line2d_66">
      <g>
       <use style="stroke:#000000;stroke-width:0.6;" x="315.591484" xlink:href="#m9a736b5f44" y="101.3"/>
      </g>
     </g>
    </g>
    <g id="xtick_34">
     <g id="line2d_67">
      <path clip-path="url(#p854cea5370)" d="M 328.990428 101.3 
L 328.990428 10.7 
" style="fill:none;stroke:#b0b0b0;stroke-linecap:square;stroke-width:0.8;"/>
     </g>
     <g id="line2d_68">
      <g>
       <use style="stroke:#000000;stroke-width:0.6;" x="328.990428" xlink:href="#m9a736b5f44" y="101.3"/>
      </g>
     </g>
    </g>
    <g id="xtick_35">
     <g id="line2d_69">
      <path clip-path="url(#p854cea5370)" d="M 338.49713 101.3 
L 338.49713 10.7 
" style="fill:none;stroke:#b0b0b0;stroke-linecap:square;stroke-width:0.8;"/>
     </g>
     <g id="line2d_70">
      <g>
       <use style="stroke:#000000;stroke-width:0.6;" x="338.49713" xlink:href="#m9a736b5f44" y="101.3"/>
      </g>
     </g>
    </g>
    <g id="xtick_36">
     <g id="line2d_71">
      <path clip-path="url(#p854cea5370)" d="M 345.871101 101.3 
L 345.871101 10.7 
" style="fill:none;stroke:#b0b0b0;stroke-linecap:square;stroke-width:0.8;"/>
     </g>
     <g id="line2d_72">
      <g>
       <use style="stroke:#000000;stroke-width:0.6;" x="345.871101" xlink:href="#m9a736b5f44" y="101.3"/>
      </g>
     </g>
    </g>
    <g id="xtick_37">
     <g id="line2d_73">
      <path clip-path="url(#p854cea5370)" d="M 351.896074 101.3 
L 351.896074 10.7 
" style="fill:none;stroke:#b0b0b0;stroke-linecap:square;stroke-width:0.8;"/>
     </g>
     <g id="line2d_74">
      <g>
       <use style="stroke:#000000;stroke-width:0.6;" x="351.896074" xlink:href="#m9a736b5f44" y="101.3"/>
      </g>
     </g>
    </g>
    <g id="xtick_38">
     <g id="line2d_75">
      <path clip-path="url(#p854cea5370)" d="M 356.990117 101.3 
L 356.990117 10.7 
" style="fill:none;stroke:#b0b0b0;stroke-linecap:square;stroke-width:0.8;"/>
     </g>
     <g id="line2d_76">
      <g>
       <use style="stroke:#000000;stroke-width:0.6;" x="356.990117" xlink:href="#m9a736b5f44" y="101.3"/>
      </g>
     </g>
    </g>
    <g id="xtick_39">
     <g id="line2d_77">
      <path clip-path="url(#p854cea5370)" d="M 361.402776 101.3 
L 361.402776 10.7 
" style="fill:none;stroke:#b0b0b0;stroke-linecap:square;stroke-width:0.8;"/>
     </g>
     <g id="line2d_78">
      <g>
       <use style="stroke:#000000;stroke-width:0.6;" x="361.402776" xlink:href="#m9a736b5f44" y="101.3"/>
      </g>
     </g>
    </g>
    <g id="xtick_40">
     <g id="line2d_79">
      <path clip-path="url(#p854cea5370)" d="M 365.295018 101.3 
L 365.295018 10.7 
" style="fill:none;stroke:#b0b0b0;stroke-linecap:square;stroke-width:0.8;"/>
     </g>
     <g id="line2d_80">
      <g>
       <use style="stroke:#000000;stroke-width:0.6;" x="365.295018" xlink:href="#m9a736b5f44" y="101.3"/>
      </g>
     </g>
    </g>
   </g>
   <g id="matplotlib.axis_2">
    <g id="ytick_1">
     <g id="line2d_81">
      <path clip-path="url(#p854cea5370)" d="M 49.194929 36.967573 
L 383.994929 36.967573 
" style="fill:none;stroke:#b0b0b0;stroke-linecap:square;stroke-width:0.8;"/>
     </g>
     <g id="line2d_82">
      <defs>
       <path d="M 0 0 
L -3.5 0 
" id="m0a23387f77" style="stroke:#000000;stroke-width:0.8;"/>
      </defs>
      <g>
       <use style="stroke:#000000;stroke-width:0.8;" x="49.194929" xlink:href="#m0a23387f77" y="36.967573"/>
      </g>
     </g>
     <g id="text_6">
      <!-- 20.0 -->
      <defs>
       <path d="M 25.796875 21.203125 
C 28.59375 24.078125 32.796875 27.5625 35.703125 31.046875 
C 38.5 34.4375 42.203125 39.234375 42.203125 46.203125 
C 42.203125 57.140625 34.796875 67 22.203125 67 
C 12.296875 67 6.59375 60.828125 3.90625 51.15625 
L 7.796875 45.765625 
C 10 54.84375 13.09375 60.625 20.90625 60.625 
C 29.5 60.625 34.296875 53.640625 34.296875 45.96875 
C 34.296875 36.796875 27.296875 29.703125 22 24.421875 
C 16.09375 18.546875 10.296875 12.5625 4.703125 6.375 
L 4.703125 0 
L 42.203125 0 
L 42.203125 6.765625 
L 25.203125 6.765625 
C 24 6.765625 22.796875 6.765625 21.59375 6.765625 
L 11.59375 6.765625 
L 11.59375 6.859375 
z
" id="CMSS17-50"/>
       <path d="M 43.09375 31.9375 
C 43.09375 37.578125 43 48.078125 38.90625 56.1875 
C 34.796875 64 28.203125 66.078125 23.5 66.078125 
C 16.703125 66.078125 10.90625 62.109375 7.90625 55.78125 
C 4.703125 49.15625 3.796875 42.328125 3.796875 31.9375 
C 3.796875 24.828125 4.09375 16.109375 7.703125 8.484375 
C 11.796875 0.078125 18.703125 -2 23.40625 -2 
C 29.59375 -2 35.59375 1.265625 39 8.09375 
C 42.5 15.21875 43.09375 23.03125 43.09375 31.9375 
M 23.40625 4.078125 
C 15.796875 4.078125 13.5 12.671875 12.796875 15.546875 
C 11.59375 20.46875 11.40625 25.21875 11.40625 33.03125 
C 11.40625 39.15625 11.40625 46.0625 13.296875 51.515625 
C 15.59375 57.828125 19.59375 60 23.40625 60 
C 30.796875 60 33.203125 52.6875 34 50.125 
C 35.5 44.890625 35.5 38.765625 35.5 33.03125 
C 35.5 23.84375 35.5 4.078125 23.40625 4.078125 
" id="CMSS17-48"/>
       <path d="M 17 7.96875 
L 9 7.96875 
L 9 0 
L 17 0 
z
" id="CMSS17-46"/>
      </defs>
      <g transform="translate(24.483515 40.426823)scale(0.1 -0.1)">
       <use transform="scale(0.996264)" xlink:href="#CMSS17-50"/>
       <use transform="translate(46.843624 0)scale(0.996264)" xlink:href="#CMSS17-48"/>
       <use transform="translate(93.687247 0)scale(0.996264)" xlink:href="#CMSS17-46"/>
       <use transform="translate(119.711452 0)scale(0.996264)" xlink:href="#CMSS17-48"/>
      </g>
     </g>
    </g>
    <g id="ytick_2">
     <g id="line2d_83">
      <path clip-path="url(#p854cea5370)" d="M 49.194929 69.133787 
L 383.994929 69.133787 
" style="fill:none;stroke:#b0b0b0;stroke-linecap:square;stroke-width:0.8;"/>
     </g>
     <g id="line2d_84">
      <g>
       <use style="stroke:#000000;stroke-width:0.8;" x="49.194929" xlink:href="#m0a23387f77" y="69.133787"/>
      </g>
     </g>
     <g id="text_7">
      <!-- 0.0 -->
      <g transform="translate(29.46485 72.593036)scale(0.1 -0.1)">
       <use transform="scale(0.996264)" xlink:href="#CMSS17-48"/>
       <use transform="translate(46.843624 0)scale(0.996264)" xlink:href="#CMSS17-46"/>
       <use transform="translate(72.867828 0)scale(0.996264)" xlink:href="#CMSS17-48"/>
      </g>
     </g>
    </g>
    <g id="ytick_3">
     <g id="line2d_85">
      <path clip-path="url(#p854cea5370)" d="M 49.194929 101.3 
L 383.994929 101.3 
" style="fill:none;stroke:#b0b0b0;stroke-linecap:square;stroke-width:0.8;"/>
     </g>
     <g id="line2d_86">
      <g>
       <use style="stroke:#000000;stroke-width:0.8;" x="49.194929" xlink:href="#m0a23387f77" y="101.3"/>
      </g>
     </g>
     <g id="text_8">
      <!-- -20.0 -->
      <defs>
       <path d="M 26 19 
L 26 24.765625 
L 1 24.765625 
L 1 19 
z
" id="CMSS17-45"/>
      </defs>
      <g transform="translate(21.16264 104.759249)scale(0.1 -0.1)">
       <use transform="scale(0.996264)" xlink:href="#CMSS17-45"/>
       <use transform="translate(31.229113 0)scale(0.996264)" xlink:href="#CMSS17-50"/>
       <use transform="translate(78.072736 0)scale(0.996264)" xlink:href="#CMSS17-48"/>
       <use transform="translate(124.91636 0)scale(0.996264)" xlink:href="#CMSS17-46"/>
       <use transform="translate(150.940565 0)scale(0.996264)" xlink:href="#CMSS17-48"/>
      </g>
     </g>
    </g>
    <g id="text_9">
     <!-- Magnitude(dB) -->
     <defs>
      <path d="M 49.90625 37.046875 
L 45.09375 23.015625 
C 44.296875 20.421875 41.59375 12.359375 41 9.171875 
L 40.90625 9.171875 
C 40.59375 11.171875 40 13.265625 38.40625 18.34375 
C 37.5 21.328125 36.5 24.40625 35.5 27.203125 
L 20.703125 69 
L 9 69 
L 9 0 
L 16.796875 0 
L 16.796875 60.9375 
L 16.90625 60.9375 
C 16.90625 60.84375 17.796875 56.453125 23.90625 39.046875 
L 37.09375 1.5 
L 44.5 1.5 
L 56.40625 34.859375 
C 57.203125 37.15625 59.703125 44.421875 60.796875 47.90625 
C 61.796875 50.890625 64.296875 58.25 64.90625 61.140625 
L 65 61.140625 
L 65 0 
L 72.90625 0 
L 72.90625 69 
L 61.296875 69 
z
" id="CMSS17-77"/>
      <path d="M 37.59375 27.984375 
C 37.59375 37.375 30.90625 43.875 21.90625 43.875 
C 17.5 43.875 12.703125 43.078125 7.203125 39.890625 
L 7.796875 33.359375 
C 10.296875 35.125 14.59375 38 21.796875 38 
C 26.90625 38 30 34.0625 30 27.84375 
L 30 24 
C 14 24 4 19.34375 4 11.34375 
C 4 7.203125 6.5 -1 14.796875 -1 
C 16.296875 -1 24.40625 -1 30.203125 3.390625 
L 30.203125 -0.296875 
L 37.59375 -0.296875 
z
M 30 12.75 
C 30 10.953125 30 8.5625 27 6.78125 
C 24.40625 5.078125 21.09375 5.078125 19.703125 5.078125 
C 14.703125 5.078125 11.296875 7.984375 11.296875 11.625 
C 11.296875 18.921875 26.90625 18.921875 30 18.921875 
z
" id="CMSS17-97"/>
      <path d="M 44.5 43.875 
C 38.796875 43.875 33.90625 42.78125 29.90625 40.890625 
C 26.59375 43.390625 23.203125 43.875 20.90625 43.875 
C 12.203125 43.875 5.59375 36.703125 5.59375 28.34375 
C 5.59375 22.9375 8.59375 18.859375 8.796875 18.671875 
C 7 16.171875 6 13.484375 6 10.5 
C 6 7 7.40625 4.515625 8.5 3.125 
C 3.296875 -0.046875 2.59375 -4.90625 2.59375 -6.796875 
C 2.59375 -14.03125 11.703125 -20 23.40625 -20 
C 35.203125 -20 44.296875 -14.03125 44.296875 -6.6875 
C 44.296875 7 29 7 24.796875 7 
L 16.703125 7 
C 15.203125 7 11.203125 7 11.203125 12.359375 
C 11.203125 14.390625 12.09375 15.6875 12.203125 15.78125 
C 13.703125 14.6875 16.796875 13 20.90625 13 
C 29.203125 13 36.09375 19.96875 36.09375 28.546875 
C 36.09375 33.3125 33.90625 36.796875 33 38 
L 33.296875 38 
C 33.59375 38 37.796875 38 39.296875 38 
C 42.5 38 42.796875 37.953125 45.59375 37.796875 
z
M 20.90625 18.46875 
C 17.5 18.46875 12.703125 20.546875 12.703125 28.484375 
C 12.703125 37.109375 18.203125 38.5 20.796875 38.5 
C 24.203125 38.5 29 36.421875 29 28.484375 
C 29 19.859375 23.5 18.46875 20.90625 18.46875 
M 24.703125 -0.15625 
C 27.09375 -0.15625 37.203125 -0.15625 37.203125 -6.90625 
C 37.203125 -11.15625 31 -14.515625 23.5 -14.515625 
C 15.90625 -14.515625 9.703125 -11.25 9.703125 -6.796875 
C 9.703125 -6.296875 9.703125 -0.15625 16.59375 -0.15625 
z
" id="CMSS17-103"/>
      <path d="M 40.90625 29.328125 
C 40.90625 35.671875 39.40625 44 28.09375 44 
C 21.703125 44 17.5 40.71875 14.703125 37.328125 
L 14.703125 43.09375 
L 7.40625 43.09375 
L 7.40625 0 
L 15 0 
L 15 24.359375 
C 15 30.6875 17.40625 37.9375 24.203125 37.9375 
C 33 37.9375 33.296875 32 33.296875 28.578125 
L 33.296875 0 
L 40.90625 0 
z
" id="CMSS17-110"/>
      <path d="M 15.296875 65.359375 
L 6.90625 65.359375 
L 6.90625 57 
L 15.296875 57 
z
M 14.796875 42.796875 
L 7.40625 42.796875 
L 7.40625 0 
L 14.796875 0 
z
" id="CMSS17-105"/>
      <path d="M 16.703125 37 
L 29.703125 37 
L 29.703125 42.765625 
L 16.703125 42.765625 
L 16.703125 55 
L 9.59375 55 
L 9.59375 42.765625 
L 1.703125 42.765625 
L 1.703125 37 
L 9.40625 37 
L 9.40625 11.703125 
C 9.40625 6 10.703125 -1 17.296875 -1 
C 22.296875 -1 26.90625 0.390625 31.296875 2.6875 
L 29.703125 8.5625 
C 27.296875 6.46875 24.40625 5.265625 21.296875 5.265625 
C 16.90625 5.265625 16.703125 10.875 16.703125 13.375 
z
" id="CMSS17-116"/>
      <path d="M 40.90625 42.796875 
L 33.296875 42.796875 
L 33.296875 15.1875 
C 33.296875 7.78125 27.90625 4.78125 22.203125 4.78125 
C 15.59375 4.78125 15 6.984375 15 11.078125 
L 15 42.796875 
L 7.40625 42.796875 
L 7.40625 10.59375 
C 7.40625 2.796875 10.09375 -1 17 -1 
C 20.40625 -1 28.09375 -0.203125 33.5 4.78125 
L 33.5 0 
L 40.90625 0 
z
" id="CMSS17-117"/>
      <path d="M 40.796875 69 
L 33.40625 69 
L 33.40625 38.09375 
C 30.296875 40.671875 25.203125 43.0625 19.59375 43.0625 
C 10.5 43.0625 3.296875 33.296875 3.296875 21.046875 
C 3.296875 8.78125 10.40625 -1 19.296875 -1 
C 26.203125 -1 30.796875 2.6875 33.203125 4.78125 
L 33.203125 -0.203125 
L 40.796875 -0.203125 
z
M 33.203125 13.0625 
C 33.203125 11.671875 33.203125 10.203125 30.09375 7.53125 
C 28.09375 5.859375 25.703125 5.078125 23.40625 5.078125 
C 18 5.078125 10.90625 9 10.90625 20.9375 
C 10.90625 33.34375 18.90625 37 24.40625 37 
C 28.09375 37 31.09375 35.21875 33.203125 32.265625 
z
" id="CMSS17-100"/>
      <path d="M 39.09375 21.515625 
C 39.09375 24.84375 38.90625 31.296875 35.703125 36.640625 
C 32.203125 42.390625 26.5 44 22.203125 44 
C 11.796875 44 3 34.1875 3 21.484375 
C 3 9.09375 12.09375 -1 23.59375 -1 
C 28.09375 -1 33.59375 0.296875 38.59375 3.875 
C 38.59375 4.28125 38.40625 6.46875 38.296875 6.5625 
C 38.296875 6.765625 38 9.84375 38 10.25 
C 33.203125 6.359375 27.703125 5.078125 23.703125 5.078125 
C 17.296875 5.078125 10.40625 10.421875 10.09375 21.515625 
z
M 10.90625 27 
C 12.203125 32.5625 16.59375 37.828125 22.203125 37.828125 
C 23.703125 37.828125 30.703125 37.828125 32.5 27 
z
" id="CMSS17-101"/>
      <path d="M 25.203125 74.5 
C 19.796875 69.015625 7.40625 56.265625 7.40625 24.8125 
C 7.40625 -6.765625 19.796875 -19.421875 25.203125 -25 
L 31.296875 -25 
C 19 -12.25 15 5.578125 15 24.703125 
C 15 43.71875 18.796875 61.65625 31.296875 74.5 
z
" id="CMSS17-40"/>
      <path d="M 8.90625 69 
L 8.90625 0 
L 33.796875 0 
C 47.40625 0 57.296875 8.96875 57.296875 18.75 
C 57.296875 26.328125 50.796875 34 39.09375 36.203125 
C 52.09375 39.96875 54.703125 47.5 54.703125 51.765625 
C 54.703125 60.671875 44.90625 69 31.203125 69 
z
M 17 39 
L 17 63.421875 
L 28.5 63.421875 
C 38.796875 63.421875 46.90625 58.1875 46.90625 51.65625 
C 46.90625 45.71875 40.5 39 27.59375 39 
z
M 17 5.578125 
L 17 32.921875 
L 30.296875 32.921875 
C 41.09375 32.921875 49.40625 26.234375 49.40625 18.84375 
C 49.40625 12.0625 42.09375 5.578125 31 5.578125 
z
" id="CMSS17-66"/>
      <path d="M 11.296875 -25 
C 16.703125 -19.515625 29.09375 -6.765625 29.09375 24.703125 
C 29.09375 56.265625 16.703125 68.921875 11.296875 74.5 
L 5.203125 74.5 
C 17.5 61.75 21.5 43.921875 21.5 24.8125 
C 21.5 5.78125 17.703125 -12.15625 5.203125 -25 
z
" id="CMSS17-41"/>
     </defs>
     <g transform="translate(14.67198 87.935866)rotate(-90)scale(0.1 -0.1)">
      <use transform="scale(0.996264)" xlink:href="#CMSS17-77"/>
      <use transform="translate(81.67603 0)scale(0.996264)" xlink:href="#CMSS17-97"/>
      <use transform="translate(126.597951 0)scale(0.996264)" xlink:href="#CMSS17-103"/>
      <use transform="translate(173.441574 0)scale(0.996264)" xlink:href="#CMSS17-110"/>
      <use transform="translate(221.646517 0)scale(0.996264)" xlink:href="#CMSS17-105"/>
      <use transform="translate(243.82724 0)scale(0.996264)" xlink:href="#CMSS17-116"/>
      <use transform="translate(277.658807 0)scale(0.996264)" xlink:href="#CMSS17-117"/>
      <use transform="translate(325.86375 0)scale(0.996264)" xlink:href="#CMSS17-100"/>
      <use transform="translate(374.068693 0)scale(0.996264)" xlink:href="#CMSS17-101"/>
      <use transform="translate(415.707515 0)scale(0.996264)" xlink:href="#CMSS17-40"/>
      <use transform="translate(452.141429 0)scale(0.996264)" xlink:href="#CMSS17-100"/>
      <use transform="translate(500.346373 0)scale(0.996264)" xlink:href="#CMSS17-66"/>
      <use transform="translate(562.684413 0)scale(0.996264)" xlink:href="#CMSS17-41"/>
     </g>
    </g>
   </g>
   <g id="line2d_87">
    <path clip-path="url(#p854cea5370)" d="M 64.413111 59.519594 
L 67.487491 59.53358 
L 70.561871 59.550388 
L 73.636252 59.570578 
L 76.710632 59.594819 
L 79.785012 59.623904 
L 82.859392 59.658773 
L 85.933772 59.700538 
L 89.008152 59.750508 
L 92.082533 59.810217 
L 95.156913 59.881451 
L 98.231293 59.966279 
L 101.305673 60.067076 
L 104.380053 60.186546 
L 107.454433 60.327727 
L 110.528814 60.493993 
L 113.603194 60.689028 
L 116.677574 60.916775 
L 119.751954 61.18136 
L 122.826334 61.486976 
L 125.900714 61.837737 
L 128.975095 62.237502 
L 132.049475 62.689675 
L 135.123855 63.197011 
L 138.198235 63.761424 
L 141.272615 64.383841 
L 144.346995 65.064105 
L 147.421376 65.800949 
L 150.495756 66.592026 
L 153.570136 67.434012 
L 156.644516 68.322746 
L 159.718896 69.253395 
L 162.793276 70.220624 
L 165.867657 71.218754 
L 168.942037 72.24189 
L 172.016417 73.28402 
L 175.090797 74.339078 
L 178.165177 75.400982 
L 181.239557 76.463647 
L 184.313938 77.520987 
L 187.388318 78.566918 
L 190.462698 79.595369 
L 193.537078 80.600309 
L 196.611458 81.575807 
L 199.685838 82.516116 
L 202.760219 83.415805 
L 205.834599 84.269897 
L 208.908979 85.074049 
L 211.983359 85.824711 
L 215.057739 86.519283 
L 218.132119 87.156219 
L 221.2065 87.735087 
L 224.28088 88.256549 
L 227.35526 88.722285 
L 230.42964 89.134855 
L 233.50402 89.497519 
L 236.5784 89.814043 
L 239.652781 90.088493 
L 242.727161 90.325057 
L 245.801541 90.527892 
L 248.875921 90.700994 
L 251.950301 90.848117 
L 255.024681 90.972716 
L 258.099062 91.077915 
L 261.173442 91.1665 
L 264.247822 91.240927 
L 267.322202 91.303339 
L 270.396582 91.355591 
L 273.470962 91.399277 
L 276.545343 91.435758 
L 279.619723 91.466195 
L 282.694103 91.491566 
L 285.768483 91.512702 
L 288.842863 91.530299 
L 291.917243 91.544943 
L 294.991624 91.557125 
L 298.066004 91.567255 
L 301.140384 91.575676 
L 304.214764 91.582675 
L 307.289144 91.588492 
L 310.363524 91.593324 
L 313.437905 91.597339 
L 316.512285 91.600674 
L 319.586665 91.603444 
L 322.661045 91.605745 
L 325.735425 91.607655 
L 328.809805 91.609242 
L 331.884185 91.610559 
L 334.958566 91.611653 
L 338.032946 91.612561 
L 341.107326 91.613316 
L 344.181706 91.613942 
L 347.256086 91.614462 
L 350.330466 91.614894 
L 353.404847 91.615252 
L 356.479227 91.61555 
L 359.553607 91.615797 
L 362.627987 91.616002 
L 365.702367 91.616172 
L 368.776747 91.616313 
" style="fill:none;stroke:#ff0000;stroke-linecap:square;stroke-width:1.5;"/>
   </g>
   <g id="line2d_88">
    <path clip-path="url(#p854cea5370)" d="M 64.413111 46.649877 
L 67.487491 46.649736 
L 70.561871 46.649565 
L 73.636252 46.64936 
L 76.710632 46.649113 
L 79.785012 46.648815 
L 82.859392 46.648457 
L 85.933772 46.648025 
L 89.008152 46.647505 
L 92.082533 46.646879 
L 95.156913 46.646125 
L 98.231293 46.645217 
L 101.305673 46.644123 
L 104.380053 46.642805 
L 107.454433 46.641219 
L 110.528814 46.639308 
L 113.603194 46.637008 
L 116.677574 46.634238 
L 119.751954 46.630903 
L 122.826334 46.626888 
L 125.900714 46.622055 
L 128.975095 46.616239 
L 132.049475 46.609239 
L 135.123855 46.600818 
L 138.198235 46.590688 
L 141.272615 46.578507 
L 144.346995 46.563863 
L 147.421376 46.546266 
L 150.495756 46.52513 
L 153.570136 46.499758 
L 156.644516 46.469322 
L 159.718896 46.43284 
L 162.793276 46.389155 
L 165.867657 46.336903 
L 168.942037 46.274491 
L 172.016417 46.200064 
L 175.090797 46.111479 
L 178.165177 46.00628 
L 181.239557 45.881681 
L 184.313938 45.734557 
L 187.388318 45.561455 
L 190.462698 45.358621 
L 193.537078 45.122056 
L 196.611458 44.847606 
L 199.685838 44.531083 
L 202.760219 44.168418 
L 205.834599 43.755849 
L 208.908979 43.290113 
L 211.983359 42.768651 
L 215.057739 42.189783 
L 218.132119 41.552846 
L 221.2065 40.858274 
L 224.28088 40.107612 
L 227.35526 39.303461 
L 230.42964 38.449368 
L 233.50402 37.54968 
L 236.5784 36.60937 
L 239.652781 35.633873 
L 242.727161 34.628933 
L 245.801541 33.600482 
L 248.875921 32.55455 
L 251.950301 31.49721 
L 255.024681 30.434546 
L 258.099062 29.372642 
L 261.173442 28.317584 
L 264.247822 27.275454 
L 267.322202 26.252318 
L 270.396582 25.254188 
L 273.470962 24.286959 
L 276.545343 23.35631 
L 279.619723 22.467576 
L 282.694103 21.625589 
L 285.768483 20.834512 
L 288.842863 20.097669 
L 291.917243 19.417404 
L 294.991624 18.794987 
L 298.066004 18.230575 
L 301.140384 17.723239 
L 304.214764 17.271065 
L 307.289144 16.8713 
L 310.363524 16.520539 
L 313.437905 16.214923 
L 316.512285 15.950339 
L 319.586665 15.722592 
L 322.661045 15.527557 
L 325.735425 15.36129 
L 328.809805 15.220109 
L 331.884185 15.10064 
L 334.958566 14.999842 
L 338.032946 14.915014 
L 341.107326 14.84378 
L 344.181706 14.784072 
L 347.256086 14.734101 
L 350.330466 14.692336 
L 353.404847 14.657467 
L 356.479227 14.628382 
L 359.553607 14.604142 
L 362.627987 14.583951 
L 365.702367 14.567143 
L 368.776747 14.553158 
" style="fill:none;stroke:#0000ff;stroke-linecap:square;stroke-width:1.5;"/>
   </g>
   <g id="patch_3">
    <path d="M 49.194929 101.3 
L 49.194929 10.7 
" style="fill:none;stroke:#000000;stroke-linecap:square;stroke-linejoin:miter;stroke-width:0.8;"/>
   </g>
   <g id="patch_4">
    <path d="M 383.994929 101.3 
L 383.994929 10.7 
" style="fill:none;stroke:#000000;stroke-linecap:square;stroke-linejoin:miter;stroke-width:0.8;"/>
   </g>
   <g id="patch_5">
    <path d="M 49.194929 101.3 
L 383.994929 101.3 
" style="fill:none;stroke:#000000;stroke-linecap:square;stroke-linejoin:miter;stroke-width:0.8;"/>
   </g>
   <g id="patch_6">
    <path d="M 49.194929 10.7 
L 383.994929 10.7 
" style="fill:none;stroke:#000000;stroke-linecap:square;stroke-linejoin:miter;stroke-width:0.8;"/>
   </g>
  </g>
  <g id="axes_2">
   <g id="patch_7">
    <path d="M 49.194929 228.14 
L 383.994929 228.14 
L 383.994929 137.54 
L 49.194929 137.54 
z
" style="fill:#ffffff;"/>
   </g>
   <g id="matplotlib.axis_3">
    <g id="xtick_41">
     <g id="line2d_89">
      <path clip-path="url(#p9d2f9a8552)" d="M 64.413111 228.14 
L 64.413111 137.54 
" style="fill:none;stroke:#b0b0b0;stroke-linecap:square;stroke-width:0.8;"/>
     </g>
     <g id="line2d_90">
      <g>
       <use style="stroke:#000000;stroke-width:0.8;" x="64.413111" xlink:href="#m05cf677c23" y="228.14"/>
      </g>
     </g>
     <g id="text_10">
      <!-- $10^{-2}$ -->
      <g transform="translate(54.332824 242.058498)scale(0.1 -0.1)">
       <use transform="scale(0.996264)" xlink:href="#CMR17-49"/>
       <use transform="translate(45.690477 0)scale(0.996264)" xlink:href="#CMR17-48"/>
       <use transform="translate(91.380954 36.153639)scale(0.697382)" xlink:href="#CMSY10-0"/>
       <use transform="translate(145.621947 36.153639)scale(0.697382)" xlink:href="#CMR17-50"/>
      </g>
     </g>
    </g>
    <g id="xtick_42">
     <g id="line2d_91">
      <path clip-path="url(#p9d2f9a8552)" d="M 140.50402 228.14 
L 140.50402 137.54 
" style="fill:none;stroke:#b0b0b0;stroke-linecap:square;stroke-width:0.8;"/>
     </g>
     <g id="line2d_92">
      <g>
       <use style="stroke:#000000;stroke-width:0.8;" x="140.50402" xlink:href="#m05cf677c23" y="228.14"/>
      </g>
     </g>
     <g id="text_11">
      <!-- $10^{-1}$ -->
      <g transform="translate(130.423734 242.058498)scale(0.1 -0.1)">
       <use transform="scale(0.996264)" xlink:href="#CMR17-49"/>
       <use transform="translate(45.690477 0)scale(0.996264)" xlink:href="#CMR17-48"/>
       <use transform="translate(91.380954 36.153639)scale(0.697382)" xlink:href="#CMSY10-0"/>
       <use transform="translate(145.621947 36.153639)scale(0.697382)" xlink:href="#CMR17-49"/>
      </g>
     </g>
    </g>
    <g id="xtick_43">
     <g id="line2d_93">
      <path clip-path="url(#p9d2f9a8552)" d="M 216.594929 228.14 
L 216.594929 137.54 
" style="fill:none;stroke:#b0b0b0;stroke-linecap:square;stroke-width:0.8;"/>
     </g>
     <g id="line2d_94">
      <g>
       <use style="stroke:#000000;stroke-width:0.8;" x="216.594929" xlink:href="#m05cf677c23" y="228.14"/>
      </g>
     </g>
     <g id="text_12">
      <!-- $10^{0}$ -->
      <g transform="translate(209.627975 242.058498)scale(0.1 -0.1)">
       <use transform="scale(0.996264)" xlink:href="#CMR17-49"/>
       <use transform="translate(45.690477 0)scale(0.996264)" xlink:href="#CMR17-48"/>
       <use transform="translate(91.380954 36.153639)scale(0.697382)" xlink:href="#CMR17-48"/>
      </g>
     </g>
    </g>
    <g id="xtick_44">
     <g id="line2d_95">
      <path clip-path="url(#p9d2f9a8552)" d="M 292.685838 228.14 
L 292.685838 137.54 
" style="fill:none;stroke:#b0b0b0;stroke-linecap:square;stroke-width:0.8;"/>
     </g>
     <g id="line2d_96">
      <g>
       <use style="stroke:#000000;stroke-width:0.8;" x="292.685838" xlink:href="#m05cf677c23" y="228.14"/>
      </g>
     </g>
     <g id="text_13">
      <!-- $10^{1}$ -->
      <g transform="translate(285.718884 242.058498)scale(0.1 -0.1)">
       <use transform="scale(0.996264)" xlink:href="#CMR17-49"/>
       <use transform="translate(45.690477 0)scale(0.996264)" xlink:href="#CMR17-48"/>
       <use transform="translate(91.380954 36.153639)scale(0.697382)" xlink:href="#CMR17-49"/>
      </g>
     </g>
    </g>
    <g id="xtick_45">
     <g id="line2d_97">
      <path clip-path="url(#p9d2f9a8552)" d="M 368.776747 228.14 
L 368.776747 137.54 
" style="fill:none;stroke:#b0b0b0;stroke-linecap:square;stroke-width:0.8;"/>
     </g>
     <g id="line2d_98">
      <g>
       <use style="stroke:#000000;stroke-width:0.8;" x="368.776747" xlink:href="#m05cf677c23" y="228.14"/>
      </g>
     </g>
     <g id="text_14">
      <!-- $10^{2}$ -->
      <g transform="translate(361.809793 242.058498)scale(0.1 -0.1)">
       <use transform="scale(0.996264)" xlink:href="#CMR17-49"/>
       <use transform="translate(45.690477 0)scale(0.996264)" xlink:href="#CMR17-48"/>
       <use transform="translate(91.380954 36.153639)scale(0.697382)" xlink:href="#CMR17-50"/>
      </g>
     </g>
    </g>
    <g id="xtick_46">
     <g id="line2d_99">
      <path clip-path="url(#p9d2f9a8552)" d="M 52.62648 228.14 
L 52.62648 137.54 
" style="fill:none;stroke:#b0b0b0;stroke-linecap:square;stroke-width:0.8;"/>
     </g>
     <g id="line2d_100">
      <g>
       <use style="stroke:#000000;stroke-width:0.6;" x="52.62648" xlink:href="#m9a736b5f44" y="228.14"/>
      </g>
     </g>
    </g>
    <g id="xtick_47">
     <g id="line2d_101">
      <path clip-path="url(#p9d2f9a8552)" d="M 57.03914 228.14 
L 57.03914 137.54 
" style="fill:none;stroke:#b0b0b0;stroke-linecap:square;stroke-width:0.8;"/>
     </g>
     <g id="line2d_102">
      <g>
       <use style="stroke:#000000;stroke-width:0.6;" x="57.03914" xlink:href="#m9a736b5f44" y="228.14"/>
      </g>
     </g>
    </g>
    <g id="xtick_48">
     <g id="line2d_103">
      <path clip-path="url(#p9d2f9a8552)" d="M 60.931382 228.14 
L 60.931382 137.54 
" style="fill:none;stroke:#b0b0b0;stroke-linecap:square;stroke-width:0.8;"/>
     </g>
     <g id="line2d_104">
      <g>
       <use style="stroke:#000000;stroke-width:0.6;" x="60.931382" xlink:href="#m9a736b5f44" y="228.14"/>
      </g>
     </g>
    </g>
    <g id="xtick_49">
     <g id="line2d_105">
      <path clip-path="url(#p9d2f9a8552)" d="M 87.318757 228.14 
L 87.318757 137.54 
" style="fill:none;stroke:#b0b0b0;stroke-linecap:square;stroke-width:0.8;"/>
     </g>
     <g id="line2d_106">
      <g>
       <use style="stroke:#000000;stroke-width:0.6;" x="87.318757" xlink:href="#m9a736b5f44" y="228.14"/>
      </g>
     </g>
    </g>
    <g id="xtick_50">
     <g id="line2d_107">
      <path clip-path="url(#p9d2f9a8552)" d="M 100.717701 228.14 
L 100.717701 137.54 
" style="fill:none;stroke:#b0b0b0;stroke-linecap:square;stroke-width:0.8;"/>
     </g>
     <g id="line2d_108">
      <g>
       <use style="stroke:#000000;stroke-width:0.6;" x="100.717701" xlink:href="#m9a736b5f44" y="228.14"/>
      </g>
     </g>
    </g>
    <g id="xtick_51">
     <g id="line2d_109">
      <path clip-path="url(#p9d2f9a8552)" d="M 110.224403 228.14 
L 110.224403 137.54 
" style="fill:none;stroke:#b0b0b0;stroke-linecap:square;stroke-width:0.8;"/>
     </g>
     <g id="line2d_110">
      <g>
       <use style="stroke:#000000;stroke-width:0.6;" x="110.224403" xlink:href="#m9a736b5f44" y="228.14"/>
      </g>
     </g>
    </g>
    <g id="xtick_52">
     <g id="line2d_111">
      <path clip-path="url(#p9d2f9a8552)" d="M 117.598374 228.14 
L 117.598374 137.54 
" style="fill:none;stroke:#b0b0b0;stroke-linecap:square;stroke-width:0.8;"/>
     </g>
     <g id="line2d_112">
      <g>
       <use style="stroke:#000000;stroke-width:0.6;" x="117.598374" xlink:href="#m9a736b5f44" y="228.14"/>
      </g>
     </g>
    </g>
    <g id="xtick_53">
     <g id="line2d_113">
      <path clip-path="url(#p9d2f9a8552)" d="M 123.623347 228.14 
L 123.623347 137.54 
" style="fill:none;stroke:#b0b0b0;stroke-linecap:square;stroke-width:0.8;"/>
     </g>
     <g id="line2d_114">
      <g>
       <use style="stroke:#000000;stroke-width:0.6;" x="123.623347" xlink:href="#m9a736b5f44" y="228.14"/>
      </g>
     </g>
    </g>
    <g id="xtick_54">
     <g id="line2d_115">
      <path clip-path="url(#p9d2f9a8552)" d="M 128.717389 228.14 
L 128.717389 137.54 
" style="fill:none;stroke:#b0b0b0;stroke-linecap:square;stroke-width:0.8;"/>
     </g>
     <g id="line2d_116">
      <g>
       <use style="stroke:#000000;stroke-width:0.6;" x="128.717389" xlink:href="#m9a736b5f44" y="228.14"/>
      </g>
     </g>
    </g>
    <g id="xtick_55">
     <g id="line2d_117">
      <path clip-path="url(#p9d2f9a8552)" d="M 133.130049 228.14 
L 133.130049 137.54 
" style="fill:none;stroke:#b0b0b0;stroke-linecap:square;stroke-width:0.8;"/>
     </g>
     <g id="line2d_118">
      <g>
       <use style="stroke:#000000;stroke-width:0.6;" x="133.130049" xlink:href="#m9a736b5f44" y="228.14"/>
      </g>
     </g>
    </g>
    <g id="xtick_56">
     <g id="line2d_119">
      <path clip-path="url(#p9d2f9a8552)" d="M 137.022291 228.14 
L 137.022291 137.54 
" style="fill:none;stroke:#b0b0b0;stroke-linecap:square;stroke-width:0.8;"/>
     </g>
     <g id="line2d_120">
      <g>
       <use style="stroke:#000000;stroke-width:0.6;" x="137.022291" xlink:href="#m9a736b5f44" y="228.14"/>
      </g>
     </g>
    </g>
    <g id="xtick_57">
     <g id="line2d_121">
      <path clip-path="url(#p9d2f9a8552)" d="M 163.409666 228.14 
L 163.409666 137.54 
" style="fill:none;stroke:#b0b0b0;stroke-linecap:square;stroke-width:0.8;"/>
     </g>
     <g id="line2d_122">
      <g>
       <use style="stroke:#000000;stroke-width:0.6;" x="163.409666" xlink:href="#m9a736b5f44" y="228.14"/>
      </g>
     </g>
    </g>
    <g id="xtick_58">
     <g id="line2d_123">
      <path clip-path="url(#p9d2f9a8552)" d="M 176.80861 228.14 
L 176.80861 137.54 
" style="fill:none;stroke:#b0b0b0;stroke-linecap:square;stroke-width:0.8;"/>
     </g>
     <g id="line2d_124">
      <g>
       <use style="stroke:#000000;stroke-width:0.6;" x="176.80861" xlink:href="#m9a736b5f44" y="228.14"/>
      </g>
     </g>
    </g>
    <g id="xtick_59">
     <g id="line2d_125">
      <path clip-path="url(#p9d2f9a8552)" d="M 186.315312 228.14 
L 186.315312 137.54 
" style="fill:none;stroke:#b0b0b0;stroke-linecap:square;stroke-width:0.8;"/>
     </g>
     <g id="line2d_126">
      <g>
       <use style="stroke:#000000;stroke-width:0.6;" x="186.315312" xlink:href="#m9a736b5f44" y="228.14"/>
      </g>
     </g>
    </g>
    <g id="xtick_60">
     <g id="line2d_127">
      <path clip-path="url(#p9d2f9a8552)" d="M 193.689283 228.14 
L 193.689283 137.54 
" style="fill:none;stroke:#b0b0b0;stroke-linecap:square;stroke-width:0.8;"/>
     </g>
     <g id="line2d_128">
      <g>
       <use style="stroke:#000000;stroke-width:0.6;" x="193.689283" xlink:href="#m9a736b5f44" y="228.14"/>
      </g>
     </g>
    </g>
    <g id="xtick_61">
     <g id="line2d_129">
      <path clip-path="url(#p9d2f9a8552)" d="M 199.714256 228.14 
L 199.714256 137.54 
" style="fill:none;stroke:#b0b0b0;stroke-linecap:square;stroke-width:0.8;"/>
     </g>
     <g id="line2d_130">
      <g>
       <use style="stroke:#000000;stroke-width:0.6;" x="199.714256" xlink:href="#m9a736b5f44" y="228.14"/>
      </g>
     </g>
    </g>
    <g id="xtick_62">
     <g id="line2d_131">
      <path clip-path="url(#p9d2f9a8552)" d="M 204.808298 228.14 
L 204.808298 137.54 
" style="fill:none;stroke:#b0b0b0;stroke-linecap:square;stroke-width:0.8;"/>
     </g>
     <g id="line2d_132">
      <g>
       <use style="stroke:#000000;stroke-width:0.6;" x="204.808298" xlink:href="#m9a736b5f44" y="228.14"/>
      </g>
     </g>
    </g>
    <g id="xtick_63">
     <g id="line2d_133">
      <path clip-path="url(#p9d2f9a8552)" d="M 209.220958 228.14 
L 209.220958 137.54 
" style="fill:none;stroke:#b0b0b0;stroke-linecap:square;stroke-width:0.8;"/>
     </g>
     <g id="line2d_134">
      <g>
       <use style="stroke:#000000;stroke-width:0.6;" x="209.220958" xlink:href="#m9a736b5f44" y="228.14"/>
      </g>
     </g>
    </g>
    <g id="xtick_64">
     <g id="line2d_135">
      <path clip-path="url(#p9d2f9a8552)" d="M 213.1132 228.14 
L 213.1132 137.54 
" style="fill:none;stroke:#b0b0b0;stroke-linecap:square;stroke-width:0.8;"/>
     </g>
     <g id="line2d_136">
      <g>
       <use style="stroke:#000000;stroke-width:0.6;" x="213.1132" xlink:href="#m9a736b5f44" y="228.14"/>
      </g>
     </g>
    </g>
    <g id="xtick_65">
     <g id="line2d_137">
      <path clip-path="url(#p9d2f9a8552)" d="M 239.500575 228.14 
L 239.500575 137.54 
" style="fill:none;stroke:#b0b0b0;stroke-linecap:square;stroke-width:0.8;"/>
     </g>
     <g id="line2d_138">
      <g>
       <use style="stroke:#000000;stroke-width:0.6;" x="239.500575" xlink:href="#m9a736b5f44" y="228.14"/>
      </g>
     </g>
    </g>
    <g id="xtick_66">
     <g id="line2d_139">
      <path clip-path="url(#p9d2f9a8552)" d="M 252.899519 228.14 
L 252.899519 137.54 
" style="fill:none;stroke:#b0b0b0;stroke-linecap:square;stroke-width:0.8;"/>
     </g>
     <g id="line2d_140">
      <g>
       <use style="stroke:#000000;stroke-width:0.6;" x="252.899519" xlink:href="#m9a736b5f44" y="228.14"/>
      </g>
     </g>
    </g>
    <g id="xtick_67">
     <g id="line2d_141">
      <path clip-path="url(#p9d2f9a8552)" d="M 262.406221 228.14 
L 262.406221 137.54 
" style="fill:none;stroke:#b0b0b0;stroke-linecap:square;stroke-width:0.8;"/>
     </g>
     <g id="line2d_142">
      <g>
       <use style="stroke:#000000;stroke-width:0.6;" x="262.406221" xlink:href="#m9a736b5f44" y="228.14"/>
      </g>
     </g>
    </g>
    <g id="xtick_68">
     <g id="line2d_143">
      <path clip-path="url(#p9d2f9a8552)" d="M 269.780192 228.14 
L 269.780192 137.54 
" style="fill:none;stroke:#b0b0b0;stroke-linecap:square;stroke-width:0.8;"/>
     </g>
     <g id="line2d_144">
      <g>
       <use style="stroke:#000000;stroke-width:0.6;" x="269.780192" xlink:href="#m9a736b5f44" y="228.14"/>
      </g>
     </g>
    </g>
    <g id="xtick_69">
     <g id="line2d_145">
      <path clip-path="url(#p9d2f9a8552)" d="M 275.805165 228.14 
L 275.805165 137.54 
" style="fill:none;stroke:#b0b0b0;stroke-linecap:square;stroke-width:0.8;"/>
     </g>
     <g id="line2d_146">
      <g>
       <use style="stroke:#000000;stroke-width:0.6;" x="275.805165" xlink:href="#m9a736b5f44" y="228.14"/>
      </g>
     </g>
    </g>
    <g id="xtick_70">
     <g id="line2d_147">
      <path clip-path="url(#p9d2f9a8552)" d="M 280.899207 228.14 
L 280.899207 137.54 
" style="fill:none;stroke:#b0b0b0;stroke-linecap:square;stroke-width:0.8;"/>
     </g>
     <g id="line2d_148">
      <g>
       <use style="stroke:#000000;stroke-width:0.6;" x="280.899207" xlink:href="#m9a736b5f44" y="228.14"/>
      </g>
     </g>
    </g>
    <g id="xtick_71">
     <g id="line2d_149">
      <path clip-path="url(#p9d2f9a8552)" d="M 285.311867 228.14 
L 285.311867 137.54 
" style="fill:none;stroke:#b0b0b0;stroke-linecap:square;stroke-width:0.8;"/>
     </g>
     <g id="line2d_150">
      <g>
       <use style="stroke:#000000;stroke-width:0.6;" x="285.311867" xlink:href="#m9a736b5f44" y="228.14"/>
      </g>
     </g>
    </g>
    <g id="xtick_72">
     <g id="line2d_151">
      <path clip-path="url(#p9d2f9a8552)" d="M 289.204109 228.14 
L 289.204109 137.54 
" style="fill:none;stroke:#b0b0b0;stroke-linecap:square;stroke-width:0.8;"/>
     </g>
     <g id="line2d_152">
      <g>
       <use style="stroke:#000000;stroke-width:0.6;" x="289.204109" xlink:href="#m9a736b5f44" y="228.14"/>
      </g>
     </g>
    </g>
    <g id="xtick_73">
     <g id="line2d_153">
      <path clip-path="url(#p9d2f9a8552)" d="M 315.591484 228.14 
L 315.591484 137.54 
" style="fill:none;stroke:#b0b0b0;stroke-linecap:square;stroke-width:0.8;"/>
     </g>
     <g id="line2d_154">
      <g>
       <use style="stroke:#000000;stroke-width:0.6;" x="315.591484" xlink:href="#m9a736b5f44" y="228.14"/>
      </g>
     </g>
    </g>
    <g id="xtick_74">
     <g id="line2d_155">
      <path clip-path="url(#p9d2f9a8552)" d="M 328.990428 228.14 
L 328.990428 137.54 
" style="fill:none;stroke:#b0b0b0;stroke-linecap:square;stroke-width:0.8;"/>
     </g>
     <g id="line2d_156">
      <g>
       <use style="stroke:#000000;stroke-width:0.6;" x="328.990428" xlink:href="#m9a736b5f44" y="228.14"/>
      </g>
     </g>
    </g>
    <g id="xtick_75">
     <g id="line2d_157">
      <path clip-path="url(#p9d2f9a8552)" d="M 338.49713 228.14 
L 338.49713 137.54 
" style="fill:none;stroke:#b0b0b0;stroke-linecap:square;stroke-width:0.8;"/>
     </g>
     <g id="line2d_158">
      <g>
       <use style="stroke:#000000;stroke-width:0.6;" x="338.49713" xlink:href="#m9a736b5f44" y="228.14"/>
      </g>
     </g>
    </g>
    <g id="xtick_76">
     <g id="line2d_159">
      <path clip-path="url(#p9d2f9a8552)" d="M 345.871101 228.14 
L 345.871101 137.54 
" style="fill:none;stroke:#b0b0b0;stroke-linecap:square;stroke-width:0.8;"/>
     </g>
     <g id="line2d_160">
      <g>
       <use style="stroke:#000000;stroke-width:0.6;" x="345.871101" xlink:href="#m9a736b5f44" y="228.14"/>
      </g>
     </g>
    </g>
    <g id="xtick_77">
     <g id="line2d_161">
      <path clip-path="url(#p9d2f9a8552)" d="M 351.896074 228.14 
L 351.896074 137.54 
" style="fill:none;stroke:#b0b0b0;stroke-linecap:square;stroke-width:0.8;"/>
     </g>
     <g id="line2d_162">
      <g>
       <use style="stroke:#000000;stroke-width:0.6;" x="351.896074" xlink:href="#m9a736b5f44" y="228.14"/>
      </g>
     </g>
    </g>
    <g id="xtick_78">
     <g id="line2d_163">
      <path clip-path="url(#p9d2f9a8552)" d="M 356.990117 228.14 
L 356.990117 137.54 
" style="fill:none;stroke:#b0b0b0;stroke-linecap:square;stroke-width:0.8;"/>
     </g>
     <g id="line2d_164">
      <g>
       <use style="stroke:#000000;stroke-width:0.6;" x="356.990117" xlink:href="#m9a736b5f44" y="228.14"/>
      </g>
     </g>
    </g>
    <g id="xtick_79">
     <g id="line2d_165">
      <path clip-path="url(#p9d2f9a8552)" d="M 361.402776 228.14 
L 361.402776 137.54 
" style="fill:none;stroke:#b0b0b0;stroke-linecap:square;stroke-width:0.8;"/>
     </g>
     <g id="line2d_166">
      <g>
       <use style="stroke:#000000;stroke-width:0.6;" x="361.402776" xlink:href="#m9a736b5f44" y="228.14"/>
      </g>
     </g>
    </g>
    <g id="xtick_80">
     <g id="line2d_167">
      <path clip-path="url(#p9d2f9a8552)" d="M 365.295018 228.14 
L 365.295018 137.54 
" style="fill:none;stroke:#b0b0b0;stroke-linecap:square;stroke-width:0.8;"/>
     </g>
     <g id="line2d_168">
      <g>
       <use style="stroke:#000000;stroke-width:0.6;" x="365.295018" xlink:href="#m9a736b5f44" y="228.14"/>
      </g>
     </g>
    </g>
    <g id="text_15">
     <!-- Frequency(rad/sec) -->
     <defs>
      <path d="M 45.59375 31 
L 45.59375 37.078125 
L 17.203125 37.078125 
L 17.203125 62 
L 29.40625 62 
C 30.59375 62 31.796875 62 33 62 
L 49.5 62 
L 49.5 68.359375 
L 8.796875 68.359375 
L 8.796875 -0.5 
L 17.203125 -0.5 
L 17.203125 31 
z
" id="CMSS17-70"/>
      <path d="M 14.90625 21.296875 
C 14.90625 30.703125 21.796875 37 30.59375 37 
L 30.59375 43.578125 
C 24.203125 43.578125 18.203125 40.390625 14.59375 35.203125 
L 14.59375 43.09375 
L 7.5 43.09375 
L 7.5 0 
L 14.90625 0 
z
" id="CMSS17-114"/>
      <path d="M 40.796875 44 
L 33.40625 44 
L 33.40625 37.9375 
C 33 38.4375 28.40625 44 20.59375 44 
C 11.5 44 3.296875 34.8125 3.296875 21.859375 
C 3.296875 9.890625 10.203125 -0.078125 19.203125 -0.078125 
C 23.40625 -0.078125 28.703125 1.421875 33.203125 5.703125 
L 33.203125 -19 
L 40.796875 -19 
z
M 33.40625 14.28125 
C 33.40625 13 33.40625 11.21875 30.296875 8.65625 
C 29.5 7.96875 27.296875 6 23.5 6 
C 16.40625 6 10.90625 13.28125 10.90625 21.859375 
C 10.90625 31.421875 17.59375 37.734375 24.40625 37.734375 
C 30.09375 37.734375 33.40625 32.203125 33.40625 28.078125 
z
" id="CMSS17-113"/>
      <path d="M 38.5 39.703125 
C 38.5 40.390625 33.90625 42.40625 32.703125 42.796875 
C 29.40625 44 25.203125 44 24.09375 44 
C 11.09375 44 3.296875 32.703125 3.296875 21.296875 
C 3.296875 9.296875 12 -1 23.703125 -1 
C 30.40625 -1 35.203125 1.1875 39.09375 3.78125 
L 38.5 10.375 
C 34.203125 7.078125 29.203125 5.265625 23.796875 5.265625 
C 16 5.265625 10.90625 12.09375 10.90625 21.390625 
C 10.90625 28.609375 14.203125 37.71875 24.203125 37.71875 
C 29.703125 37.71875 32.796875 36.609375 37.40625 33.515625 
z
" id="CMSS17-99"/>
      <path d="M 41.796875 43 
L 34 43 
C 25.5 20.21875 22.59375 10.96875 22.40625 5.984375 
L 22.296875 5.984375 
C 22 10.875 17.59375 22.8125 14.09375 31.359375 
L 9.40625 43 
L 1.296875 43 
L 19 0.203125 
C 17.90625 -2.78125 16.296875 -7.265625 15.796875 -8.265625 
C 13.59375 -13.828125 12.09375 -13.828125 10.5 -13.828125 
C 10.09375 -13.828125 6.90625 -13.828125 3.296875 -12.640625 
L 3.90625 -19.203125 
C 6.40625 -19.703125 8.90625 -20 10.703125 -20 
C 13.203125 -20 18.203125 -20 22.796875 -7.765625 
z
" id="CMSS17-121"/>
      <path d="M 41.203125 71.015625 
C 41.703125 72.296875 41.703125 72.5 41.703125 72.703125 
C 41.703125 73.890625 40.796875 74.5 40 74.5 
C 38.796875 74.5 38.40625 73.703125 38 72.5 
L 5.703125 -21.515625 
C 5.203125 -22.8125 5.203125 -23.015625 5.203125 -23.21875 
C 5.203125 -24.40625 6.09375 -25 6.90625 -25 
C 8.09375 -25 8.5 -24.203125 8.90625 -23.015625 
z
" id="CMSS17-47"/>
      <path d="M 32.203125 41.046875 
C 26.296875 43.859375 21.703125 43.859375 18.703125 43.859375 
C 11.59375 43.859375 3.09375 41.375 3.09375 31.296875 
C 3.09375 21.234375 14.09375 19.03125 17.09375 18.421875 
C 21.703125 17.53125 26.796875 16.53125 26.796875 11.5625 
C 26.796875 5.265625 19.59375 5.265625 18.296875 5.265625 
C 14.296875 5.265625 8.796875 6.359375 3.796875 9.96875 
L 2.59375 3.28125 
C 8.296875 0 13.796875 -1 18.40625 -1 
C 30.703125 -1 33.796875 6.5 33.796875 12.203125 
C 33.796875 17.09375 31 20.390625 29.09375 21.890625 
C 25.796875 24.5 24.59375 24.796875 16.40625 26.5 
C 15 26.703125 10.09375 27.796875 10.09375 32.28125 
C 10.09375 38 16.40625 38 17.796875 38 
C 24.296875 38 28.296875 35.984375 31 34.5 
z
" id="CMSS17-115"/>
     </defs>
     <g transform="translate(176.163144 255.467657)scale(0.1 -0.1)">
      <use transform="scale(0.996264)" xlink:href="#CMSS17-70"/>
      <use transform="translate(50.687105 0)scale(0.996264)" xlink:href="#CMSS17-114"/>
      <use transform="translate(82.596878 0)scale(0.996264)" xlink:href="#CMSS17-101"/>
      <use transform="translate(124.2357 0)scale(0.996264)" xlink:href="#CMSS17-113"/>
      <use transform="translate(172.440643 0)scale(0.996264)" xlink:href="#CMSS17-117"/>
      <use transform="translate(220.645586 0)scale(0.996264)" xlink:href="#CMSS17-101"/>
      <use transform="translate(262.284408 0)scale(0.996264)" xlink:href="#CMSS17-110"/>
      <use transform="translate(310.489351 0)scale(0.996264)" xlink:href="#CMSS17-99"/>
      <use transform="translate(352.128174 0)scale(0.996264)" xlink:href="#CMSS17-121"/>
      <use transform="translate(395.128315 0)scale(0.996264)" xlink:href="#CMSS17-40"/>
      <use transform="translate(431.562229 0)scale(0.996264)" xlink:href="#CMSS17-114"/>
      <use transform="translate(463.472002 0)scale(0.996264)" xlink:href="#CMSS17-97"/>
      <use transform="translate(508.393923 0)scale(0.996264)" xlink:href="#CMSS17-100"/>
      <use transform="translate(556.598866 0)scale(0.996264)" xlink:href="#CMSS17-47"/>
      <use transform="translate(603.442489 0)scale(0.996264)" xlink:href="#CMSS17-115"/>
      <use transform="translate(639.356031 0)scale(0.996264)" xlink:href="#CMSS17-101"/>
      <use transform="translate(680.994853 0)scale(0.996264)" xlink:href="#CMSS17-99"/>
      <use transform="translate(722.633675 0)scale(0.996264)" xlink:href="#CMSS17-41"/>
     </g>
    </g>
   </g>
   <g id="matplotlib.axis_4">
    <g id="ytick_4">
     <g id="line2d_169">
      <path clip-path="url(#p9d2f9a8552)" d="M 49.194929 146.812273 
L 383.994929 146.812273 
" style="fill:none;stroke:#b0b0b0;stroke-linecap:square;stroke-width:0.8;"/>
     </g>
     <g id="line2d_170">
      <g>
       <use style="stroke:#000000;stroke-width:0.8;" x="49.194929" xlink:href="#m0a23387f77" y="146.812273"/>
      </g>
     </g>
     <g id="text_16">
      <!-- 45.0 -->
      <defs>
       <path d="M 35.203125 17 
L 44.296875 17 
L 44.296875 23.078125 
L 35.203125 23.078125 
L 35.203125 65.5 
L 26.40625 65.5 
L 2.59375 23.078125 
L 2.59375 17 
L 27.296875 17 
L 27.296875 0 
L 35.203125 0 
z
M 10.296875 23.078125 
C 16.09375 33.234375 27.59375 53.734375 27.59375 60.703125 
L 27.59375 23.078125 
z
" id="CMSS17-52"/>
       <path d="M 14.59375 58.625 
L 39.09375 58.625 
L 39.09375 65 
L 7.296875 65 
L 7.296875 27.828125 
L 14 27.828125 
C 15.796875 31.96875 19.5 35 24.296875 35 
C 28.796875 35 33.796875 31.078125 33.796875 19.78125 
C 33.796875 7.703125 26.703125 4.171875 21.5 4.171875 
C 15.09375 4.171875 9.203125 8 6.59375 13.296875 
L 3.40625 7.796875 
C 8 0.765625 15.5 -2 21.5 -2 
C 33.09375 -2 42.203125 7.765625 42.203125 19.578125 
C 42.203125 31.71875 34.09375 41.078125 24.40625 41.078125 
C 20.90625 41.078125 17.5 39.890625 14.59375 37.484375 
z
" id="CMSS17-53"/>
      </defs>
      <g transform="translate(24.483515 150.271522)scale(0.1 -0.1)">
       <use transform="scale(0.996264)" xlink:href="#CMSS17-52"/>
       <use transform="translate(46.843624 0)scale(0.996264)" xlink:href="#CMSS17-53"/>
       <use transform="translate(93.687247 0)scale(0.996264)" xlink:href="#CMSS17-46"/>
       <use transform="translate(119.711452 0)scale(0.996264)" xlink:href="#CMSS17-48"/>
      </g>
     </g>
    </g>
    <g id="ytick_5">
     <g id="line2d_171">
      <path clip-path="url(#p9d2f9a8552)" d="M 49.194929 173.921515 
L 383.994929 173.921515 
" style="fill:none;stroke:#b0b0b0;stroke-linecap:square;stroke-width:0.8;"/>
     </g>
     <g id="line2d_172">
      <g>
       <use style="stroke:#000000;stroke-width:0.8;" x="49.194929" xlink:href="#m0a23387f77" y="173.921515"/>
      </g>
     </g>
     <g id="text_17">
      <!-- 0.0 -->
      <g transform="translate(29.46485 177.380764)scale(0.1 -0.1)">
       <use transform="scale(0.996264)" xlink:href="#CMSS17-48"/>
       <use transform="translate(46.843624 0)scale(0.996264)" xlink:href="#CMSS17-46"/>
       <use transform="translate(72.867828 0)scale(0.996264)" xlink:href="#CMSS17-48"/>
      </g>
     </g>
    </g>
    <g id="ytick_6">
     <g id="line2d_173">
      <path clip-path="url(#p9d2f9a8552)" d="M 49.194929 201.030758 
L 383.994929 201.030758 
" style="fill:none;stroke:#b0b0b0;stroke-linecap:square;stroke-width:0.8;"/>
     </g>
     <g id="line2d_174">
      <g>
       <use style="stroke:#000000;stroke-width:0.8;" x="49.194929" xlink:href="#m0a23387f77" y="201.030758"/>
      </g>
     </g>
     <g id="text_18">
      <!-- -45.0 -->
      <g transform="translate(21.16264 204.490007)scale(0.1 -0.1)">
       <use transform="scale(0.996264)" xlink:href="#CMSS17-45"/>
       <use transform="translate(31.229113 0)scale(0.996264)" xlink:href="#CMSS17-52"/>
       <use transform="translate(78.072736 0)scale(0.996264)" xlink:href="#CMSS17-53"/>
       <use transform="translate(124.91636 0)scale(0.996264)" xlink:href="#CMSS17-46"/>
       <use transform="translate(150.940565 0)scale(0.996264)" xlink:href="#CMSS17-48"/>
      </g>
     </g>
    </g>
    <g id="ytick_7">
     <g id="line2d_175">
      <path clip-path="url(#p9d2f9a8552)" d="M 49.194929 228.14 
L 383.994929 228.14 
" style="fill:none;stroke:#b0b0b0;stroke-linecap:square;stroke-width:0.8;"/>
     </g>
     <g id="line2d_176">
      <g>
       <use style="stroke:#000000;stroke-width:0.8;" x="49.194929" xlink:href="#m0a23387f77" y="228.14"/>
      </g>
     </g>
     <g id="text_19">
      <!-- -90.0 -->
      <defs>
       <path d="M 6.796875 2.71875 
C 9.59375 0.328125 13.203125 -2 19.296875 -2 
C 31.40625 -2 43 11.265625 43 32.734375 
C 43 61.4375 30.5 66.078125 23.796875 66.078125 
C 17.09375 66.078125 12.796875 63.140625 9.09375 58.453125 
C 4.703125 53.078125 3.90625 48.28125 3.90625 42.703125 
C 3.90625 36.046875 5.09375 31.953125 7.90625 27.265625 
C 11.703125 21.203125 15.203125 19.921875 19.09375 19.921875 
C 25 19.921875 30.90625 22.796875 34.90625 27.75 
C 34.203125 14.09375 28.09375 4.171875 19.296875 4.171875 
C 15.703125 4.171875 12.796875 5.296875 9.90625 8.0625 
z
M 34.59375 42.90625 
C 34.703125 42.234375 34.703125 40.96875 34.703125 40.5625 
C 34.703125 32.40625 29.90625 26 22.90625 26 
C 18.296875 26 15.90625 28.328125 14.09375 31.34375 
C 11.90625 35.140625 11.796875 38.828125 11.796875 42.703125 
C 11.796875 46.5 11.796875 50.6875 14.59375 54.859375 
C 16.703125 57.859375 19.296875 60 23.796875 60 
C 33 60 34.5 46.875 34.59375 42.90625 
" id="CMSS17-57"/>
      </defs>
      <g transform="translate(21.16264 231.599249)scale(0.1 -0.1)">
       <use transform="scale(0.996264)" xlink:href="#CMSS17-45"/>
       <use transform="translate(31.229113 0)scale(0.996264)" xlink:href="#CMSS17-57"/>
       <use transform="translate(78.072736 0)scale(0.996264)" xlink:href="#CMSS17-48"/>
       <use transform="translate(124.91636 0)scale(0.996264)" xlink:href="#CMSS17-46"/>
       <use transform="translate(150.940565 0)scale(0.996264)" xlink:href="#CMSS17-48"/>
      </g>
     </g>
    </g>
    <g id="text_20">
     <!-- Phase(deg) -->
     <defs>
      <path d="M 32.90625 29 
C 44.90625 29 54.703125 38.328125 54.703125 49.34375 
C 54.703125 60.15625 45.296875 69.578125 32.296875 69.578125 
L 8.90625 69.578125 
L 8.90625 0 
L 17.296875 0 
L 17.296875 29 
z
M 30.09375 64 
C 41.703125 64 46.796875 56.671875 46.796875 49.328125 
C 46.796875 42.5 42.09375 34.78125 30.09375 34.78125 
L 17.09375 34.78125 
L 17.09375 64 
z
" id="CMSS17-80"/>
      <path d="M 40.90625 29.546875 
C 40.90625 35.8125 39.40625 44.0625 28.09375 44.0625 
C 21.796875 44.0625 17.703125 40.984375 14.796875 37.609375 
L 14.796875 69.5 
L 7.40625 69.5 
L 7.40625 0.5 
L 15 0.5 
L 15 24.578125 
C 15 30.828125 17.40625 38 24.203125 38 
C 33 38 33.296875 32.125 33.296875 28.734375 
L 33.296875 0.5 
L 40.90625 0.5 
z
" id="CMSS17-104"/>
     </defs>
     <g transform="translate(14.67198 206.266076)rotate(-90)scale(0.1 -0.1)">
      <use transform="scale(0.996264)" xlink:href="#CMSS17-80"/>
      <use transform="translate(59.735586 0)scale(0.996264)" xlink:href="#CMSS17-104"/>
      <use transform="translate(107.940529 0)scale(0.996264)" xlink:href="#CMSS17-97"/>
      <use transform="translate(152.86245 0)scale(0.996264)" xlink:href="#CMSS17-115"/>
      <use transform="translate(188.775992 0)scale(0.996264)" xlink:href="#CMSS17-101"/>
      <use transform="translate(230.414814 0)scale(0.996264)" xlink:href="#CMSS17-40"/>
      <use transform="translate(266.848728 0)scale(0.996264)" xlink:href="#CMSS17-100"/>
      <use transform="translate(315.053671 0)scale(0.996264)" xlink:href="#CMSS17-101"/>
      <use transform="translate(356.692493 0)scale(0.996264)" xlink:href="#CMSS17-103"/>
      <use transform="translate(403.536117 0)scale(0.996264)" xlink:href="#CMSS17-41"/>
     </g>
    </g>
   </g>
   <g id="line2d_177">
    <path clip-path="url(#p9d2f9a8552)" d="M 64.413111 177.01658 
L 67.487491 177.315799 
L 70.561871 177.643381 
L 73.636252 178.001835 
L 76.710632 178.393837 
L 79.785012 178.822219 
L 82.859392 179.289956 
L 85.933772 179.800143 
L 89.008152 180.355951 
L 92.082533 180.960583 
L 95.156913 181.617192 
L 98.231293 182.328793 
L 101.305673 183.098131 
L 104.380053 183.927535 
L 107.454433 184.818727 
L 110.528814 185.77261 
L 113.603194 186.789019 
L 116.677574 187.866471 
L 119.751954 189.001901 
L 122.826334 190.190433 
L 125.900714 191.425201 
L 128.975095 192.697253 
L 132.049475 193.995576 
L 135.123855 195.307258 
L 138.198235 196.61779 
L 141.272615 197.911505 
L 144.346995 199.17211 
L 147.421376 200.383268 
L 150.495756 201.529162 
L 153.570136 202.595 
L 156.644516 203.567402 
L 159.718896 204.434657 
L 162.793276 205.18685 
L 165.867657 205.815868 
L 168.942037 206.315324 
L 172.016417 206.680432 
L 175.090797 206.907863 
L 178.165177 206.99562 
L 181.239557 206.942947 
L 184.313938 206.750297 
L 187.388318 206.41935 
L 190.462698 205.953091 
L 193.537078 205.35593 
L 196.611458 204.63384 
L 199.685838 203.794491 
L 202.760219 202.847347 
L 205.834599 201.803676 
L 208.908979 200.676458 
L 211.983359 199.480166 
L 215.057739 198.230402 
L 218.132119 196.943426 
L 221.2065 195.635595 
L 224.28088 194.322786 
L 227.35526 193.019844 
L 230.42964 191.740114 
L 233.50402 190.495105 
L 236.5784 189.294289 
L 239.652781 188.145051 
L 242.727161 187.05275 
L 245.801541 186.020883 
L 248.875921 185.051307 
L 251.950301 184.144489 
L 255.024681 183.299771 
L 258.099062 182.515615 
L 261.173442 181.789824 
L 264.247822 181.119741 
L 267.322202 180.502407 
L 270.396582 179.934693 
L 273.470962 179.4134 
L 276.545343 178.935345 
L 279.619723 178.497408 
L 282.694103 178.096583 
L 285.768483 177.729999 
L 288.842863 177.39494 
L 291.917243 177.088857 
L 294.991624 176.809364 
L 298.066004 176.554244 
L 301.140384 176.321442 
L 304.214764 176.109059 
L 307.289144 175.915345 
L 310.363524 175.738688 
L 313.437905 175.577612 
L 316.512285 175.430758 
L 319.586665 175.296885 
L 322.661045 175.174855 
L 325.735425 175.063629 
L 328.809805 174.962255 
L 331.884185 174.869865 
L 334.958566 174.785667 
L 338.032946 174.708937 
L 341.107326 174.639013 
L 344.181706 174.575295 
L 347.256086 174.517231 
L 350.330466 174.464322 
L 353.404847 174.41611 
L 356.479227 174.372179 
L 359.553607 174.332148 
L 362.627987 174.295673 
L 365.702367 174.262437 
L 368.776747 174.232153 
" style="fill:none;stroke:#ff0000;stroke-linecap:square;stroke-width:1.5;"/>
   </g>
   <g id="line2d_178">
    <path clip-path="url(#p9d2f9a8552)" d="M 64.413111 173.610878 
L 67.487491 173.580594 
L 70.561871 173.547357 
L 73.636252 173.510882 
L 76.710632 173.470852 
L 79.785012 173.426921 
L 82.859392 173.378709 
L 85.933772 173.325799 
L 89.008152 173.267736 
L 92.082533 173.204017 
L 95.156913 173.134094 
L 98.231293 173.057363 
L 101.305673 172.973165 
L 104.380053 172.880776 
L 107.454433 172.779402 
L 110.528814 172.668175 
L 113.603194 172.546145 
L 116.677574 172.412272 
L 119.751954 172.265419 
L 122.826334 172.104342 
L 125.900714 171.927686 
L 128.975095 171.733971 
L 132.049475 171.521589 
L 135.123855 171.288787 
L 138.198235 171.033667 
L 141.272615 170.754174 
L 144.346995 170.44809 
L 147.421376 170.113032 
L 150.495756 169.746448 
L 153.570136 169.345623 
L 156.644516 168.907686 
L 159.718896 168.42963 
L 162.793276 167.908338 
L 165.867657 167.340623 
L 168.942037 166.723289 
L 172.016417 166.053206 
L 175.090797 165.327416 
L 178.165177 164.543259 
L 181.239557 163.698541 
L 184.313938 162.791724 
L 187.388318 161.822147 
L 190.462698 160.79028 
L 193.537078 159.69798 
L 196.611458 158.548742 
L 199.685838 157.347926 
L 202.760219 156.102916 
L 205.834599 154.823186 
L 208.908979 153.520244 
L 211.983359 152.207436 
L 215.057739 150.899605 
L 218.132119 149.612628 
L 221.2065 148.362864 
L 224.28088 147.166572 
L 227.35526 146.039355 
L 230.42964 144.995683 
L 233.50402 144.048539 
L 236.5784 143.209191 
L 239.652781 142.487101 
L 242.727161 141.889939 
L 245.801541 141.42368 
L 248.875921 141.092733 
L 251.950301 140.900083 
L 255.024681 140.84741 
L 258.099062 140.935167 
L 261.173442 141.162598 
L 264.247822 141.527707 
L 267.322202 142.027163 
L 270.396582 142.656181 
L 273.470962 143.408374 
L 276.545343 144.275629 
L 279.619723 145.248031 
L 282.694103 146.313869 
L 285.768483 147.459763 
L 288.842863 148.67092 
L 291.917243 149.931525 
L 294.991624 151.22524 
L 298.066004 152.535773 
L 301.140384 153.847455 
L 304.214764 155.145778 
L 307.289144 156.41783 
L 310.363524 157.652597 
L 313.437905 158.841129 
L 316.512285 159.97656 
L 319.586665 161.054011 
L 322.661045 162.070421 
L 325.735425 163.024303 
L 328.809805 163.915496 
L 331.884185 164.7449 
L 334.958566 165.514238 
L 338.032946 166.225838 
L 341.107326 166.882448 
L 344.181706 167.487079 
L 347.256086 168.042888 
L 350.330466 168.553074 
L 353.404847 169.020812 
L 356.479227 169.449194 
L 359.553607 169.841195 
L 362.627987 170.19965 
L 365.702367 170.527231 
L 368.776747 170.82645 
" style="fill:none;stroke:#0000ff;stroke-linecap:square;stroke-width:1.5;"/>
   </g>
   <g id="patch_8">
    <path d="M 49.194929 228.14 
L 49.194929 137.54 
" style="fill:none;stroke:#000000;stroke-linecap:square;stroke-linejoin:miter;stroke-width:0.8;"/>
   </g>
   <g id="patch_9">
    <path d="M 383.994929 228.14 
L 383.994929 137.54 
" style="fill:none;stroke:#000000;stroke-linecap:square;stroke-linejoin:miter;stroke-width:0.8;"/>
   </g>
   <g id="patch_10">
    <path d="M 49.194929 228.14 
L 383.994929 228.14 
" style="fill:none;stroke:#000000;stroke-linecap:square;stroke-linejoin:miter;stroke-width:0.8;"/>
   </g>
   <g id="patch_11">
    <path d="M 49.194929 137.54 
L 383.994929 137.54 
" style="fill:none;stroke:#000000;stroke-linecap:square;stroke-linejoin:miter;stroke-width:0.8;"/>
   </g>
  </g>
 </g>
 <defs>
  <clipPath id="p854cea5370">
   <rect height="90.6" width="334.8" x="49.194929" y="10.7"/>
  </clipPath>
  <clipPath id="p9d2f9a8552">
   <rect height="90.6" width="334.8" x="49.194929" y="137.54"/>
  </clipPath>
 </defs>
</svg>
