<?xml version="1.0" encoding="utf-8" standalone="no"?>
<!DOCTYPE svg PUBLIC "-//W3C//DTD SVG 1.1//EN"
  "http://www.w3.org/Graphics/SVG/1.1/DTD/svg11.dtd">
<!-- Created with matplotlib (http://matplotlib.org/) -->
<svg height="269pt" version="1.1" viewBox="0 0 401 269" width="401pt" xmlns="http://www.w3.org/2000/svg" xmlns:xlink="http://www.w3.org/1999/xlink">
 <defs>
  <style type="text/css">
*{stroke-linecap:butt;stroke-linejoin:round;stroke-miterlimit:100000;}
  </style>
 </defs>
 <g id="figure_1">
  <g id="patch_1">
   <path d="M 0 269.846155 
L 401.143219 269.846155 
L 401.143219 0 
L 0 0 
z
" style="fill:none;"/>
  </g>
  <g id="axes_1">
   <g id="patch_2">
    <path d="M 52.176265 104.627838 
L 386.976265 104.627838 
L 386.976265 11.627838 
L 52.176265 11.627838 
z
" style="fill:#ffffff;"/>
   </g>
   <g id="line2d_1">
    <path clip-path="url(#pcee441e36c)" d="M 52.176265 34.877838 
L 59.008918 35.826818 
L 65.841571 36.775798 
L 72.674224 37.724777 
L 79.506877 38.673757 
L 86.33953 39.622736 
L 93.172183 40.571716 
L 100.004836 41.520695 
L 106.837489 42.469675 
L 113.670142 43.418655 
L 120.502795 44.367634 
L 127.335448 45.316614 
L 134.168101 46.265593 
L 141.000754 47.214573 
L 147.833407 48.163553 
L 154.66606 49.112532 
L 161.498714 50.061512 
L 168.331367 51.010491 
L 175.16402 51.959471 
L 181.996673 52.908451 
L 188.829326 53.85743 
L 195.661979 54.80641 
L 202.494632 55.755389 
L 209.327285 56.704369 
L 216.159938 57.653349 
L 222.992591 58.602328 
L 229.825244 59.551308 
L 236.657897 60.500287 
L 243.49055 61.449267 
L 250.323203 62.398247 
L 257.155856 63.347226 
L 263.988509 64.296206 
L 270.821163 65.245185 
L 277.653816 66.194165 
L 284.486469 67.143144 
L 291.319122 68.092124 
L 298.151775 69.041104 
L 304.984428 69.990083 
L 311.817081 70.939063 
L 318.649734 71.888042 
L 325.482387 72.837022 
L 332.31504 73.786002 
L 339.147693 74.734981 
L 345.980346 75.683961 
L 352.812999 76.63294 
L 359.645652 77.58192 
L 366.478305 78.5309 
L 373.310958 79.479879 
L 380.143611 80.428859 
L 386.976265 81.377838 
" style="fill:none;stroke:#0000ff;stroke-linecap:square;"/>
   </g>
   <g id="line2d_2">
    <path clip-path="url(#pcee441e36c)" d="M 52.176265 11.627838 
L 59.008918 13.525798 
L 65.841571 15.423757 
L 72.674224 17.321716 
L 79.506877 19.219675 
L 86.33953 21.117634 
L 93.172183 23.015593 
L 100.004836 24.913553 
L 106.837489 26.811512 
L 113.670142 28.709471 
L 120.502795 30.60743 
L 127.335448 32.505389 
L 134.168101 34.403349 
L 141.000754 36.301308 
L 147.833407 38.199267 
L 154.66606 40.097226 
L 161.498714 41.995185 
L 168.331367 43.893144 
L 175.16402 45.791104 
L 181.996673 47.689063 
L 188.829326 49.587022 
L 195.661979 51.484981 
L 202.494632 53.38294 
L 209.327285 55.2809 
L 216.159938 57.178859 
L 222.992591 59.076818 
L 229.825244 60.974777 
L 236.657897 62.872736 
L 243.49055 64.770695 
L 250.323203 66.668655 
L 257.155856 68.566614 
L 263.988509 70.464573 
L 270.821163 72.362532 
L 277.653816 74.260491 
L 284.486469 76.158451 
L 291.319122 78.05641 
L 298.151775 79.954369 
L 304.984428 81.852328 
L 311.817081 83.750287 
L 318.649734 85.648247 
L 325.482387 87.546206 
L 332.31504 89.444165 
L 339.147693 91.342124 
L 345.980346 93.240083 
L 352.812999 95.138042 
L 359.645652 97.036002 
L 366.478305 98.933961 
L 373.310958 100.83192 
L 380.143611 102.729879 
L 386.976265 104.627838 
" style="fill:none;stroke:#000000;stroke-linecap:square;"/>
   </g>
   <g id="line2d_3">
    <path clip-path="url(#pcee441e36c)" d="M 52.176265 81.377838 
L 59.008918 80.428859 
L 65.841571 79.479879 
L 72.674224 78.5309 
L 79.506877 77.58192 
L 86.33953 76.63294 
L 93.172183 75.683961 
L 100.004836 74.734981 
L 106.837489 73.786002 
L 113.670142 72.837022 
L 120.502795 71.888042 
L 127.335448 70.939063 
L 134.168101 69.990083 
L 141.000754 69.041104 
L 147.833407 68.092124 
L 154.66606 67.143144 
L 161.498714 66.194165 
L 168.331367 65.245185 
L 175.16402 64.296206 
L 181.996673 63.347226 
L 188.829326 62.398247 
L 195.661979 61.449267 
L 202.494632 60.500287 
L 209.327285 59.551308 
L 216.159938 58.602328 
L 222.992591 57.653349 
L 229.825244 56.704369 
L 236.657897 55.755389 
L 243.49055 54.80641 
L 250.323203 53.85743 
L 257.155856 52.908451 
L 263.988509 51.959471 
L 270.821163 51.010491 
L 277.653816 50.061512 
L 284.486469 49.112532 
L 291.319122 48.163553 
L 298.151775 47.214573 
L 304.984428 46.265593 
L 311.817081 45.316614 
L 318.649734 44.367634 
L 325.482387 43.418655 
L 332.31504 42.469675 
L 339.147693 41.520695 
L 345.980346 40.571716 
L 352.812999 39.622736 
L 359.645652 38.673757 
L 366.478305 37.724777 
L 373.310958 36.775798 
L 380.143611 35.826818 
L 386.976265 34.877838 
" style="fill:none;stroke:#ff0000;stroke-linecap:square;"/>
   </g>
   <g id="line2d_4">
    <path clip-path="url(#pcee441e36c)" d="M 52.176265 104.627838 
L 59.008918 102.729879 
L 65.841571 100.83192 
L 72.674224 98.933961 
L 79.506877 97.036002 
L 86.33953 95.138042 
L 93.172183 93.240083 
L 100.004836 91.342124 
L 106.837489 89.444165 
L 113.670142 87.546206 
L 120.502795 85.648247 
L 127.335448 83.750287 
L 134.168101 81.852328 
L 141.000754 79.954369 
L 147.833407 78.05641 
L 154.66606 76.158451 
L 161.498714 74.260491 
L 168.331367 72.362532 
L 175.16402 70.464573 
L 181.996673 68.566614 
L 188.829326 66.668655 
L 195.661979 64.770695 
L 202.494632 62.872736 
L 209.327285 60.974777 
L 216.159938 59.076818 
L 222.992591 57.178859 
L 229.825244 55.2809 
L 236.657897 53.38294 
L 243.49055 51.484981 
L 250.323203 49.587022 
L 257.155856 47.689063 
L 263.988509 45.791104 
L 270.821163 43.893144 
L 277.653816 41.995185 
L 284.486469 40.097226 
L 291.319122 38.199267 
L 298.151775 36.301308 
L 304.984428 34.403349 
L 311.817081 32.505389 
L 318.649734 30.60743 
L 325.482387 28.709471 
L 332.31504 26.811512 
L 339.147693 24.913553 
L 345.980346 23.015593 
L 352.812999 21.117634 
L 359.645652 19.219675 
L 366.478305 17.321716 
L 373.310958 15.423757 
L 380.143611 13.525798 
L 386.976265 11.627838 
" style="fill:none;stroke:#008000;stroke-linecap:square;"/>
   </g>
   <g id="patch_3">
    <path d="M 52.176265 104.627838 
L 52.176265 11.627838 
" style="fill:none;stroke:#000000;stroke-linecap:square;stroke-linejoin:miter;"/>
   </g>
   <g id="patch_4">
    <path d="M 52.176265 104.627838 
L 386.976265 104.627838 
" style="fill:none;stroke:#000000;stroke-linecap:square;stroke-linejoin:miter;"/>
   </g>
   <g id="patch_5">
    <path d="M 52.176265 11.627838 
L 386.976265 11.627838 
" style="fill:none;stroke:#000000;stroke-linecap:square;stroke-linejoin:miter;"/>
   </g>
   <g id="patch_6">
    <path d="M 386.976265 104.627838 
L 386.976265 11.627838 
" style="fill:none;stroke:#000000;stroke-linecap:square;stroke-linejoin:miter;"/>
   </g>
   <g id="matplotlib.axis_1">
    <g id="xtick_1">
     <g id="line2d_5">
      <path clip-path="url(#pcee441e36c)" d="M 52.176265 104.627838 
L 52.176265 11.627838 
" style="fill:none;stroke:#000000;stroke-dasharray:1.000000,3.000000;stroke-dashoffset:0.0;stroke-width:0.5;"/>
     </g>
     <g id="line2d_6">
      <defs>
       <path d="M 0 0 
L 0 -4 
" id="mae85a45ea5" style="stroke:#000000;stroke-width:0.5;"/>
      </defs>
      <g>
       <use style="stroke:#000000;stroke-width:0.5;" x="52.1762645451" xlink:href="#mae85a45ea5" y="104.627838355"/>
      </g>
     </g>
     <g id="line2d_7">
      <defs>
       <path d="M 0 0 
L 0 4 
" id="m9f37ecc3e0" style="stroke:#000000;stroke-width:0.5;"/>
      </defs>
      <g>
       <use style="stroke:#000000;stroke-width:0.5;" x="52.1762645451" xlink:href="#m9f37ecc3e0" y="11.6278383552"/>
      </g>
     </g>
     <g id="text_1">
      <!-- $10^{-1}$ -->
      <defs>
       <path d="M 42 31.640625 
C 42 37.75 41.90625 48.125 37.703125 56.109375 
C 34 63.109375 28.09375 65.59375 22.90625 65.59375 
C 18.09375 65.59375 12 63.40625 8.203125 56.203125 
C 4.203125 48.71875 3.796875 39.4375 3.796875 31.640625 
C 3.796875 25.953125 3.90625 17.28125 7 9.671875 
C 11.296875 -0.609375 19 -2 22.90625 -2 
C 27.5 -2 34.5 -0.109375 38.59375 9.375 
C 41.59375 16.28125 42 24.359375 42 31.640625 
M 22.90625 -0.40625 
C 16.5 -0.40625 12.703125 5.078125 11.296875 12.6875 
C 10.203125 18.5625 10.203125 27.15625 10.203125 32.75 
C 10.203125 40.4375 10.203125 46.828125 11.5 52.921875 
C 13.40625 61.390625 19 64 22.90625 64 
C 27 64 32.296875 61.296875 34.203125 53.125 
C 35.5 47.4375 35.59375 40.734375 35.59375 32.75 
C 35.59375 26.25 35.59375 18.265625 34.40625 12.375 
C 32.296875 1.484375 26.40625 -0.40625 22.90625 -0.40625 
" id="CMR17-48"/>
       <path d="M 26.59375 63.40625 
C 26.59375 65.5 26.5 65.5 25.09375 65.5 
C 21.203125 61.1875 15.296875 59.796875 9.703125 59.796875 
C 9.40625 59.796875 8.90625 59.796875 8.796875 59.5 
C 8.703125 59.296875 8.703125 59.09375 8.703125 57 
C 11.796875 57 17 57.59375 21 59.984375 
L 21 7.203125 
C 21 3.6875 20.796875 2.5 12.203125 2.5 
L 9.203125 2.5 
L 9.203125 0 
C 14 0 19 0 23.796875 0 
C 28.59375 0 33.59375 0 38.40625 0 
L 38.40625 2.5 
L 35.40625 2.5 
C 26.796875 2.5 26.59375 3.59375 26.59375 7.15625 
z
" id="CMR17-49"/>
       <path d="M 65.90625 23 
C 67.59375 23 69.40625 23 69.40625 25 
C 69.40625 27 67.59375 27 65.90625 27 
L 11.796875 27 
C 10.09375 27 8.296875 27 8.296875 25 
C 8.296875 23 10.09375 23 11.796875 23 
z
" id="CMSY10-0"/>
      </defs>
      <g transform="translate(42.0959778516 115.546336735)scale(0.1 -0.1)">
       <use transform="scale(0.9962640099626402)" xlink:href="#CMR17-49"/>
       <use transform="translate(45.69047711706103 0.0)scale(0.9962640099626402)" xlink:href="#CMR17-48"/>
       <use transform="translate(91.38095423412206 36.15363894185866)scale(0.6973817666173724)" xlink:href="#CMSY10-0"/>
       <use transform="translate(145.6219474820984 36.15363894185866)scale(0.6973817666173724)" xlink:href="#CMR17-49"/>
      </g>
     </g>
    </g>
    <g id="xtick_2">
     <g id="line2d_8">
      <path clip-path="url(#pcee441e36c)" d="M 219.576265 104.627838 
L 219.576265 11.627838 
" style="fill:none;stroke:#000000;stroke-dasharray:1.000000,3.000000;stroke-dashoffset:0.0;stroke-width:0.5;"/>
     </g>
     <g id="line2d_9">
      <g>
       <use style="stroke:#000000;stroke-width:0.5;" x="219.576264545" xlink:href="#mae85a45ea5" y="104.627838355"/>
      </g>
     </g>
     <g id="line2d_10">
      <g>
       <use style="stroke:#000000;stroke-width:0.5;" x="219.576264545" xlink:href="#m9f37ecc3e0" y="11.6278383552"/>
      </g>
     </g>
     <g id="text_2">
      <!-- $10^{0}$ -->
      <g transform="translate(212.609310484 115.546336735)scale(0.1 -0.1)">
       <use transform="scale(0.9962640099626402)" xlink:href="#CMR17-49"/>
       <use transform="translate(45.69047711706103 0.0)scale(0.9962640099626402)" xlink:href="#CMR17-48"/>
       <use transform="translate(91.38095423412206 36.15363894185866)scale(0.6973817666173724)" xlink:href="#CMR17-48"/>
      </g>
     </g>
    </g>
    <g id="xtick_3">
     <g id="line2d_11">
      <path clip-path="url(#pcee441e36c)" d="M 386.976265 104.627838 
L 386.976265 11.627838 
" style="fill:none;stroke:#000000;stroke-dasharray:1.000000,3.000000;stroke-dashoffset:0.0;stroke-width:0.5;"/>
     </g>
     <g id="line2d_12">
      <g>
       <use style="stroke:#000000;stroke-width:0.5;" x="386.976264545" xlink:href="#mae85a45ea5" y="104.627838355"/>
      </g>
     </g>
     <g id="line2d_13">
      <g>
       <use style="stroke:#000000;stroke-width:0.5;" x="386.976264545" xlink:href="#m9f37ecc3e0" y="11.6278383552"/>
      </g>
     </g>
     <g id="text_3">
      <!-- $10^{1}$ -->
      <g transform="translate(380.009310484 115.546336735)scale(0.1 -0.1)">
       <use transform="scale(0.9962640099626402)" xlink:href="#CMR17-49"/>
       <use transform="translate(45.69047711706103 0.0)scale(0.9962640099626402)" xlink:href="#CMR17-48"/>
       <use transform="translate(91.38095423412206 36.15363894185866)scale(0.6973817666173724)" xlink:href="#CMR17-49"/>
      </g>
     </g>
    </g>
    <g id="xtick_4">
     <g id="line2d_14">
      <path clip-path="url(#pcee441e36c)" d="M 102.568686 104.627838 
L 102.568686 11.627838 
" style="fill:none;stroke:#000000;stroke-dasharray:1.000000,3.000000;stroke-dashoffset:0.0;stroke-width:0.5;"/>
     </g>
     <g id="line2d_15">
      <defs>
       <path d="M 0 0 
L 0 -2 
" id="m9e1f18ed99" style="stroke:#000000;stroke-width:0.5;"/>
      </defs>
      <g>
       <use style="stroke:#000000;stroke-width:0.5;" x="102.568685819" xlink:href="#m9e1f18ed99" y="104.627838355"/>
      </g>
     </g>
     <g id="line2d_16">
      <defs>
       <path d="M 0 0 
L 0 2 
" id="m0e9b9f8604" style="stroke:#000000;stroke-width:0.5;"/>
      </defs>
      <g>
       <use style="stroke:#000000;stroke-width:0.5;" x="102.568685819" xlink:href="#m0e9b9f8604" y="11.6278383552"/>
      </g>
     </g>
    </g>
    <g id="xtick_5">
     <g id="line2d_17">
      <path clip-path="url(#pcee441e36c)" d="M 132.046363 104.627838 
L 132.046363 11.627838 
" style="fill:none;stroke:#000000;stroke-dasharray:1.000000,3.000000;stroke-dashoffset:0.0;stroke-width:0.5;"/>
     </g>
     <g id="line2d_18">
      <g>
       <use style="stroke:#000000;stroke-width:0.5;" x="132.046362585" xlink:href="#m9e1f18ed99" y="104.627838355"/>
      </g>
     </g>
     <g id="line2d_19">
      <g>
       <use style="stroke:#000000;stroke-width:0.5;" x="132.046362585" xlink:href="#m0e9b9f8604" y="11.6278383552"/>
      </g>
     </g>
    </g>
    <g id="xtick_6">
     <g id="line2d_20">
      <path clip-path="url(#pcee441e36c)" d="M 152.961107 104.627838 
L 152.961107 11.627838 
" style="fill:none;stroke:#000000;stroke-dasharray:1.000000,3.000000;stroke-dashoffset:0.0;stroke-width:0.5;"/>
     </g>
     <g id="line2d_21">
      <g>
       <use style="stroke:#000000;stroke-width:0.5;" x="152.961107093" xlink:href="#m9e1f18ed99" y="104.627838355"/>
      </g>
     </g>
     <g id="line2d_22">
      <g>
       <use style="stroke:#000000;stroke-width:0.5;" x="152.961107093" xlink:href="#m0e9b9f8604" y="11.6278383552"/>
      </g>
     </g>
    </g>
    <g id="xtick_7">
     <g id="line2d_23">
      <path clip-path="url(#pcee441e36c)" d="M 169.183843 104.627838 
L 169.183843 11.627838 
" style="fill:none;stroke:#000000;stroke-dasharray:1.000000,3.000000;stroke-dashoffset:0.0;stroke-width:0.5;"/>
     </g>
     <g id="line2d_24">
      <g>
       <use style="stroke:#000000;stroke-width:0.5;" x="169.183843271" xlink:href="#m9e1f18ed99" y="104.627838355"/>
      </g>
     </g>
     <g id="line2d_25">
      <g>
       <use style="stroke:#000000;stroke-width:0.5;" x="169.183843271" xlink:href="#m0e9b9f8604" y="11.6278383552"/>
      </g>
     </g>
    </g>
    <g id="xtick_8">
     <g id="line2d_26">
      <path clip-path="url(#pcee441e36c)" d="M 182.438784 104.627838 
L 182.438784 11.627838 
" style="fill:none;stroke:#000000;stroke-dasharray:1.000000,3.000000;stroke-dashoffset:0.0;stroke-width:0.5;"/>
     </g>
     <g id="line2d_27">
      <g>
       <use style="stroke:#000000;stroke-width:0.5;" x="182.438783859" xlink:href="#m9e1f18ed99" y="104.627838355"/>
      </g>
     </g>
     <g id="line2d_28">
      <g>
       <use style="stroke:#000000;stroke-width:0.5;" x="182.438783859" xlink:href="#m0e9b9f8604" y="11.6278383552"/>
      </g>
     </g>
    </g>
    <g id="xtick_9">
     <g id="line2d_29">
      <path clip-path="url(#pcee441e36c)" d="M 193.645676 104.627838 
L 193.645676 11.627838 
" style="fill:none;stroke:#000000;stroke-dasharray:1.000000,3.000000;stroke-dashoffset:0.0;stroke-width:0.5;"/>
     </g>
     <g id="line2d_30">
      <g>
       <use style="stroke:#000000;stroke-width:0.5;" x="193.645676443" xlink:href="#m9e1f18ed99" y="104.627838355"/>
      </g>
     </g>
     <g id="line2d_31">
      <g>
       <use style="stroke:#000000;stroke-width:0.5;" x="193.645676443" xlink:href="#m0e9b9f8604" y="11.6278383552"/>
      </g>
     </g>
    </g>
    <g id="xtick_10">
     <g id="line2d_32">
      <path clip-path="url(#pcee441e36c)" d="M 203.353528 104.627838 
L 203.353528 11.627838 
" style="fill:none;stroke:#000000;stroke-dasharray:1.000000,3.000000;stroke-dashoffset:0.0;stroke-width:0.5;"/>
     </g>
     <g id="line2d_33">
      <g>
       <use style="stroke:#000000;stroke-width:0.5;" x="203.353528368" xlink:href="#m9e1f18ed99" y="104.627838355"/>
      </g>
     </g>
     <g id="line2d_34">
      <g>
       <use style="stroke:#000000;stroke-width:0.5;" x="203.353528368" xlink:href="#m0e9b9f8604" y="11.6278383552"/>
      </g>
     </g>
    </g>
    <g id="xtick_11">
     <g id="line2d_35">
      <path clip-path="url(#pcee441e36c)" d="M 211.916461 104.627838 
L 211.916461 11.627838 
" style="fill:none;stroke:#000000;stroke-dasharray:1.000000,3.000000;stroke-dashoffset:0.0;stroke-width:0.5;"/>
     </g>
     <g id="line2d_36">
      <g>
       <use style="stroke:#000000;stroke-width:0.5;" x="211.916460625" xlink:href="#m9e1f18ed99" y="104.627838355"/>
      </g>
     </g>
     <g id="line2d_37">
      <g>
       <use style="stroke:#000000;stroke-width:0.5;" x="211.916460625" xlink:href="#m0e9b9f8604" y="11.6278383552"/>
      </g>
     </g>
    </g>
    <g id="xtick_12">
     <g id="line2d_38">
      <path clip-path="url(#pcee441e36c)" d="M 269.968686 104.627838 
L 269.968686 11.627838 
" style="fill:none;stroke:#000000;stroke-dasharray:1.000000,3.000000;stroke-dashoffset:0.0;stroke-width:0.5;"/>
     </g>
     <g id="line2d_39">
      <g>
       <use style="stroke:#000000;stroke-width:0.5;" x="269.968685819" xlink:href="#m9e1f18ed99" y="104.627838355"/>
      </g>
     </g>
     <g id="line2d_40">
      <g>
       <use style="stroke:#000000;stroke-width:0.5;" x="269.968685819" xlink:href="#m0e9b9f8604" y="11.6278383552"/>
      </g>
     </g>
    </g>
    <g id="xtick_13">
     <g id="line2d_41">
      <path clip-path="url(#pcee441e36c)" d="M 299.446363 104.627838 
L 299.446363 11.627838 
" style="fill:none;stroke:#000000;stroke-dasharray:1.000000,3.000000;stroke-dashoffset:0.0;stroke-width:0.5;"/>
     </g>
     <g id="line2d_42">
      <g>
       <use style="stroke:#000000;stroke-width:0.5;" x="299.446362585" xlink:href="#m9e1f18ed99" y="104.627838355"/>
      </g>
     </g>
     <g id="line2d_43">
      <g>
       <use style="stroke:#000000;stroke-width:0.5;" x="299.446362585" xlink:href="#m0e9b9f8604" y="11.6278383552"/>
      </g>
     </g>
    </g>
    <g id="xtick_14">
     <g id="line2d_44">
      <path clip-path="url(#pcee441e36c)" d="M 320.361107 104.627838 
L 320.361107 11.627838 
" style="fill:none;stroke:#000000;stroke-dasharray:1.000000,3.000000;stroke-dashoffset:0.0;stroke-width:0.5;"/>
     </g>
     <g id="line2d_45">
      <g>
       <use style="stroke:#000000;stroke-width:0.5;" x="320.361107093" xlink:href="#m9e1f18ed99" y="104.627838355"/>
      </g>
     </g>
     <g id="line2d_46">
      <g>
       <use style="stroke:#000000;stroke-width:0.5;" x="320.361107093" xlink:href="#m0e9b9f8604" y="11.6278383552"/>
      </g>
     </g>
    </g>
    <g id="xtick_15">
     <g id="line2d_47">
      <path clip-path="url(#pcee441e36c)" d="M 336.583843 104.627838 
L 336.583843 11.627838 
" style="fill:none;stroke:#000000;stroke-dasharray:1.000000,3.000000;stroke-dashoffset:0.0;stroke-width:0.5;"/>
     </g>
     <g id="line2d_48">
      <g>
       <use style="stroke:#000000;stroke-width:0.5;" x="336.583843271" xlink:href="#m9e1f18ed99" y="104.627838355"/>
      </g>
     </g>
     <g id="line2d_49">
      <g>
       <use style="stroke:#000000;stroke-width:0.5;" x="336.583843271" xlink:href="#m0e9b9f8604" y="11.6278383552"/>
      </g>
     </g>
    </g>
    <g id="xtick_16">
     <g id="line2d_50">
      <path clip-path="url(#pcee441e36c)" d="M 349.838784 104.627838 
L 349.838784 11.627838 
" style="fill:none;stroke:#000000;stroke-dasharray:1.000000,3.000000;stroke-dashoffset:0.0;stroke-width:0.5;"/>
     </g>
     <g id="line2d_51">
      <g>
       <use style="stroke:#000000;stroke-width:0.5;" x="349.838783859" xlink:href="#m9e1f18ed99" y="104.627838355"/>
      </g>
     </g>
     <g id="line2d_52">
      <g>
       <use style="stroke:#000000;stroke-width:0.5;" x="349.838783859" xlink:href="#m0e9b9f8604" y="11.6278383552"/>
      </g>
     </g>
    </g>
    <g id="xtick_17">
     <g id="line2d_53">
      <path clip-path="url(#pcee441e36c)" d="M 361.045676 104.627838 
L 361.045676 11.627838 
" style="fill:none;stroke:#000000;stroke-dasharray:1.000000,3.000000;stroke-dashoffset:0.0;stroke-width:0.5;"/>
     </g>
     <g id="line2d_54">
      <g>
       <use style="stroke:#000000;stroke-width:0.5;" x="361.045676443" xlink:href="#m9e1f18ed99" y="104.627838355"/>
      </g>
     </g>
     <g id="line2d_55">
      <g>
       <use style="stroke:#000000;stroke-width:0.5;" x="361.045676443" xlink:href="#m0e9b9f8604" y="11.6278383552"/>
      </g>
     </g>
    </g>
    <g id="xtick_18">
     <g id="line2d_56">
      <path clip-path="url(#pcee441e36c)" d="M 370.753528 104.627838 
L 370.753528 11.627838 
" style="fill:none;stroke:#000000;stroke-dasharray:1.000000,3.000000;stroke-dashoffset:0.0;stroke-width:0.5;"/>
     </g>
     <g id="line2d_57">
      <g>
       <use style="stroke:#000000;stroke-width:0.5;" x="370.753528368" xlink:href="#m9e1f18ed99" y="104.627838355"/>
      </g>
     </g>
     <g id="line2d_58">
      <g>
       <use style="stroke:#000000;stroke-width:0.5;" x="370.753528368" xlink:href="#m0e9b9f8604" y="11.6278383552"/>
      </g>
     </g>
    </g>
    <g id="xtick_19">
     <g id="line2d_59">
      <path clip-path="url(#pcee441e36c)" d="M 379.316461 104.627838 
L 379.316461 11.627838 
" style="fill:none;stroke:#000000;stroke-dasharray:1.000000,3.000000;stroke-dashoffset:0.0;stroke-width:0.5;"/>
     </g>
     <g id="line2d_60">
      <g>
       <use style="stroke:#000000;stroke-width:0.5;" x="379.316460625" xlink:href="#m9e1f18ed99" y="104.627838355"/>
      </g>
     </g>
     <g id="line2d_61">
      <g>
       <use style="stroke:#000000;stroke-width:0.5;" x="379.316460625" xlink:href="#m0e9b9f8604" y="11.6278383552"/>
      </g>
     </g>
    </g>
   </g>
   <g id="matplotlib.axis_2">
    <g id="ytick_1">
     <g id="line2d_62">
      <path clip-path="url(#pcee441e36c)" d="M 52.176265 104.627838 
L 386.976265 104.627838 
" style="fill:none;stroke:#000000;stroke-dasharray:1.000000,3.000000;stroke-dashoffset:0.0;stroke-width:0.5;"/>
     </g>
     <g id="line2d_63">
      <defs>
       <path d="M 0 0 
L 4 0 
" id="m4c89a42e85" style="stroke:#000000;stroke-width:0.5;"/>
      </defs>
      <g>
       <use style="stroke:#000000;stroke-width:0.5;" x="52.1762645451" xlink:href="#m4c89a42e85" y="104.627838355"/>
      </g>
     </g>
     <g id="line2d_64">
      <defs>
       <path d="M 0 0 
L -4 0 
" id="m13125f8bec" style="stroke:#000000;stroke-width:0.5;"/>
      </defs>
      <g>
       <use style="stroke:#000000;stroke-width:0.5;" x="386.976264545" xlink:href="#m13125f8bec" y="104.627838355"/>
      </g>
     </g>
     <g id="text_4">
      <!-- -40.0 -->
      <defs>
       <path d="M 35.203125 17 
L 44.296875 17 
L 44.296875 23.078125 
L 35.203125 23.078125 
L 35.203125 65.5 
L 26.40625 65.5 
L 2.59375 23.078125 
L 2.59375 17 
L 27.296875 17 
L 27.296875 0 
L 35.203125 0 
z
M 10.296875 23.078125 
C 16.09375 33.234375 27.59375 53.734375 27.59375 60.703125 
L 27.59375 23.078125 
z
" id="CMSS17-52"/>
       <path d="M 17 7.96875 
L 9 7.96875 
L 9 0 
L 17 0 
z
" id="CMSS17-46"/>
       <path d="M 26 19 
L 26 24.765625 
L 1 24.765625 
L 1 19 
z
" id="CMSS17-45"/>
       <path d="M 43.09375 31.9375 
C 43.09375 37.578125 43 48.078125 38.90625 56.1875 
C 34.796875 64 28.203125 66.078125 23.5 66.078125 
C 16.703125 66.078125 10.90625 62.125 7.90625 55.78125 
C 4.703125 49.15625 3.796875 42.328125 3.796875 31.9375 
C 3.796875 24.828125 4.09375 16.109375 7.703125 8.484375 
C 11.796875 0.078125 18.703125 -2 23.40625 -2 
C 29.59375 -2 35.59375 1.265625 39 8.09375 
C 42.5 15.21875 43.09375 23.03125 43.09375 31.9375 
M 23.40625 4.078125 
C 15.796875 4.078125 13.5 12.671875 12.796875 15.546875 
C 11.59375 20.46875 11.40625 25.21875 11.40625 33.03125 
C 11.40625 39.15625 11.40625 46.0625 13.296875 51.515625 
C 15.59375 57.828125 19.59375 60 23.40625 60 
C 30.796875 60 33.203125 52.6875 34 50.125 
C 35.5 44.890625 35.5 38.765625 35.5 33.03125 
C 35.5 23.84375 35.5 4.078125 23.40625 4.078125 
" id="CMSS17-48"/>
      </defs>
      <g transform="translate(27.1439753512 107.11849838)scale(0.1 -0.1)">
       <use transform="scale(0.9962640099626402)" xlink:href="#CMSS17-45"/>
       <use transform="translate(31.229112751011833 0.0)scale(0.9962640099626402)" xlink:href="#CMSS17-52"/>
       <use transform="translate(78.07273627218245 0.0)scale(0.9962640099626402)" xlink:href="#CMSS17-48"/>
       <use transform="translate(124.91635979335307 0.0)scale(0.9962640099626402)" xlink:href="#CMSS17-46"/>
       <use transform="translate(150.94056467932754 0.0)scale(0.9962640099626402)" xlink:href="#CMSS17-48"/>
      </g>
     </g>
    </g>
    <g id="ytick_2">
     <g id="line2d_65">
      <path clip-path="url(#pcee441e36c)" d="M 52.176265 81.377838 
L 386.976265 81.377838 
" style="fill:none;stroke:#000000;stroke-dasharray:1.000000,3.000000;stroke-dashoffset:0.0;stroke-width:0.5;"/>
     </g>
     <g id="line2d_66">
      <g>
       <use style="stroke:#000000;stroke-width:0.5;" x="52.1762645451" xlink:href="#m4c89a42e85" y="81.3778383552"/>
      </g>
     </g>
     <g id="line2d_67">
      <g>
       <use style="stroke:#000000;stroke-width:0.5;" x="386.976264545" xlink:href="#m13125f8bec" y="81.3778383552"/>
      </g>
     </g>
     <g id="text_5">
      <!-- -20.0 -->
      <defs>
       <path d="M 25.796875 21.203125 
C 28.59375 24.078125 32.796875 27.5625 35.703125 31.046875 
C 38.5 34.4375 42.203125 39.234375 42.203125 46.203125 
C 42.203125 57.140625 34.796875 67 22.203125 67 
C 12.296875 67 6.59375 60.828125 3.90625 51.15625 
L 7.796875 45.765625 
C 10 54.84375 13.09375 60.625 20.90625 60.625 
C 29.5 60.625 34.296875 53.640625 34.296875 45.96875 
C 34.296875 36.796875 27.296875 29.703125 22 24.421875 
C 16.09375 18.546875 10.296875 12.5625 4.703125 6.375 
L 4.703125 0 
L 42.203125 0 
L 42.203125 6.765625 
L 25.203125 6.765625 
C 24 6.765625 22.796875 6.765625 21.59375 6.765625 
L 11.59375 6.765625 
L 11.59375 6.859375 
z
" id="CMSS17-50"/>
      </defs>
      <g transform="translate(27.1439753512 83.8684983801)scale(0.1 -0.1)">
       <use transform="scale(0.9962640099626402)" xlink:href="#CMSS17-45"/>
       <use transform="translate(31.229112751011833 0.0)scale(0.9962640099626402)" xlink:href="#CMSS17-50"/>
       <use transform="translate(78.07273627218245 0.0)scale(0.9962640099626402)" xlink:href="#CMSS17-48"/>
       <use transform="translate(124.91635979335307 0.0)scale(0.9962640099626402)" xlink:href="#CMSS17-46"/>
       <use transform="translate(150.94056467932754 0.0)scale(0.9962640099626402)" xlink:href="#CMSS17-48"/>
      </g>
     </g>
    </g>
    <g id="ytick_3">
     <g id="line2d_68">
      <path clip-path="url(#pcee441e36c)" d="M 52.176265 58.127838 
L 386.976265 58.127838 
" style="fill:none;stroke:#000000;stroke-dasharray:1.000000,3.000000;stroke-dashoffset:0.0;stroke-width:0.5;"/>
     </g>
     <g id="line2d_69">
      <g>
       <use style="stroke:#000000;stroke-width:0.5;" x="52.1762645451" xlink:href="#m4c89a42e85" y="58.1278383552"/>
      </g>
     </g>
     <g id="line2d_70">
      <g>
       <use style="stroke:#000000;stroke-width:0.5;" x="386.976264545" xlink:href="#m13125f8bec" y="58.1278383552"/>
      </g>
     </g>
     <g id="text_6">
      <!-- 0.0 -->
      <g transform="translate(35.4461855688 60.6184983801)scale(0.1 -0.1)">
       <use transform="scale(0.9962640099626402)" xlink:href="#CMSS17-48"/>
       <use transform="translate(46.84362352117061 0.0)scale(0.9962640099626402)" xlink:href="#CMSS17-46"/>
       <use transform="translate(72.86782840714508 0.0)scale(0.9962640099626402)" xlink:href="#CMSS17-48"/>
      </g>
     </g>
    </g>
    <g id="ytick_4">
     <g id="line2d_71">
      <path clip-path="url(#pcee441e36c)" d="M 52.176265 34.877838 
L 386.976265 34.877838 
" style="fill:none;stroke:#000000;stroke-dasharray:1.000000,3.000000;stroke-dashoffset:0.0;stroke-width:0.5;"/>
     </g>
     <g id="line2d_72">
      <g>
       <use style="stroke:#000000;stroke-width:0.5;" x="52.1762645451" xlink:href="#m4c89a42e85" y="34.8778383552"/>
      </g>
     </g>
     <g id="line2d_73">
      <g>
       <use style="stroke:#000000;stroke-width:0.5;" x="386.976264545" xlink:href="#m13125f8bec" y="34.8778383552"/>
      </g>
     </g>
     <g id="text_7">
      <!-- 20.0 -->
      <g transform="translate(30.4648503172 37.3684983801)scale(0.1 -0.1)">
       <use transform="scale(0.9962640099626402)" xlink:href="#CMSS17-50"/>
       <use transform="translate(46.84362352117061 0.0)scale(0.9962640099626402)" xlink:href="#CMSS17-48"/>
       <use transform="translate(93.68724704234123 0.0)scale(0.9962640099626402)" xlink:href="#CMSS17-46"/>
       <use transform="translate(119.7114519283157 0.0)scale(0.9962640099626402)" xlink:href="#CMSS17-48"/>
      </g>
     </g>
    </g>
    <g id="ytick_5">
     <g id="line2d_74">
      <path clip-path="url(#pcee441e36c)" d="M 52.176265 11.627838 
L 386.976265 11.627838 
" style="fill:none;stroke:#000000;stroke-dasharray:1.000000,3.000000;stroke-dashoffset:0.0;stroke-width:0.5;"/>
     </g>
     <g id="line2d_75">
      <g>
       <use style="stroke:#000000;stroke-width:0.5;" x="52.1762645451" xlink:href="#m4c89a42e85" y="11.6278383552"/>
      </g>
     </g>
     <g id="line2d_76">
      <g>
       <use style="stroke:#000000;stroke-width:0.5;" x="386.976264545" xlink:href="#m13125f8bec" y="11.6278383552"/>
      </g>
     </g>
     <g id="text_8">
      <!-- 40.0 -->
      <g transform="translate(30.4648503172 14.1184983801)scale(0.1 -0.1)">
       <use transform="scale(0.9962640099626402)" xlink:href="#CMSS17-52"/>
       <use transform="translate(46.84362352117061 0.0)scale(0.9962640099626402)" xlink:href="#CMSS17-48"/>
       <use transform="translate(93.68724704234123 0.0)scale(0.9962640099626402)" xlink:href="#CMSS17-46"/>
       <use transform="translate(119.7114519283157 0.0)scale(0.9962640099626402)" xlink:href="#CMSS17-48"/>
      </g>
     </g>
    </g>
    <g id="text_9">
     <!-- Magnitude(dB) -->
     <defs>
      <path d="M 11.296875 -25 
C 16.703125 -19.515625 29.09375 -6.765625 29.09375 24.6875 
C 29.09375 56.265625 16.703125 68.921875 11.296875 74.5 
L 5.203125 74.5 
C 17.5 61.75 21.5 43.921875 21.5 24.8125 
C 21.5 5.78125 17.703125 -12.15625 5.203125 -25 
z
" id="CMSS17-41"/>
      <path d="M 44.5 43.875 
C 38.796875 43.875 33.90625 42.78125 29.90625 40.890625 
C 26.59375 43.390625 23.203125 43.875 20.90625 43.875 
C 12.203125 43.875 5.59375 36.703125 5.59375 28.34375 
C 5.59375 22.9375 8.59375 18.859375 8.796875 18.671875 
C 7 16.171875 6 13.484375 6 10.5 
C 6 7 7.40625 4.515625 8.5 3.125 
C 3.296875 -0.046875 2.59375 -4.90625 2.59375 -6.796875 
C 2.59375 -14.03125 11.703125 -20 23.40625 -20 
C 35.203125 -20 44.296875 -14.03125 44.296875 -6.6875 
C 44.296875 7 29 7 24.796875 7 
L 16.703125 7 
C 15.203125 7 11.203125 7 11.203125 12.359375 
C 11.203125 14.390625 12.09375 15.6875 12.203125 15.78125 
C 13.703125 14.6875 16.796875 13 20.90625 13 
C 29.203125 13 36.09375 19.96875 36.09375 28.546875 
C 36.09375 33.3125 33.90625 36.796875 33 38 
L 33.296875 38 
C 33.59375 38 37.796875 38 39.296875 38 
C 42.5 38 42.796875 37.9375 45.59375 37.796875 
z
M 20.90625 18.46875 
C 17.5 18.46875 12.703125 20.546875 12.703125 28.484375 
C 12.703125 37.109375 18.203125 38.5 20.796875 38.5 
C 24.203125 38.5 29 36.421875 29 28.484375 
C 29 19.859375 23.5 18.46875 20.90625 18.46875 
M 24.703125 -0.15625 
C 27.09375 -0.15625 37.203125 -0.15625 37.203125 -6.90625 
C 37.203125 -11.15625 31 -14.515625 23.5 -14.515625 
C 15.90625 -14.515625 9.703125 -11.25 9.703125 -6.796875 
C 9.703125 -6.296875 9.703125 -0.15625 16.59375 -0.15625 
z
" id="CMSS17-103"/>
      <path d="M 8.90625 69 
L 8.90625 0 
L 33.796875 0 
C 47.40625 0 57.296875 8.96875 57.296875 18.75 
C 57.296875 26.328125 50.796875 34 39.09375 36.203125 
C 52.09375 39.96875 54.703125 47.5 54.703125 51.765625 
C 54.703125 60.671875 44.90625 69 31.203125 69 
z
M 17 39 
L 17 63.421875 
L 28.5 63.421875 
C 38.796875 63.421875 46.90625 58.1875 46.90625 51.65625 
C 46.90625 45.71875 40.5 39 27.59375 39 
z
M 17 5.578125 
L 17 32.921875 
L 30.296875 32.921875 
C 41.09375 32.921875 49.40625 26.234375 49.40625 18.84375 
C 49.40625 12.0625 42.09375 5.578125 31 5.578125 
z
" id="CMSS17-66"/>
      <path d="M 39.09375 21.515625 
C 39.09375 24.84375 38.90625 31.296875 35.703125 36.640625 
C 32.203125 42.390625 26.5 44 22.203125 44 
C 11.796875 44 3 34.1875 3 21.484375 
C 3 9.09375 12.09375 -1 23.59375 -1 
C 28.09375 -1 33.59375 0.296875 38.59375 3.875 
C 38.59375 4.28125 38.40625 6.46875 38.296875 6.5625 
C 38.296875 6.765625 38 9.84375 38 10.25 
C 33.203125 6.359375 27.703125 5.078125 23.703125 5.078125 
C 17.296875 5.078125 10.40625 10.421875 10.09375 21.515625 
z
M 10.90625 27 
C 12.203125 32.5625 16.59375 37.828125 22.203125 37.828125 
C 23.703125 37.828125 30.703125 37.828125 32.5 27 
z
" id="CMSS17-101"/>
      <path d="M 40.90625 29.328125 
C 40.90625 35.671875 39.40625 44 28.09375 44 
C 21.703125 44 17.5 40.71875 14.703125 37.328125 
L 14.703125 43.09375 
L 7.40625 43.09375 
L 7.40625 0 
L 15 0 
L 15 24.359375 
C 15 30.6875 17.40625 37.9375 24.203125 37.9375 
C 33 37.9375 33.296875 32 33.296875 28.578125 
L 33.296875 0 
L 40.90625 0 
z
" id="CMSS17-110"/>
      <path d="M 37.59375 27.984375 
C 37.59375 37.375 30.90625 43.875 21.90625 43.875 
C 17.5 43.875 12.703125 43.078125 7.203125 39.890625 
L 7.796875 33.359375 
C 10.296875 35.125 14.59375 38 21.796875 38 
C 26.90625 38 30 34.0625 30 27.84375 
L 30 24 
C 14 24 4 19.34375 4 11.34375 
C 4 7.203125 6.5 -1 14.796875 -1 
C 16.296875 -1 24.40625 -1 30.203125 3.390625 
L 30.203125 -0.296875 
L 37.59375 -0.296875 
z
M 30 12.75 
C 30 10.953125 30 8.5625 27 6.78125 
C 24.40625 5.078125 21.09375 5.078125 19.703125 5.078125 
C 14.703125 5.078125 11.296875 7.984375 11.296875 11.625 
C 11.296875 18.921875 26.90625 18.921875 30 18.921875 
z
" id="CMSS17-97"/>
      <path d="M 49.90625 37.046875 
L 45.09375 23.015625 
C 44.296875 20.421875 41.59375 12.359375 41 9.171875 
L 40.90625 9.171875 
C 40.59375 11.171875 40 13.265625 38.40625 18.34375 
C 37.5 21.328125 36.5 24.40625 35.5 27.203125 
L 20.703125 69 
L 9 69 
L 9 0 
L 16.796875 0 
L 16.796875 60.9375 
L 16.90625 60.9375 
C 16.90625 60.84375 17.796875 56.453125 23.90625 39.046875 
L 37.09375 1.5 
L 44.5 1.5 
L 56.40625 34.859375 
C 57.203125 37.15625 59.703125 44.421875 60.796875 47.90625 
C 61.796875 50.890625 64.296875 58.25 64.90625 61.140625 
L 65 61.140625 
L 65 0 
L 72.90625 0 
L 72.90625 69 
L 61.296875 69 
z
" id="CMSS17-77"/>
      <path d="M 40.90625 42.796875 
L 33.296875 42.796875 
L 33.296875 15.1875 
C 33.296875 7.78125 27.90625 4.78125 22.203125 4.78125 
C 15.59375 4.78125 15 6.984375 15 11.078125 
L 15 42.796875 
L 7.40625 42.796875 
L 7.40625 10.59375 
C 7.40625 2.796875 10.09375 -1 17 -1 
C 20.40625 -1 28.09375 -0.203125 33.5 4.78125 
L 33.5 0 
L 40.90625 0 
z
" id="CMSS17-117"/>
      <path d="M 15.296875 65.359375 
L 6.90625 65.359375 
L 6.90625 57 
L 15.296875 57 
z
M 14.796875 42.796875 
L 7.40625 42.796875 
L 7.40625 0 
L 14.796875 0 
z
" id="CMSS17-105"/>
      <path d="M 16.703125 37 
L 29.703125 37 
L 29.703125 42.765625 
L 16.703125 42.765625 
L 16.703125 55 
L 9.59375 55 
L 9.59375 42.765625 
L 1.703125 42.765625 
L 1.703125 37 
L 9.40625 37 
L 9.40625 11.703125 
C 9.40625 6 10.703125 -1 17.296875 -1 
C 22.296875 -1 26.90625 0.390625 31.296875 2.6875 
L 29.703125 8.5625 
C 27.296875 6.46875 24.40625 5.265625 21.296875 5.265625 
C 16.90625 5.265625 16.703125 10.875 16.703125 13.375 
z
" id="CMSS17-116"/>
      <path d="M 40.796875 69 
L 33.40625 69 
L 33.40625 38.09375 
C 30.296875 40.671875 25.203125 43.0625 19.59375 43.0625 
C 10.5 43.0625 3.296875 33.296875 3.296875 21.03125 
C 3.296875 8.78125 10.40625 -1 19.296875 -1 
C 26.203125 -1 30.796875 2.6875 33.203125 4.78125 
L 33.203125 -0.203125 
L 40.796875 -0.203125 
z
M 33.203125 13.0625 
C 33.203125 11.671875 33.203125 10.203125 30.09375 7.53125 
C 28.09375 5.859375 25.703125 5.078125 23.40625 5.078125 
C 18 5.078125 10.90625 9 10.90625 20.9375 
C 10.90625 33.34375 18.90625 37 24.40625 37 
C 28.09375 37 31.09375 35.21875 33.203125 32.265625 
z
" id="CMSS17-100"/>
      <path d="M 25.203125 74.5 
C 19.796875 69.015625 7.40625 56.265625 7.40625 24.8125 
C 7.40625 -6.765625 19.796875 -19.421875 25.203125 -25 
L 31.296875 -25 
C 19 -12.25 15 5.578125 15 24.6875 
C 15 43.71875 18.796875 61.65625 31.296875 74.5 
z
" id="CMSS17-40"/>
     </defs>
     <g transform="translate(19.6533153263 90.0637047717)rotate(-90.0)scale(0.1 -0.1)">
      <use transform="scale(0.9962640099626402)" xlink:href="#CMSS17-77"/>
      <use transform="translate(81.67602995115972 0.0)scale(0.9962640099626402)" xlink:href="#CMSS17-97"/>
      <use transform="translate(126.59795055650686 0.0)scale(0.9962640099626402)" xlink:href="#CMSS17-103"/>
      <use transform="translate(173.44157407767747 0.0)scale(0.9962640099626402)" xlink:href="#CMSS17-110"/>
      <use transform="translate(221.64651721084996 0.0)scale(0.9962640099626402)" xlink:href="#CMSS17-105"/>
      <use transform="translate(243.82724025626558 0.0)scale(0.9962640099626402)" xlink:href="#CMSS17-116"/>
      <use transform="translate(277.6588069397961 0.0)scale(0.9962640099626402)" xlink:href="#CMSS17-117"/>
      <use transform="translate(325.86375007296857 0.0)scale(0.9962640099626402)" xlink:href="#CMSS17-100"/>
      <use transform="translate(374.06869320614106 0.0)scale(0.9962640099626402)" xlink:href="#CMSS17-101"/>
      <use transform="translate(415.70751527475096 0.0)scale(0.9962640099626402)" xlink:href="#CMSS17-40"/>
      <use transform="translate(452.1414294783235 0.0)scale(0.9962640099626402)" xlink:href="#CMSS17-100"/>
      <use transform="translate(500.346372611496 0.0)scale(0.9962640099626402)" xlink:href="#CMSS17-66"/>
      <use transform="translate(562.6844128220346 0.0)scale(0.9962640099626402)" xlink:href="#CMSS17-41"/>
     </g>
    </g>
   </g>
  </g>
  <g id="axes_2">
   <g id="patch_7">
    <path d="M 52.176265 234.827838 
L 386.976265 234.827838 
L 386.976265 141.827838 
L 52.176265 141.827838 
z
" style="fill:#ffffff;"/>
   </g>
   <g id="line2d_77">
    <path clip-path="url(#p872026599e)" d="M 52.176265 209.252838 
L 59.008918 209.252838 
L 65.841571 209.252838 
L 72.674224 209.252838 
L 79.506877 209.252838 
L 86.33953 209.252838 
L 93.172183 209.252838 
L 100.004836 209.252838 
L 106.837489 209.252838 
L 113.670142 209.252838 
L 120.502795 209.252838 
L 127.335448 209.252838 
L 134.168101 209.252838 
L 141.000754 209.252838 
L 147.833407 209.252838 
L 154.66606 209.252838 
L 161.498714 209.252838 
L 168.331367 209.252838 
L 175.16402 209.252838 
L 181.996673 209.252838 
L 188.829326 209.252838 
L 195.661979 209.252838 
L 202.494632 209.252838 
L 209.327285 209.252838 
L 216.159938 209.252838 
L 222.992591 209.252838 
L 229.825244 209.252838 
L 236.657897 209.252838 
L 243.49055 209.252838 
L 250.323203 209.252838 
L 257.155856 209.252838 
L 263.988509 209.252838 
L 270.821163 209.252838 
L 277.653816 209.252838 
L 284.486469 209.252838 
L 291.319122 209.252838 
L 298.151775 209.252838 
L 304.984428 209.252838 
L 311.817081 209.252838 
L 318.649734 209.252838 
L 325.482387 209.252838 
L 332.31504 209.252838 
L 339.147693 209.252838 
L 345.980346 209.252838 
L 352.812999 209.252838 
L 359.645652 209.252838 
L 366.478305 209.252838 
L 373.310958 209.252838 
L 380.143611 209.252838 
L 386.976265 209.252838 
" style="fill:none;stroke:#0000ff;stroke-linecap:square;"/>
   </g>
   <g id="line2d_78">
    <path clip-path="url(#p872026599e)" d="M 52.176265 230.177838 
L 59.008918 230.177838 
L 65.841571 230.177838 
L 72.674224 230.177838 
L 79.506877 230.177838 
L 86.33953 230.177838 
L 93.172183 230.177838 
L 100.004836 230.177838 
L 106.837489 230.177838 
L 113.670142 230.177838 
L 120.502795 230.177838 
L 127.335448 230.177838 
L 134.168101 230.177838 
L 141.000754 230.177838 
L 147.833407 230.177838 
L 154.66606 230.177838 
L 161.498714 230.177838 
L 168.331367 230.177838 
L 175.16402 230.177838 
L 181.996673 230.177838 
L 188.829326 230.177838 
L 195.661979 230.177838 
L 202.494632 230.177838 
L 209.327285 230.177838 
L 216.159938 230.177838 
L 222.992591 230.177838 
L 229.825244 230.177838 
L 236.657897 230.177838 
L 243.49055 230.177838 
L 250.323203 230.177838 
L 257.155856 230.177838 
L 263.988509 230.177838 
L 270.821163 230.177838 
L 277.653816 230.177838 
L 284.486469 230.177838 
L 291.319122 230.177838 
L 298.151775 230.177838 
L 304.984428 230.177838 
L 311.817081 230.177838 
L 318.649734 230.177838 
L 325.482387 230.177838 
L 332.31504 230.177838 
L 339.147693 230.177838 
L 345.980346 230.177838 
L 352.812999 230.177838 
L 359.645652 230.177838 
L 366.478305 230.177838 
L 373.310958 230.177838 
L 380.143611 230.177838 
L 386.976265 230.177838 
" style="fill:none;stroke:#000000;stroke-linecap:square;"/>
   </g>
   <g id="line2d_79">
    <path clip-path="url(#p872026599e)" d="M 52.176265 167.402838 
L 59.008918 167.402838 
L 65.841571 167.402838 
L 72.674224 167.402838 
L 79.506877 167.402838 
L 86.33953 167.402838 
L 93.172183 167.402838 
L 100.004836 167.402838 
L 106.837489 167.402838 
L 113.670142 167.402838 
L 120.502795 167.402838 
L 127.335448 167.402838 
L 134.168101 167.402838 
L 141.000754 167.402838 
L 147.833407 167.402838 
L 154.66606 167.402838 
L 161.498714 167.402838 
L 168.331367 167.402838 
L 175.16402 167.402838 
L 181.996673 167.402838 
L 188.829326 167.402838 
L 195.661979 167.402838 
L 202.494632 167.402838 
L 209.327285 167.402838 
L 216.159938 167.402838 
L 222.992591 167.402838 
L 229.825244 167.402838 
L 236.657897 167.402838 
L 243.49055 167.402838 
L 250.323203 167.402838 
L 257.155856 167.402838 
L 263.988509 167.402838 
L 270.821163 167.402838 
L 277.653816 167.402838 
L 284.486469 167.402838 
L 291.319122 167.402838 
L 298.151775 167.402838 
L 304.984428 167.402838 
L 311.817081 167.402838 
L 318.649734 167.402838 
L 325.482387 167.402838 
L 332.31504 167.402838 
L 339.147693 167.402838 
L 345.980346 167.402838 
L 352.812999 167.402838 
L 359.645652 167.402838 
L 366.478305 167.402838 
L 373.310958 167.402838 
L 380.143611 167.402838 
L 386.976265 167.402838 
" style="fill:none;stroke:#ff0000;stroke-linecap:square;"/>
   </g>
   <g id="line2d_80">
    <path clip-path="url(#p872026599e)" d="M 52.176265 146.477838 
L 59.008918 146.477838 
L 65.841571 146.477838 
L 72.674224 146.477838 
L 79.506877 146.477838 
L 86.33953 146.477838 
L 93.172183 146.477838 
L 100.004836 146.477838 
L 106.837489 146.477838 
L 113.670142 146.477838 
L 120.502795 146.477838 
L 127.335448 146.477838 
L 134.168101 146.477838 
L 141.000754 146.477838 
L 147.833407 146.477838 
L 154.66606 146.477838 
L 161.498714 146.477838 
L 168.331367 146.477838 
L 175.16402 146.477838 
L 181.996673 146.477838 
L 188.829326 146.477838 
L 195.661979 146.477838 
L 202.494632 146.477838 
L 209.327285 146.477838 
L 216.159938 146.477838 
L 222.992591 146.477838 
L 229.825244 146.477838 
L 236.657897 146.477838 
L 243.49055 146.477838 
L 250.323203 146.477838 
L 257.155856 146.477838 
L 263.988509 146.477838 
L 270.821163 146.477838 
L 277.653816 146.477838 
L 284.486469 146.477838 
L 291.319122 146.477838 
L 298.151775 146.477838 
L 304.984428 146.477838 
L 311.817081 146.477838 
L 318.649734 146.477838 
L 325.482387 146.477838 
L 332.31504 146.477838 
L 339.147693 146.477838 
L 345.980346 146.477838 
L 352.812999 146.477838 
L 359.645652 146.477838 
L 366.478305 146.477838 
L 373.310958 146.477838 
L 380.143611 146.477838 
L 386.976265 146.477838 
" style="fill:none;stroke:#008000;stroke-linecap:square;"/>
   </g>
   <g id="patch_8">
    <path d="M 52.176265 234.827838 
L 52.176265 141.827838 
" style="fill:none;stroke:#000000;stroke-linecap:square;stroke-linejoin:miter;"/>
   </g>
   <g id="patch_9">
    <path d="M 52.176265 234.827838 
L 386.976265 234.827838 
" style="fill:none;stroke:#000000;stroke-linecap:square;stroke-linejoin:miter;"/>
   </g>
   <g id="patch_10">
    <path d="M 52.176265 141.827838 
L 386.976265 141.827838 
" style="fill:none;stroke:#000000;stroke-linecap:square;stroke-linejoin:miter;"/>
   </g>
   <g id="patch_11">
    <path d="M 386.976265 234.827838 
L 386.976265 141.827838 
" style="fill:none;stroke:#000000;stroke-linecap:square;stroke-linejoin:miter;"/>
   </g>
   <g id="matplotlib.axis_3">
    <g id="xtick_20">
     <g id="line2d_81">
      <path clip-path="url(#p872026599e)" d="M 52.176265 234.827838 
L 52.176265 141.827838 
" style="fill:none;stroke:#000000;stroke-dasharray:1.000000,3.000000;stroke-dashoffset:0.0;stroke-width:0.5;"/>
     </g>
     <g id="line2d_82">
      <g>
       <use style="stroke:#000000;stroke-width:0.5;" x="52.1762645451" xlink:href="#mae85a45ea5" y="234.827838355"/>
      </g>
     </g>
     <g id="line2d_83">
      <g>
       <use style="stroke:#000000;stroke-width:0.5;" x="52.1762645451" xlink:href="#m9f37ecc3e0" y="141.827838355"/>
      </g>
     </g>
     <g id="text_10">
      <!-- $10^{-1}$ -->
      <g transform="translate(42.0959778516 245.746336735)scale(0.1 -0.1)">
       <use transform="scale(0.9962640099626402)" xlink:href="#CMR17-49"/>
       <use transform="translate(45.69047711706103 0.0)scale(0.9962640099626402)" xlink:href="#CMR17-48"/>
       <use transform="translate(91.38095423412206 36.15363894185866)scale(0.6973817666173724)" xlink:href="#CMSY10-0"/>
       <use transform="translate(145.6219474820984 36.15363894185866)scale(0.6973817666173724)" xlink:href="#CMR17-49"/>
      </g>
     </g>
    </g>
    <g id="xtick_21">
     <g id="line2d_84">
      <path clip-path="url(#p872026599e)" d="M 219.576265 234.827838 
L 219.576265 141.827838 
" style="fill:none;stroke:#000000;stroke-dasharray:1.000000,3.000000;stroke-dashoffset:0.0;stroke-width:0.5;"/>
     </g>
     <g id="line2d_85">
      <g>
       <use style="stroke:#000000;stroke-width:0.5;" x="219.576264545" xlink:href="#mae85a45ea5" y="234.827838355"/>
      </g>
     </g>
     <g id="line2d_86">
      <g>
       <use style="stroke:#000000;stroke-width:0.5;" x="219.576264545" xlink:href="#m9f37ecc3e0" y="141.827838355"/>
      </g>
     </g>
     <g id="text_11">
      <!-- $10^{0}$ -->
      <g transform="translate(212.609310484 245.746336735)scale(0.1 -0.1)">
       <use transform="scale(0.9962640099626402)" xlink:href="#CMR17-49"/>
       <use transform="translate(45.69047711706103 0.0)scale(0.9962640099626402)" xlink:href="#CMR17-48"/>
       <use transform="translate(91.38095423412206 36.15363894185866)scale(0.6973817666173724)" xlink:href="#CMR17-48"/>
      </g>
     </g>
    </g>
    <g id="xtick_22">
     <g id="line2d_87">
      <path clip-path="url(#p872026599e)" d="M 386.976265 234.827838 
L 386.976265 141.827838 
" style="fill:none;stroke:#000000;stroke-dasharray:1.000000,3.000000;stroke-dashoffset:0.0;stroke-width:0.5;"/>
     </g>
     <g id="line2d_88">
      <g>
       <use style="stroke:#000000;stroke-width:0.5;" x="386.976264545" xlink:href="#mae85a45ea5" y="234.827838355"/>
      </g>
     </g>
     <g id="line2d_89">
      <g>
       <use style="stroke:#000000;stroke-width:0.5;" x="386.976264545" xlink:href="#m9f37ecc3e0" y="141.827838355"/>
      </g>
     </g>
     <g id="text_12">
      <!-- $10^{1}$ -->
      <g transform="translate(380.009310484 245.746336735)scale(0.1 -0.1)">
       <use transform="scale(0.9962640099626402)" xlink:href="#CMR17-49"/>
       <use transform="translate(45.69047711706103 0.0)scale(0.9962640099626402)" xlink:href="#CMR17-48"/>
       <use transform="translate(91.38095423412206 36.15363894185866)scale(0.6973817666173724)" xlink:href="#CMR17-49"/>
      </g>
     </g>
    </g>
    <g id="xtick_23">
     <g id="line2d_90">
      <path clip-path="url(#p872026599e)" d="M 102.568686 234.827838 
L 102.568686 141.827838 
" style="fill:none;stroke:#000000;stroke-dasharray:1.000000,3.000000;stroke-dashoffset:0.0;stroke-width:0.5;"/>
     </g>
     <g id="line2d_91">
      <g>
       <use style="stroke:#000000;stroke-width:0.5;" x="102.568685819" xlink:href="#m9e1f18ed99" y="234.827838355"/>
      </g>
     </g>
     <g id="line2d_92">
      <g>
       <use style="stroke:#000000;stroke-width:0.5;" x="102.568685819" xlink:href="#m0e9b9f8604" y="141.827838355"/>
      </g>
     </g>
    </g>
    <g id="xtick_24">
     <g id="line2d_93">
      <path clip-path="url(#p872026599e)" d="M 132.046363 234.827838 
L 132.046363 141.827838 
" style="fill:none;stroke:#000000;stroke-dasharray:1.000000,3.000000;stroke-dashoffset:0.0;stroke-width:0.5;"/>
     </g>
     <g id="line2d_94">
      <g>
       <use style="stroke:#000000;stroke-width:0.5;" x="132.046362585" xlink:href="#m9e1f18ed99" y="234.827838355"/>
      </g>
     </g>
     <g id="line2d_95">
      <g>
       <use style="stroke:#000000;stroke-width:0.5;" x="132.046362585" xlink:href="#m0e9b9f8604" y="141.827838355"/>
      </g>
     </g>
    </g>
    <g id="xtick_25">
     <g id="line2d_96">
      <path clip-path="url(#p872026599e)" d="M 152.961107 234.827838 
L 152.961107 141.827838 
" style="fill:none;stroke:#000000;stroke-dasharray:1.000000,3.000000;stroke-dashoffset:0.0;stroke-width:0.5;"/>
     </g>
     <g id="line2d_97">
      <g>
       <use style="stroke:#000000;stroke-width:0.5;" x="152.961107093" xlink:href="#m9e1f18ed99" y="234.827838355"/>
      </g>
     </g>
     <g id="line2d_98">
      <g>
       <use style="stroke:#000000;stroke-width:0.5;" x="152.961107093" xlink:href="#m0e9b9f8604" y="141.827838355"/>
      </g>
     </g>
    </g>
    <g id="xtick_26">
     <g id="line2d_99">
      <path clip-path="url(#p872026599e)" d="M 169.183843 234.827838 
L 169.183843 141.827838 
" style="fill:none;stroke:#000000;stroke-dasharray:1.000000,3.000000;stroke-dashoffset:0.0;stroke-width:0.5;"/>
     </g>
     <g id="line2d_100">
      <g>
       <use style="stroke:#000000;stroke-width:0.5;" x="169.183843271" xlink:href="#m9e1f18ed99" y="234.827838355"/>
      </g>
     </g>
     <g id="line2d_101">
      <g>
       <use style="stroke:#000000;stroke-width:0.5;" x="169.183843271" xlink:href="#m0e9b9f8604" y="141.827838355"/>
      </g>
     </g>
    </g>
    <g id="xtick_27">
     <g id="line2d_102">
      <path clip-path="url(#p872026599e)" d="M 182.438784 234.827838 
L 182.438784 141.827838 
" style="fill:none;stroke:#000000;stroke-dasharray:1.000000,3.000000;stroke-dashoffset:0.0;stroke-width:0.5;"/>
     </g>
     <g id="line2d_103">
      <g>
       <use style="stroke:#000000;stroke-width:0.5;" x="182.438783859" xlink:href="#m9e1f18ed99" y="234.827838355"/>
      </g>
     </g>
     <g id="line2d_104">
      <g>
       <use style="stroke:#000000;stroke-width:0.5;" x="182.438783859" xlink:href="#m0e9b9f8604" y="141.827838355"/>
      </g>
     </g>
    </g>
    <g id="xtick_28">
     <g id="line2d_105">
      <path clip-path="url(#p872026599e)" d="M 193.645676 234.827838 
L 193.645676 141.827838 
" style="fill:none;stroke:#000000;stroke-dasharray:1.000000,3.000000;stroke-dashoffset:0.0;stroke-width:0.5;"/>
     </g>
     <g id="line2d_106">
      <g>
       <use style="stroke:#000000;stroke-width:0.5;" x="193.645676443" xlink:href="#m9e1f18ed99" y="234.827838355"/>
      </g>
     </g>
     <g id="line2d_107">
      <g>
       <use style="stroke:#000000;stroke-width:0.5;" x="193.645676443" xlink:href="#m0e9b9f8604" y="141.827838355"/>
      </g>
     </g>
    </g>
    <g id="xtick_29">
     <g id="line2d_108">
      <path clip-path="url(#p872026599e)" d="M 203.353528 234.827838 
L 203.353528 141.827838 
" style="fill:none;stroke:#000000;stroke-dasharray:1.000000,3.000000;stroke-dashoffset:0.0;stroke-width:0.5;"/>
     </g>
     <g id="line2d_109">
      <g>
       <use style="stroke:#000000;stroke-width:0.5;" x="203.353528368" xlink:href="#m9e1f18ed99" y="234.827838355"/>
      </g>
     </g>
     <g id="line2d_110">
      <g>
       <use style="stroke:#000000;stroke-width:0.5;" x="203.353528368" xlink:href="#m0e9b9f8604" y="141.827838355"/>
      </g>
     </g>
    </g>
    <g id="xtick_30">
     <g id="line2d_111">
      <path clip-path="url(#p872026599e)" d="M 211.916461 234.827838 
L 211.916461 141.827838 
" style="fill:none;stroke:#000000;stroke-dasharray:1.000000,3.000000;stroke-dashoffset:0.0;stroke-width:0.5;"/>
     </g>
     <g id="line2d_112">
      <g>
       <use style="stroke:#000000;stroke-width:0.5;" x="211.916460625" xlink:href="#m9e1f18ed99" y="234.827838355"/>
      </g>
     </g>
     <g id="line2d_113">
      <g>
       <use style="stroke:#000000;stroke-width:0.5;" x="211.916460625" xlink:href="#m0e9b9f8604" y="141.827838355"/>
      </g>
     </g>
    </g>
    <g id="xtick_31">
     <g id="line2d_114">
      <path clip-path="url(#p872026599e)" d="M 269.968686 234.827838 
L 269.968686 141.827838 
" style="fill:none;stroke:#000000;stroke-dasharray:1.000000,3.000000;stroke-dashoffset:0.0;stroke-width:0.5;"/>
     </g>
     <g id="line2d_115">
      <g>
       <use style="stroke:#000000;stroke-width:0.5;" x="269.968685819" xlink:href="#m9e1f18ed99" y="234.827838355"/>
      </g>
     </g>
     <g id="line2d_116">
      <g>
       <use style="stroke:#000000;stroke-width:0.5;" x="269.968685819" xlink:href="#m0e9b9f8604" y="141.827838355"/>
      </g>
     </g>
    </g>
    <g id="xtick_32">
     <g id="line2d_117">
      <path clip-path="url(#p872026599e)" d="M 299.446363 234.827838 
L 299.446363 141.827838 
" style="fill:none;stroke:#000000;stroke-dasharray:1.000000,3.000000;stroke-dashoffset:0.0;stroke-width:0.5;"/>
     </g>
     <g id="line2d_118">
      <g>
       <use style="stroke:#000000;stroke-width:0.5;" x="299.446362585" xlink:href="#m9e1f18ed99" y="234.827838355"/>
      </g>
     </g>
     <g id="line2d_119">
      <g>
       <use style="stroke:#000000;stroke-width:0.5;" x="299.446362585" xlink:href="#m0e9b9f8604" y="141.827838355"/>
      </g>
     </g>
    </g>
    <g id="xtick_33">
     <g id="line2d_120">
      <path clip-path="url(#p872026599e)" d="M 320.361107 234.827838 
L 320.361107 141.827838 
" style="fill:none;stroke:#000000;stroke-dasharray:1.000000,3.000000;stroke-dashoffset:0.0;stroke-width:0.5;"/>
     </g>
     <g id="line2d_121">
      <g>
       <use style="stroke:#000000;stroke-width:0.5;" x="320.361107093" xlink:href="#m9e1f18ed99" y="234.827838355"/>
      </g>
     </g>
     <g id="line2d_122">
      <g>
       <use style="stroke:#000000;stroke-width:0.5;" x="320.361107093" xlink:href="#m0e9b9f8604" y="141.827838355"/>
      </g>
     </g>
    </g>
    <g id="xtick_34">
     <g id="line2d_123">
      <path clip-path="url(#p872026599e)" d="M 336.583843 234.827838 
L 336.583843 141.827838 
" style="fill:none;stroke:#000000;stroke-dasharray:1.000000,3.000000;stroke-dashoffset:0.0;stroke-width:0.5;"/>
     </g>
     <g id="line2d_124">
      <g>
       <use style="stroke:#000000;stroke-width:0.5;" x="336.583843271" xlink:href="#m9e1f18ed99" y="234.827838355"/>
      </g>
     </g>
     <g id="line2d_125">
      <g>
       <use style="stroke:#000000;stroke-width:0.5;" x="336.583843271" xlink:href="#m0e9b9f8604" y="141.827838355"/>
      </g>
     </g>
    </g>
    <g id="xtick_35">
     <g id="line2d_126">
      <path clip-path="url(#p872026599e)" d="M 349.838784 234.827838 
L 349.838784 141.827838 
" style="fill:none;stroke:#000000;stroke-dasharray:1.000000,3.000000;stroke-dashoffset:0.0;stroke-width:0.5;"/>
     </g>
     <g id="line2d_127">
      <g>
       <use style="stroke:#000000;stroke-width:0.5;" x="349.838783859" xlink:href="#m9e1f18ed99" y="234.827838355"/>
      </g>
     </g>
     <g id="line2d_128">
      <g>
       <use style="stroke:#000000;stroke-width:0.5;" x="349.838783859" xlink:href="#m0e9b9f8604" y="141.827838355"/>
      </g>
     </g>
    </g>
    <g id="xtick_36">
     <g id="line2d_129">
      <path clip-path="url(#p872026599e)" d="M 361.045676 234.827838 
L 361.045676 141.827838 
" style="fill:none;stroke:#000000;stroke-dasharray:1.000000,3.000000;stroke-dashoffset:0.0;stroke-width:0.5;"/>
     </g>
     <g id="line2d_130">
      <g>
       <use style="stroke:#000000;stroke-width:0.5;" x="361.045676443" xlink:href="#m9e1f18ed99" y="234.827838355"/>
      </g>
     </g>
     <g id="line2d_131">
      <g>
       <use style="stroke:#000000;stroke-width:0.5;" x="361.045676443" xlink:href="#m0e9b9f8604" y="141.827838355"/>
      </g>
     </g>
    </g>
    <g id="xtick_37">
     <g id="line2d_132">
      <path clip-path="url(#p872026599e)" d="M 370.753528 234.827838 
L 370.753528 141.827838 
" style="fill:none;stroke:#000000;stroke-dasharray:1.000000,3.000000;stroke-dashoffset:0.0;stroke-width:0.5;"/>
     </g>
     <g id="line2d_133">
      <g>
       <use style="stroke:#000000;stroke-width:0.5;" x="370.753528368" xlink:href="#m9e1f18ed99" y="234.827838355"/>
      </g>
     </g>
     <g id="line2d_134">
      <g>
       <use style="stroke:#000000;stroke-width:0.5;" x="370.753528368" xlink:href="#m0e9b9f8604" y="141.827838355"/>
      </g>
     </g>
    </g>
    <g id="xtick_38">
     <g id="line2d_135">
      <path clip-path="url(#p872026599e)" d="M 379.316461 234.827838 
L 379.316461 141.827838 
" style="fill:none;stroke:#000000;stroke-dasharray:1.000000,3.000000;stroke-dashoffset:0.0;stroke-width:0.5;"/>
     </g>
     <g id="line2d_136">
      <g>
       <use style="stroke:#000000;stroke-width:0.5;" x="379.316460625" xlink:href="#m9e1f18ed99" y="234.827838355"/>
      </g>
     </g>
     <g id="line2d_137">
      <g>
       <use style="stroke:#000000;stroke-width:0.5;" x="379.316460625" xlink:href="#m0e9b9f8604" y="141.827838355"/>
      </g>
     </g>
    </g>
    <g id="text_13">
     <!-- Frequency(rad/sec) -->
     <defs>
      <path d="M 38.5 39.703125 
C 38.5 40.390625 33.90625 42.40625 32.703125 42.796875 
C 29.40625 44 25.203125 44 24.09375 44 
C 11.09375 44 3.296875 32.703125 3.296875 21.296875 
C 3.296875 9.296875 12 -1 23.703125 -1 
C 30.40625 -1 35.203125 1.1875 39.09375 3.78125 
L 38.5 10.375 
C 34.203125 7.078125 29.203125 5.265625 23.796875 5.265625 
C 16 5.265625 10.90625 12.09375 10.90625 21.390625 
C 10.90625 28.609375 14.203125 37.71875 24.203125 37.71875 
C 29.703125 37.71875 32.796875 36.609375 37.40625 33.515625 
z
" id="CMSS17-99"/>
      <path d="M 45.59375 31 
L 45.59375 37.078125 
L 17.203125 37.078125 
L 17.203125 62 
L 29.40625 62 
C 30.59375 62 31.796875 62 33 62 
L 49.5 62 
L 49.5 68.359375 
L 8.796875 68.359375 
L 8.796875 -0.5 
L 17.203125 -0.5 
L 17.203125 31 
z
" id="CMSS17-70"/>
      <path d="M 14.90625 21.296875 
C 14.90625 30.703125 21.796875 37 30.59375 37 
L 30.59375 43.578125 
C 24.203125 43.578125 18.203125 40.390625 14.59375 35.203125 
L 14.59375 43.09375 
L 7.5 43.09375 
L 7.5 0 
L 14.90625 0 
z
" id="CMSS17-114"/>
      <path d="M 32.203125 41.046875 
C 26.296875 43.859375 21.703125 43.859375 18.703125 43.859375 
C 11.59375 43.859375 3.09375 41.375 3.09375 31.296875 
C 3.09375 21.234375 14.09375 19.03125 17.09375 18.421875 
C 21.703125 17.53125 26.796875 16.53125 26.796875 11.5625 
C 26.796875 5.265625 19.59375 5.265625 18.296875 5.265625 
C 14.296875 5.265625 8.796875 6.359375 3.796875 9.96875 
L 2.59375 3.28125 
C 8.296875 0 13.796875 -1 18.40625 -1 
C 30.703125 -1 33.796875 6.5 33.796875 12.203125 
C 33.796875 17.09375 31 20.390625 29.09375 21.890625 
C 25.796875 24.5 24.59375 24.796875 16.40625 26.5 
C 15 26.703125 10.09375 27.796875 10.09375 32.28125 
C 10.09375 38 16.40625 38 17.796875 38 
C 24.296875 38 28.296875 35.984375 31 34.5 
z
" id="CMSS17-115"/>
      <path d="M 41.796875 43 
L 34 43 
C 25.5 20.21875 22.59375 10.96875 22.40625 5.984375 
L 22.296875 5.984375 
C 22 10.875 17.59375 22.8125 14.09375 31.359375 
L 9.40625 43 
L 1.296875 43 
L 19 0.203125 
C 17.90625 -2.78125 16.296875 -7.265625 15.796875 -8.265625 
C 13.59375 -13.828125 12.09375 -13.828125 10.5 -13.828125 
C 10.09375 -13.828125 6.90625 -13.828125 3.296875 -12.640625 
L 3.90625 -19.203125 
C 6.40625 -19.703125 8.90625 -20 10.703125 -20 
C 13.203125 -20 18.203125 -20 22.796875 -7.765625 
z
" id="CMSS17-121"/>
      <path d="M 40.796875 44 
L 33.40625 44 
L 33.40625 37.9375 
C 33 38.4375 28.40625 44 20.59375 44 
C 11.5 44 3.296875 34.8125 3.296875 21.859375 
C 3.296875 9.890625 10.203125 -0.078125 19.203125 -0.078125 
C 23.40625 -0.078125 28.703125 1.421875 33.203125 5.703125 
L 33.203125 -19 
L 40.796875 -19 
z
M 33.40625 14.28125 
C 33.40625 13 33.40625 11.21875 30.296875 8.65625 
C 29.5 7.96875 27.296875 6 23.5 6 
C 16.40625 6 10.90625 13.28125 10.90625 21.859375 
C 10.90625 31.421875 17.59375 37.734375 24.40625 37.734375 
C 30.09375 37.734375 33.40625 32.203125 33.40625 28.078125 
z
" id="CMSS17-113"/>
      <path d="M 41.203125 71.015625 
C 41.703125 72.296875 41.703125 72.5 41.703125 72.703125 
C 41.703125 73.890625 40.796875 74.5 40 74.5 
C 38.796875 74.5 38.40625 73.703125 38 72.5 
L 5.703125 -21.515625 
C 5.203125 -22.8125 5.203125 -23.015625 5.203125 -23.21875 
C 5.203125 -24.40625 6.09375 -25 6.90625 -25 
C 8.09375 -25 8.5 -24.203125 8.90625 -23.015625 
z
" id="CMSS17-47"/>
     </defs>
     <g transform="translate(179.144479199 260.15549514)scale(0.1 -0.1)">
      <use transform="scale(0.9962640099626402)" xlink:href="#CMSS17-70"/>
      <use transform="translate(50.68710536172946 0.0)scale(0.9962640099626402)" xlink:href="#CMSS17-114"/>
      <use transform="translate(82.59687791874222 0.0)scale(0.9962640099626402)" xlink:href="#CMSS17-101"/>
      <use transform="translate(124.23569998735213 0.0)scale(0.9962640099626402)" xlink:href="#CMSS17-113"/>
      <use transform="translate(172.4406431205246 0.0)scale(0.9962640099626402)" xlink:href="#CMSS17-117"/>
      <use transform="translate(220.6455862536971 0.0)scale(0.9962640099626402)" xlink:href="#CMSS17-101"/>
      <use transform="translate(262.284408322307 0.0)scale(0.9962640099626402)" xlink:href="#CMSS17-110"/>
      <use transform="translate(310.4893514554795 0.0)scale(0.9962640099626402)" xlink:href="#CMSS17-99"/>
      <use transform="translate(352.1281735240894 0.0)scale(0.9962640099626402)" xlink:href="#CMSS17-121"/>
      <use transform="translate(395.12831520470115 0.0)scale(0.9962640099626402)" xlink:href="#CMSS17-40"/>
      <use transform="translate(431.5622294082737 0.0)scale(0.9962640099626402)" xlink:href="#CMSS17-114"/>
      <use transform="translate(463.4720019652865 0.0)scale(0.9962640099626402)" xlink:href="#CMSS17-97"/>
      <use transform="translate(508.3939225706336 0.0)scale(0.9962640099626402)" xlink:href="#CMSS17-100"/>
      <use transform="translate(556.598865703806 0.0)scale(0.9962640099626402)" xlink:href="#CMSS17-47"/>
      <use transform="translate(603.4424892249767 0.0)scale(0.9962640099626402)" xlink:href="#CMSS17-115"/>
      <use transform="translate(639.3560312159481 0.0)scale(0.9962640099626402)" xlink:href="#CMSS17-101"/>
      <use transform="translate(680.994853284558 0.0)scale(0.9962640099626402)" xlink:href="#CMSS17-99"/>
      <use transform="translate(722.6336753531679 0.0)scale(0.9962640099626402)" xlink:href="#CMSS17-41"/>
     </g>
    </g>
   </g>
   <g id="matplotlib.axis_4">
    <g id="ytick_6">
     <g id="line2d_138">
      <path clip-path="url(#p872026599e)" d="M 52.176265 230.177838 
L 386.976265 230.177838 
" style="fill:none;stroke:#000000;stroke-dasharray:1.000000,3.000000;stroke-dashoffset:0.0;stroke-width:0.5;"/>
     </g>
     <g id="line2d_139">
      <g>
       <use style="stroke:#000000;stroke-width:0.5;" x="52.1762645451" xlink:href="#m4c89a42e85" y="230.177838355"/>
      </g>
     </g>
     <g id="line2d_140">
      <g>
       <use style="stroke:#000000;stroke-width:0.5;" x="386.976264545" xlink:href="#m13125f8bec" y="230.177838355"/>
      </g>
     </g>
     <g id="text_14">
      <!-- -180.0 -->
      <defs>
       <path d="M 30.203125 34.71875 
C 37.796875 37.1875 41.703125 43.125 41.703125 48.96875 
C 41.703125 58.15625 33.703125 66.078125 23.5 66.078125 
C 12.90625 66.078125 5.203125 57.9375 5.203125 49.125 
C 5.203125 43.4375 9 37.546875 16.703125 35.015625 
C 6.90625 31.203125 3.90625 23.625 3.90625 17.953125 
C 3.90625 6.96875 12.796875 -2 23.40625 -2 
C 34.40625 -2 43 7.109375 43 17.78125 
C 43 24.328125 39.09375 31.25 30.203125 34.71875 
M 23.5 38 
C 16.796875 38 12.296875 42.375 12.296875 49 
C 12.296875 55.71875 16.796875 60 23.5 60 
C 29.703125 60 34.59375 56.109375 34.59375 49 
C 34.59375 41.984375 29.796875 38 23.5 38 
M 23.5 4.171875 
C 17.796875 4.171875 11.703125 8.078125 11.703125 18.0625 
C 11.703125 28.328125 18.5 31.921875 23.40625 31.921875 
C 28.796875 31.921875 35.203125 28.125 35.203125 18.0625 
C 35.203125 7.671875 28.59375 4.171875 23.5 4.171875 
" id="CMSS17-56"/>
       <path d="M 28.40625 67 
L 26.5 67 
C 21.09375 61.5625 14.796875 60.78125 8.40625 60.78125 
L 8.40625 55 
C 11.296875 55 16 55 20.703125 57.296875 
L 20.703125 5.765625 
L 8.90625 5.765625 
L 8.90625 0 
L 40.203125 0 
L 40.203125 5.765625 
L 28.40625 5.765625 
z
" id="CMSS17-49"/>
      </defs>
      <g transform="translate(22.1626400996 232.66849838)scale(0.1 -0.1)">
       <use transform="scale(0.9962640099626402)" xlink:href="#CMSS17-45"/>
       <use transform="translate(31.229112751011833 0.0)scale(0.9962640099626402)" xlink:href="#CMSS17-49"/>
       <use transform="translate(78.07273627218245 0.0)scale(0.9962640099626402)" xlink:href="#CMSS17-56"/>
       <use transform="translate(124.91635979335307 0.0)scale(0.9962640099626402)" xlink:href="#CMSS17-48"/>
       <use transform="translate(171.75998331452368 0.0)scale(0.9962640099626402)" xlink:href="#CMSS17-46"/>
       <use transform="translate(197.78418820049816 0.0)scale(0.9962640099626402)" xlink:href="#CMSS17-48"/>
      </g>
     </g>
    </g>
    <g id="ytick_7">
     <g id="line2d_141">
      <path clip-path="url(#p872026599e)" d="M 52.176265 209.252838 
L 386.976265 209.252838 
" style="fill:none;stroke:#000000;stroke-dasharray:1.000000,3.000000;stroke-dashoffset:0.0;stroke-width:0.5;"/>
     </g>
     <g id="line2d_142">
      <g>
       <use style="stroke:#000000;stroke-width:0.5;" x="52.1762645451" xlink:href="#m4c89a42e85" y="209.252838355"/>
      </g>
     </g>
     <g id="line2d_143">
      <g>
       <use style="stroke:#000000;stroke-width:0.5;" x="386.976264545" xlink:href="#m13125f8bec" y="209.252838355"/>
      </g>
     </g>
     <g id="text_15">
      <!-- -90.0 -->
      <defs>
       <path d="M 6.796875 2.71875 
C 9.59375 0.328125 13.203125 -2 19.296875 -2 
C 31.40625 -2 43 11.265625 43 32.734375 
C 43 61.4375 30.5 66.078125 23.796875 66.078125 
C 17.09375 66.078125 12.796875 63.140625 9.09375 58.453125 
C 4.703125 53.078125 3.90625 48.28125 3.90625 42.703125 
C 3.90625 36.046875 5.09375 31.953125 7.90625 27.265625 
C 11.703125 21.203125 15.203125 19.921875 19.09375 19.921875 
C 25 19.921875 30.90625 22.796875 34.90625 27.75 
C 34.203125 14.09375 28.09375 4.171875 19.296875 4.171875 
C 15.703125 4.171875 12.796875 5.296875 9.90625 8.0625 
z
M 34.59375 42.90625 
C 34.703125 42.234375 34.703125 40.96875 34.703125 40.5625 
C 34.703125 32.40625 29.90625 26 22.90625 26 
C 18.296875 26 15.90625 28.328125 14.09375 31.34375 
C 11.90625 35.140625 11.796875 38.828125 11.796875 42.703125 
C 11.796875 46.5 11.796875 50.6875 14.59375 54.859375 
C 16.703125 57.859375 19.296875 60 23.796875 60 
C 33 60 34.5 46.875 34.59375 42.90625 
" id="CMSS17-57"/>
      </defs>
      <g transform="translate(27.1439753512 211.74349838)scale(0.1 -0.1)">
       <use transform="scale(0.9962640099626402)" xlink:href="#CMSS17-45"/>
       <use transform="translate(31.229112751011833 0.0)scale(0.9962640099626402)" xlink:href="#CMSS17-57"/>
       <use transform="translate(78.07273627218245 0.0)scale(0.9962640099626402)" xlink:href="#CMSS17-48"/>
       <use transform="translate(124.91635979335307 0.0)scale(0.9962640099626402)" xlink:href="#CMSS17-46"/>
       <use transform="translate(150.94056467932754 0.0)scale(0.9962640099626402)" xlink:href="#CMSS17-48"/>
      </g>
     </g>
    </g>
    <g id="ytick_8">
     <g id="line2d_144">
      <path clip-path="url(#p872026599e)" d="M 52.176265 188.327838 
L 386.976265 188.327838 
" style="fill:none;stroke:#000000;stroke-dasharray:1.000000,3.000000;stroke-dashoffset:0.0;stroke-width:0.5;"/>
     </g>
     <g id="line2d_145">
      <g>
       <use style="stroke:#000000;stroke-width:0.5;" x="52.1762645451" xlink:href="#m4c89a42e85" y="188.327838355"/>
      </g>
     </g>
     <g id="line2d_146">
      <g>
       <use style="stroke:#000000;stroke-width:0.5;" x="386.976264545" xlink:href="#m13125f8bec" y="188.327838355"/>
      </g>
     </g>
     <g id="text_16">
      <!-- 0.0 -->
      <g transform="translate(35.4461855688 190.81849838)scale(0.1 -0.1)">
       <use transform="scale(0.9962640099626402)" xlink:href="#CMSS17-48"/>
       <use transform="translate(46.84362352117061 0.0)scale(0.9962640099626402)" xlink:href="#CMSS17-46"/>
       <use transform="translate(72.86782840714508 0.0)scale(0.9962640099626402)" xlink:href="#CMSS17-48"/>
      </g>
     </g>
    </g>
    <g id="ytick_9">
     <g id="line2d_147">
      <path clip-path="url(#p872026599e)" d="M 52.176265 167.402838 
L 386.976265 167.402838 
" style="fill:none;stroke:#000000;stroke-dasharray:1.000000,3.000000;stroke-dashoffset:0.0;stroke-width:0.5;"/>
     </g>
     <g id="line2d_148">
      <g>
       <use style="stroke:#000000;stroke-width:0.5;" x="52.1762645451" xlink:href="#m4c89a42e85" y="167.402838355"/>
      </g>
     </g>
     <g id="line2d_149">
      <g>
       <use style="stroke:#000000;stroke-width:0.5;" x="386.976264545" xlink:href="#m13125f8bec" y="167.402838355"/>
      </g>
     </g>
     <g id="text_17">
      <!-- 90.0 -->
      <g transform="translate(30.4648503172 169.89349838)scale(0.1 -0.1)">
       <use transform="scale(0.9962640099626402)" xlink:href="#CMSS17-57"/>
       <use transform="translate(46.84362352117061 0.0)scale(0.9962640099626402)" xlink:href="#CMSS17-48"/>
       <use transform="translate(93.68724704234123 0.0)scale(0.9962640099626402)" xlink:href="#CMSS17-46"/>
       <use transform="translate(119.7114519283157 0.0)scale(0.9962640099626402)" xlink:href="#CMSS17-48"/>
      </g>
     </g>
    </g>
    <g id="ytick_10">
     <g id="line2d_150">
      <path clip-path="url(#p872026599e)" d="M 52.176265 146.477838 
L 386.976265 146.477838 
" style="fill:none;stroke:#000000;stroke-dasharray:1.000000,3.000000;stroke-dashoffset:0.0;stroke-width:0.5;"/>
     </g>
     <g id="line2d_151">
      <g>
       <use style="stroke:#000000;stroke-width:0.5;" x="52.1762645451" xlink:href="#m4c89a42e85" y="146.477838355"/>
      </g>
     </g>
     <g id="line2d_152">
      <g>
       <use style="stroke:#000000;stroke-width:0.5;" x="386.976264545" xlink:href="#m13125f8bec" y="146.477838355"/>
      </g>
     </g>
     <g id="text_18">
      <!-- 180.0 -->
      <g transform="translate(25.4835150656 148.96849838)scale(0.1 -0.1)">
       <use transform="scale(0.9962640099626402)" xlink:href="#CMSS17-49"/>
       <use transform="translate(46.84362352117061 0.0)scale(0.9962640099626402)" xlink:href="#CMSS17-56"/>
       <use transform="translate(93.68724704234123 0.0)scale(0.9962640099626402)" xlink:href="#CMSS17-48"/>
       <use transform="translate(140.53087056351185 0.0)scale(0.9962640099626402)" xlink:href="#CMSS17-46"/>
       <use transform="translate(166.5550754494863 0.0)scale(0.9962640099626402)" xlink:href="#CMSS17-48"/>
      </g>
     </g>
    </g>
    <g id="text_19">
     <!-- Phase(deg) -->
     <defs>
      <path d="M 32.90625 29 
C 44.90625 29 54.703125 38.328125 54.703125 49.34375 
C 54.703125 60.15625 45.296875 69.578125 32.296875 69.578125 
L 8.90625 69.578125 
L 8.90625 0 
L 17.296875 0 
L 17.296875 29 
z
M 30.09375 64 
C 41.703125 64 46.796875 56.671875 46.796875 49.328125 
C 46.796875 42.5 42.09375 34.78125 30.09375 34.78125 
L 17.09375 34.78125 
L 17.09375 64 
z
" id="CMSS17-80"/>
      <path d="M 40.90625 29.546875 
C 40.90625 35.8125 39.40625 44.0625 28.09375 44.0625 
C 21.796875 44.0625 17.703125 40.984375 14.796875 37.609375 
L 14.796875 69.5 
L 7.40625 69.5 
L 7.40625 0.5 
L 15 0.5 
L 15 24.578125 
C 15 30.828125 17.40625 38 24.203125 38 
C 33 38 33.296875 32.125 33.296875 28.734375 
L 33.296875 0.5 
L 40.90625 0.5 
z
" id="CMSS17-104"/>
     </defs>
     <g transform="translate(14.6719800747 211.753914216)rotate(-90.0)scale(0.1 -0.1)">
      <use transform="scale(0.9962640099626402)" xlink:href="#CMSS17-80"/>
      <use transform="translate(59.73558627801993 0.0)scale(0.9962640099626402)" xlink:href="#CMSS17-104"/>
      <use transform="translate(107.94052941119241 0.0)scale(0.9962640099626402)" xlink:href="#CMSS17-97"/>
      <use transform="translate(152.86245001653955 0.0)scale(0.9962640099626402)" xlink:href="#CMSS17-115"/>
      <use transform="translate(188.77599200751092 0.0)scale(0.9962640099626402)" xlink:href="#CMSS17-101"/>
      <use transform="translate(230.41481407612082 0.0)scale(0.9962640099626402)" xlink:href="#CMSS17-40"/>
      <use transform="translate(266.8487282796934 0.0)scale(0.9962640099626402)" xlink:href="#CMSS17-100"/>
      <use transform="translate(315.05367141286587 0.0)scale(0.9962640099626402)" xlink:href="#CMSS17-101"/>
      <use transform="translate(356.69249348147576 0.0)scale(0.9962640099626402)" xlink:href="#CMSS17-103"/>
      <use transform="translate(403.5361170026464 0.0)scale(0.9962640099626402)" xlink:href="#CMSS17-41"/>
     </g>
    </g>
   </g>
  </g>
 </g>
 <defs>
  <clipPath id="pcee441e36c">
   <rect height="93.0" width="334.8" x="52.1762645451" y="11.6278383552"/>
  </clipPath>
  <clipPath id="p872026599e">
   <rect height="93.0" width="334.8" x="52.1762645451" y="141.827838355"/>
  </clipPath>
 </defs>
</svg>
