<?xml version="1.0" encoding="utf-8" standalone="no"?>
<!DOCTYPE svg PUBLIC "-//W3C//DTD SVG 1.1//EN"
  "http://www.w3.org/Graphics/SVG/1.1/DTD/svg11.dtd">
<!-- Created with matplotlib (http://matplotlib.org/) -->
<svg height="277pt" version="1.1" viewBox="0 0 399 277" width="399pt" xmlns="http://www.w3.org/2000/svg" xmlns:xlink="http://www.w3.org/1999/xlink">
 <defs>
  <style type="text/css">
*{stroke-linecap:butt;stroke-linejoin:round;}
  </style>
 </defs>
 <g id="figure_1">
  <g id="patch_1">
   <path d="M 0 277.133056 
L 399.676265 277.133056 
L 399.676265 0 
L 0 0 
z
" style="fill:none;"/>
  </g>
  <g id="axes_1">
   <g id="patch_2">
    <path d="M 54.176265 113.274739 
L 388.976265 113.274739 
L 388.976265 22.674739 
L 54.176265 22.674739 
z
" style="fill:#ffffff;"/>
   </g>
   <g id="matplotlib.axis_1">
    <g id="xtick_1">
     <g id="line2d_1">
      <path clip-path="url(#pc9d1bf4797)" d="M 69.394446 113.274739 
L 69.394446 22.674739 
" style="fill:none;stroke:#b0b0b0;stroke-linecap:square;stroke-width:0.8;"/>
     </g>
     <g id="line2d_2">
      <defs>
       <path d="M 0 0 
L 0 3.5 
" id="ma8cf606343" style="stroke:#000000;stroke-width:0.8;"/>
      </defs>
      <g>
       <use style="stroke:#000000;stroke-width:0.8;" x="69.394446" xlink:href="#ma8cf606343" y="113.274739"/>
      </g>
     </g>
     <g id="text_1">
      <!-- $10^{-2}$ -->
      <defs>
       <path d="M 26.59375 63.40625 
C 26.59375 65.5 26.5 65.5 25.09375 65.5 
C 21.203125 61.1875 15.296875 59.796875 9.703125 59.796875 
C 9.40625 59.796875 8.90625 59.796875 8.796875 59.5 
C 8.703125 59.296875 8.703125 59.09375 8.703125 57 
C 11.796875 57 17 57.59375 21 59.984375 
L 21 7.203125 
C 21 3.6875 20.796875 2.5 12.203125 2.5 
L 9.203125 2.5 
L 9.203125 0 
C 14 0 19 0 23.796875 0 
C 28.59375 0 33.59375 0 38.40625 0 
L 38.40625 2.5 
L 35.40625 2.5 
C 26.796875 2.5 26.59375 3.59375 26.59375 7.15625 
z
" id="CMR17-49"/>
       <path d="M 42 31.640625 
C 42 37.75 41.90625 48.125 37.703125 56.109375 
C 34 63.109375 28.09375 65.59375 22.90625 65.59375 
C 18.09375 65.59375 12 63.40625 8.203125 56.203125 
C 4.203125 48.71875 3.796875 39.4375 3.796875 31.640625 
C 3.796875 25.953125 3.90625 17.28125 7 9.671875 
C 11.296875 -0.609375 19 -2 22.90625 -2 
C 27.5 -2 34.5 -0.109375 38.59375 9.375 
C 41.59375 16.28125 42 24.359375 42 31.640625 
M 22.90625 -0.40625 
C 16.5 -0.40625 12.703125 5.078125 11.296875 12.6875 
C 10.203125 18.5625 10.203125 27.15625 10.203125 32.75 
C 10.203125 40.4375 10.203125 46.828125 11.5 52.921875 
C 13.40625 61.390625 19 64 22.90625 64 
C 27 64 32.296875 61.296875 34.203125 53.125 
C 35.5 47.4375 35.59375 40.734375 35.59375 32.75 
C 35.59375 26.25 35.59375 18.265625 34.40625 12.375 
C 32.296875 1.484375 26.40625 -0.40625 22.90625 -0.40625 
" id="CMR17-48"/>
       <path d="M 65.90625 23 
C 67.59375 23 69.40625 23 69.40625 25 
C 69.40625 27 67.59375 27 65.90625 27 
L 11.796875 27 
C 10.09375 27 8.296875 27 8.296875 25 
C 8.296875 23 10.09375 23 11.796875 23 
z
" id="CMSY10-0"/>
       <path d="M 41.703125 15.453125 
L 39.90625 15.453125 
C 38.90625 8.375 38.09375 7.171875 37.703125 6.5625 
C 37.203125 5.765625 30 5.765625 28.59375 5.765625 
L 9.40625 5.765625 
C 13 9.671875 20 16.75 28.5 24.953125 
C 34.59375 30.734375 41.703125 37.53125 41.703125 47.421875 
C 41.703125 59.21875 32.296875 66 21.796875 66 
C 10.796875 66 4.09375 56.3125 4.09375 47.34375 
C 4.09375 43.4375 7 42.9375 8.203125 42.9375 
C 9.203125 42.9375 12.203125 43.546875 12.203125 47.03125 
C 12.203125 50.109375 9.59375 51 8.203125 51 
C 7.59375 51 7 50.90625 6.59375 50.703125 
C 8.5 59.21875 14.296875 63.40625 20.40625 63.40625 
C 29.09375 63.40625 34.796875 56.515625 34.796875 47.421875 
C 34.796875 38.734375 29.703125 31.25 24 24.75 
L 4.09375 2.28125 
L 4.09375 0 
L 39.296875 0 
z
" id="CMR17-50"/>
      </defs>
      <g transform="translate(59.31416 127.193237)scale(0.1 -0.1)">
       <use transform="scale(0.996264)" xlink:href="#CMR17-49"/>
       <use transform="translate(45.690477 0)scale(0.996264)" xlink:href="#CMR17-48"/>
       <use transform="translate(91.380954 36.153639)scale(0.697382)" xlink:href="#CMSY10-0"/>
       <use transform="translate(145.621947 36.153639)scale(0.697382)" xlink:href="#CMR17-50"/>
      </g>
     </g>
    </g>
    <g id="xtick_2">
     <g id="line2d_3">
      <path clip-path="url(#pc9d1bf4797)" d="M 145.485355 113.274739 
L 145.485355 22.674739 
" style="fill:none;stroke:#b0b0b0;stroke-linecap:square;stroke-width:0.8;"/>
     </g>
     <g id="line2d_4">
      <g>
       <use style="stroke:#000000;stroke-width:0.8;" x="145.485355" xlink:href="#ma8cf606343" y="113.274739"/>
      </g>
     </g>
     <g id="text_2">
      <!-- $10^{-1}$ -->
      <g transform="translate(135.405069 127.193237)scale(0.1 -0.1)">
       <use transform="scale(0.996264)" xlink:href="#CMR17-49"/>
       <use transform="translate(45.690477 0)scale(0.996264)" xlink:href="#CMR17-48"/>
       <use transform="translate(91.380954 36.153639)scale(0.697382)" xlink:href="#CMSY10-0"/>
       <use transform="translate(145.621947 36.153639)scale(0.697382)" xlink:href="#CMR17-49"/>
      </g>
     </g>
    </g>
    <g id="xtick_3">
     <g id="line2d_5">
      <path clip-path="url(#pc9d1bf4797)" d="M 221.576265 113.274739 
L 221.576265 22.674739 
" style="fill:none;stroke:#b0b0b0;stroke-linecap:square;stroke-width:0.8;"/>
     </g>
     <g id="line2d_6">
      <g>
       <use style="stroke:#000000;stroke-width:0.8;" x="221.576265" xlink:href="#ma8cf606343" y="113.274739"/>
      </g>
     </g>
     <g id="text_3">
      <!-- $10^{0}$ -->
      <g transform="translate(214.60931 127.193237)scale(0.1 -0.1)">
       <use transform="scale(0.996264)" xlink:href="#CMR17-49"/>
       <use transform="translate(45.690477 0)scale(0.996264)" xlink:href="#CMR17-48"/>
       <use transform="translate(91.380954 36.153639)scale(0.697382)" xlink:href="#CMR17-48"/>
      </g>
     </g>
    </g>
    <g id="xtick_4">
     <g id="line2d_7">
      <path clip-path="url(#pc9d1bf4797)" d="M 297.667174 113.274739 
L 297.667174 22.674739 
" style="fill:none;stroke:#b0b0b0;stroke-linecap:square;stroke-width:0.8;"/>
     </g>
     <g id="line2d_8">
      <g>
       <use style="stroke:#000000;stroke-width:0.8;" x="297.667174" xlink:href="#ma8cf606343" y="113.274739"/>
      </g>
     </g>
     <g id="text_4">
      <!-- $10^{1}$ -->
      <g transform="translate(290.70022 127.193237)scale(0.1 -0.1)">
       <use transform="scale(0.996264)" xlink:href="#CMR17-49"/>
       <use transform="translate(45.690477 0)scale(0.996264)" xlink:href="#CMR17-48"/>
       <use transform="translate(91.380954 36.153639)scale(0.697382)" xlink:href="#CMR17-49"/>
      </g>
     </g>
    </g>
    <g id="xtick_5">
     <g id="line2d_9">
      <path clip-path="url(#pc9d1bf4797)" d="M 373.758083 113.274739 
L 373.758083 22.674739 
" style="fill:none;stroke:#b0b0b0;stroke-linecap:square;stroke-width:0.8;"/>
     </g>
     <g id="line2d_10">
      <g>
       <use style="stroke:#000000;stroke-width:0.8;" x="373.758083" xlink:href="#ma8cf606343" y="113.274739"/>
      </g>
     </g>
     <g id="text_5">
      <!-- $10^{2}$ -->
      <g transform="translate(366.791129 127.193237)scale(0.1 -0.1)">
       <use transform="scale(0.996264)" xlink:href="#CMR17-49"/>
       <use transform="translate(45.690477 0)scale(0.996264)" xlink:href="#CMR17-48"/>
       <use transform="translate(91.380954 36.153639)scale(0.697382)" xlink:href="#CMR17-50"/>
      </g>
     </g>
    </g>
    <g id="xtick_6">
     <g id="line2d_11">
      <path clip-path="url(#pc9d1bf4797)" d="M 57.607815 113.274739 
L 57.607815 22.674739 
" style="fill:none;stroke:#b0b0b0;stroke-linecap:square;stroke-width:0.8;"/>
     </g>
     <g id="line2d_12">
      <defs>
       <path d="M 0 0 
L 0 2 
" id="m54f24c0aec" style="stroke:#000000;stroke-width:0.6;"/>
      </defs>
      <g>
       <use style="stroke:#000000;stroke-width:0.6;" x="57.607815" xlink:href="#m54f24c0aec" y="113.274739"/>
      </g>
     </g>
    </g>
    <g id="xtick_7">
     <g id="line2d_13">
      <path clip-path="url(#pc9d1bf4797)" d="M 62.020475 113.274739 
L 62.020475 22.674739 
" style="fill:none;stroke:#b0b0b0;stroke-linecap:square;stroke-width:0.8;"/>
     </g>
     <g id="line2d_14">
      <g>
       <use style="stroke:#000000;stroke-width:0.6;" x="62.020475" xlink:href="#m54f24c0aec" y="113.274739"/>
      </g>
     </g>
    </g>
    <g id="xtick_8">
     <g id="line2d_15">
      <path clip-path="url(#pc9d1bf4797)" d="M 65.912717 113.274739 
L 65.912717 22.674739 
" style="fill:none;stroke:#b0b0b0;stroke-linecap:square;stroke-width:0.8;"/>
     </g>
     <g id="line2d_16">
      <g>
       <use style="stroke:#000000;stroke-width:0.6;" x="65.912717" xlink:href="#m54f24c0aec" y="113.274739"/>
      </g>
     </g>
    </g>
    <g id="xtick_9">
     <g id="line2d_17">
      <path clip-path="url(#pc9d1bf4797)" d="M 92.300092 113.274739 
L 92.300092 22.674739 
" style="fill:none;stroke:#b0b0b0;stroke-linecap:square;stroke-width:0.8;"/>
     </g>
     <g id="line2d_18">
      <g>
       <use style="stroke:#000000;stroke-width:0.6;" x="92.300092" xlink:href="#m54f24c0aec" y="113.274739"/>
      </g>
     </g>
    </g>
    <g id="xtick_10">
     <g id="line2d_19">
      <path clip-path="url(#pc9d1bf4797)" d="M 105.699036 113.274739 
L 105.699036 22.674739 
" style="fill:none;stroke:#b0b0b0;stroke-linecap:square;stroke-width:0.8;"/>
     </g>
     <g id="line2d_20">
      <g>
       <use style="stroke:#000000;stroke-width:0.6;" x="105.699036" xlink:href="#m54f24c0aec" y="113.274739"/>
      </g>
     </g>
    </g>
    <g id="xtick_11">
     <g id="line2d_21">
      <path clip-path="url(#pc9d1bf4797)" d="M 115.205738 113.274739 
L 115.205738 22.674739 
" style="fill:none;stroke:#b0b0b0;stroke-linecap:square;stroke-width:0.8;"/>
     </g>
     <g id="line2d_22">
      <g>
       <use style="stroke:#000000;stroke-width:0.6;" x="115.205738" xlink:href="#m54f24c0aec" y="113.274739"/>
      </g>
     </g>
    </g>
    <g id="xtick_12">
     <g id="line2d_23">
      <path clip-path="url(#pc9d1bf4797)" d="M 122.579709 113.274739 
L 122.579709 22.674739 
" style="fill:none;stroke:#b0b0b0;stroke-linecap:square;stroke-width:0.8;"/>
     </g>
     <g id="line2d_24">
      <g>
       <use style="stroke:#000000;stroke-width:0.6;" x="122.579709" xlink:href="#m54f24c0aec" y="113.274739"/>
      </g>
     </g>
    </g>
    <g id="xtick_13">
     <g id="line2d_25">
      <path clip-path="url(#pc9d1bf4797)" d="M 128.604682 113.274739 
L 128.604682 22.674739 
" style="fill:none;stroke:#b0b0b0;stroke-linecap:square;stroke-width:0.8;"/>
     </g>
     <g id="line2d_26">
      <g>
       <use style="stroke:#000000;stroke-width:0.6;" x="128.604682" xlink:href="#m54f24c0aec" y="113.274739"/>
      </g>
     </g>
    </g>
    <g id="xtick_14">
     <g id="line2d_27">
      <path clip-path="url(#pc9d1bf4797)" d="M 133.698724 113.274739 
L 133.698724 22.674739 
" style="fill:none;stroke:#b0b0b0;stroke-linecap:square;stroke-width:0.8;"/>
     </g>
     <g id="line2d_28">
      <g>
       <use style="stroke:#000000;stroke-width:0.6;" x="133.698724" xlink:href="#m54f24c0aec" y="113.274739"/>
      </g>
     </g>
    </g>
    <g id="xtick_15">
     <g id="line2d_29">
      <path clip-path="url(#pc9d1bf4797)" d="M 138.111384 113.274739 
L 138.111384 22.674739 
" style="fill:none;stroke:#b0b0b0;stroke-linecap:square;stroke-width:0.8;"/>
     </g>
     <g id="line2d_30">
      <g>
       <use style="stroke:#000000;stroke-width:0.6;" x="138.111384" xlink:href="#m54f24c0aec" y="113.274739"/>
      </g>
     </g>
    </g>
    <g id="xtick_16">
     <g id="line2d_31">
      <path clip-path="url(#pc9d1bf4797)" d="M 142.003626 113.274739 
L 142.003626 22.674739 
" style="fill:none;stroke:#b0b0b0;stroke-linecap:square;stroke-width:0.8;"/>
     </g>
     <g id="line2d_32">
      <g>
       <use style="stroke:#000000;stroke-width:0.6;" x="142.003626" xlink:href="#m54f24c0aec" y="113.274739"/>
      </g>
     </g>
    </g>
    <g id="xtick_17">
     <g id="line2d_33">
      <path clip-path="url(#pc9d1bf4797)" d="M 168.391001 113.274739 
L 168.391001 22.674739 
" style="fill:none;stroke:#b0b0b0;stroke-linecap:square;stroke-width:0.8;"/>
     </g>
     <g id="line2d_34">
      <g>
       <use style="stroke:#000000;stroke-width:0.6;" x="168.391001" xlink:href="#m54f24c0aec" y="113.274739"/>
      </g>
     </g>
    </g>
    <g id="xtick_18">
     <g id="line2d_35">
      <path clip-path="url(#pc9d1bf4797)" d="M 181.789945 113.274739 
L 181.789945 22.674739 
" style="fill:none;stroke:#b0b0b0;stroke-linecap:square;stroke-width:0.8;"/>
     </g>
     <g id="line2d_36">
      <g>
       <use style="stroke:#000000;stroke-width:0.6;" x="181.789945" xlink:href="#m54f24c0aec" y="113.274739"/>
      </g>
     </g>
    </g>
    <g id="xtick_19">
     <g id="line2d_37">
      <path clip-path="url(#pc9d1bf4797)" d="M 191.296648 113.274739 
L 191.296648 22.674739 
" style="fill:none;stroke:#b0b0b0;stroke-linecap:square;stroke-width:0.8;"/>
     </g>
     <g id="line2d_38">
      <g>
       <use style="stroke:#000000;stroke-width:0.6;" x="191.296648" xlink:href="#m54f24c0aec" y="113.274739"/>
      </g>
     </g>
    </g>
    <g id="xtick_20">
     <g id="line2d_39">
      <path clip-path="url(#pc9d1bf4797)" d="M 198.670619 113.274739 
L 198.670619 22.674739 
" style="fill:none;stroke:#b0b0b0;stroke-linecap:square;stroke-width:0.8;"/>
     </g>
     <g id="line2d_40">
      <g>
       <use style="stroke:#000000;stroke-width:0.6;" x="198.670619" xlink:href="#m54f24c0aec" y="113.274739"/>
      </g>
     </g>
    </g>
    <g id="xtick_21">
     <g id="line2d_41">
      <path clip-path="url(#pc9d1bf4797)" d="M 204.695592 113.274739 
L 204.695592 22.674739 
" style="fill:none;stroke:#b0b0b0;stroke-linecap:square;stroke-width:0.8;"/>
     </g>
     <g id="line2d_42">
      <g>
       <use style="stroke:#000000;stroke-width:0.6;" x="204.695592" xlink:href="#m54f24c0aec" y="113.274739"/>
      </g>
     </g>
    </g>
    <g id="xtick_22">
     <g id="line2d_43">
      <path clip-path="url(#pc9d1bf4797)" d="M 209.789634 113.274739 
L 209.789634 22.674739 
" style="fill:none;stroke:#b0b0b0;stroke-linecap:square;stroke-width:0.8;"/>
     </g>
     <g id="line2d_44">
      <g>
       <use style="stroke:#000000;stroke-width:0.6;" x="209.789634" xlink:href="#m54f24c0aec" y="113.274739"/>
      </g>
     </g>
    </g>
    <g id="xtick_23">
     <g id="line2d_45">
      <path clip-path="url(#pc9d1bf4797)" d="M 214.202294 113.274739 
L 214.202294 22.674739 
" style="fill:none;stroke:#b0b0b0;stroke-linecap:square;stroke-width:0.8;"/>
     </g>
     <g id="line2d_46">
      <g>
       <use style="stroke:#000000;stroke-width:0.6;" x="214.202294" xlink:href="#m54f24c0aec" y="113.274739"/>
      </g>
     </g>
    </g>
    <g id="xtick_24">
     <g id="line2d_47">
      <path clip-path="url(#pc9d1bf4797)" d="M 218.094535 113.274739 
L 218.094535 22.674739 
" style="fill:none;stroke:#b0b0b0;stroke-linecap:square;stroke-width:0.8;"/>
     </g>
     <g id="line2d_48">
      <g>
       <use style="stroke:#000000;stroke-width:0.6;" x="218.094535" xlink:href="#m54f24c0aec" y="113.274739"/>
      </g>
     </g>
    </g>
    <g id="xtick_25">
     <g id="line2d_49">
      <path clip-path="url(#pc9d1bf4797)" d="M 244.481911 113.274739 
L 244.481911 22.674739 
" style="fill:none;stroke:#b0b0b0;stroke-linecap:square;stroke-width:0.8;"/>
     </g>
     <g id="line2d_50">
      <g>
       <use style="stroke:#000000;stroke-width:0.6;" x="244.481911" xlink:href="#m54f24c0aec" y="113.274739"/>
      </g>
     </g>
    </g>
    <g id="xtick_26">
     <g id="line2d_51">
      <path clip-path="url(#pc9d1bf4797)" d="M 257.880855 113.274739 
L 257.880855 22.674739 
" style="fill:none;stroke:#b0b0b0;stroke-linecap:square;stroke-width:0.8;"/>
     </g>
     <g id="line2d_52">
      <g>
       <use style="stroke:#000000;stroke-width:0.6;" x="257.880855" xlink:href="#m54f24c0aec" y="113.274739"/>
      </g>
     </g>
    </g>
    <g id="xtick_27">
     <g id="line2d_53">
      <path clip-path="url(#pc9d1bf4797)" d="M 267.387557 113.274739 
L 267.387557 22.674739 
" style="fill:none;stroke:#b0b0b0;stroke-linecap:square;stroke-width:0.8;"/>
     </g>
     <g id="line2d_54">
      <g>
       <use style="stroke:#000000;stroke-width:0.6;" x="267.387557" xlink:href="#m54f24c0aec" y="113.274739"/>
      </g>
     </g>
    </g>
    <g id="xtick_28">
     <g id="line2d_55">
      <path clip-path="url(#pc9d1bf4797)" d="M 274.761528 113.274739 
L 274.761528 22.674739 
" style="fill:none;stroke:#b0b0b0;stroke-linecap:square;stroke-width:0.8;"/>
     </g>
     <g id="line2d_56">
      <g>
       <use style="stroke:#000000;stroke-width:0.6;" x="274.761528" xlink:href="#m54f24c0aec" y="113.274739"/>
      </g>
     </g>
    </g>
    <g id="xtick_29">
     <g id="line2d_57">
      <path clip-path="url(#pc9d1bf4797)" d="M 280.786501 113.274739 
L 280.786501 22.674739 
" style="fill:none;stroke:#b0b0b0;stroke-linecap:square;stroke-width:0.8;"/>
     </g>
     <g id="line2d_58">
      <g>
       <use style="stroke:#000000;stroke-width:0.6;" x="280.786501" xlink:href="#m54f24c0aec" y="113.274739"/>
      </g>
     </g>
    </g>
    <g id="xtick_30">
     <g id="line2d_59">
      <path clip-path="url(#pc9d1bf4797)" d="M 285.880543 113.274739 
L 285.880543 22.674739 
" style="fill:none;stroke:#b0b0b0;stroke-linecap:square;stroke-width:0.8;"/>
     </g>
     <g id="line2d_60">
      <g>
       <use style="stroke:#000000;stroke-width:0.6;" x="285.880543" xlink:href="#m54f24c0aec" y="113.274739"/>
      </g>
     </g>
    </g>
    <g id="xtick_31">
     <g id="line2d_61">
      <path clip-path="url(#pc9d1bf4797)" d="M 290.293203 113.274739 
L 290.293203 22.674739 
" style="fill:none;stroke:#b0b0b0;stroke-linecap:square;stroke-width:0.8;"/>
     </g>
     <g id="line2d_62">
      <g>
       <use style="stroke:#000000;stroke-width:0.6;" x="290.293203" xlink:href="#m54f24c0aec" y="113.274739"/>
      </g>
     </g>
    </g>
    <g id="xtick_32">
     <g id="line2d_63">
      <path clip-path="url(#pc9d1bf4797)" d="M 294.185445 113.274739 
L 294.185445 22.674739 
" style="fill:none;stroke:#b0b0b0;stroke-linecap:square;stroke-width:0.8;"/>
     </g>
     <g id="line2d_64">
      <g>
       <use style="stroke:#000000;stroke-width:0.6;" x="294.185445" xlink:href="#m54f24c0aec" y="113.274739"/>
      </g>
     </g>
    </g>
    <g id="xtick_33">
     <g id="line2d_65">
      <path clip-path="url(#pc9d1bf4797)" d="M 320.57282 113.274739 
L 320.57282 22.674739 
" style="fill:none;stroke:#b0b0b0;stroke-linecap:square;stroke-width:0.8;"/>
     </g>
     <g id="line2d_66">
      <g>
       <use style="stroke:#000000;stroke-width:0.6;" x="320.57282" xlink:href="#m54f24c0aec" y="113.274739"/>
      </g>
     </g>
    </g>
    <g id="xtick_34">
     <g id="line2d_67">
      <path clip-path="url(#pc9d1bf4797)" d="M 333.971764 113.274739 
L 333.971764 22.674739 
" style="fill:none;stroke:#b0b0b0;stroke-linecap:square;stroke-width:0.8;"/>
     </g>
     <g id="line2d_68">
      <g>
       <use style="stroke:#000000;stroke-width:0.6;" x="333.971764" xlink:href="#m54f24c0aec" y="113.274739"/>
      </g>
     </g>
    </g>
    <g id="xtick_35">
     <g id="line2d_69">
      <path clip-path="url(#pc9d1bf4797)" d="M 343.478466 113.274739 
L 343.478466 22.674739 
" style="fill:none;stroke:#b0b0b0;stroke-linecap:square;stroke-width:0.8;"/>
     </g>
     <g id="line2d_70">
      <g>
       <use style="stroke:#000000;stroke-width:0.6;" x="343.478466" xlink:href="#m54f24c0aec" y="113.274739"/>
      </g>
     </g>
    </g>
    <g id="xtick_36">
     <g id="line2d_71">
      <path clip-path="url(#pc9d1bf4797)" d="M 350.852437 113.274739 
L 350.852437 22.674739 
" style="fill:none;stroke:#b0b0b0;stroke-linecap:square;stroke-width:0.8;"/>
     </g>
     <g id="line2d_72">
      <g>
       <use style="stroke:#000000;stroke-width:0.6;" x="350.852437" xlink:href="#m54f24c0aec" y="113.274739"/>
      </g>
     </g>
    </g>
    <g id="xtick_37">
     <g id="line2d_73">
      <path clip-path="url(#pc9d1bf4797)" d="M 356.87741 113.274739 
L 356.87741 22.674739 
" style="fill:none;stroke:#b0b0b0;stroke-linecap:square;stroke-width:0.8;"/>
     </g>
     <g id="line2d_74">
      <g>
       <use style="stroke:#000000;stroke-width:0.6;" x="356.87741" xlink:href="#m54f24c0aec" y="113.274739"/>
      </g>
     </g>
    </g>
    <g id="xtick_38">
     <g id="line2d_75">
      <path clip-path="url(#pc9d1bf4797)" d="M 361.971452 113.274739 
L 361.971452 22.674739 
" style="fill:none;stroke:#b0b0b0;stroke-linecap:square;stroke-width:0.8;"/>
     </g>
     <g id="line2d_76">
      <g>
       <use style="stroke:#000000;stroke-width:0.6;" x="361.971452" xlink:href="#m54f24c0aec" y="113.274739"/>
      </g>
     </g>
    </g>
    <g id="xtick_39">
     <g id="line2d_77">
      <path clip-path="url(#pc9d1bf4797)" d="M 366.384112 113.274739 
L 366.384112 22.674739 
" style="fill:none;stroke:#b0b0b0;stroke-linecap:square;stroke-width:0.8;"/>
     </g>
     <g id="line2d_78">
      <g>
       <use style="stroke:#000000;stroke-width:0.6;" x="366.384112" xlink:href="#m54f24c0aec" y="113.274739"/>
      </g>
     </g>
    </g>
    <g id="xtick_40">
     <g id="line2d_79">
      <path clip-path="url(#pc9d1bf4797)" d="M 370.276354 113.274739 
L 370.276354 22.674739 
" style="fill:none;stroke:#b0b0b0;stroke-linecap:square;stroke-width:0.8;"/>
     </g>
     <g id="line2d_80">
      <g>
       <use style="stroke:#000000;stroke-width:0.6;" x="370.276354" xlink:href="#m54f24c0aec" y="113.274739"/>
      </g>
     </g>
    </g>
   </g>
   <g id="matplotlib.axis_2">
    <g id="ytick_1">
     <g id="line2d_81">
      <path clip-path="url(#pc9d1bf4797)" d="M 54.176265 91.104512 
L 388.976265 91.104512 
" style="fill:none;stroke:#b0b0b0;stroke-linecap:square;stroke-width:0.8;"/>
     </g>
     <g id="line2d_82">
      <defs>
       <path d="M 0 0 
L -3.5 0 
" id="m0af5e0a117" style="stroke:#000000;stroke-width:0.8;"/>
      </defs>
      <g>
       <use style="stroke:#000000;stroke-width:0.8;" x="54.176265" xlink:href="#m0af5e0a117" y="91.104512"/>
      </g>
     </g>
     <g id="text_6">
      <!-- $-50$ -->
      <defs>
       <path d="M 11.40625 57.6875 
C 12.40625 57.28125 16.5 56 20.703125 56 
C 30 56 35.09375 61.109375 38 64.0625 
C 38 64.953125 38 65.5 37.40625 65.5 
C 37.296875 65.5 37.09375 65.5 36.296875 65.046875 
C 32.796875 63.40625 28.703125 62.078125 23.703125 62.078125 
C 20.703125 62.078125 16.203125 62.484375 11.296875 64.671875 
C 10.203125 65.171875 10 65.171875 9.90625 65.171875 
C 9.40625 65.171875 9.296875 65.0625 9.296875 63.078125 
L 9.296875 34.421875 
C 9.296875 32.640625 9.296875 32.140625 10.296875 32.140625 
C 10.796875 32.140625 11 32.34375 11.5 33.03125 
C 14.703125 37.515625 19.09375 39.40625 24.09375 39.40625 
C 27.59375 39.40625 35.09375 37.21875 35.09375 20.140625 
C 35.09375 16.953125 35.09375 11.171875 32.09375 6.578125 
C 29.59375 2.484375 25.703125 0.390625 21.40625 0.390625 
C 14.796875 0.390625 8.09375 5 6.296875 12.71875 
C 6.703125 12.609375 7.5 12.421875 7.90625 12.421875 
C 9.203125 12.421875 11.703125 13.125 11.703125 16.21875 
C 11.703125 18.90625 9.796875 20 7.90625 20 
C 5.59375 20 4.09375 18.59375 4.09375 15.796875 
C 4.09375 7.09375 11 -2 21.59375 -2 
C 31.90625 -2 41.703125 6.875 41.703125 19.75 
C 41.703125 31.71875 33.90625 41 24.203125 41 
C 19.09375 41 14.796875 39.109375 11.40625 35.53125 
z
" id="CMR17-53"/>
      </defs>
      <g transform="translate(29.46485 94.563761)scale(0.1 -0.1)">
       <use transform="scale(0.996264)" xlink:href="#CMSY10-0"/>
       <use transform="translate(77.487468 0)scale(0.996264)" xlink:href="#CMR17-53"/>
       <use transform="translate(123.177945 0)scale(0.996264)" xlink:href="#CMR17-48"/>
      </g>
     </g>
    </g>
    <g id="ytick_2">
     <g id="line2d_83">
      <path clip-path="url(#pc9d1bf4797)" d="M 54.176265 65.974708 
L 388.976265 65.974708 
" style="fill:none;stroke:#b0b0b0;stroke-linecap:square;stroke-width:0.8;"/>
     </g>
     <g id="line2d_84">
      <g>
       <use style="stroke:#000000;stroke-width:0.8;" x="54.176265" xlink:href="#m0af5e0a117" y="65.974708"/>
      </g>
     </g>
     <g id="text_7">
      <!-- $-25$ -->
      <g transform="translate(29.46485 69.433957)scale(0.1 -0.1)">
       <use transform="scale(0.996264)" xlink:href="#CMSY10-0"/>
       <use transform="translate(77.487468 0)scale(0.996264)" xlink:href="#CMR17-50"/>
       <use transform="translate(123.177945 0)scale(0.996264)" xlink:href="#CMR17-53"/>
      </g>
     </g>
    </g>
    <g id="ytick_3">
     <g id="line2d_85">
      <path clip-path="url(#pc9d1bf4797)" d="M 54.176265 40.844904 
L 388.976265 40.844904 
" style="fill:none;stroke:#b0b0b0;stroke-linecap:square;stroke-width:0.8;"/>
     </g>
     <g id="line2d_86">
      <g>
       <use style="stroke:#000000;stroke-width:0.8;" x="54.176265" xlink:href="#m0af5e0a117" y="40.844904"/>
      </g>
     </g>
     <g id="text_8">
      <!-- $0$ -->
      <g transform="translate(42.194929 44.304153)scale(0.1 -0.1)">
       <use transform="scale(0.996264)" xlink:href="#CMR17-48"/>
      </g>
     </g>
    </g>
    <g id="text_9">
     <!-- Magnitude (dB) -->
     <defs>
      <path d="M 49.90625 37.046875 
L 45.09375 23.015625 
C 44.296875 20.421875 41.59375 12.359375 41 9.171875 
L 40.90625 9.171875 
C 40.59375 11.171875 40 13.265625 38.40625 18.34375 
C 37.5 21.328125 36.5 24.40625 35.5 27.203125 
L 20.703125 69 
L 9 69 
L 9 0 
L 16.796875 0 
L 16.796875 60.9375 
L 16.90625 60.9375 
C 16.90625 60.84375 17.796875 56.453125 23.90625 39.046875 
L 37.09375 1.5 
L 44.5 1.5 
L 56.40625 34.859375 
C 57.203125 37.15625 59.703125 44.421875 60.796875 47.90625 
C 61.796875 50.890625 64.296875 58.25 64.90625 61.140625 
L 65 61.140625 
L 65 0 
L 72.90625 0 
L 72.90625 69 
L 61.296875 69 
z
" id="CMSS17-77"/>
      <path d="M 37.59375 27.984375 
C 37.59375 37.375 30.90625 43.875 21.90625 43.875 
C 17.5 43.875 12.703125 43.078125 7.203125 39.890625 
L 7.796875 33.359375 
C 10.296875 35.125 14.59375 38 21.796875 38 
C 26.90625 38 30 34.0625 30 27.84375 
L 30 24 
C 14 24 4 19.34375 4 11.34375 
C 4 7.203125 6.5 -1 14.796875 -1 
C 16.296875 -1 24.40625 -1 30.203125 3.390625 
L 30.203125 -0.296875 
L 37.59375 -0.296875 
z
M 30 12.75 
C 30 10.953125 30 8.5625 27 6.78125 
C 24.40625 5.078125 21.09375 5.078125 19.703125 5.078125 
C 14.703125 5.078125 11.296875 7.984375 11.296875 11.625 
C 11.296875 18.921875 26.90625 18.921875 30 18.921875 
z
" id="CMSS17-97"/>
      <path d="M 44.5 43.875 
C 38.796875 43.875 33.90625 42.78125 29.90625 40.890625 
C 26.59375 43.390625 23.203125 43.875 20.90625 43.875 
C 12.203125 43.875 5.59375 36.703125 5.59375 28.34375 
C 5.59375 22.9375 8.59375 18.859375 8.796875 18.671875 
C 7 16.171875 6 13.484375 6 10.5 
C 6 7 7.40625 4.515625 8.5 3.125 
C 3.296875 -0.046875 2.59375 -4.90625 2.59375 -6.796875 
C 2.59375 -14.03125 11.703125 -20 23.40625 -20 
C 35.203125 -20 44.296875 -14.03125 44.296875 -6.6875 
C 44.296875 7 29 7 24.796875 7 
L 16.703125 7 
C 15.203125 7 11.203125 7 11.203125 12.359375 
C 11.203125 14.390625 12.09375 15.6875 12.203125 15.78125 
C 13.703125 14.6875 16.796875 13 20.90625 13 
C 29.203125 13 36.09375 19.96875 36.09375 28.546875 
C 36.09375 33.3125 33.90625 36.796875 33 38 
L 33.296875 38 
C 33.59375 38 37.796875 38 39.296875 38 
C 42.5 38 42.796875 37.9375 45.59375 37.796875 
z
M 20.90625 18.46875 
C 17.5 18.46875 12.703125 20.546875 12.703125 28.484375 
C 12.703125 37.109375 18.203125 38.5 20.796875 38.5 
C 24.203125 38.5 29 36.421875 29 28.484375 
C 29 19.859375 23.5 18.46875 20.90625 18.46875 
M 24.703125 -0.15625 
C 27.09375 -0.15625 37.203125 -0.15625 37.203125 -6.90625 
C 37.203125 -11.15625 31 -14.515625 23.5 -14.515625 
C 15.90625 -14.515625 9.703125 -11.25 9.703125 -6.796875 
C 9.703125 -6.296875 9.703125 -0.15625 16.59375 -0.15625 
z
" id="CMSS17-103"/>
      <path d="M 40.90625 29.328125 
C 40.90625 35.671875 39.40625 44 28.09375 44 
C 21.703125 44 17.5 40.71875 14.703125 37.328125 
L 14.703125 43.09375 
L 7.40625 43.09375 
L 7.40625 0 
L 15 0 
L 15 24.359375 
C 15 30.6875 17.40625 37.9375 24.203125 37.9375 
C 33 37.9375 33.296875 32 33.296875 28.578125 
L 33.296875 0 
L 40.90625 0 
z
" id="CMSS17-110"/>
      <path d="M 15.296875 65.359375 
L 6.90625 65.359375 
L 6.90625 57 
L 15.296875 57 
z
M 14.796875 42.796875 
L 7.40625 42.796875 
L 7.40625 0 
L 14.796875 0 
z
" id="CMSS17-105"/>
      <path d="M 16.703125 37 
L 29.703125 37 
L 29.703125 42.765625 
L 16.703125 42.765625 
L 16.703125 55 
L 9.59375 55 
L 9.59375 42.765625 
L 1.703125 42.765625 
L 1.703125 37 
L 9.40625 37 
L 9.40625 11.703125 
C 9.40625 6 10.703125 -1 17.296875 -1 
C 22.296875 -1 26.90625 0.390625 31.296875 2.6875 
L 29.703125 8.5625 
C 27.296875 6.46875 24.40625 5.265625 21.296875 5.265625 
C 16.90625 5.265625 16.703125 10.875 16.703125 13.375 
z
" id="CMSS17-116"/>
      <path d="M 40.90625 42.796875 
L 33.296875 42.796875 
L 33.296875 15.1875 
C 33.296875 7.78125 27.90625 4.78125 22.203125 4.78125 
C 15.59375 4.78125 15 6.984375 15 11.078125 
L 15 42.796875 
L 7.40625 42.796875 
L 7.40625 10.59375 
C 7.40625 2.796875 10.09375 -1 17 -1 
C 20.40625 -1 28.09375 -0.203125 33.5 4.78125 
L 33.5 0 
L 40.90625 0 
z
" id="CMSS17-117"/>
      <path d="M 40.796875 69 
L 33.40625 69 
L 33.40625 38.09375 
C 30.296875 40.671875 25.203125 43.0625 19.59375 43.0625 
C 10.5 43.0625 3.296875 33.296875 3.296875 21.03125 
C 3.296875 8.78125 10.40625 -1 19.296875 -1 
C 26.203125 -1 30.796875 2.6875 33.203125 4.78125 
L 33.203125 -0.203125 
L 40.796875 -0.203125 
z
M 33.203125 13.0625 
C 33.203125 11.671875 33.203125 10.203125 30.09375 7.53125 
C 28.09375 5.859375 25.703125 5.078125 23.40625 5.078125 
C 18 5.078125 10.90625 9 10.90625 20.9375 
C 10.90625 33.34375 18.90625 37 24.40625 37 
C 28.09375 37 31.09375 35.21875 33.203125 32.265625 
z
" id="CMSS17-100"/>
      <path d="M 39.09375 21.515625 
C 39.09375 24.84375 38.90625 31.296875 35.703125 36.640625 
C 32.203125 42.390625 26.5 44 22.203125 44 
C 11.796875 44 3 34.1875 3 21.484375 
C 3 9.09375 12.09375 -1 23.59375 -1 
C 28.09375 -1 33.59375 0.296875 38.59375 3.875 
C 38.59375 4.28125 38.40625 6.46875 38.296875 6.5625 
C 38.296875 6.765625 38 9.84375 38 10.25 
C 33.203125 6.359375 27.703125 5.078125 23.703125 5.078125 
C 17.296875 5.078125 10.40625 10.421875 10.09375 21.515625 
z
M 10.90625 27 
C 12.203125 32.5625 16.59375 37.828125 22.203125 37.828125 
C 23.703125 37.828125 30.703125 37.828125 32.5 27 
z
" id="CMSS17-101"/>
      <path d="M 25.203125 74.5 
C 19.796875 69.015625 7.40625 56.265625 7.40625 24.8125 
C 7.40625 -6.765625 19.796875 -19.421875 25.203125 -25 
L 31.296875 -25 
C 19 -12.25 15 5.578125 15 24.6875 
C 15 43.71875 18.796875 61.65625 31.296875 74.5 
z
" id="CMSS17-40"/>
      <path d="M 8.90625 69 
L 8.90625 0 
L 33.796875 0 
C 47.40625 0 57.296875 8.96875 57.296875 18.75 
C 57.296875 26.328125 50.796875 34 39.09375 36.203125 
C 52.09375 39.96875 54.703125 47.5 54.703125 51.765625 
C 54.703125 60.671875 44.90625 69 31.203125 69 
z
M 17 39 
L 17 63.421875 
L 28.5 63.421875 
C 38.796875 63.421875 46.90625 58.1875 46.90625 51.65625 
C 46.90625 45.71875 40.5 39 27.59375 39 
z
M 17 5.578125 
L 17 32.921875 
L 30.296875 32.921875 
C 41.09375 32.921875 49.40625 26.234375 49.40625 18.84375 
C 49.40625 12.0625 42.09375 5.578125 31 5.578125 
z
" id="CMSS17-66"/>
      <path d="M 11.296875 -25 
C 16.703125 -19.515625 29.09375 -6.765625 29.09375 24.6875 
C 29.09375 56.265625 16.703125 68.921875 11.296875 74.5 
L 5.203125 74.5 
C 17.5 61.75 21.5 43.921875 21.5 24.8125 
C 21.5 5.78125 17.703125 -12.15625 5.203125 -25 
z
" id="CMSS17-41"/>
     </defs>
     <g transform="translate(22.97419 101.571043)rotate(-90)scale(0.1 -0.1)">
      <use transform="scale(0.996264)" xlink:href="#CMSS17-77"/>
      <use transform="translate(81.67603 0)scale(0.996264)" xlink:href="#CMSS17-97"/>
      <use transform="translate(126.597951 0)scale(0.996264)" xlink:href="#CMSS17-103"/>
      <use transform="translate(173.441574 0)scale(0.996264)" xlink:href="#CMSS17-110"/>
      <use transform="translate(221.646517 0)scale(0.996264)" xlink:href="#CMSS17-105"/>
      <use transform="translate(243.82724 0)scale(0.996264)" xlink:href="#CMSS17-116"/>
      <use transform="translate(277.658807 0)scale(0.996264)" xlink:href="#CMSS17-117"/>
      <use transform="translate(325.86375 0)scale(0.996264)" xlink:href="#CMSS17-100"/>
      <use transform="translate(374.068693 0)scale(0.996264)" xlink:href="#CMSS17-101"/>
      <use transform="translate(446.936628 0)scale(0.996264)" xlink:href="#CMSS17-40"/>
      <use transform="translate(483.370542 0)scale(0.996264)" xlink:href="#CMSS17-100"/>
      <use transform="translate(531.575485 0)scale(0.996264)" xlink:href="#CMSS17-66"/>
      <use transform="translate(593.913526 0)scale(0.996264)" xlink:href="#CMSS17-41"/>
     </g>
    </g>
   </g>
   <g id="line2d_87">
    <path clip-path="url(#pc9d1bf4797)" d="M 69.394446 40.84469 
L 72.468827 40.844646 
L 75.543207 40.844594 
L 78.617587 40.84453 
L 81.691967 40.844454 
L 84.766347 40.844362 
L 87.840727 40.844251 
L 90.915108 40.844117 
L 93.989488 40.843956 
L 97.063868 40.843762 
L 100.138248 40.843529 
L 103.212628 40.843248 
L 106.287008 40.842909 
L 109.361389 40.842501 
L 112.435769 40.842009 
L 115.510149 40.841417 
L 118.584529 40.840704 
L 121.658909 40.839845 
L 124.733289 40.83881 
L 127.80767 40.837563 
L 130.88205 40.836061 
L 133.95643 40.834252 
L 137.03081 40.832071 
L 140.10519 40.829445 
L 143.17957 40.82628 
L 146.25395 40.822467 
L 149.328331 40.817872 
L 152.402711 40.812334 
L 155.477091 40.805658 
L 158.551471 40.797612 
L 161.625851 40.78791 
L 164.700231 40.77621 
L 167.774612 40.762098 
L 170.848992 40.745071 
L 173.923372 40.72452 
L 176.997752 40.699703 
L 180.072132 40.669722 
L 183.146512 40.633479 
L 186.220893 40.589632 
L 189.295273 40.536536 
L 192.369653 40.47217 
L 195.444033 40.394035 
L 198.518413 40.299026 
L 201.592793 40.183264 
L 204.667174 40.04186 
L 207.741554 39.8686 
L 210.815934 39.655487 
L 213.890314 39.392089 
L 216.964694 39.064563 
L 220.039074 38.654147 
L 223.113455 38.134747 
L 226.187835 37.468895 
L 229.262215 36.600675 
L 232.336595 35.442818 
L 235.410975 33.853268 
L 238.485355 31.605634 
L 241.559736 28.547832 
L 244.634116 26.842386 
L 247.708496 30.575083 
L 250.782876 35.194859 
L 253.857256 38.989681 
L 256.931636 42.152466 
L 260.006017 44.901001 
L 263.080397 47.370494 
L 266.154777 49.644281 
L 269.229157 51.776 
L 272.303537 53.801741 
L 275.377917 55.746729 
L 278.452298 57.629148 
L 281.526678 59.46245 
L 284.601058 61.256785 
L 287.675438 63.01995 
L 290.749818 64.758011 
L 293.824198 66.475743 
L 296.898579 68.176941 
L 299.972959 69.864641 
L 303.047339 71.541291 
L 306.121719 73.20887 
L 309.196099 74.868991 
L 312.270479 76.522968 
L 315.34486 78.171878 
L 318.41924 79.816603 
L 321.49362 81.457869 
L 324.568 83.096274 
L 327.64238 84.732312 
L 330.71676 86.366388 
L 333.791141 87.998841 
L 336.865521 89.629946 
L 339.939901 91.259936 
L 343.014281 92.889 
L 346.088661 94.517297 
L 349.163041 96.144957 
L 352.237422 97.772088 
L 355.311802 99.398781 
L 358.386182 101.025111 
L 361.460562 102.651138 
L 364.534942 104.276915 
L 367.609322 105.902484 
L 370.683703 107.527881 
L 373.758083 109.153134 
" style="fill:none;stroke:#0000ff;stroke-linecap:square;stroke-width:1.5;"/>
   </g>
   <g id="line2d_88">
    <path clip-path="url(#pc9d1bf4797)" d="M 69.394446 40.844904 
L 244.481911 40.844904 
L 244.481911 26.792921 
L 244.481911 40.844904 
L 373.758083 109.156557 
" style="fill:none;stroke:#ff0000;stroke-dasharray:5.6,2.4;stroke-dashoffset:0;stroke-width:1.5;"/>
   </g>
   <g id="patch_3">
    <path d="M 54.176265 113.274739 
L 54.176265 22.674739 
" style="fill:none;stroke:#000000;stroke-linecap:square;stroke-linejoin:miter;stroke-width:0.8;"/>
   </g>
   <g id="patch_4">
    <path d="M 388.976265 113.274739 
L 388.976265 22.674739 
" style="fill:none;stroke:#000000;stroke-linecap:square;stroke-linejoin:miter;stroke-width:0.8;"/>
   </g>
   <g id="patch_5">
    <path d="M 54.176265 113.274739 
L 388.976265 113.274739 
" style="fill:none;stroke:#000000;stroke-linecap:square;stroke-linejoin:miter;stroke-width:0.8;"/>
   </g>
   <g id="patch_6">
    <path d="M 54.176265 22.674739 
L 388.976265 22.674739 
" style="fill:none;stroke:#000000;stroke-linecap:square;stroke-linejoin:miter;stroke-width:0.8;"/>
   </g>
   <g id="text_10">
    <!-- Bode Plot of $1/(0.25s^2+0.1s+1)$ -->
    <defs>
     <path d="M 44.203125 21.1875 
C 44.203125 34 34.703125 44 23.5 44 
C 12 44 2.703125 33.703125 2.703125 21.1875 
C 2.703125 8.5 12.296875 -1 23.40625 -1 
C 34.796875 -1 44.203125 8.796875 44.203125 21.1875 
M 23.5 5.265625 
C 16.40625 5.265625 10.296875 11.078125 10.296875 22 
C 10.296875 33.609375 17.40625 37.921875 23.40625 37.921875 
C 29.90625 37.921875 36.59375 33.21875 36.59375 22 
C 36.59375 10.671875 30.09375 5.265625 23.5 5.265625 
" id="CMSS17-111"/>
     <path d="M 32.90625 29 
C 44.90625 29 54.703125 38.328125 54.703125 49.34375 
C 54.703125 60.15625 45.296875 69.578125 32.296875 69.578125 
L 8.90625 69.578125 
L 8.90625 0 
L 17.296875 0 
L 17.296875 29 
z
M 30.09375 64 
C 41.703125 64 46.796875 56.671875 46.796875 49.328125 
C 46.796875 42.5 42.09375 34.78125 30.09375 34.78125 
L 17.09375 34.78125 
L 17.09375 64 
z
" id="CMSS17-80"/>
     <path d="M 14.796875 69 
L 7.40625 69 
L 7.40625 0 
L 14.796875 0 
z
" id="CMSS17-108"/>
     <path d="M 16.796875 37 
L 26.90625 37 
L 26.90625 42.765625 
L 16.59375 42.765625 
L 16.59375 55.609375 
C 16.59375 62.71875 22 63.9375 25.09375 63.9375 
C 26.09375 63.9375 28.90625 63.9375 32.5 62.640625 
L 32.5 69.203125 
C 30.203125 69.703125 27.40625 70 25.203125 70 
C 15.90625 70 9.40625 62.390625 9.40625 52.484375 
L 9.40625 42.765625 
L 2.5 42.765625 
L 2.5 37 
L 9.40625 37 
L 9.40625 0 
L 16.796875 0 
z
" id="CMSS17-102"/>
     <path d="M 42.90625 71.296875 
C 42.90625 71.40625 43.5 72.90625 43.5 73.09375 
C 43.5 74.296875 42.5 75 41.703125 75 
C 41.203125 75 40.296875 75 39.5 72.796875 
L 6 -21.296875 
C 6 -21.40625 5.40625 -22.890625 5.40625 -23.09375 
C 5.40625 -24.296875 6.40625 -25 7.203125 -25 
C 7.796875 -25 8.703125 -24.890625 9.40625 -22.796875 
z
" id="CMMI12-61"/>
     <path d="M 30.59375 -24.390625 
C 30.59375 -24.296875 30.59375 -24.09375 30.296875 -23.796875 
C 25.703125 -19.125 13.40625 -6.359375 13.40625 24.6875 
C 13.40625 55.765625 25.5 68.421875 30.40625 73.390625 
C 30.40625 73.5 30.59375 73.703125 30.59375 74 
C 30.59375 74.296875 30.296875 74.5 29.90625 74.5 
C 28.796875 74.5 20.296875 67.125 15.40625 56.15625 
C 10.40625 45.109375 9 34.359375 9 24.8125 
C 9 17.625 9.703125 5.484375 15.703125 -7.359375 
C 20.5 -17.734375 28.703125 -25 29.90625 -25 
C 30.40625 -25 30.59375 -24.796875 30.59375 -24.390625 
" id="CMR17-40"/>
     <path d="M 18.40625 4.796875 
C 18.40625 7.6875 16 9.671875 13.59375 9.671875 
C 10.703125 9.671875 8.703125 7.28125 8.703125 4.890625 
C 8.703125 2 11.09375 0 13.5 0 
C 16.40625 0 18.40625 2.390625 18.40625 4.796875 
" id="CMMI12-58"/>
     <path d="M 22.796875 20 
C 24.5 19.703125 27.203125 19.109375 27.796875 19 
C 29.09375 18.625 33.59375 17.03125 33.59375 12.234375 
C 33.59375 9.15625 30.796875 1.09375 19.203125 1.09375 
C 17.09375 1.09375 9.59375 1.09375 7.59375 6.8125 
C 11.59375 6.3125 13.59375 9.421875 13.59375 11.640625 
C 13.59375 13.75 12.203125 14.84375 10.203125 14.84375 
C 8 14.84375 5.09375 13.140625 5.09375 8.625 
C 5.09375 2.703125 11.09375 -1 19.09375 -1 
C 34.296875 -1 38.796875 10.171875 38.796875 15.375 
C 38.796875 16.859375 38.796875 19.65625 35.59375 22.84375 
C 33.09375 25.25 30.703125 25.75 25.296875 26.84375 
C 22.59375 27.4375 18.296875 28.34375 18.296875 32.828125 
C 18.296875 34.828125 20.09375 42.015625 29.59375 42.015625 
C 33.796875 42.015625 37.90625 40.453125 38.90625 37 
C 34.5 37 34.296875 33.203125 34.296875 33.109375 
C 34.296875 31 36.203125 30.40625 37.09375 30.40625 
C 38.5 30.40625 41.296875 31.484375 41.296875 35.640625 
C 41.296875 39.765625 37.5 44 29.703125 44 
C 16.59375 44 13.09375 33.75 13.09375 29.671875 
C 13.09375 22.09375 20.5 20.5 22.796875 20 
" id="CMMI12-115"/>
     <path d="M 37.703125 23 
L 64.203125 23 
C 65.59375 23 67.296875 23 67.296875 24.6875 
C 67.296875 26.484375 65.703125 26.484375 64.203125 26.484375 
L 37.703125 26.484375 
L 37.703125 52.90625 
C 37.703125 54.296875 37.703125 56 36 56 
C 34.203125 56 34.203125 54.40625 34.203125 52.90625 
L 34.203125 26.484375 
L 7.703125 26.484375 
C 6.296875 26.484375 4.59375 26.484375 4.59375 24.796875 
C 4.59375 23 6.203125 23 7.703125 23 
L 34.203125 23 
L 34.203125 -3.40625 
C 34.203125 -4.796875 34.203125 -6.5 35.90625 -6.5 
C 37.703125 -6.5 37.703125 -4.90625 37.703125 -3.40625 
z
" id="CMR17-43"/>
     <path d="M 26.296875 24.6875 
C 26.296875 31.875 25.59375 44.015625 19.59375 56.859375 
C 14.796875 67.234375 6.59375 74.5 5.40625 74.5 
C 5.09375 74.5 4.703125 74.390625 4.703125 73.890625 
C 4.703125 73.703125 4.796875 73.59375 4.90625 73.390625 
C 9.703125 68.40625 21.90625 55.75 21.90625 24.75 
C 21.90625 -6.359375 9.796875 -19.015625 4.90625 -24.015625 
C 4.796875 -24.203125 4.703125 -24.3125 4.703125 -24.5 
C 4.703125 -25 5.09375 -25 5.40625 -25 
C 6.5 -25 15 -17.625 19.90625 -6.65625 
C 24.90625 4.390625 26.296875 15.140625 26.296875 24.6875 
" id="CMR17-41"/>
    </defs>
    <g transform="translate(134.77766 16.674739)scale(0.12 -0.12)">
     <use transform="scale(0.996264)" xlink:href="#CMSS17-66"/>
     <use transform="translate(62.33804 0)scale(0.996264)" xlink:href="#CMSS17-111"/>
     <use transform="translate(111.784102 0)scale(0.996264)" xlink:href="#CMSS17-100"/>
     <use transform="translate(159.989046 0)scale(0.996264)" xlink:href="#CMSS17-101"/>
     <use transform="translate(232.85698 0)scale(0.996264)" xlink:href="#CMSS17-80"/>
     <use transform="translate(292.592567 0)scale(0.996264)" xlink:href="#CMSS17-108"/>
     <use transform="translate(314.77329 0)scale(0.996264)" xlink:href="#CMSS17-111"/>
     <use transform="translate(361.616913 0)scale(0.996264)" xlink:href="#CMSS17-116"/>
     <use transform="translate(426.677593 0)scale(0.996264)" xlink:href="#CMSS17-111"/>
     <use transform="translate(473.521216 0)scale(0.996264)" xlink:href="#CMSS17-102"/>
     <use transform="translate(533.376988 0)scale(0.996264)" xlink:href="#CMR17-49"/>
     <use transform="translate(579.067465 0)scale(0.996264)" xlink:href="#CMMI12-61"/>
     <use transform="translate(627.842384 0)scale(0.996264)" xlink:href="#CMR17-40"/>
     <use transform="translate(663.123151 0)scale(0.996264)" xlink:href="#CMR17-48"/>
     <use transform="translate(708.813629 0)scale(0.996264)" xlink:href="#CMMI12-58"/>
     <use transform="translate(735.910806 0)scale(0.996264)" xlink:href="#CMR17-50"/>
     <use transform="translate(781.601283 0)scale(0.996264)" xlink:href="#CMR17-53"/>
     <use transform="translate(827.29176 0)scale(0.996264)" xlink:href="#CMMI12-115"/>
     <use transform="translate(873.241807 36.153639)scale(0.697382)" xlink:href="#CMR17-50"/>
     <use transform="translate(927.862328 0)scale(0.996264)" xlink:href="#CMR17-43"/>
     <use transform="translate(1021.716324 0)scale(0.996264)" xlink:href="#CMR17-48"/>
     <use transform="translate(1067.406801 0)scale(0.996264)" xlink:href="#CMMI12-58"/>
     <use transform="translate(1094.503978 0)scale(0.996264)" xlink:href="#CMR17-49"/>
     <use transform="translate(1140.194455 0)scale(0.996264)" xlink:href="#CMMI12-115"/>
     <use transform="translate(1208.28371 0)scale(0.996264)" xlink:href="#CMR17-43"/>
     <use transform="translate(1302.137705 0)scale(0.996264)" xlink:href="#CMR17-49"/>
     <use transform="translate(1347.828182 0)scale(0.996264)" xlink:href="#CMR17-41"/>
    </g>
   </g>
  </g>
  <g id="axes_2">
   <g id="patch_7">
    <path d="M 54.176265 240.114739 
L 388.976265 240.114739 
L 388.976265 149.514739 
L 54.176265 149.514739 
z
" style="fill:#ffffff;"/>
   </g>
   <g id="matplotlib.axis_3">
    <g id="xtick_41">
     <g id="line2d_89">
      <path clip-path="url(#pb4094be970)" d="M 69.394446 240.114739 
L 69.394446 149.514739 
" style="fill:none;stroke:#b0b0b0;stroke-linecap:square;stroke-width:0.8;"/>
     </g>
     <g id="line2d_90">
      <g>
       <use style="stroke:#000000;stroke-width:0.8;" x="69.394446" xlink:href="#ma8cf606343" y="240.114739"/>
      </g>
     </g>
     <g id="text_11">
      <!-- $10^{-2}$ -->
      <g transform="translate(59.31416 254.033237)scale(0.1 -0.1)">
       <use transform="scale(0.996264)" xlink:href="#CMR17-49"/>
       <use transform="translate(45.690477 0)scale(0.996264)" xlink:href="#CMR17-48"/>
       <use transform="translate(91.380954 36.153639)scale(0.697382)" xlink:href="#CMSY10-0"/>
       <use transform="translate(145.621947 36.153639)scale(0.697382)" xlink:href="#CMR17-50"/>
      </g>
     </g>
    </g>
    <g id="xtick_42">
     <g id="line2d_91">
      <path clip-path="url(#pb4094be970)" d="M 145.485355 240.114739 
L 145.485355 149.514739 
" style="fill:none;stroke:#b0b0b0;stroke-linecap:square;stroke-width:0.8;"/>
     </g>
     <g id="line2d_92">
      <g>
       <use style="stroke:#000000;stroke-width:0.8;" x="145.485355" xlink:href="#ma8cf606343" y="240.114739"/>
      </g>
     </g>
     <g id="text_12">
      <!-- $10^{-1}$ -->
      <g transform="translate(135.405069 254.033237)scale(0.1 -0.1)">
       <use transform="scale(0.996264)" xlink:href="#CMR17-49"/>
       <use transform="translate(45.690477 0)scale(0.996264)" xlink:href="#CMR17-48"/>
       <use transform="translate(91.380954 36.153639)scale(0.697382)" xlink:href="#CMSY10-0"/>
       <use transform="translate(145.621947 36.153639)scale(0.697382)" xlink:href="#CMR17-49"/>
      </g>
     </g>
    </g>
    <g id="xtick_43">
     <g id="line2d_93">
      <path clip-path="url(#pb4094be970)" d="M 221.576265 240.114739 
L 221.576265 149.514739 
" style="fill:none;stroke:#b0b0b0;stroke-linecap:square;stroke-width:0.8;"/>
     </g>
     <g id="line2d_94">
      <g>
       <use style="stroke:#000000;stroke-width:0.8;" x="221.576265" xlink:href="#ma8cf606343" y="240.114739"/>
      </g>
     </g>
     <g id="text_13">
      <!-- $10^{0}$ -->
      <g transform="translate(214.60931 254.033237)scale(0.1 -0.1)">
       <use transform="scale(0.996264)" xlink:href="#CMR17-49"/>
       <use transform="translate(45.690477 0)scale(0.996264)" xlink:href="#CMR17-48"/>
       <use transform="translate(91.380954 36.153639)scale(0.697382)" xlink:href="#CMR17-48"/>
      </g>
     </g>
    </g>
    <g id="xtick_44">
     <g id="line2d_95">
      <path clip-path="url(#pb4094be970)" d="M 297.667174 240.114739 
L 297.667174 149.514739 
" style="fill:none;stroke:#b0b0b0;stroke-linecap:square;stroke-width:0.8;"/>
     </g>
     <g id="line2d_96">
      <g>
       <use style="stroke:#000000;stroke-width:0.8;" x="297.667174" xlink:href="#ma8cf606343" y="240.114739"/>
      </g>
     </g>
     <g id="text_14">
      <!-- $10^{1}$ -->
      <g transform="translate(290.70022 254.033237)scale(0.1 -0.1)">
       <use transform="scale(0.996264)" xlink:href="#CMR17-49"/>
       <use transform="translate(45.690477 0)scale(0.996264)" xlink:href="#CMR17-48"/>
       <use transform="translate(91.380954 36.153639)scale(0.697382)" xlink:href="#CMR17-49"/>
      </g>
     </g>
    </g>
    <g id="xtick_45">
     <g id="line2d_97">
      <path clip-path="url(#pb4094be970)" d="M 373.758083 240.114739 
L 373.758083 149.514739 
" style="fill:none;stroke:#b0b0b0;stroke-linecap:square;stroke-width:0.8;"/>
     </g>
     <g id="line2d_98">
      <g>
       <use style="stroke:#000000;stroke-width:0.8;" x="373.758083" xlink:href="#ma8cf606343" y="240.114739"/>
      </g>
     </g>
     <g id="text_15">
      <!-- $10^{2}$ -->
      <g transform="translate(366.791129 254.033237)scale(0.1 -0.1)">
       <use transform="scale(0.996264)" xlink:href="#CMR17-49"/>
       <use transform="translate(45.690477 0)scale(0.996264)" xlink:href="#CMR17-48"/>
       <use transform="translate(91.380954 36.153639)scale(0.697382)" xlink:href="#CMR17-50"/>
      </g>
     </g>
    </g>
    <g id="xtick_46">
     <g id="line2d_99">
      <path clip-path="url(#pb4094be970)" d="M 57.607815 240.114739 
L 57.607815 149.514739 
" style="fill:none;stroke:#b0b0b0;stroke-linecap:square;stroke-width:0.8;"/>
     </g>
     <g id="line2d_100">
      <g>
       <use style="stroke:#000000;stroke-width:0.6;" x="57.607815" xlink:href="#m54f24c0aec" y="240.114739"/>
      </g>
     </g>
    </g>
    <g id="xtick_47">
     <g id="line2d_101">
      <path clip-path="url(#pb4094be970)" d="M 62.020475 240.114739 
L 62.020475 149.514739 
" style="fill:none;stroke:#b0b0b0;stroke-linecap:square;stroke-width:0.8;"/>
     </g>
     <g id="line2d_102">
      <g>
       <use style="stroke:#000000;stroke-width:0.6;" x="62.020475" xlink:href="#m54f24c0aec" y="240.114739"/>
      </g>
     </g>
    </g>
    <g id="xtick_48">
     <g id="line2d_103">
      <path clip-path="url(#pb4094be970)" d="M 65.912717 240.114739 
L 65.912717 149.514739 
" style="fill:none;stroke:#b0b0b0;stroke-linecap:square;stroke-width:0.8;"/>
     </g>
     <g id="line2d_104">
      <g>
       <use style="stroke:#000000;stroke-width:0.6;" x="65.912717" xlink:href="#m54f24c0aec" y="240.114739"/>
      </g>
     </g>
    </g>
    <g id="xtick_49">
     <g id="line2d_105">
      <path clip-path="url(#pb4094be970)" d="M 92.300092 240.114739 
L 92.300092 149.514739 
" style="fill:none;stroke:#b0b0b0;stroke-linecap:square;stroke-width:0.8;"/>
     </g>
     <g id="line2d_106">
      <g>
       <use style="stroke:#000000;stroke-width:0.6;" x="92.300092" xlink:href="#m54f24c0aec" y="240.114739"/>
      </g>
     </g>
    </g>
    <g id="xtick_50">
     <g id="line2d_107">
      <path clip-path="url(#pb4094be970)" d="M 105.699036 240.114739 
L 105.699036 149.514739 
" style="fill:none;stroke:#b0b0b0;stroke-linecap:square;stroke-width:0.8;"/>
     </g>
     <g id="line2d_108">
      <g>
       <use style="stroke:#000000;stroke-width:0.6;" x="105.699036" xlink:href="#m54f24c0aec" y="240.114739"/>
      </g>
     </g>
    </g>
    <g id="xtick_51">
     <g id="line2d_109">
      <path clip-path="url(#pb4094be970)" d="M 115.205738 240.114739 
L 115.205738 149.514739 
" style="fill:none;stroke:#b0b0b0;stroke-linecap:square;stroke-width:0.8;"/>
     </g>
     <g id="line2d_110">
      <g>
       <use style="stroke:#000000;stroke-width:0.6;" x="115.205738" xlink:href="#m54f24c0aec" y="240.114739"/>
      </g>
     </g>
    </g>
    <g id="xtick_52">
     <g id="line2d_111">
      <path clip-path="url(#pb4094be970)" d="M 122.579709 240.114739 
L 122.579709 149.514739 
" style="fill:none;stroke:#b0b0b0;stroke-linecap:square;stroke-width:0.8;"/>
     </g>
     <g id="line2d_112">
      <g>
       <use style="stroke:#000000;stroke-width:0.6;" x="122.579709" xlink:href="#m54f24c0aec" y="240.114739"/>
      </g>
     </g>
    </g>
    <g id="xtick_53">
     <g id="line2d_113">
      <path clip-path="url(#pb4094be970)" d="M 128.604682 240.114739 
L 128.604682 149.514739 
" style="fill:none;stroke:#b0b0b0;stroke-linecap:square;stroke-width:0.8;"/>
     </g>
     <g id="line2d_114">
      <g>
       <use style="stroke:#000000;stroke-width:0.6;" x="128.604682" xlink:href="#m54f24c0aec" y="240.114739"/>
      </g>
     </g>
    </g>
    <g id="xtick_54">
     <g id="line2d_115">
      <path clip-path="url(#pb4094be970)" d="M 133.698724 240.114739 
L 133.698724 149.514739 
" style="fill:none;stroke:#b0b0b0;stroke-linecap:square;stroke-width:0.8;"/>
     </g>
     <g id="line2d_116">
      <g>
       <use style="stroke:#000000;stroke-width:0.6;" x="133.698724" xlink:href="#m54f24c0aec" y="240.114739"/>
      </g>
     </g>
    </g>
    <g id="xtick_55">
     <g id="line2d_117">
      <path clip-path="url(#pb4094be970)" d="M 138.111384 240.114739 
L 138.111384 149.514739 
" style="fill:none;stroke:#b0b0b0;stroke-linecap:square;stroke-width:0.8;"/>
     </g>
     <g id="line2d_118">
      <g>
       <use style="stroke:#000000;stroke-width:0.6;" x="138.111384" xlink:href="#m54f24c0aec" y="240.114739"/>
      </g>
     </g>
    </g>
    <g id="xtick_56">
     <g id="line2d_119">
      <path clip-path="url(#pb4094be970)" d="M 142.003626 240.114739 
L 142.003626 149.514739 
" style="fill:none;stroke:#b0b0b0;stroke-linecap:square;stroke-width:0.8;"/>
     </g>
     <g id="line2d_120">
      <g>
       <use style="stroke:#000000;stroke-width:0.6;" x="142.003626" xlink:href="#m54f24c0aec" y="240.114739"/>
      </g>
     </g>
    </g>
    <g id="xtick_57">
     <g id="line2d_121">
      <path clip-path="url(#pb4094be970)" d="M 168.391001 240.114739 
L 168.391001 149.514739 
" style="fill:none;stroke:#b0b0b0;stroke-linecap:square;stroke-width:0.8;"/>
     </g>
     <g id="line2d_122">
      <g>
       <use style="stroke:#000000;stroke-width:0.6;" x="168.391001" xlink:href="#m54f24c0aec" y="240.114739"/>
      </g>
     </g>
    </g>
    <g id="xtick_58">
     <g id="line2d_123">
      <path clip-path="url(#pb4094be970)" d="M 181.789945 240.114739 
L 181.789945 149.514739 
" style="fill:none;stroke:#b0b0b0;stroke-linecap:square;stroke-width:0.8;"/>
     </g>
     <g id="line2d_124">
      <g>
       <use style="stroke:#000000;stroke-width:0.6;" x="181.789945" xlink:href="#m54f24c0aec" y="240.114739"/>
      </g>
     </g>
    </g>
    <g id="xtick_59">
     <g id="line2d_125">
      <path clip-path="url(#pb4094be970)" d="M 191.296648 240.114739 
L 191.296648 149.514739 
" style="fill:none;stroke:#b0b0b0;stroke-linecap:square;stroke-width:0.8;"/>
     </g>
     <g id="line2d_126">
      <g>
       <use style="stroke:#000000;stroke-width:0.6;" x="191.296648" xlink:href="#m54f24c0aec" y="240.114739"/>
      </g>
     </g>
    </g>
    <g id="xtick_60">
     <g id="line2d_127">
      <path clip-path="url(#pb4094be970)" d="M 198.670619 240.114739 
L 198.670619 149.514739 
" style="fill:none;stroke:#b0b0b0;stroke-linecap:square;stroke-width:0.8;"/>
     </g>
     <g id="line2d_128">
      <g>
       <use style="stroke:#000000;stroke-width:0.6;" x="198.670619" xlink:href="#m54f24c0aec" y="240.114739"/>
      </g>
     </g>
    </g>
    <g id="xtick_61">
     <g id="line2d_129">
      <path clip-path="url(#pb4094be970)" d="M 204.695592 240.114739 
L 204.695592 149.514739 
" style="fill:none;stroke:#b0b0b0;stroke-linecap:square;stroke-width:0.8;"/>
     </g>
     <g id="line2d_130">
      <g>
       <use style="stroke:#000000;stroke-width:0.6;" x="204.695592" xlink:href="#m54f24c0aec" y="240.114739"/>
      </g>
     </g>
    </g>
    <g id="xtick_62">
     <g id="line2d_131">
      <path clip-path="url(#pb4094be970)" d="M 209.789634 240.114739 
L 209.789634 149.514739 
" style="fill:none;stroke:#b0b0b0;stroke-linecap:square;stroke-width:0.8;"/>
     </g>
     <g id="line2d_132">
      <g>
       <use style="stroke:#000000;stroke-width:0.6;" x="209.789634" xlink:href="#m54f24c0aec" y="240.114739"/>
      </g>
     </g>
    </g>
    <g id="xtick_63">
     <g id="line2d_133">
      <path clip-path="url(#pb4094be970)" d="M 214.202294 240.114739 
L 214.202294 149.514739 
" style="fill:none;stroke:#b0b0b0;stroke-linecap:square;stroke-width:0.8;"/>
     </g>
     <g id="line2d_134">
      <g>
       <use style="stroke:#000000;stroke-width:0.6;" x="214.202294" xlink:href="#m54f24c0aec" y="240.114739"/>
      </g>
     </g>
    </g>
    <g id="xtick_64">
     <g id="line2d_135">
      <path clip-path="url(#pb4094be970)" d="M 218.094535 240.114739 
L 218.094535 149.514739 
" style="fill:none;stroke:#b0b0b0;stroke-linecap:square;stroke-width:0.8;"/>
     </g>
     <g id="line2d_136">
      <g>
       <use style="stroke:#000000;stroke-width:0.6;" x="218.094535" xlink:href="#m54f24c0aec" y="240.114739"/>
      </g>
     </g>
    </g>
    <g id="xtick_65">
     <g id="line2d_137">
      <path clip-path="url(#pb4094be970)" d="M 244.481911 240.114739 
L 244.481911 149.514739 
" style="fill:none;stroke:#b0b0b0;stroke-linecap:square;stroke-width:0.8;"/>
     </g>
     <g id="line2d_138">
      <g>
       <use style="stroke:#000000;stroke-width:0.6;" x="244.481911" xlink:href="#m54f24c0aec" y="240.114739"/>
      </g>
     </g>
    </g>
    <g id="xtick_66">
     <g id="line2d_139">
      <path clip-path="url(#pb4094be970)" d="M 257.880855 240.114739 
L 257.880855 149.514739 
" style="fill:none;stroke:#b0b0b0;stroke-linecap:square;stroke-width:0.8;"/>
     </g>
     <g id="line2d_140">
      <g>
       <use style="stroke:#000000;stroke-width:0.6;" x="257.880855" xlink:href="#m54f24c0aec" y="240.114739"/>
      </g>
     </g>
    </g>
    <g id="xtick_67">
     <g id="line2d_141">
      <path clip-path="url(#pb4094be970)" d="M 267.387557 240.114739 
L 267.387557 149.514739 
" style="fill:none;stroke:#b0b0b0;stroke-linecap:square;stroke-width:0.8;"/>
     </g>
     <g id="line2d_142">
      <g>
       <use style="stroke:#000000;stroke-width:0.6;" x="267.387557" xlink:href="#m54f24c0aec" y="240.114739"/>
      </g>
     </g>
    </g>
    <g id="xtick_68">
     <g id="line2d_143">
      <path clip-path="url(#pb4094be970)" d="M 274.761528 240.114739 
L 274.761528 149.514739 
" style="fill:none;stroke:#b0b0b0;stroke-linecap:square;stroke-width:0.8;"/>
     </g>
     <g id="line2d_144">
      <g>
       <use style="stroke:#000000;stroke-width:0.6;" x="274.761528" xlink:href="#m54f24c0aec" y="240.114739"/>
      </g>
     </g>
    </g>
    <g id="xtick_69">
     <g id="line2d_145">
      <path clip-path="url(#pb4094be970)" d="M 280.786501 240.114739 
L 280.786501 149.514739 
" style="fill:none;stroke:#b0b0b0;stroke-linecap:square;stroke-width:0.8;"/>
     </g>
     <g id="line2d_146">
      <g>
       <use style="stroke:#000000;stroke-width:0.6;" x="280.786501" xlink:href="#m54f24c0aec" y="240.114739"/>
      </g>
     </g>
    </g>
    <g id="xtick_70">
     <g id="line2d_147">
      <path clip-path="url(#pb4094be970)" d="M 285.880543 240.114739 
L 285.880543 149.514739 
" style="fill:none;stroke:#b0b0b0;stroke-linecap:square;stroke-width:0.8;"/>
     </g>
     <g id="line2d_148">
      <g>
       <use style="stroke:#000000;stroke-width:0.6;" x="285.880543" xlink:href="#m54f24c0aec" y="240.114739"/>
      </g>
     </g>
    </g>
    <g id="xtick_71">
     <g id="line2d_149">
      <path clip-path="url(#pb4094be970)" d="M 290.293203 240.114739 
L 290.293203 149.514739 
" style="fill:none;stroke:#b0b0b0;stroke-linecap:square;stroke-width:0.8;"/>
     </g>
     <g id="line2d_150">
      <g>
       <use style="stroke:#000000;stroke-width:0.6;" x="290.293203" xlink:href="#m54f24c0aec" y="240.114739"/>
      </g>
     </g>
    </g>
    <g id="xtick_72">
     <g id="line2d_151">
      <path clip-path="url(#pb4094be970)" d="M 294.185445 240.114739 
L 294.185445 149.514739 
" style="fill:none;stroke:#b0b0b0;stroke-linecap:square;stroke-width:0.8;"/>
     </g>
     <g id="line2d_152">
      <g>
       <use style="stroke:#000000;stroke-width:0.6;" x="294.185445" xlink:href="#m54f24c0aec" y="240.114739"/>
      </g>
     </g>
    </g>
    <g id="xtick_73">
     <g id="line2d_153">
      <path clip-path="url(#pb4094be970)" d="M 320.57282 240.114739 
L 320.57282 149.514739 
" style="fill:none;stroke:#b0b0b0;stroke-linecap:square;stroke-width:0.8;"/>
     </g>
     <g id="line2d_154">
      <g>
       <use style="stroke:#000000;stroke-width:0.6;" x="320.57282" xlink:href="#m54f24c0aec" y="240.114739"/>
      </g>
     </g>
    </g>
    <g id="xtick_74">
     <g id="line2d_155">
      <path clip-path="url(#pb4094be970)" d="M 333.971764 240.114739 
L 333.971764 149.514739 
" style="fill:none;stroke:#b0b0b0;stroke-linecap:square;stroke-width:0.8;"/>
     </g>
     <g id="line2d_156">
      <g>
       <use style="stroke:#000000;stroke-width:0.6;" x="333.971764" xlink:href="#m54f24c0aec" y="240.114739"/>
      </g>
     </g>
    </g>
    <g id="xtick_75">
     <g id="line2d_157">
      <path clip-path="url(#pb4094be970)" d="M 343.478466 240.114739 
L 343.478466 149.514739 
" style="fill:none;stroke:#b0b0b0;stroke-linecap:square;stroke-width:0.8;"/>
     </g>
     <g id="line2d_158">
      <g>
       <use style="stroke:#000000;stroke-width:0.6;" x="343.478466" xlink:href="#m54f24c0aec" y="240.114739"/>
      </g>
     </g>
    </g>
    <g id="xtick_76">
     <g id="line2d_159">
      <path clip-path="url(#pb4094be970)" d="M 350.852437 240.114739 
L 350.852437 149.514739 
" style="fill:none;stroke:#b0b0b0;stroke-linecap:square;stroke-width:0.8;"/>
     </g>
     <g id="line2d_160">
      <g>
       <use style="stroke:#000000;stroke-width:0.6;" x="350.852437" xlink:href="#m54f24c0aec" y="240.114739"/>
      </g>
     </g>
    </g>
    <g id="xtick_77">
     <g id="line2d_161">
      <path clip-path="url(#pb4094be970)" d="M 356.87741 240.114739 
L 356.87741 149.514739 
" style="fill:none;stroke:#b0b0b0;stroke-linecap:square;stroke-width:0.8;"/>
     </g>
     <g id="line2d_162">
      <g>
       <use style="stroke:#000000;stroke-width:0.6;" x="356.87741" xlink:href="#m54f24c0aec" y="240.114739"/>
      </g>
     </g>
    </g>
    <g id="xtick_78">
     <g id="line2d_163">
      <path clip-path="url(#pb4094be970)" d="M 361.971452 240.114739 
L 361.971452 149.514739 
" style="fill:none;stroke:#b0b0b0;stroke-linecap:square;stroke-width:0.8;"/>
     </g>
     <g id="line2d_164">
      <g>
       <use style="stroke:#000000;stroke-width:0.6;" x="361.971452" xlink:href="#m54f24c0aec" y="240.114739"/>
      </g>
     </g>
    </g>
    <g id="xtick_79">
     <g id="line2d_165">
      <path clip-path="url(#pb4094be970)" d="M 366.384112 240.114739 
L 366.384112 149.514739 
" style="fill:none;stroke:#b0b0b0;stroke-linecap:square;stroke-width:0.8;"/>
     </g>
     <g id="line2d_166">
      <g>
       <use style="stroke:#000000;stroke-width:0.6;" x="366.384112" xlink:href="#m54f24c0aec" y="240.114739"/>
      </g>
     </g>
    </g>
    <g id="xtick_80">
     <g id="line2d_167">
      <path clip-path="url(#pb4094be970)" d="M 370.276354 240.114739 
L 370.276354 149.514739 
" style="fill:none;stroke:#b0b0b0;stroke-linecap:square;stroke-width:0.8;"/>
     </g>
     <g id="line2d_168">
      <g>
       <use style="stroke:#000000;stroke-width:0.6;" x="370.276354" xlink:href="#m54f24c0aec" y="240.114739"/>
      </g>
     </g>
    </g>
    <g id="text_16">
     <!-- Frequency (rad/sec) -->
     <defs>
      <path d="M 45.59375 31 
L 45.59375 37.078125 
L 17.203125 37.078125 
L 17.203125 62 
L 29.40625 62 
C 30.59375 62 31.796875 62 33 62 
L 49.5 62 
L 49.5 68.359375 
L 8.796875 68.359375 
L 8.796875 -0.5 
L 17.203125 -0.5 
L 17.203125 31 
z
" id="CMSS17-70"/>
      <path d="M 14.90625 21.296875 
C 14.90625 30.703125 21.796875 37 30.59375 37 
L 30.59375 43.578125 
C 24.203125 43.578125 18.203125 40.390625 14.59375 35.203125 
L 14.59375 43.09375 
L 7.5 43.09375 
L 7.5 0 
L 14.90625 0 
z
" id="CMSS17-114"/>
      <path d="M 40.796875 44 
L 33.40625 44 
L 33.40625 37.9375 
C 33 38.4375 28.40625 44 20.59375 44 
C 11.5 44 3.296875 34.8125 3.296875 21.859375 
C 3.296875 9.890625 10.203125 -0.078125 19.203125 -0.078125 
C 23.40625 -0.078125 28.703125 1.421875 33.203125 5.703125 
L 33.203125 -19 
L 40.796875 -19 
z
M 33.40625 14.28125 
C 33.40625 13 33.40625 11.21875 30.296875 8.65625 
C 29.5 7.96875 27.296875 6 23.5 6 
C 16.40625 6 10.90625 13.28125 10.90625 21.859375 
C 10.90625 31.421875 17.59375 37.734375 24.40625 37.734375 
C 30.09375 37.734375 33.40625 32.203125 33.40625 28.078125 
z
" id="CMSS17-113"/>
      <path d="M 38.5 39.703125 
C 38.5 40.390625 33.90625 42.40625 32.703125 42.796875 
C 29.40625 44 25.203125 44 24.09375 44 
C 11.09375 44 3.296875 32.703125 3.296875 21.296875 
C 3.296875 9.296875 12 -1 23.703125 -1 
C 30.40625 -1 35.203125 1.1875 39.09375 3.78125 
L 38.5 10.375 
C 34.203125 7.078125 29.203125 5.265625 23.796875 5.265625 
C 16 5.265625 10.90625 12.09375 10.90625 21.390625 
C 10.90625 28.609375 14.203125 37.71875 24.203125 37.71875 
C 29.703125 37.71875 32.796875 36.609375 37.40625 33.515625 
z
" id="CMSS17-99"/>
      <path d="M 41.796875 43 
L 34 43 
C 25.5 20.21875 22.59375 10.96875 22.40625 5.984375 
L 22.296875 5.984375 
C 22 10.875 17.59375 22.8125 14.09375 31.359375 
L 9.40625 43 
L 1.296875 43 
L 19 0.203125 
C 17.90625 -2.78125 16.296875 -7.265625 15.796875 -8.265625 
C 13.59375 -13.828125 12.09375 -13.828125 10.5 -13.828125 
C 10.09375 -13.828125 6.90625 -13.828125 3.296875 -12.640625 
L 3.90625 -19.203125 
C 6.40625 -19.703125 8.90625 -20 10.703125 -20 
C 13.203125 -20 18.203125 -20 22.796875 -7.765625 
z
" id="CMSS17-121"/>
      <path d="M 41.203125 71.015625 
C 41.703125 72.296875 41.703125 72.5 41.703125 72.703125 
C 41.703125 73.890625 40.796875 74.5 40 74.5 
C 38.796875 74.5 38.40625 73.703125 38 72.5 
L 5.703125 -21.515625 
C 5.203125 -22.8125 5.203125 -23.015625 5.203125 -23.21875 
C 5.203125 -24.40625 6.09375 -25 6.90625 -25 
C 8.09375 -25 8.5 -24.203125 8.90625 -23.015625 
z
" id="CMSS17-47"/>
      <path d="M 32.203125 41.046875 
C 26.296875 43.859375 21.703125 43.859375 18.703125 43.859375 
C 11.59375 43.859375 3.09375 41.375 3.09375 31.296875 
C 3.09375 21.234375 14.09375 19.03125 17.09375 18.421875 
C 21.703125 17.53125 26.796875 16.53125 26.796875 11.5625 
C 26.796875 5.265625 19.59375 5.265625 18.296875 5.265625 
C 14.296875 5.265625 8.796875 6.359375 3.796875 9.96875 
L 2.59375 3.28125 
C 8.296875 0 13.796875 -1 18.40625 -1 
C 30.703125 -1 33.796875 6.5 33.796875 12.203125 
C 33.796875 17.09375 31 20.390625 29.09375 21.890625 
C 25.796875 24.5 24.59375 24.796875 16.40625 26.5 
C 15 26.703125 10.09375 27.796875 10.09375 32.28125 
C 10.09375 38 16.40625 38 17.796875 38 
C 24.296875 38 28.296875 35.984375 31 34.5 
z
" id="CMSS17-115"/>
     </defs>
     <g transform="translate(179.484042 267.442396)scale(0.1 -0.1)">
      <use transform="scale(0.996264)" xlink:href="#CMSS17-70"/>
      <use transform="translate(50.687105 0)scale(0.996264)" xlink:href="#CMSS17-114"/>
      <use transform="translate(82.596878 0)scale(0.996264)" xlink:href="#CMSS17-101"/>
      <use transform="translate(124.2357 0)scale(0.996264)" xlink:href="#CMSS17-113"/>
      <use transform="translate(172.440643 0)scale(0.996264)" xlink:href="#CMSS17-117"/>
      <use transform="translate(220.645586 0)scale(0.996264)" xlink:href="#CMSS17-101"/>
      <use transform="translate(262.284408 0)scale(0.996264)" xlink:href="#CMSS17-110"/>
      <use transform="translate(310.489351 0)scale(0.996264)" xlink:href="#CMSS17-99"/>
      <use transform="translate(352.128174 0)scale(0.996264)" xlink:href="#CMSS17-121"/>
      <use transform="translate(426.357428 0)scale(0.996264)" xlink:href="#CMSS17-40"/>
      <use transform="translate(462.791342 0)scale(0.996264)" xlink:href="#CMSS17-114"/>
      <use transform="translate(494.701115 0)scale(0.996264)" xlink:href="#CMSS17-97"/>
      <use transform="translate(539.623035 0)scale(0.996264)" xlink:href="#CMSS17-100"/>
      <use transform="translate(587.827978 0)scale(0.996264)" xlink:href="#CMSS17-47"/>
      <use transform="translate(634.671602 0)scale(0.996264)" xlink:href="#CMSS17-115"/>
      <use transform="translate(670.585144 0)scale(0.996264)" xlink:href="#CMSS17-101"/>
      <use transform="translate(712.223966 0)scale(0.996264)" xlink:href="#CMSS17-99"/>
      <use transform="translate(753.862788 0)scale(0.996264)" xlink:href="#CMSS17-41"/>
     </g>
    </g>
   </g>
   <g id="matplotlib.axis_4">
    <g id="ytick_4">
     <g id="line2d_169">
      <path clip-path="url(#pb4094be970)" d="M 54.176265 236.101634 
L 388.976265 236.101634 
" style="fill:none;stroke:#b0b0b0;stroke-linecap:square;stroke-width:0.8;"/>
     </g>
     <g id="line2d_170">
      <g>
       <use style="stroke:#000000;stroke-width:0.8;" x="54.176265" xlink:href="#m0af5e0a117" y="236.101634"/>
      </g>
     </g>
     <g id="text_17">
      <!-- -180.0 -->
      <defs>
       <path d="M 26 19 
L 26 24.765625 
L 1 24.765625 
L 1 19 
z
" id="CMSS17-45"/>
       <path d="M 28.40625 67 
L 26.5 67 
C 21.09375 61.5625 14.796875 60.78125 8.40625 60.78125 
L 8.40625 55 
C 11.296875 55 16 55 20.703125 57.296875 
L 20.703125 5.765625 
L 8.90625 5.765625 
L 8.90625 0 
L 40.203125 0 
L 40.203125 5.765625 
L 28.40625 5.765625 
z
" id="CMSS17-49"/>
       <path d="M 30.203125 34.71875 
C 37.796875 37.1875 41.703125 43.125 41.703125 48.96875 
C 41.703125 58.15625 33.703125 66.078125 23.5 66.078125 
C 12.90625 66.078125 5.203125 57.9375 5.203125 49.125 
C 5.203125 43.4375 9 37.546875 16.703125 35.015625 
C 6.90625 31.203125 3.90625 23.625 3.90625 17.953125 
C 3.90625 6.96875 12.796875 -2 23.40625 -2 
C 34.40625 -2 43 7.109375 43 17.78125 
C 43 24.328125 39.09375 31.25 30.203125 34.71875 
M 23.5 38 
C 16.796875 38 12.296875 42.375 12.296875 49 
C 12.296875 55.71875 16.796875 60 23.5 60 
C 29.703125 60 34.59375 56.109375 34.59375 49 
C 34.59375 41.984375 29.796875 38 23.5 38 
M 23.5 4.171875 
C 17.796875 4.171875 11.703125 8.078125 11.703125 18.0625 
C 11.703125 28.328125 18.5 31.921875 23.40625 31.921875 
C 28.796875 31.921875 35.203125 28.125 35.203125 18.0625 
C 35.203125 7.671875 28.59375 4.171875 23.5 4.171875 
" id="CMSS17-56"/>
       <path d="M 43.09375 31.9375 
C 43.09375 37.578125 43 48.078125 38.90625 56.1875 
C 34.796875 64 28.203125 66.078125 23.5 66.078125 
C 16.703125 66.078125 10.90625 62.125 7.90625 55.78125 
C 4.703125 49.15625 3.796875 42.328125 3.796875 31.9375 
C 3.796875 24.828125 4.09375 16.109375 7.703125 8.484375 
C 11.796875 0.078125 18.703125 -2 23.40625 -2 
C 29.59375 -2 35.59375 1.265625 39 8.09375 
C 42.5 15.21875 43.09375 23.03125 43.09375 31.9375 
M 23.40625 4.078125 
C 15.796875 4.078125 13.5 12.671875 12.796875 15.546875 
C 11.59375 20.46875 11.40625 25.21875 11.40625 33.03125 
C 11.40625 39.15625 11.40625 46.0625 13.296875 51.515625 
C 15.59375 57.828125 19.59375 60 23.40625 60 
C 30.796875 60 33.203125 52.6875 34 50.125 
C 35.5 44.890625 35.5 38.765625 35.5 33.03125 
C 35.5 23.84375 35.5 4.078125 23.40625 4.078125 
" id="CMSS17-48"/>
       <path d="M 17 7.96875 
L 9 7.96875 
L 9 0 
L 17 0 
z
" id="CMSS17-46"/>
      </defs>
      <g transform="translate(21.16264 239.560884)scale(0.1 -0.1)">
       <use transform="scale(0.996264)" xlink:href="#CMSS17-45"/>
       <use transform="translate(31.229113 0)scale(0.996264)" xlink:href="#CMSS17-49"/>
       <use transform="translate(78.072736 0)scale(0.996264)" xlink:href="#CMSS17-56"/>
       <use transform="translate(124.91636 0)scale(0.996264)" xlink:href="#CMSS17-48"/>
       <use transform="translate(171.759983 0)scale(0.996264)" xlink:href="#CMSS17-46"/>
       <use transform="translate(197.784188 0)scale(0.996264)" xlink:href="#CMSS17-48"/>
      </g>
     </g>
    </g>
    <g id="ytick_5">
     <g id="line2d_171">
      <path clip-path="url(#pb4094be970)" d="M 54.176265 215.477891 
L 388.976265 215.477891 
" style="fill:none;stroke:#b0b0b0;stroke-linecap:square;stroke-width:0.8;"/>
     </g>
     <g id="line2d_172">
      <g>
       <use style="stroke:#000000;stroke-width:0.8;" x="54.176265" xlink:href="#m0af5e0a117" y="215.477891"/>
      </g>
     </g>
     <g id="text_18">
      <!-- -135.0 -->
      <defs>
       <path d="M 15.703125 31.640625 
L 22.5 31.640625 
C 31.90625 31.640625 34.59375 23.546875 34.59375 17.90625 
C 34.59375 10.203125 30.203125 4.171875 23 4.171875 
C 17.40625 4.171875 9.5 6.9375 5 14.25 
C 4.296875 10.796875 4.296875 10.59375 3.90625 8.21875 
C 8.59375 1.375 16.203125 -2 23.203125 -2 
C 34.59375 -2 43 7.390625 43 17.78125 
C 43 25.59375 37.5 32.140625 30 34.609375 
C 36 37.875 40.40625 44 40.40625 51.140625 
C 40.40625 59.453125 32.703125 66.078125 23.296875 66.078125 
C 14.703125 66.078125 8 60.8125 5.203125 55.15625 
C 5.90625 54.1875 7.703125 51.3125 8.59375 49.828125 
C 10.796875 55.65625 16.5 60 23.203125 60 
C 28.796875 60 32.5 56.359375 32.5 51.109375 
C 32.5 45.671875 29 39.734375 23.09375 38.359375 
C 22.703125 38.359375 16.5 37.765625 15.703125 37.671875 
z
" id="CMSS17-51"/>
       <path d="M 14.59375 58.625 
L 39.09375 58.625 
L 39.09375 65 
L 7.296875 65 
L 7.296875 27.828125 
L 14 27.828125 
C 15.796875 31.96875 19.5 35 24.296875 35 
C 28.796875 35 33.796875 31.078125 33.796875 19.78125 
C 33.796875 7.703125 26.703125 4.171875 21.5 4.171875 
C 15.09375 4.171875 9.203125 8 6.59375 13.296875 
L 3.40625 7.796875 
C 8 0.765625 15.5 -2 21.5 -2 
C 33.09375 -2 42.203125 7.765625 42.203125 19.578125 
C 42.203125 31.71875 34.09375 41.078125 24.40625 41.078125 
C 20.90625 41.078125 17.5 39.890625 14.59375 37.484375 
z
" id="CMSS17-53"/>
      </defs>
      <g transform="translate(21.16264 218.93714)scale(0.1 -0.1)">
       <use transform="scale(0.996264)" xlink:href="#CMSS17-45"/>
       <use transform="translate(31.229113 0)scale(0.996264)" xlink:href="#CMSS17-49"/>
       <use transform="translate(78.072736 0)scale(0.996264)" xlink:href="#CMSS17-51"/>
       <use transform="translate(124.91636 0)scale(0.996264)" xlink:href="#CMSS17-53"/>
       <use transform="translate(171.759983 0)scale(0.996264)" xlink:href="#CMSS17-46"/>
       <use transform="translate(197.784188 0)scale(0.996264)" xlink:href="#CMSS17-48"/>
      </g>
     </g>
    </g>
    <g id="ytick_6">
     <g id="line2d_173">
      <path clip-path="url(#pb4094be970)" d="M 54.176265 194.854148 
L 388.976265 194.854148 
" style="fill:none;stroke:#b0b0b0;stroke-linecap:square;stroke-width:0.8;"/>
     </g>
     <g id="line2d_174">
      <g>
       <use style="stroke:#000000;stroke-width:0.8;" x="54.176265" xlink:href="#m0af5e0a117" y="194.854148"/>
      </g>
     </g>
     <g id="text_19">
      <!-- -90.0 -->
      <defs>
       <path d="M 6.796875 2.71875 
C 9.59375 0.328125 13.203125 -2 19.296875 -2 
C 31.40625 -2 43 11.265625 43 32.734375 
C 43 61.4375 30.5 66.078125 23.796875 66.078125 
C 17.09375 66.078125 12.796875 63.140625 9.09375 58.453125 
C 4.703125 53.078125 3.90625 48.28125 3.90625 42.703125 
C 3.90625 36.046875 5.09375 31.953125 7.90625 27.265625 
C 11.703125 21.203125 15.203125 19.921875 19.09375 19.921875 
C 25 19.921875 30.90625 22.796875 34.90625 27.75 
C 34.203125 14.09375 28.09375 4.171875 19.296875 4.171875 
C 15.703125 4.171875 12.796875 5.296875 9.90625 8.0625 
z
M 34.59375 42.90625 
C 34.703125 42.234375 34.703125 40.96875 34.703125 40.5625 
C 34.703125 32.40625 29.90625 26 22.90625 26 
C 18.296875 26 15.90625 28.328125 14.09375 31.34375 
C 11.90625 35.140625 11.796875 38.828125 11.796875 42.703125 
C 11.796875 46.5 11.796875 50.6875 14.59375 54.859375 
C 16.703125 57.859375 19.296875 60 23.796875 60 
C 33 60 34.5 46.875 34.59375 42.90625 
" id="CMSS17-57"/>
      </defs>
      <g transform="translate(26.143975 198.313397)scale(0.1 -0.1)">
       <use transform="scale(0.996264)" xlink:href="#CMSS17-45"/>
       <use transform="translate(31.229113 0)scale(0.996264)" xlink:href="#CMSS17-57"/>
       <use transform="translate(78.072736 0)scale(0.996264)" xlink:href="#CMSS17-48"/>
       <use transform="translate(124.91636 0)scale(0.996264)" xlink:href="#CMSS17-46"/>
       <use transform="translate(150.940565 0)scale(0.996264)" xlink:href="#CMSS17-48"/>
      </g>
     </g>
    </g>
    <g id="ytick_7">
     <g id="line2d_175">
      <path clip-path="url(#pb4094be970)" d="M 54.176265 174.230404 
L 388.976265 174.230404 
" style="fill:none;stroke:#b0b0b0;stroke-linecap:square;stroke-width:0.8;"/>
     </g>
     <g id="line2d_176">
      <g>
       <use style="stroke:#000000;stroke-width:0.8;" x="54.176265" xlink:href="#m0af5e0a117" y="174.230404"/>
      </g>
     </g>
     <g id="text_20">
      <!-- -45.0 -->
      <defs>
       <path d="M 35.203125 17 
L 44.296875 17 
L 44.296875 23.078125 
L 35.203125 23.078125 
L 35.203125 65.5 
L 26.40625 65.5 
L 2.59375 23.078125 
L 2.59375 17 
L 27.296875 17 
L 27.296875 0 
L 35.203125 0 
z
M 10.296875 23.078125 
C 16.09375 33.234375 27.59375 53.734375 27.59375 60.703125 
L 27.59375 23.078125 
z
" id="CMSS17-52"/>
      </defs>
      <g transform="translate(26.143975 177.689654)scale(0.1 -0.1)">
       <use transform="scale(0.996264)" xlink:href="#CMSS17-45"/>
       <use transform="translate(31.229113 0)scale(0.996264)" xlink:href="#CMSS17-52"/>
       <use transform="translate(78.072736 0)scale(0.996264)" xlink:href="#CMSS17-53"/>
       <use transform="translate(124.91636 0)scale(0.996264)" xlink:href="#CMSS17-46"/>
       <use transform="translate(150.940565 0)scale(0.996264)" xlink:href="#CMSS17-48"/>
      </g>
     </g>
    </g>
    <g id="ytick_8">
     <g id="line2d_177">
      <path clip-path="url(#pb4094be970)" d="M 54.176265 153.606661 
L 388.976265 153.606661 
" style="fill:none;stroke:#b0b0b0;stroke-linecap:square;stroke-width:0.8;"/>
     </g>
     <g id="line2d_178">
      <g>
       <use style="stroke:#000000;stroke-width:0.8;" x="54.176265" xlink:href="#m0af5e0a117" y="153.606661"/>
      </g>
     </g>
     <g id="text_21">
      <!-- 0.0 -->
      <g transform="translate(34.446186 157.06591)scale(0.1 -0.1)">
       <use transform="scale(0.996264)" xlink:href="#CMSS17-48"/>
       <use transform="translate(46.843624 0)scale(0.996264)" xlink:href="#CMSS17-46"/>
       <use transform="translate(72.867828 0)scale(0.996264)" xlink:href="#CMSS17-48"/>
      </g>
     </g>
    </g>
    <g id="text_22">
     <!-- Phase (deg) -->
     <defs>
      <path d="M 40.90625 29.546875 
C 40.90625 35.8125 39.40625 44.0625 28.09375 44.0625 
C 21.796875 44.0625 17.703125 40.984375 14.796875 37.609375 
L 14.796875 69.5 
L 7.40625 69.5 
L 7.40625 0.5 
L 15 0.5 
L 15 24.578125 
C 15 30.828125 17.40625 38 24.203125 38 
C 33 38 33.296875 32.125 33.296875 28.734375 
L 33.296875 0.5 
L 40.90625 0.5 
z
" id="CMSS17-104"/>
     </defs>
     <g transform="translate(14.67198 219.901252)rotate(-90)scale(0.1 -0.1)">
      <use transform="scale(0.996264)" xlink:href="#CMSS17-80"/>
      <use transform="translate(59.735586 0)scale(0.996264)" xlink:href="#CMSS17-104"/>
      <use transform="translate(107.940529 0)scale(0.996264)" xlink:href="#CMSS17-97"/>
      <use transform="translate(152.86245 0)scale(0.996264)" xlink:href="#CMSS17-115"/>
      <use transform="translate(188.775992 0)scale(0.996264)" xlink:href="#CMSS17-101"/>
      <use transform="translate(261.643927 0)scale(0.996264)" xlink:href="#CMSS17-40"/>
      <use transform="translate(298.077841 0)scale(0.996264)" xlink:href="#CMSS17-100"/>
      <use transform="translate(346.282784 0)scale(0.996264)" xlink:href="#CMSS17-101"/>
      <use transform="translate(387.921606 0)scale(0.996264)" xlink:href="#CMSS17-103"/>
      <use transform="translate(434.76523 0)scale(0.996264)" xlink:href="#CMSS17-41"/>
     </g>
    </g>
   </g>
   <g id="line2d_179">
    <path clip-path="url(#pb4094be970)" d="M 69.394446 153.632921 
L 72.468827 153.635481 
L 75.543207 153.638291 
L 78.617587 153.641375 
L 81.691967 153.64476 
L 84.766347 153.648475 
L 87.840727 153.652553 
L 90.915108 153.657028 
L 93.989488 153.66194 
L 97.063868 153.667331 
L 100.138248 153.673248 
L 103.212628 153.679742 
L 106.287008 153.686871 
L 109.361389 153.694695 
L 112.435769 153.703284 
L 115.510149 153.712712 
L 118.584529 153.723061 
L 121.658909 153.734423 
L 124.733289 153.746896 
L 127.80767 153.760591 
L 130.88205 153.775628 
L 133.95643 153.792141 
L 137.03081 153.810276 
L 140.10519 153.830196 
L 143.17957 153.85208 
L 146.25395 153.876126 
L 149.328331 153.902555 
L 152.402711 153.931612 
L 155.477091 153.963569 
L 158.551471 153.998731 
L 161.625851 154.037439 
L 164.700231 154.080078 
L 167.774612 154.127081 
L 170.848992 154.178945 
L 173.923372 154.236232 
L 176.997752 154.299595 
L 180.072132 154.36979 
L 183.146512 154.447704 
L 186.220893 154.534386 
L 189.295273 154.631095 
L 192.369653 154.73936 
L 195.444033 154.861059 
L 198.518413 154.998547 
L 201.592793 155.154815 
L 204.667174 155.333745 
L 207.741554 155.540477 
L 210.815934 155.781985 
L 213.890314 156.067987 
L 216.964694 156.412453 
L 220.039074 156.836219 
L 223.113455 157.371762 
L 226.187835 158.072549 
L 229.262215 159.032892 
L 232.336595 160.434862 
L 235.410975 162.675243 
L 238.485355 166.771822 
L 241.559736 175.824074 
L 244.634116 196.062754 
L 247.708496 215.185148 
L 250.782876 223.483249 
L 253.857256 227.312595 
L 256.931636 229.440449 
L 260.006017 230.786175 
L 263.080397 231.71471 
L 266.154777 232.39583 
L 269.229157 232.918369 
L 272.303537 233.333076 
L 275.377917 233.670964 
L 278.452298 233.952022 
L 281.526678 234.189708 
L 284.601058 234.393412 
L 287.675438 234.569893 
L 290.749818 234.724145 
L 293.824198 234.859948 
L 296.898579 234.980221 
L 299.972959 235.087264 
L 303.047339 235.182917 
L 306.121719 235.268679 
L 309.196099 235.345784 
L 312.270479 235.415266 
L 315.34486 235.477995 
L 318.41924 235.534718 
L 321.49362 235.586076 
L 324.568 235.632627 
L 327.64238 235.674858 
L 330.71676 235.713199 
L 333.791141 235.748028 
L 336.865521 235.779685 
L 339.939901 235.80847 
L 343.014281 235.834653 
L 346.088661 235.858476 
L 349.163041 235.880157 
L 352.237422 235.899892 
L 355.311802 235.91786 
L 358.386182 235.93422 
L 361.460562 235.949119 
L 364.534942 235.962687 
L 367.609322 235.975046 
L 370.683703 235.986303 
L 373.758083 235.996557 
" style="fill:none;stroke:#0000ff;stroke-linecap:square;stroke-width:1.5;"/>
   </g>
   <g id="patch_8">
    <path d="M 54.176265 240.114739 
L 54.176265 149.514739 
" style="fill:none;stroke:#000000;stroke-linecap:square;stroke-linejoin:miter;stroke-width:0.8;"/>
   </g>
   <g id="patch_9">
    <path d="M 388.976265 240.114739 
L 388.976265 149.514739 
" style="fill:none;stroke:#000000;stroke-linecap:square;stroke-linejoin:miter;stroke-width:0.8;"/>
   </g>
   <g id="patch_10">
    <path d="M 54.176265 240.114739 
L 388.976265 240.114739 
" style="fill:none;stroke:#000000;stroke-linecap:square;stroke-linejoin:miter;stroke-width:0.8;"/>
   </g>
   <g id="patch_11">
    <path d="M 54.176265 149.514739 
L 388.976265 149.514739 
" style="fill:none;stroke:#000000;stroke-linecap:square;stroke-linejoin:miter;stroke-width:0.8;"/>
   </g>
  </g>
 </g>
 <defs>
  <clipPath id="pc9d1bf4797">
   <rect height="90.6" width="334.8" x="54.176265" y="22.674739"/>
  </clipPath>
  <clipPath id="pb4094be970">
   <rect height="90.6" width="334.8" x="54.176265" y="149.514739"/>
  </clipPath>
 </defs>
</svg>
