<?xml version="1.0" encoding="utf-8" standalone="no"?>
<!DOCTYPE svg PUBLIC "-//W3C//DTD SVG 1.1//EN"
  "http://www.w3.org/Graphics/SVG/1.1/DTD/svg11.dtd">
<!-- Created with matplotlib (http://matplotlib.org/) -->
<svg height="276pt" version="1.1" viewBox="0 0 380 276" width="380pt" xmlns="http://www.w3.org/2000/svg" xmlns:xlink="http://www.w3.org/1999/xlink">
 <defs>
  <style type="text/css">
*{stroke-linecap:butt;stroke-linejoin:round;}
  </style>
 </defs>
 <g id="figure_1">
  <g id="patch_1">
   <path d="M 0 276.026092 
L 380.178823 276.026092 
L 380.178823 0 
L 0 0 
z
" style="fill:none;"/>
  </g>
  <g id="axes_1">
   <g id="patch_2">
    <path d="M 34.678823 240.114739 
L 369.478823 240.114739 
L 369.478823 22.674739 
L 34.678823 22.674739 
z
" style="fill:#ffffff;"/>
   </g>
   <g id="patch_3">
    <path clip-path="url(#p8058d5f5cf)" d="M 351.928932 105.214736 
L 354.897249 110.465652 
L 350.228513 110.258799 
L 351.548282 106.011439 
L 350.037952 110.250356 
L 345.369216 110.043504 
z
" style="fill:#1f77b4;"/>
   </g>
   <g id="patch_4">
    <path clip-path="url(#p8058d5f5cf)" d="M 297.345352 45.931136 
L 311.082237 48.212082 
L 307.834332 49.412706 
L 307.509059 49.396888 
L 307.701764 49.461711 
L 304.453859 50.662336 
z
" style="fill:#1f77b4;"/>
   </g>
   <g id="patch_5">
    <path clip-path="url(#p8058d5f5cf)" d="M 110.819187 42.240044 
L 120.722189 38.181369 
L 123.135531 39.605802 
L 131.259663 37.973111 
L 123.234034 39.663942 
L 125.647376 41.088376 
z
" style="fill:#1f77b4;"/>
   </g>
   <g id="patch_6">
    <path clip-path="url(#p8058d5f5cf)" d="M 351.359254 156.006935 
L 357.987447 160.82406 
L 353.321706 161.039153 
L 351.548343 156.778207 
L 353.131268 161.047932 
L 348.465527 161.263025 
z
" style="fill:#1f77b4;"/>
   </g>
   <g id="patch_7">
    <path clip-path="url(#p8058d5f5cf)" d="M 316.241659 209.954237 
L 310.310432 214.883049 
L 306.782397 213.785112 
L 307.503342 213.394686 
L 306.638396 213.740298 
L 303.110361 212.642361 
z
" style="fill:#1f77b4;"/>
   </g>
   <g id="patch_8">
    <path clip-path="url(#p8058d5f5cf)" d="M 153.010446 227.901423 
L 137.851194 227.598395 
L 139.589444 226.056472 
L 131.245886 224.813969 
L 139.660393 225.993537 
L 141.398642 224.451614 
z
" style="fill:#1f77b4;"/>
   </g>
   <g id="matplotlib.axis_1">
    <g id="xtick_1">
     <g id="line2d_1">
      <path clip-path="url(#p8058d5f5cf)" d="M 55.278195 240.114739 
L 55.278195 22.674739 
" style="fill:none;stroke:#b0b0b0;stroke-linecap:square;stroke-width:0.8;"/>
     </g>
     <g id="line2d_2">
      <defs>
       <path d="M 0 0 
L 0 3.5 
" id="m3d9b2ce824" style="stroke:#000000;stroke-width:0.8;"/>
      </defs>
      <g>
       <use style="stroke:#000000;stroke-width:0.8;" x="55.278195" xlink:href="#m3d9b2ce824" y="240.114739"/>
      </g>
     </g>
     <g id="text_1">
      <!-- $-1.0$ -->
      <defs>
       <path d="M 65.90625 23 
C 67.59375 23 69.40625 23 69.40625 25 
C 69.40625 27 67.59375 27 65.90625 27 
L 11.796875 27 
C 10.09375 27 8.296875 27 8.296875 25 
C 8.296875 23 10.09375 23 11.796875 23 
z
" id="CMSY10-0"/>
       <path d="M 26.59375 63.40625 
C 26.59375 65.5 26.5 65.5 25.09375 65.5 
C 21.203125 61.1875 15.296875 59.796875 9.703125 59.796875 
C 9.40625 59.796875 8.90625 59.796875 8.796875 59.5 
C 8.703125 59.296875 8.703125 59.09375 8.703125 57 
C 11.796875 57 17 57.59375 21 59.984375 
L 21 7.203125 
C 21 3.6875 20.796875 2.5 12.203125 2.5 
L 9.203125 2.5 
L 9.203125 0 
C 14 0 19 0 23.796875 0 
C 28.59375 0 33.59375 0 38.40625 0 
L 38.40625 2.5 
L 35.40625 2.5 
C 26.796875 2.5 26.59375 3.59375 26.59375 7.15625 
z
" id="CMR17-49"/>
       <path d="M 18.40625 4.796875 
C 18.40625 7.6875 16 9.671875 13.59375 9.671875 
C 10.703125 9.671875 8.703125 7.28125 8.703125 4.890625 
C 8.703125 2 11.09375 0 13.5 0 
C 16.40625 0 18.40625 2.390625 18.40625 4.796875 
" id="CMMI12-58"/>
       <path d="M 42 31.640625 
C 42 37.75 41.90625 48.125 37.703125 56.109375 
C 34 63.109375 28.09375 65.59375 22.90625 65.59375 
C 18.09375 65.59375 12 63.40625 8.203125 56.203125 
C 4.203125 48.71875 3.796875 39.4375 3.796875 31.640625 
C 3.796875 25.953125 3.90625 17.28125 7 9.671875 
C 11.296875 -0.609375 19 -2 22.90625 -2 
C 27.5 -2 34.5 -0.109375 38.59375 9.375 
C 41.59375 16.28125 42 24.359375 42 31.640625 
M 22.90625 -0.40625 
C 16.5 -0.40625 12.703125 5.078125 11.296875 12.6875 
C 10.203125 18.5625 10.203125 27.15625 10.203125 32.75 
C 10.203125 40.4375 10.203125 46.828125 11.5 52.921875 
C 13.40625 61.390625 19 64 22.90625 64 
C 27 64 32.296875 61.296875 34.203125 53.125 
C 35.5 47.4375 35.59375 40.734375 35.59375 32.75 
C 35.59375 26.25 35.59375 18.265625 34.40625 12.375 
C 32.296875 1.484375 26.40625 -0.40625 22.90625 -0.40625 
" id="CMR17-48"/>
      </defs>
      <g transform="translate(45.038783 254.033237)scale(0.1 -0.1)">
       <use transform="scale(0.996264)" xlink:href="#CMSY10-0"/>
       <use transform="translate(77.487468 0)scale(0.996264)" xlink:href="#CMR17-49"/>
       <use transform="translate(123.177945 0)scale(0.996264)" xlink:href="#CMMI12-58"/>
       <use transform="translate(150.275122 0)scale(0.996264)" xlink:href="#CMR17-48"/>
      </g>
     </g>
    </g>
    <g id="xtick_2">
     <g id="line2d_3">
      <path clip-path="url(#p8058d5f5cf)" d="M 93.689974 240.114739 
L 93.689974 22.674739 
" style="fill:none;stroke:#b0b0b0;stroke-linecap:square;stroke-width:0.8;"/>
     </g>
     <g id="line2d_4">
      <g>
       <use style="stroke:#000000;stroke-width:0.8;" x="93.689974" xlink:href="#m3d9b2ce824" y="240.114739"/>
      </g>
     </g>
     <g id="text_2">
      <!-- $-0.8$ -->
      <defs>
       <path d="M 27.203125 35.375 
C 33.5 38.546875 39.90625 43.328125 39.90625 50.984375 
C 39.90625 60.015625 31.09375 65.296875 23 65.296875 
C 13.90625 65.296875 5.90625 58.734375 5.90625 49.6875 
C 5.90625 47.203125 6.5 42.921875 10.40625 39.140625 
C 11.40625 38.15625 15.59375 35.171875 18.296875 33.28125 
C 13.796875 30.984375 3.296875 25.53125 3.296875 14.59375 
C 3.296875 4.359375 13.09375 -2 22.796875 -2 
C 33.5 -2 42.5 5.65625 42.5 15.78125 
C 42.5 24.84375 36.40625 29.015625 32.40625 31.703125 
z
M 14.09375 44.09375 
C 13.296875 44.59375 9.296875 47.671875 9.296875 52.359375 
C 9.296875 58.421875 15.59375 63 22.796875 63 
C 30.703125 63 36.5 57.4375 36.5 50.96875 
C 36.5 41.703125 26.09375 36.421875 25.59375 36.421875 
C 25.5 36.421875 25.40625 36.421875 24.59375 37.03125 
z
M 32.5 23.734375 
C 34 22.640625 38.796875 19.375 38.796875 13.296875 
C 38.796875 5.953125 31.40625 0.390625 23 0.390625 
C 13.90625 0.390625 7 6.84375 7 14.6875 
C 7 22.546875 13.09375 29.09375 20 32.1875 
z
" id="CMR17-56"/>
      </defs>
      <g transform="translate(83.450563 254.033237)scale(0.1 -0.1)">
       <use transform="scale(0.996264)" xlink:href="#CMSY10-0"/>
       <use transform="translate(77.487468 0)scale(0.996264)" xlink:href="#CMR17-48"/>
       <use transform="translate(123.177945 0)scale(0.996264)" xlink:href="#CMMI12-58"/>
       <use transform="translate(150.275122 0)scale(0.996264)" xlink:href="#CMR17-56"/>
      </g>
     </g>
    </g>
    <g id="xtick_3">
     <g id="line2d_5">
      <path clip-path="url(#p8058d5f5cf)" d="M 132.101753 240.114739 
L 132.101753 22.674739 
" style="fill:none;stroke:#b0b0b0;stroke-linecap:square;stroke-width:0.8;"/>
     </g>
     <g id="line2d_6">
      <g>
       <use style="stroke:#000000;stroke-width:0.8;" x="132.101753" xlink:href="#m3d9b2ce824" y="240.114739"/>
      </g>
     </g>
     <g id="text_3">
      <!-- $-0.6$ -->
      <defs>
       <path d="M 10.59375 34 
C 10.59375 57.65625 21.796875 63 28.296875 63 
C 30.40625 63 35.5 62.640625 37.5 59 
C 35.90625 59 32.90625 59 32.90625 55.515625 
C 32.90625 52.828125 35.09375 51.921875 36.5 51.921875 
C 37.40625 51.921875 40.09375 52.3125 40.09375 55.625 
C 40.09375 61.78125 35.09375 65.296875 28.203125 65.296875 
C 16.296875 65.296875 3.796875 52.96875 3.796875 31 
C 3.796875 3.953125 15.09375 -2 23.09375 -2 
C 32.796875 -2 42 6.671875 42 20.046875 
C 42 32.515625 33.90625 41.59375 23.703125 41.59375 
C 17.59375 41.59375 13.09375 37.609375 10.59375 30.625 
z
M 23.09375 0.390625 
C 10.796875 0.390625 10.796875 18.75 10.796875 22.4375 
C 10.796875 29.625 14.203125 40 23.5 40 
C 25.203125 40 30.09375 40 33.40625 33.125 
C 35.203125 29.21875 35.203125 25.140625 35.203125 20.140625 
C 35.203125 14.75 35.203125 10.78125 33.09375 6.78125 
C 30.90625 2.671875 27.703125 0.390625 23.09375 0.390625 
" id="CMR17-54"/>
      </defs>
      <g transform="translate(121.862342 254.033237)scale(0.1 -0.1)">
       <use transform="scale(0.996264)" xlink:href="#CMSY10-0"/>
       <use transform="translate(77.487468 0)scale(0.996264)" xlink:href="#CMR17-48"/>
       <use transform="translate(123.177945 0)scale(0.996264)" xlink:href="#CMMI12-58"/>
       <use transform="translate(150.275122 0)scale(0.996264)" xlink:href="#CMR17-54"/>
      </g>
     </g>
    </g>
    <g id="xtick_4">
     <g id="line2d_7">
      <path clip-path="url(#p8058d5f5cf)" d="M 170.513532 240.114739 
L 170.513532 22.674739 
" style="fill:none;stroke:#b0b0b0;stroke-linecap:square;stroke-width:0.8;"/>
     </g>
     <g id="line2d_8">
      <g>
       <use style="stroke:#000000;stroke-width:0.8;" x="170.513532" xlink:href="#m3d9b2ce824" y="240.114739"/>
      </g>
     </g>
     <g id="text_4">
      <!-- $-0.4$ -->
      <defs>
       <path d="M 33.59375 64.40625 
C 33.59375 66.5 33.5 66.5 31.703125 66.5 
L 2 19.59375 
L 2 17 
L 27.796875 17 
L 27.796875 7.140625 
C 27.796875 3.5 27.59375 2.5 20.59375 2.5 
L 18.703125 2.5 
L 18.703125 0 
C 21.90625 0 27.296875 0 30.703125 0 
C 34.09375 0 39.5 0 42.703125 0 
L 42.703125 2.5 
L 40.796875 2.5 
C 33.796875 2.5 33.59375 3.5 33.59375 7.140625 
L 33.59375 17 
L 43.796875 17 
L 43.796875 19.59375 
L 33.59375 19.59375 
z
M 28.09375 57.859375 
L 28.09375 19.59375 
L 4 19.59375 
z
" id="CMR17-52"/>
      </defs>
      <g transform="translate(160.274121 254.033237)scale(0.1 -0.1)">
       <use transform="scale(0.996264)" xlink:href="#CMSY10-0"/>
       <use transform="translate(77.487468 0)scale(0.996264)" xlink:href="#CMR17-48"/>
       <use transform="translate(123.177945 0)scale(0.996264)" xlink:href="#CMMI12-58"/>
       <use transform="translate(150.275122 0)scale(0.996264)" xlink:href="#CMR17-52"/>
      </g>
     </g>
    </g>
    <g id="xtick_5">
     <g id="line2d_9">
      <path clip-path="url(#p8058d5f5cf)" d="M 208.925312 240.114739 
L 208.925312 22.674739 
" style="fill:none;stroke:#b0b0b0;stroke-linecap:square;stroke-width:0.8;"/>
     </g>
     <g id="line2d_10">
      <g>
       <use style="stroke:#000000;stroke-width:0.8;" x="208.925312" xlink:href="#m3d9b2ce824" y="240.114739"/>
      </g>
     </g>
     <g id="text_5">
      <!-- $-0.2$ -->
      <defs>
       <path d="M 41.703125 15.453125 
L 39.90625 15.453125 
C 38.90625 8.375 38.09375 7.171875 37.703125 6.5625 
C 37.203125 5.765625 30 5.765625 28.59375 5.765625 
L 9.40625 5.765625 
C 13 9.671875 20 16.75 28.5 24.953125 
C 34.59375 30.734375 41.703125 37.53125 41.703125 47.421875 
C 41.703125 59.21875 32.296875 66 21.796875 66 
C 10.796875 66 4.09375 56.3125 4.09375 47.34375 
C 4.09375 43.4375 7 42.9375 8.203125 42.9375 
C 9.203125 42.9375 12.203125 43.546875 12.203125 47.03125 
C 12.203125 50.109375 9.59375 51 8.203125 51 
C 7.59375 51 7 50.90625 6.59375 50.703125 
C 8.5 59.21875 14.296875 63.40625 20.40625 63.40625 
C 29.09375 63.40625 34.796875 56.515625 34.796875 47.421875 
C 34.796875 38.734375 29.703125 31.25 24 24.75 
L 4.09375 2.28125 
L 4.09375 0 
L 39.296875 0 
z
" id="CMR17-50"/>
      </defs>
      <g transform="translate(198.6859 254.033237)scale(0.1 -0.1)">
       <use transform="scale(0.996264)" xlink:href="#CMSY10-0"/>
       <use transform="translate(77.487468 0)scale(0.996264)" xlink:href="#CMR17-48"/>
       <use transform="translate(123.177945 0)scale(0.996264)" xlink:href="#CMMI12-58"/>
       <use transform="translate(150.275122 0)scale(0.996264)" xlink:href="#CMR17-50"/>
      </g>
     </g>
    </g>
    <g id="xtick_6">
     <g id="line2d_11">
      <path clip-path="url(#p8058d5f5cf)" d="M 247.337091 240.114739 
L 247.337091 22.674739 
" style="fill:none;stroke:#b0b0b0;stroke-linecap:square;stroke-width:0.8;"/>
     </g>
     <g id="line2d_12">
      <g>
       <use style="stroke:#000000;stroke-width:0.8;" x="247.337091" xlink:href="#m3d9b2ce824" y="240.114739"/>
      </g>
     </g>
     <g id="text_6">
      <!-- $0.0$ -->
      <g transform="translate(240.972052 254.033237)scale(0.1 -0.1)">
       <use transform="scale(0.996264)" xlink:href="#CMR17-48"/>
       <use transform="translate(45.690477 0)scale(0.996264)" xlink:href="#CMMI12-58"/>
       <use transform="translate(72.787654 0)scale(0.996264)" xlink:href="#CMR17-48"/>
      </g>
     </g>
    </g>
    <g id="xtick_7">
     <g id="line2d_13">
      <path clip-path="url(#p8058d5f5cf)" d="M 285.74887 240.114739 
L 285.74887 22.674739 
" style="fill:none;stroke:#b0b0b0;stroke-linecap:square;stroke-width:0.8;"/>
     </g>
     <g id="line2d_14">
      <g>
       <use style="stroke:#000000;stroke-width:0.8;" x="285.74887" xlink:href="#m3d9b2ce824" y="240.114739"/>
      </g>
     </g>
     <g id="text_7">
      <!-- $0.2$ -->
      <g transform="translate(279.383831 254.033237)scale(0.1 -0.1)">
       <use transform="scale(0.996264)" xlink:href="#CMR17-48"/>
       <use transform="translate(45.690477 0)scale(0.996264)" xlink:href="#CMMI12-58"/>
       <use transform="translate(72.787654 0)scale(0.996264)" xlink:href="#CMR17-50"/>
      </g>
     </g>
    </g>
    <g id="xtick_8">
     <g id="line2d_15">
      <path clip-path="url(#p8058d5f5cf)" d="M 324.16065 240.114739 
L 324.16065 22.674739 
" style="fill:none;stroke:#b0b0b0;stroke-linecap:square;stroke-width:0.8;"/>
     </g>
     <g id="line2d_16">
      <g>
       <use style="stroke:#000000;stroke-width:0.8;" x="324.16065" xlink:href="#m3d9b2ce824" y="240.114739"/>
      </g>
     </g>
     <g id="text_8">
      <!-- $0.4$ -->
      <g transform="translate(317.79561 254.033237)scale(0.1 -0.1)">
       <use transform="scale(0.996264)" xlink:href="#CMR17-48"/>
       <use transform="translate(45.690477 0)scale(0.996264)" xlink:href="#CMMI12-58"/>
       <use transform="translate(72.787654 0)scale(0.996264)" xlink:href="#CMR17-52"/>
      </g>
     </g>
    </g>
    <g id="xtick_9">
     <g id="line2d_17">
      <path clip-path="url(#p8058d5f5cf)" d="M 362.572429 240.114739 
L 362.572429 22.674739 
" style="fill:none;stroke:#b0b0b0;stroke-linecap:square;stroke-width:0.8;"/>
     </g>
     <g id="line2d_18">
      <g>
       <use style="stroke:#000000;stroke-width:0.8;" x="362.572429" xlink:href="#m3d9b2ce824" y="240.114739"/>
      </g>
     </g>
     <g id="text_9">
      <!-- $0.6$ -->
      <g transform="translate(356.20739 254.033237)scale(0.1 -0.1)">
       <use transform="scale(0.996264)" xlink:href="#CMR17-48"/>
       <use transform="translate(45.690477 0)scale(0.996264)" xlink:href="#CMMI12-58"/>
       <use transform="translate(72.787654 0)scale(0.996264)" xlink:href="#CMR17-54"/>
      </g>
     </g>
    </g>
    <g id="text_10">
     <!-- $GH$-Plane -->
     <defs>
      <path d="M 74.59375 69.109375 
C 74.59375 70 73.90625 70 73.703125 70 
C 73.5 70 73.09375 70 72.296875 69 
L 65.40625 60.765625 
C 64.90625 61.5625 62.90625 65.046875 59 67.328125 
C 54.703125 70 50.40625 70 48.90625 70 
C 27.5 70 5 48.359375 5 24.921875 
C 5 8.53125 16.40625 -2 31.40625 -2 
C 38.59375 -2 47.703125 0.390625 52.703125 6.671875 
C 53.796875 2.890625 56 0.1875 56.703125 0.1875 
C 57.203125 0.1875 57.296875 0.5 57.40625 0.5 
C 57.5 0.6875 58.296875 4.21875 58.796875 6.015625 
L 60.40625 12.453125 
C 61.203125 15.765625 61.59375 17.171875 62.296875 20.171875 
C 63.296875 24 63.5 24 69 24 
C 69.40625 24 70.59375 24 70.59375 26.03125 
C 70.59375 27.09375 69.59375 27.09375 69.296875 27.09375 
C 67.59375 27.09375 65.703125 27.09375 63.90625 27.09375 
L 58.5 27.09375 
C 54.296875 27.09375 49.90625 27.09375 45.796875 27.09375 
C 44.90625 27.09375 43.703125 27.09375 43.703125 25.171875 
C 43.703125 24.09375 44.5 24.09375 44.5 24 
L 47 24 
C 54.90625 24 54.90625 23.265625 54.90625 21.90625 
C 54.90625 21.796875 53 11.734375 51.09375 8.765625 
C 47.296875 3.1875 39.40625 0.890625 33.5 0.890625 
C 25.796875 0.890625 13.296875 4.875 13.296875 22.03125 
C 13.296875 28.6875 15.703125 43.875 25.40625 55.09375 
C 31.703125 62.25 41 67.109375 49.796875 67.109375 
C 61.59375 67.109375 65.796875 57.109375 65.796875 47.984375 
C 65.796875 46.40625 65.40625 44.234375 65.40625 42.84375 
C 65.40625 41.953125 66.40625 41.953125 66.703125 41.953125 
C 67.796875 41.953125 67.90625 42.046875 68.296875 43.828125 
z
" id="CMMI12-71"/>
      <path d="M 74.796875 60.734375 
C 75.703125 64.109375 75.90625 65.109375 83 65.109375 
C 84.796875 65.109375 85.796875 65.109375 85.796875 66.90625 
C 85.796875 68 84.90625 68 84.296875 68 
C 82.5 68 80.40625 68 78.5 68 
L 66.703125 68 
C 64.796875 68 62.703125 68 60.796875 68 
C 60.09375 68 58.90625 68 58.90625 66.109375 
C 58.90625 65.109375 59.59375 65.109375 61.5 65.109375 
C 67.5 65.109375 67.5 64.3125 67.5 63.21875 
C 67.5 63.03125 67.5 62.421875 67.09375 60.9375 
L 61 36.890625 
L 30.796875 36.890625 
L 36.796875 60.734375 
C 37.703125 64.109375 37.90625 65.109375 45 65.109375 
C 46.796875 65.109375 47.796875 65.109375 47.796875 66.90625 
C 47.796875 68 46.90625 68 46.296875 68 
C 44.5 68 42.40625 68 40.5 68 
L 28.703125 68 
C 26.796875 68 24.703125 68 22.796875 68 
C 22.09375 68 20.90625 68 20.90625 66.109375 
C 20.90625 65.109375 21.59375 65.109375 23.5 65.109375 
C 29.5 65.109375 29.5 64.3125 29.5 63.21875 
C 29.5 63.03125 29.5 62.421875 29.09375 60.921875 
L 15.59375 7.375 
C 14.703125 3.890625 14.5 2.890625 7.59375 2.890625 
C 5.296875 2.890625 4.59375 2.890625 4.59375 1 
C 4.59375 0 5.703125 0 6 0 
C 7.796875 0 9.90625 0 11.796875 0 
L 23.59375 0 
C 25.5 0 27.59375 0 29.5 0 
C 30.296875 0 31.40625 0 31.40625 1.890625 
C 31.40625 2.890625 30.5 2.890625 29 2.890625 
C 22.90625 2.890625 22.90625 3.6875 22.90625 4.6875 
C 22.90625 4.796875 22.90625 5.484375 23.09375 6.28125 
L 30 34 
L 60.296875 34 
C 58.59375 27.390625 53.5 6.5 53.296875 5.875 
C 52.203125 2.890625 50.59375 2.890625 44.703125 2.890625 
C 43.5 2.890625 42.59375 2.890625 42.59375 1 
C 42.59375 0 43.703125 0 44 0 
C 45.796875 0 47.90625 0 49.796875 0 
L 61.59375 0 
C 63.5 0 65.59375 0 67.5 0 
C 68.296875 0 69.40625 0 69.40625 1.890625 
C 69.40625 2.890625 68.5 2.890625 67 2.890625 
C 60.90625 2.890625 60.90625 3.6875 60.90625 4.6875 
C 60.90625 4.796875 60.90625 5.484375 61.09375 6.28125 
z
" id="CMMI12-72"/>
      <path d="M 26 19 
L 26 24.765625 
L 1 24.765625 
L 1 19 
z
" id="CMSS17-45"/>
      <path d="M 32.90625 29 
C 44.90625 29 54.703125 38.328125 54.703125 49.34375 
C 54.703125 60.15625 45.296875 69.578125 32.296875 69.578125 
L 8.90625 69.578125 
L 8.90625 0 
L 17.296875 0 
L 17.296875 29 
z
M 30.09375 64 
C 41.703125 64 46.796875 56.671875 46.796875 49.328125 
C 46.796875 42.5 42.09375 34.78125 30.09375 34.78125 
L 17.09375 34.78125 
L 17.09375 64 
z
" id="CMSS17-80"/>
      <path d="M 14.796875 69 
L 7.40625 69 
L 7.40625 0 
L 14.796875 0 
z
" id="CMSS17-108"/>
      <path d="M 37.59375 27.984375 
C 37.59375 37.375 30.90625 43.875 21.90625 43.875 
C 17.5 43.875 12.703125 43.078125 7.203125 39.890625 
L 7.796875 33.359375 
C 10.296875 35.125 14.59375 38 21.796875 38 
C 26.90625 38 30 34.0625 30 27.84375 
L 30 24 
C 14 24 4 19.34375 4 11.34375 
C 4 7.203125 6.5 -1 14.796875 -1 
C 16.296875 -1 24.40625 -1 30.203125 3.390625 
L 30.203125 -0.296875 
L 37.59375 -0.296875 
z
M 30 12.75 
C 30 10.953125 30 8.5625 27 6.78125 
C 24.40625 5.078125 21.09375 5.078125 19.703125 5.078125 
C 14.703125 5.078125 11.296875 7.984375 11.296875 11.625 
C 11.296875 18.921875 26.90625 18.921875 30 18.921875 
z
" id="CMSS17-97"/>
      <path d="M 40.90625 29.328125 
C 40.90625 35.671875 39.40625 44 28.09375 44 
C 21.703125 44 17.5 40.71875 14.703125 37.328125 
L 14.703125 43.09375 
L 7.40625 43.09375 
L 7.40625 0 
L 15 0 
L 15 24.359375 
C 15 30.6875 17.40625 37.9375 24.203125 37.9375 
C 33 37.9375 33.296875 32 33.296875 28.578125 
L 33.296875 0 
L 40.90625 0 
z
" id="CMSS17-110"/>
      <path d="M 39.09375 21.515625 
C 39.09375 24.84375 38.90625 31.296875 35.703125 36.640625 
C 32.203125 42.390625 26.5 44 22.203125 44 
C 11.796875 44 3 34.1875 3 21.484375 
C 3 9.09375 12.09375 -1 23.59375 -1 
C 28.09375 -1 33.59375 0.296875 38.59375 3.875 
C 38.59375 4.28125 38.40625 6.46875 38.296875 6.5625 
C 38.296875 6.765625 38 9.84375 38 10.25 
C 33.203125 6.359375 27.703125 5.078125 23.703125 5.078125 
C 17.296875 5.078125 10.40625 10.421875 10.09375 21.515625 
z
M 10.90625 27 
C 12.203125 32.5625 16.59375 37.828125 22.203125 37.828125 
C 23.703125 37.828125 30.703125 37.828125 32.5 27 
z
" id="CMSS17-101"/>
     </defs>
     <g transform="translate(180.40248 266.888914)scale(0.1 -0.1)">
      <use transform="scale(0.996264)" xlink:href="#CMMI12-71"/>
      <use transform="translate(76.946862 0)scale(0.996264)" xlink:href="#CMMI12-72"/>
      <use transform="translate(165.468634 0)scale(0.996264)" xlink:href="#CMSS17-45"/>
      <use transform="translate(196.697747 0)scale(0.996264)" xlink:href="#CMSS17-80"/>
      <use transform="translate(256.433333 0)scale(0.996264)" xlink:href="#CMSS17-108"/>
      <use transform="translate(278.614057 0)scale(0.996264)" xlink:href="#CMSS17-97"/>
      <use transform="translate(323.535977 0)scale(0.996264)" xlink:href="#CMSS17-110"/>
      <use transform="translate(371.74092 0)scale(0.996264)" xlink:href="#CMSS17-101"/>
     </g>
    </g>
   </g>
   <g id="matplotlib.axis_2">
    <g id="ytick_1">
     <g id="line2d_19">
      <path clip-path="url(#p8058d5f5cf)" d="M 34.678823 232.984052 
L 369.478823 232.984052 
" style="fill:none;stroke:#b0b0b0;stroke-linecap:square;stroke-width:0.8;"/>
     </g>
     <g id="line2d_20">
      <defs>
       <path d="M 0 0 
L -3.5 0 
" id="m8c5ee3823c" style="stroke:#000000;stroke-width:0.8;"/>
      </defs>
      <g>
       <use style="stroke:#000000;stroke-width:0.8;" x="34.678823" xlink:href="#m8c5ee3823c" y="232.984052"/>
      </g>
     </g>
     <g id="text_11">
      <!-- $-1.5$ -->
      <defs>
       <path d="M 11.40625 57.6875 
C 12.40625 57.28125 16.5 56 20.703125 56 
C 30 56 35.09375 61.109375 38 64.0625 
C 38 64.953125 38 65.5 37.40625 65.5 
C 37.296875 65.5 37.09375 65.5 36.296875 65.046875 
C 32.796875 63.40625 28.703125 62.078125 23.703125 62.078125 
C 20.703125 62.078125 16.203125 62.484375 11.296875 64.671875 
C 10.203125 65.171875 10 65.171875 9.90625 65.171875 
C 9.40625 65.171875 9.296875 65.0625 9.296875 63.078125 
L 9.296875 34.421875 
C 9.296875 32.640625 9.296875 32.140625 10.296875 32.140625 
C 10.796875 32.140625 11 32.34375 11.5 33.03125 
C 14.703125 37.515625 19.09375 39.40625 24.09375 39.40625 
C 27.59375 39.40625 35.09375 37.21875 35.09375 20.140625 
C 35.09375 16.953125 35.09375 11.171875 32.09375 6.578125 
C 29.59375 2.484375 25.703125 0.390625 21.40625 0.390625 
C 14.796875 0.390625 8.09375 5 6.296875 12.71875 
C 6.703125 12.609375 7.5 12.421875 7.90625 12.421875 
C 9.203125 12.421875 11.703125 13.125 11.703125 16.21875 
C 11.703125 18.90625 9.796875 20 7.90625 20 
C 5.59375 20 4.09375 18.59375 4.09375 15.796875 
C 4.09375 7.09375 11 -2 21.59375 -2 
C 31.90625 -2 41.703125 6.875 41.703125 19.75 
C 41.703125 31.71875 33.90625 41 24.203125 41 
C 19.09375 41 14.796875 39.109375 11.40625 35.53125 
z
" id="CMR17-53"/>
      </defs>
      <g transform="translate(7.2 236.443301)scale(0.1 -0.1)">
       <use transform="scale(0.996264)" xlink:href="#CMSY10-0"/>
       <use transform="translate(77.487468 0)scale(0.996264)" xlink:href="#CMR17-49"/>
       <use transform="translate(123.177945 0)scale(0.996264)" xlink:href="#CMMI12-58"/>
       <use transform="translate(150.275122 0)scale(0.996264)" xlink:href="#CMR17-53"/>
      </g>
     </g>
    </g>
    <g id="ytick_2">
     <g id="line2d_21">
      <path clip-path="url(#p8058d5f5cf)" d="M 34.678823 199.120947 
L 369.478823 199.120947 
" style="fill:none;stroke:#b0b0b0;stroke-linecap:square;stroke-width:0.8;"/>
     </g>
     <g id="line2d_22">
      <g>
       <use style="stroke:#000000;stroke-width:0.8;" x="34.678823" xlink:href="#m8c5ee3823c" y="199.120947"/>
      </g>
     </g>
     <g id="text_12">
      <!-- $-1.0$ -->
      <g transform="translate(7.2 202.580196)scale(0.1 -0.1)">
       <use transform="scale(0.996264)" xlink:href="#CMSY10-0"/>
       <use transform="translate(77.487468 0)scale(0.996264)" xlink:href="#CMR17-49"/>
       <use transform="translate(123.177945 0)scale(0.996264)" xlink:href="#CMMI12-58"/>
       <use transform="translate(150.275122 0)scale(0.996264)" xlink:href="#CMR17-48"/>
      </g>
     </g>
    </g>
    <g id="ytick_3">
     <g id="line2d_23">
      <path clip-path="url(#p8058d5f5cf)" d="M 34.678823 165.257843 
L 369.478823 165.257843 
" style="fill:none;stroke:#b0b0b0;stroke-linecap:square;stroke-width:0.8;"/>
     </g>
     <g id="line2d_24">
      <g>
       <use style="stroke:#000000;stroke-width:0.8;" x="34.678823" xlink:href="#m8c5ee3823c" y="165.257843"/>
      </g>
     </g>
     <g id="text_13">
      <!-- $-0.5$ -->
      <g transform="translate(7.2 168.717092)scale(0.1 -0.1)">
       <use transform="scale(0.996264)" xlink:href="#CMSY10-0"/>
       <use transform="translate(77.487468 0)scale(0.996264)" xlink:href="#CMR17-48"/>
       <use transform="translate(123.177945 0)scale(0.996264)" xlink:href="#CMMI12-58"/>
       <use transform="translate(150.275122 0)scale(0.996264)" xlink:href="#CMR17-53"/>
      </g>
     </g>
    </g>
    <g id="ytick_4">
     <g id="line2d_25">
      <path clip-path="url(#p8058d5f5cf)" d="M 34.678823 131.394739 
L 369.478823 131.394739 
" style="fill:none;stroke:#b0b0b0;stroke-linecap:square;stroke-width:0.8;"/>
     </g>
     <g id="line2d_26">
      <g>
       <use style="stroke:#000000;stroke-width:0.8;" x="34.678823" xlink:href="#m8c5ee3823c" y="131.394739"/>
      </g>
     </g>
     <g id="text_14">
      <!-- $0.0$ -->
      <g transform="translate(14.948744 134.853988)scale(0.1 -0.1)">
       <use transform="scale(0.996264)" xlink:href="#CMR17-48"/>
       <use transform="translate(45.690477 0)scale(0.996264)" xlink:href="#CMMI12-58"/>
       <use transform="translate(72.787654 0)scale(0.996264)" xlink:href="#CMR17-48"/>
      </g>
     </g>
    </g>
    <g id="ytick_5">
     <g id="line2d_27">
      <path clip-path="url(#p8058d5f5cf)" d="M 34.678823 97.531635 
L 369.478823 97.531635 
" style="fill:none;stroke:#b0b0b0;stroke-linecap:square;stroke-width:0.8;"/>
     </g>
     <g id="line2d_28">
      <g>
       <use style="stroke:#000000;stroke-width:0.8;" x="34.678823" xlink:href="#m8c5ee3823c" y="97.531635"/>
      </g>
     </g>
     <g id="text_15">
      <!-- $0.5$ -->
      <g transform="translate(14.948744 100.990884)scale(0.1 -0.1)">
       <use transform="scale(0.996264)" xlink:href="#CMR17-48"/>
       <use transform="translate(45.690477 0)scale(0.996264)" xlink:href="#CMMI12-58"/>
       <use transform="translate(72.787654 0)scale(0.996264)" xlink:href="#CMR17-53"/>
      </g>
     </g>
    </g>
    <g id="ytick_6">
     <g id="line2d_29">
      <path clip-path="url(#p8058d5f5cf)" d="M 34.678823 63.66853 
L 369.478823 63.66853 
" style="fill:none;stroke:#b0b0b0;stroke-linecap:square;stroke-width:0.8;"/>
     </g>
     <g id="line2d_30">
      <g>
       <use style="stroke:#000000;stroke-width:0.8;" x="34.678823" xlink:href="#m8c5ee3823c" y="63.66853"/>
      </g>
     </g>
     <g id="text_16">
      <!-- $1.0$ -->
      <g transform="translate(14.948744 67.12778)scale(0.1 -0.1)">
       <use transform="scale(0.996264)" xlink:href="#CMR17-49"/>
       <use transform="translate(45.690477 0)scale(0.996264)" xlink:href="#CMMI12-58"/>
       <use transform="translate(72.787654 0)scale(0.996264)" xlink:href="#CMR17-48"/>
      </g>
     </g>
    </g>
    <g id="ytick_7">
     <g id="line2d_31">
      <path clip-path="url(#p8058d5f5cf)" d="M 34.678823 29.805426 
L 369.478823 29.805426 
" style="fill:none;stroke:#b0b0b0;stroke-linecap:square;stroke-width:0.8;"/>
     </g>
     <g id="line2d_32">
      <g>
       <use style="stroke:#000000;stroke-width:0.8;" x="34.678823" xlink:href="#m8c5ee3823c" y="29.805426"/>
      </g>
     </g>
     <g id="text_17">
      <!-- $1.5$ -->
      <g transform="translate(14.948744 33.264675)scale(0.1 -0.1)">
       <use transform="scale(0.996264)" xlink:href="#CMR17-49"/>
       <use transform="translate(45.690477 0)scale(0.996264)" xlink:href="#CMMI12-58"/>
       <use transform="translate(72.787654 0)scale(0.996264)" xlink:href="#CMR17-53"/>
      </g>
     </g>
    </g>
   </g>
   <g id="line2d_33">
    <path clip-path="url(#p8058d5f5cf)" d="M 343.376141 130.717375 
L 343.55052 128.418878 
L 343.947502 126.061792 
L 344.629998 123.411593 
L 345.639381 120.434891 
L 347.226965 116.525925 
L 351.643562 106.015661 
L 352.772031 102.584248 
L 353.53561 99.553879 
L 353.942909 97.266757 
L 354.206397 94.727645 
L 354.246927 91.896971 
L 353.951984 88.728594 
L 353.631068 87.001488 
L 353.161585 85.169618 
L 352.51284 83.225454 
L 351.648247 81.161261 
L 350.524232 78.969275 
L 349.088962 76.641966 
L 347.280906 74.17243 
L 345.027236 71.554936 
L 342.242121 68.785704 
L 338.825012 65.863962 
L 334.659101 62.793378 
L 329.61026 59.583941 
L 323.526926 56.254391 
L 316.241659 52.835241 
L 307.575343 49.372385 
L 297.345352 45.931136 
L 285.37917 42.600306 
L 271.534951 39.495579 
L 255.729883 36.760976 
L 237.975669 34.566734 
L 218.417699 33.101662 
L 197.370608 32.558375 
L 175.339017 33.111079 
L 153.010446 34.888055 
L 131.210411 37.944041 
L 110.819187 42.240044 
L 92.663453 47.637943 
L 77.40807 53.913614 
L 65.476256 60.786297 
L 57.0175 67.956476 
L 51.926027 75.14236 
L 49.897005 82.106989 
L 50.499934 88.672412 
L 53.249977 94.721777 
L 57.664885 100.192825 
L 63.302989 105.066938 
L 69.783505 109.357107 
L 76.793257 113.097009 
L 84.084488 116.332162 
L 91.467781 119.113384 
L 98.802958 121.492308 
L 105.989777 123.518553 
L 112.95941 125.238099 
L 119.667133 126.692518 
L 126.086324 127.918747 
L 132.203678 128.949204 
L 143.524821 130.531781 
L 153.669718 131.622554 
L 162.729355 132.35602 
L 170.812914 132.830719 
L 181.347151 133.209813 
L 192.935573 133.334606 
L 204.358918 133.185881 
L 216.217255 132.789971 
L 233.579099 131.937565 
L 245.935733 131.415497 
L 247.317886 131.394773 
L 247.317886 131.394773 
" style="fill:none;stroke:#0000ff;stroke-linecap:square;stroke-width:1.5;"/>
   </g>
   <g id="line2d_34">
    <path clip-path="url(#p8058d5f5cf)" d="M 343.376141 132.072103 
L 343.55052 134.3706 
L 343.947502 136.727686 
L 344.629998 139.377885 
L 345.639381 142.354586 
L 347.226965 146.263553 
L 351.643562 156.773817 
L 352.772031 160.20523 
L 353.53561 163.235598 
L 353.942909 165.522721 
L 354.206397 168.061833 
L 354.246927 170.892507 
L 353.951984 174.060884 
L 353.631068 175.78799 
L 353.161585 177.61986 
L 352.51284 179.564024 
L 351.648247 181.628217 
L 350.524232 183.820203 
L 349.088962 186.147511 
L 347.280906 188.617048 
L 345.027236 191.234542 
L 342.242121 194.003774 
L 338.825012 196.925515 
L 334.659101 199.9961 
L 329.61026 203.205537 
L 323.526926 206.535087 
L 316.241659 209.954237 
L 307.575343 213.417093 
L 297.345352 216.858341 
L 285.37917 220.189172 
L 271.534951 223.293899 
L 255.729883 226.028502 
L 237.975669 228.222744 
L 218.417699 229.687815 
L 197.370608 230.231103 
L 175.339017 229.678399 
L 153.010446 227.901423 
L 131.210411 224.845437 
L 110.819187 220.549434 
L 92.663453 215.151534 
L 77.40807 208.875864 
L 65.476256 202.003181 
L 57.0175 194.833002 
L 51.926027 187.647118 
L 49.897005 180.682489 
L 50.499934 174.117066 
L 53.249977 168.067701 
L 57.664885 162.596652 
L 63.302989 157.72254 
L 69.783505 153.432371 
L 76.793257 149.692469 
L 84.084488 146.457316 
L 91.467781 143.676094 
L 98.802958 141.297169 
L 105.989777 139.270925 
L 112.95941 137.551378 
L 119.667133 136.09696 
L 126.086324 134.87073 
L 132.203678 133.840274 
L 143.524821 132.257697 
L 153.669718 131.166923 
L 162.729355 130.433458 
L 170.812914 129.958758 
L 181.347151 129.579665 
L 192.935573 129.454872 
L 204.358918 129.603597 
L 216.217255 129.999506 
L 233.579099 130.851913 
L 245.935733 131.373981 
L 247.317886 131.394705 
L 247.317886 131.394705 
" style="fill:none;stroke:#0000ff;stroke-dasharray:5.6,2.4;stroke-dashoffset:0;stroke-width:1.5;"/>
   </g>
   <g id="line2d_35">
    <defs>
     <path d="M -3 3 
L 3 -3 
M -3 -3 
L 3 3 
" id="m875ee4fa52" style="stroke:#ff0000;"/>
    </defs>
    <g clip-path="url(#p8058d5f5cf)">
     <use style="fill:#ff0000;stroke:#ff0000;" x="55.278195" xlink:href="#m875ee4fa52" y="131.394739"/>
    </g>
   </g>
   <g id="line2d_36">
    <defs>
     <path d="M 0 3 
C 0.795609 3 1.55874 2.683901 2.12132 2.12132 
C 2.683901 1.55874 3 0.795609 3 0 
C 3 -0.795609 2.683901 -1.55874 2.12132 -2.12132 
C 1.55874 -2.683901 0.795609 -3 0 -3 
C -0.795609 -3 -1.55874 -2.683901 -2.12132 -2.12132 
C -2.683901 -1.55874 -3 -0.795609 -3 0 
C -3 0.795609 -2.683901 1.55874 -2.12132 2.12132 
C -1.55874 2.683901 -0.795609 3 0 3 
z
" id="m9bded7aa39" style="stroke:#ff0000;"/>
    </defs>
    <g clip-path="url(#p8058d5f5cf)">
     <use style="fill:#ff0000;stroke:#ff0000;" x="343.366539" xlink:href="#m9bded7aa39" y="131.394739"/>
     <use style="fill:#ff0000;stroke:#ff0000;" x="247.337091" xlink:href="#m9bded7aa39" y="35.62988"/>
     <use style="fill:#ff0000;stroke:#ff0000;" x="151.307643" xlink:href="#m9bded7aa39" y="131.394739"/>
     <use style="fill:#ff0000;stroke:#ff0000;" x="247.337091" xlink:href="#m9bded7aa39" y="131.394739"/>
    </g>
   </g>
   <g id="patch_9">
    <path d="M 34.678823 240.114739 
L 34.678823 22.674739 
" style="fill:none;stroke:#000000;stroke-linecap:square;stroke-linejoin:miter;stroke-width:0.8;"/>
   </g>
   <g id="patch_10">
    <path d="M 369.478823 240.114739 
L 369.478823 22.674739 
" style="fill:none;stroke:#000000;stroke-linecap:square;stroke-linejoin:miter;stroke-width:0.8;"/>
   </g>
   <g id="patch_11">
    <path d="M 34.678823 240.114739 
L 369.478823 240.114739 
" style="fill:none;stroke:#000000;stroke-linecap:square;stroke-linejoin:miter;stroke-width:0.8;"/>
   </g>
   <g id="patch_12">
    <path d="M 34.678823 22.674739 
L 369.478823 22.674739 
" style="fill:none;stroke:#000000;stroke-linecap:square;stroke-linejoin:miter;stroke-width:0.8;"/>
   </g>
   <g id="patch_13">
    <path d="M 319.115205 105.421075 
Q 330.558508 117.677081 341.238799 129.115887 
" style="fill:none;stroke:#000000;stroke-linecap:round;"/>
    <path d="M 339.970821 124.82727 
L 341.238799 129.115887 
L 337.047119 127.5571 
L 339.970821 124.82727 
z
" style="fill:#1f77b4;stroke:#000000;stroke-linecap:round;"/>
   </g>
   <g id="text_18">
    <!-- $\omega=0$ -->
    <defs>
     <path d="M 59.40625 37.421875 
C 59.40625 40.3125 58.59375 44 55.09375 44 
C 53.09375 44 50.796875 41.515625 50.796875 39.515625 
C 50.796875 38.625 51.203125 38.03125 52 37.125 
C 53.5 35.4375 55.40625 32.75 55.40625 28.078125 
C 55.40625 24.484375 53.203125 18.8125 51.59375 15.734375 
C 48.796875 10.25 44.203125 5.578125 39 5.578125 
C 32.703125 5.578125 30.296875 9.609375 29.203125 15.234375 
C 30.296875 17.859375 32.59375 24.375 32.59375 27 
C 32.59375 28.09375 32.203125 29 30.90625 29 
C 30.203125 29 29.40625 28.609375 28.90625 27.796875 
C 27.5 25.59375 26.203125 17.640625 26.296875 15.53125 
C 24.40625 11.8125 19 5.578125 12.59375 5.578125 
C 5.90625 5.578125 4.09375 11.453125 4.09375 17.125 
C 4.09375 27.46875 10.59375 36.53125 12.40625 39.015625 
C 13.40625 40.515625 14.09375 41.515625 14.09375 41.703125 
C 14.09375 42.40625 13.703125 43.5 12.796875 43.5 
C 11.203125 43.5 10.703125 42.203125 9.90625 41.015625 
C 4.796875 33.140625 1.203125 22.09375 1.203125 12.546875 
C 1.203125 6.375 3.5 -1 11 -1 
C 19.296875 -1 24.5 6.109375 26.59375 9.90625 
C 27.40625 4.296875 30.40625 -1 37.703125 -1 
C 45.296875 -1 50.09375 5.671875 53.703125 13.734375 
C 56.296875 19.515625 59.40625 31.953125 59.40625 37.421875 
" id="CMMI12-33"/>
     <path d="M 64.296875 31.515625 
C 65.796875 31.515625 67.296875 31.515625 67.296875 33.203125 
C 67.296875 35 65.59375 35 63.90625 35 
L 8 35 
C 6.296875 35 4.59375 35 4.59375 33.203125 
C 4.59375 31.515625 6.09375 31.515625 7.59375 31.515625 
z
M 63.90625 14 
C 65.59375 14 67.296875 14 67.296875 15.796875 
C 67.296875 17.484375 65.796875 17.484375 64.296875 17.484375 
L 7.59375 17.484375 
C 6.09375 17.484375 4.59375 17.484375 4.59375 15.796875 
C 4.59375 14 6.296875 14 8 14 
z
" id="CMR17-61"/>
    </defs>
    <g transform="translate(299.337188 100.022295)scale(0.1 -0.1)">
     <use transform="scale(0.996264)" xlink:href="#CMMI12-33"/>
     <use transform="translate(91.992355 0)scale(0.996264)" xlink:href="#CMR17-61"/>
     <use transform="translate(191.381152 0)scale(0.996264)" xlink:href="#CMR17-48"/>
    </g>
   </g>
   <g id="patch_14">
    <path d="M 256.798437 55.430529 
Q 252.499138 46.432981 248.681867 38.444218 
" style="fill:none;stroke:#000000;stroke-linecap:round;"/>
    <path d="M 248.601852 42.915638 
L 248.681867 38.444218 
L 252.210994 41.191082 
L 248.601852 42.915638 
z
" style="fill:#1f77b4;stroke:#000000;stroke-linecap:round;"/>
   </g>
   <g id="text_19">
    <!-- $1.414j$ -->
    <defs>
     <path d="M 35 31.6875 
C 35.40625 33.296875 35.40625 34.671875 35.40625 35.078125 
C 35.40625 40.828125 31.09375 44 26.59375 44 
C 16.5 44 11.09375 29.515625 11.09375 28.828125 
C 11.09375 28.328125 11.5 27.9375 12.09375 27.9375 
C 12.90625 27.9375 13 28.328125 13.5 29.3125 
C 17.5 38.9375 22.5 42.015625 26.296875 42.015625 
C 28.40625 42.015625 29.5 40.90625 29.5 37.453125 
C 29.5 35.078125 29.203125 34.078125 28.796875 32.296875 
L 19.296875 -5.109375 
C 17.40625 -12.4375 12.703125 -18 7.203125 -18 
C 6.796875 -18 4.703125 -18 2.796875 -17 
C 5.203125 -16.5 7.09375 -14.625 7.09375 -12.25 
C 7.09375 -10.65625 5.90625 -9.0625 3.703125 -9.0625 
C 1.09375 -9.0625 -1.296875 -11.25 -1.296875 -14.234375 
C -1.296875 -18.296875 3.09375 -20 7.203125 -20 
C 14.09375 -20 23.203125 -14.9375 25.703125 -5 
z
M 39.09375 62.703125 
C 39.09375 65.203125 37 66 35.796875 66 
C 33.09375 66 30.796875 63.40625 30.796875 61.203125 
C 30.796875 59.71875 32 57.921875 34.203125 57.921875 
C 36.5 57.921875 39.09375 60.109375 39.09375 62.703125 
" id="CMMI12-106"/>
    </defs>
    <g transform="translate(247.337091 66.159191)scale(0.1 -0.1)">
     <use transform="scale(0.996264)" xlink:href="#CMR17-49"/>
     <use transform="translate(45.690477 0)scale(0.996264)" xlink:href="#CMMI12-58"/>
     <use transform="translate(72.787654 0)scale(0.996264)" xlink:href="#CMR17-52"/>
     <use transform="translate(118.478131 0)scale(0.996264)" xlink:href="#CMR17-49"/>
     <use transform="translate(164.168608 0)scale(0.996264)" xlink:href="#CMR17-52"/>
     <use transform="translate(209.859086 0)scale(0.996264)" xlink:href="#CMMI12-106"/>
    </g>
   </g>
   <g id="patch_15">
    <path d="M 151.307643 105.958876 
Q 151.307643 117.675457 151.307643 128.274003 
" style="fill:none;stroke:#000000;stroke-linecap:round;"/>
    <path d="M 153.307643 124.274003 
L 151.307643 128.274003 
L 149.307643 124.274003 
L 153.307643 124.274003 
z
" style="fill:#1f77b4;stroke:#000000;stroke-linecap:round;"/>
   </g>
   <g id="text_20">
    <!-- $-0.5$ -->
    <g transform="translate(141.068231 100.022295)scale(0.1 -0.1)">
     <use transform="scale(0.996264)" xlink:href="#CMSY10-0"/>
     <use transform="translate(77.487468 0)scale(0.996264)" xlink:href="#CMR17-48"/>
     <use transform="translate(123.177945 0)scale(0.996264)" xlink:href="#CMMI12-58"/>
     <use transform="translate(150.275122 0)scale(0.996264)" xlink:href="#CMR17-53"/>
    </g>
   </g>
   <g id="patch_16">
    <path d="M 247.337091 156.830602 
Q 247.337091 145.114021 247.337091 134.515474 
" style="fill:none;stroke:#000000;stroke-linecap:round;"/>
    <path d="M 245.337091 138.515474 
L 247.337091 134.515474 
L 249.337091 138.515474 
L 245.337091 138.515474 
z
" style="fill:#1f77b4;stroke:#000000;stroke-linecap:round;"/>
   </g>
   <g id="text_21">
    <!-- $\omega=\infty$ -->
    <defs>
     <path d="M 50.796875 27.03125 
C 45.40625 33.84375 44.203125 35.34375 41.09375 37.84375 
C 35.5 42.34375 29.90625 44.140625 24.796875 44.140625 
C 13.09375 44.140625 5.5 33.15625 5.5 21.46875 
C 5.5 9.984375 12.90625 -1.09375 24.40625 -1.09375 
C 35.90625 -1.09375 44.203125 7.984375 49.09375 15.96875 
C 54.5 9.1875 55.703125 7.6875 58.796875 5.1875 
C 64.40625 0.703125 70 -1.09375 75.09375 -1.09375 
C 86.796875 -1.09375 94.40625 9.890625 94.40625 21.5625 
C 94.40625 33.046875 87 44.140625 75.5 44.140625 
C 64 44.140625 55.703125 35.03125 50.796875 27.03125 
M 53.40625 23.65625 
C 57.5 30.859375 64.90625 40.9375 76.203125 40.9375 
C 86.796875 40.9375 92.203125 30.546875 92.203125 21.5625 
C 92.203125 11.765625 85.5 3.6875 76.703125 3.6875 
C 70.90625 3.6875 66.40625 7.890625 64.296875 9.96875 
C 61.796875 12.671875 59.5 15.765625 53.40625 23.65625 
M 46.5 19.375 
C 42.40625 12.1875 35 2.09375 23.703125 2.09375 
C 13.09375 2.09375 7.703125 12.484375 7.703125 21.46875 
C 7.703125 31.25 14.40625 39.34375 23.203125 39.34375 
C 29 39.34375 33.5 35.140625 35.59375 33.046875 
C 38.09375 30.359375 40.40625 27.25 46.5 19.375 
" id="CMSY10-49"/>
    </defs>
    <g transform="translate(232.4347 167.748503)scale(0.1 -0.1)">
     <use transform="scale(0.996264)" xlink:href="#CMMI12-33"/>
     <use transform="translate(91.992355 0)scale(0.996264)" xlink:href="#CMR17-61"/>
     <use transform="translate(191.381152 0)scale(0.996264)" xlink:href="#CMSY10-49"/>
    </g>
   </g>
   <g id="text_22">
    <!-- Nyquist Plot of $(s+0.5)/(s^3+s^2+1)$ -->
    <defs>
     <path d="M 22.90625 65.3125 
L 21.09375 69 
L 8.796875 69 
L 8.796875 0 
L 16.59375 0 
L 16.59375 61.34375 
L 16.703125 61.4375 
C 17.40625 59.640625 17.796875 58.75 21.90625 49.90625 
L 43.296875 3.6875 
L 45.09375 0 
L 57.40625 0 
L 57.40625 69 
L 49.59375 69 
L 49.59375 7.65625 
L 49.5 7.546875 
C 48.796875 9.34375 48.40625 10.234375 44.296875 19.078125 
z
" id="CMSS17-78"/>
     <path d="M 41.796875 43 
L 34 43 
C 25.5 20.21875 22.59375 10.96875 22.40625 5.984375 
L 22.296875 5.984375 
C 22 10.875 17.59375 22.8125 14.09375 31.359375 
L 9.40625 43 
L 1.296875 43 
L 19 0.203125 
C 17.90625 -2.78125 16.296875 -7.265625 15.796875 -8.265625 
C 13.59375 -13.828125 12.09375 -13.828125 10.5 -13.828125 
C 10.09375 -13.828125 6.90625 -13.828125 3.296875 -12.640625 
L 3.90625 -19.203125 
C 6.40625 -19.703125 8.90625 -20 10.703125 -20 
C 13.203125 -20 18.203125 -20 22.796875 -7.765625 
z
" id="CMSS17-121"/>
     <path d="M 40.796875 44 
L 33.40625 44 
L 33.40625 37.9375 
C 33 38.4375 28.40625 44 20.59375 44 
C 11.5 44 3.296875 34.8125 3.296875 21.859375 
C 3.296875 9.890625 10.203125 -0.078125 19.203125 -0.078125 
C 23.40625 -0.078125 28.703125 1.421875 33.203125 5.703125 
L 33.203125 -19 
L 40.796875 -19 
z
M 33.40625 14.28125 
C 33.40625 13 33.40625 11.21875 30.296875 8.65625 
C 29.5 7.96875 27.296875 6 23.5 6 
C 16.40625 6 10.90625 13.28125 10.90625 21.859375 
C 10.90625 31.421875 17.59375 37.734375 24.40625 37.734375 
C 30.09375 37.734375 33.40625 32.203125 33.40625 28.078125 
z
" id="CMSS17-113"/>
     <path d="M 40.90625 42.796875 
L 33.296875 42.796875 
L 33.296875 15.1875 
C 33.296875 7.78125 27.90625 4.78125 22.203125 4.78125 
C 15.59375 4.78125 15 6.984375 15 11.078125 
L 15 42.796875 
L 7.40625 42.796875 
L 7.40625 10.59375 
C 7.40625 2.796875 10.09375 -1 17 -1 
C 20.40625 -1 28.09375 -0.203125 33.5 4.78125 
L 33.5 0 
L 40.90625 0 
z
" id="CMSS17-117"/>
     <path d="M 15.296875 65.359375 
L 6.90625 65.359375 
L 6.90625 57 
L 15.296875 57 
z
M 14.796875 42.796875 
L 7.40625 42.796875 
L 7.40625 0 
L 14.796875 0 
z
" id="CMSS17-105"/>
     <path d="M 32.203125 41.046875 
C 26.296875 43.859375 21.703125 43.859375 18.703125 43.859375 
C 11.59375 43.859375 3.09375 41.375 3.09375 31.296875 
C 3.09375 21.234375 14.09375 19.03125 17.09375 18.421875 
C 21.703125 17.53125 26.796875 16.53125 26.796875 11.5625 
C 26.796875 5.265625 19.59375 5.265625 18.296875 5.265625 
C 14.296875 5.265625 8.796875 6.359375 3.796875 9.96875 
L 2.59375 3.28125 
C 8.296875 0 13.796875 -1 18.40625 -1 
C 30.703125 -1 33.796875 6.5 33.796875 12.203125 
C 33.796875 17.09375 31 20.390625 29.09375 21.890625 
C 25.796875 24.5 24.59375 24.796875 16.40625 26.5 
C 15 26.703125 10.09375 27.796875 10.09375 32.28125 
C 10.09375 38 16.40625 38 17.796875 38 
C 24.296875 38 28.296875 35.984375 31 34.5 
z
" id="CMSS17-115"/>
     <path d="M 16.703125 37 
L 29.703125 37 
L 29.703125 42.765625 
L 16.703125 42.765625 
L 16.703125 55 
L 9.59375 55 
L 9.59375 42.765625 
L 1.703125 42.765625 
L 1.703125 37 
L 9.40625 37 
L 9.40625 11.703125 
C 9.40625 6 10.703125 -1 17.296875 -1 
C 22.296875 -1 26.90625 0.390625 31.296875 2.6875 
L 29.703125 8.5625 
C 27.296875 6.46875 24.40625 5.265625 21.296875 5.265625 
C 16.90625 5.265625 16.703125 10.875 16.703125 13.375 
z
" id="CMSS17-116"/>
     <path d="M 44.203125 21.1875 
C 44.203125 34 34.703125 44 23.5 44 
C 12 44 2.703125 33.703125 2.703125 21.1875 
C 2.703125 8.5 12.296875 -1 23.40625 -1 
C 34.796875 -1 44.203125 8.796875 44.203125 21.1875 
M 23.5 5.265625 
C 16.40625 5.265625 10.296875 11.078125 10.296875 22 
C 10.296875 33.609375 17.40625 37.921875 23.40625 37.921875 
C 29.90625 37.921875 36.59375 33.21875 36.59375 22 
C 36.59375 10.671875 30.09375 5.265625 23.5 5.265625 
" id="CMSS17-111"/>
     <path d="M 16.796875 37 
L 26.90625 37 
L 26.90625 42.765625 
L 16.59375 42.765625 
L 16.59375 55.609375 
C 16.59375 62.71875 22 63.9375 25.09375 63.9375 
C 26.09375 63.9375 28.90625 63.9375 32.5 62.640625 
L 32.5 69.203125 
C 30.203125 69.703125 27.40625 70 25.203125 70 
C 15.90625 70 9.40625 62.390625 9.40625 52.484375 
L 9.40625 42.765625 
L 2.5 42.765625 
L 2.5 37 
L 9.40625 37 
L 9.40625 0 
L 16.796875 0 
z
" id="CMSS17-102"/>
     <path d="M 30.59375 -24.390625 
C 30.59375 -24.296875 30.59375 -24.09375 30.296875 -23.796875 
C 25.703125 -19.125 13.40625 -6.359375 13.40625 24.703125 
C 13.40625 55.765625 25.5 68.421875 30.40625 73.390625 
C 30.40625 73.5 30.59375 73.703125 30.59375 74 
C 30.59375 74.296875 30.296875 74.5 29.90625 74.5 
C 28.796875 74.5 20.296875 67.125 15.40625 56.15625 
C 10.40625 45.109375 9 34.359375 9 24.8125 
C 9 17.625 9.703125 5.484375 15.703125 -7.359375 
C 20.5 -17.734375 28.703125 -25 29.90625 -25 
C 30.40625 -25 30.59375 -24.796875 30.59375 -24.390625 
" id="CMR17-40"/>
     <path d="M 22.796875 20 
C 24.5 19.703125 27.203125 19.109375 27.796875 19 
C 29.09375 18.625 33.59375 17.03125 33.59375 12.234375 
C 33.59375 9.15625 30.796875 1.09375 19.203125 1.09375 
C 17.09375 1.09375 9.59375 1.09375 7.59375 6.8125 
C 11.59375 6.3125 13.59375 9.421875 13.59375 11.640625 
C 13.59375 13.75 12.203125 14.84375 10.203125 14.84375 
C 8 14.84375 5.09375 13.140625 5.09375 8.625 
C 5.09375 2.703125 11.09375 -1 19.09375 -1 
C 34.296875 -1 38.796875 10.171875 38.796875 15.375 
C 38.796875 16.859375 38.796875 19.65625 35.59375 22.84375 
C 33.09375 25.25 30.703125 25.75 25.296875 26.84375 
C 22.59375 27.4375 18.296875 28.34375 18.296875 32.828125 
C 18.296875 34.828125 20.09375 42.015625 29.59375 42.015625 
C 33.796875 42.015625 37.90625 40.453125 38.90625 37 
C 34.5 37 34.296875 33.203125 34.296875 33.109375 
C 34.296875 31 36.203125 30.40625 37.09375 30.40625 
C 38.5 30.40625 41.296875 31.484375 41.296875 35.640625 
C 41.296875 39.765625 37.5 44 29.703125 44 
C 16.59375 44 13.09375 33.75 13.09375 29.671875 
C 13.09375 22.09375 20.5 20.5 22.796875 20 
" id="CMMI12-115"/>
     <path d="M 37.703125 23 
L 64.203125 23 
C 65.59375 23 67.296875 23 67.296875 24.6875 
C 67.296875 26.484375 65.703125 26.484375 64.203125 26.484375 
L 37.703125 26.484375 
L 37.703125 52.90625 
C 37.703125 54.296875 37.703125 56 36 56 
C 34.203125 56 34.203125 54.40625 34.203125 52.90625 
L 34.203125 26.484375 
L 7.703125 26.484375 
C 6.296875 26.484375 4.59375 26.484375 4.59375 24.796875 
C 4.59375 23 6.203125 23 7.703125 23 
L 34.203125 23 
L 34.203125 -3.40625 
C 34.203125 -4.796875 34.203125 -6.5 35.90625 -6.5 
C 37.703125 -6.5 37.703125 -4.90625 37.703125 -3.40625 
z
" id="CMR17-43"/>
     <path d="M 26.296875 24.703125 
C 26.296875 31.875 25.59375 44.015625 19.59375 56.859375 
C 14.796875 67.234375 6.59375 74.5 5.40625 74.5 
C 5.09375 74.5 4.703125 74.390625 4.703125 73.890625 
C 4.703125 73.703125 4.796875 73.59375 4.90625 73.390625 
C 9.703125 68.40625 21.90625 55.75 21.90625 24.75 
C 21.90625 -6.359375 9.796875 -19.015625 4.90625 -24.015625 
C 4.796875 -24.203125 4.703125 -24.3125 4.703125 -24.5 
C 4.703125 -25 5.09375 -25 5.40625 -25 
C 6.5 -25 15 -17.625 19.90625 -6.65625 
C 24.90625 4.390625 26.296875 15.140625 26.296875 24.703125 
" id="CMR17-41"/>
     <path d="M 42.90625 71.28125 
C 42.90625 71.390625 43.5 72.90625 43.5 73.09375 
C 43.5 74.296875 42.5 75 41.703125 75 
C 41.203125 75 40.296875 75 39.5 72.796875 
L 6 -21.296875 
C 6 -21.40625 5.40625 -22.890625 5.40625 -23.09375 
C 5.40625 -24.296875 6.40625 -25 7.203125 -25 
C 7.796875 -25 8.703125 -24.890625 9.40625 -22.796875 
z
" id="CMMI12-61"/>
     <path d="M 22.09375 33.703125 
C 31 33.703125 34.90625 25.96875 34.90625 17.03125 
C 34.90625 5 28.5 0.390625 22.703125 0.390625 
C 17.40625 0.390625 8.796875 3.03125 6.09375 10.828125 
C 6.59375 10.625 7.09375 10.625 7.59375 10.625 
C 10 10.625 11.796875 12.21875 11.796875 14.8125 
C 11.796875 17.703125 9.59375 19 7.59375 19 
C 5.90625 19 3.296875 18.203125 3.296875 14.46875 
C 3.296875 5.234375 12.296875 -2 22.90625 -2 
C 34 -2 42.5 6.71875 42.5 16.953125 
C 42.5 26.671875 34.5 33.703125 25 34.796875 
C 32.59375 36.375 39.90625 43.0625 39.90625 52.015625 
C 39.90625 59.6875 32 65.296875 23 65.296875 
C 13.90625 65.296875 5.90625 59.828125 5.90625 52.015625 
C 5.90625 48.59375 8.5 48 9.796875 48 
C 11.90625 48 13.703125 49.296875 13.703125 51.890625 
C 13.703125 54.46875 11.90625 55.765625 9.796875 55.765625 
C 9.40625 55.765625 8.90625 55.765625 8.5 55.578125 
C 11.40625 61.859375 19.296875 63 22.796875 63 
C 26.296875 63 32.90625 61.328125 32.90625 51.875 
C 32.90625 49.109375 32.5 44.1875 29.09375 39.84375 
C 26.09375 36 22.703125 36 19.40625 35.6875 
C 18.90625 35.6875 16.59375 35.453125 16.203125 35.453125 
C 15.5 35.359375 15.09375 35.265625 15.09375 34.5 
C 15.09375 33.796875 15.203125 33.703125 17.203125 33.703125 
z
" id="CMR17-51"/>
    </defs>
    <g transform="translate(105.786028 16.674739)scale(0.12 -0.12)">
     <use transform="scale(0.996264)" xlink:href="#CMSS17-78"/>
     <use transform="translate(66.061519 0)scale(0.996264)" xlink:href="#CMSS17-121"/>
     <use transform="translate(109.061661 0)scale(0.996264)" xlink:href="#CMSS17-113"/>
     <use transform="translate(157.266604 0)scale(0.996264)" xlink:href="#CMSS17-117"/>
     <use transform="translate(205.471547 0)scale(0.996264)" xlink:href="#CMSS17-105"/>
     <use transform="translate(227.65227 0)scale(0.996264)" xlink:href="#CMSS17-115"/>
     <use transform="translate(263.565812 0)scale(0.996264)" xlink:href="#CMSS17-116"/>
     <use transform="translate(328.626492 0)scale(0.996264)" xlink:href="#CMSS17-80"/>
     <use transform="translate(388.362078 0)scale(0.996264)" xlink:href="#CMSS17-108"/>
     <use transform="translate(410.542801 0)scale(0.996264)" xlink:href="#CMSS17-111"/>
     <use transform="translate(457.386424 0)scale(0.996264)" xlink:href="#CMSS17-116"/>
     <use transform="translate(522.447104 0)scale(0.996264)" xlink:href="#CMSS17-111"/>
     <use transform="translate(569.290727 0)scale(0.996264)" xlink:href="#CMSS17-102"/>
     <use transform="translate(629.146499 0)scale(0.996264)" xlink:href="#CMR17-40"/>
     <use transform="translate(664.427267 0)scale(0.996264)" xlink:href="#CMMI12-115"/>
     <use transform="translate(732.516521 0)scale(0.996264)" xlink:href="#CMR17-43"/>
     <use transform="translate(826.370517 0)scale(0.996264)" xlink:href="#CMR17-48"/>
     <use transform="translate(872.060994 0)scale(0.996264)" xlink:href="#CMMI12-58"/>
     <use transform="translate(899.158171 0)scale(0.996264)" xlink:href="#CMR17-53"/>
     <use transform="translate(944.848648 0)scale(0.996264)" xlink:href="#CMR17-41"/>
     <use transform="translate(980.129416 0)scale(0.996264)" xlink:href="#CMMI12-61"/>
     <use transform="translate(1028.904335 0)scale(0.996264)" xlink:href="#CMR17-40"/>
     <use transform="translate(1064.185102 0)scale(0.996264)" xlink:href="#CMMI12-115"/>
     <use transform="translate(1110.13515 36.153639)scale(0.697382)" xlink:href="#CMR17-51"/>
     <use transform="translate(1164.755671 0)scale(0.996264)" xlink:href="#CMR17-43"/>
     <use transform="translate(1258.609666 0)scale(0.996264)" xlink:href="#CMMI12-115"/>
     <use transform="translate(1304.559714 36.153639)scale(0.697382)" xlink:href="#CMR17-50"/>
     <use transform="translate(1359.180235 0)scale(0.996264)" xlink:href="#CMR17-43"/>
     <use transform="translate(1453.03423 0)scale(0.996264)" xlink:href="#CMR17-49"/>
     <use transform="translate(1498.724707 0)scale(0.996264)" xlink:href="#CMR17-41"/>
    </g>
   </g>
  </g>
 </g>
 <defs>
  <clipPath id="p8058d5f5cf">
   <rect height="217.44" width="334.8" x="34.678823" y="22.674739"/>
  </clipPath>
 </defs>
</svg>
