<?xml version="1.0" encoding="utf-8" standalone="no"?>
<!DOCTYPE svg PUBLIC "-//W3C//DTD SVG 1.1//EN"
  "http://www.w3.org/Graphics/SVG/1.1/DTD/svg11.dtd">
<!-- Created with matplotlib (http://matplotlib.org/) -->
<svg height="276pt" version="1.1" viewBox="0 0 394 276" width="394pt" xmlns="http://www.w3.org/2000/svg" xmlns:xlink="http://www.w3.org/1999/xlink">
 <defs>
  <style type="text/css">
*{stroke-linecap:butt;stroke-linejoin:round;}
  </style>
 </defs>
 <g id="figure_1">
  <g id="patch_1">
   <path d="M 0 276.624693 
L 394.694929 276.624693 
L 394.694929 0 
L 0 0 
z
" style="fill:none;"/>
  </g>
  <g id="axes_1">
   <g id="patch_2">
    <path d="M 49.194929 112.766376 
L 383.994929 112.766376 
L 383.994929 22.166376 
L 49.194929 22.166376 
z
" style="fill:#ffffff;"/>
   </g>
   <g id="matplotlib.axis_1">
    <g id="xtick_1">
     <g id="line2d_1">
      <path clip-path="url(#pe5526bfb5c)" d="M 64.413111 112.766376 
L 64.413111 22.166376 
" style="fill:none;stroke:#b0b0b0;stroke-linecap:square;stroke-width:0.8;"/>
     </g>
     <g id="line2d_2">
      <defs>
       <path d="M 0 0 
L 0 3.5 
" id="m93c96c3459" style="stroke:#000000;stroke-width:0.8;"/>
      </defs>
      <g>
       <use style="stroke:#000000;stroke-width:0.8;" x="64.413111" xlink:href="#m93c96c3459" y="112.766376"/>
      </g>
     </g>
     <g id="text_1">
      <!-- $10^{-2}$ -->
      <defs>
       <path d="M 26.59375 63.40625 
C 26.59375 65.5 26.5 65.5 25.09375 65.5 
C 21.203125 61.1875 15.296875 59.796875 9.703125 59.796875 
C 9.40625 59.796875 8.90625 59.796875 8.796875 59.5 
C 8.703125 59.296875 8.703125 59.09375 8.703125 57 
C 11.796875 57 17 57.59375 21 59.984375 
L 21 7.203125 
C 21 3.6875 20.796875 2.5 12.203125 2.5 
L 9.203125 2.5 
L 9.203125 0 
C 14 0 19 0 23.796875 0 
C 28.59375 0 33.59375 0 38.40625 0 
L 38.40625 2.5 
L 35.40625 2.5 
C 26.796875 2.5 26.59375 3.59375 26.59375 7.15625 
z
" id="CMR17-49"/>
       <path d="M 42 31.640625 
C 42 37.75 41.90625 48.125 37.703125 56.109375 
C 34 63.109375 28.09375 65.59375 22.90625 65.59375 
C 18.09375 65.59375 12 63.40625 8.203125 56.203125 
C 4.203125 48.71875 3.796875 39.4375 3.796875 31.640625 
C 3.796875 25.953125 3.90625 17.28125 7 9.671875 
C 11.296875 -0.609375 19 -2 22.90625 -2 
C 27.5 -2 34.5 -0.109375 38.59375 9.375 
C 41.59375 16.28125 42 24.359375 42 31.640625 
M 22.90625 -0.40625 
C 16.5 -0.40625 12.703125 5.078125 11.296875 12.6875 
C 10.203125 18.5625 10.203125 27.15625 10.203125 32.75 
C 10.203125 40.4375 10.203125 46.828125 11.5 52.921875 
C 13.40625 61.390625 19 64 22.90625 64 
C 27 64 32.296875 61.296875 34.203125 53.125 
C 35.5 47.4375 35.59375 40.734375 35.59375 32.75 
C 35.59375 26.25 35.59375 18.265625 34.40625 12.375 
C 32.296875 1.484375 26.40625 -0.40625 22.90625 -0.40625 
" id="CMR17-48"/>
       <path d="M 65.90625 23 
C 67.59375 23 69.40625 23 69.40625 25 
C 69.40625 27 67.59375 27 65.90625 27 
L 11.796875 27 
C 10.09375 27 8.296875 27 8.296875 25 
C 8.296875 23 10.09375 23 11.796875 23 
z
" id="CMSY10-0"/>
       <path d="M 41.703125 15.453125 
L 39.90625 15.453125 
C 38.90625 8.375 38.09375 7.171875 37.703125 6.5625 
C 37.203125 5.765625 30 5.765625 28.59375 5.765625 
L 9.40625 5.765625 
C 13 9.671875 20 16.75 28.5 24.953125 
C 34.59375 30.734375 41.703125 37.53125 41.703125 47.421875 
C 41.703125 59.21875 32.296875 66 21.796875 66 
C 10.796875 66 4.09375 56.3125 4.09375 47.34375 
C 4.09375 43.4375 7 42.9375 8.203125 42.9375 
C 9.203125 42.9375 12.203125 43.546875 12.203125 47.03125 
C 12.203125 50.109375 9.59375 51 8.203125 51 
C 7.59375 51 7 50.90625 6.59375 50.703125 
C 8.5 59.21875 14.296875 63.40625 20.40625 63.40625 
C 29.09375 63.40625 34.796875 56.515625 34.796875 47.421875 
C 34.796875 38.734375 29.703125 31.25 24 24.75 
L 4.09375 2.28125 
L 4.09375 0 
L 39.296875 0 
z
" id="CMR17-50"/>
      </defs>
      <g transform="translate(54.332824 126.684874)scale(0.1 -0.1)">
       <use transform="scale(0.996264)" xlink:href="#CMR17-49"/>
       <use transform="translate(45.690477 0)scale(0.996264)" xlink:href="#CMR17-48"/>
       <use transform="translate(91.380954 36.153639)scale(0.697382)" xlink:href="#CMSY10-0"/>
       <use transform="translate(145.621947 36.153639)scale(0.697382)" xlink:href="#CMR17-50"/>
      </g>
     </g>
    </g>
    <g id="xtick_2">
     <g id="line2d_3">
      <path clip-path="url(#pe5526bfb5c)" d="M 140.50402 112.766376 
L 140.50402 22.166376 
" style="fill:none;stroke:#b0b0b0;stroke-linecap:square;stroke-width:0.8;"/>
     </g>
     <g id="line2d_4">
      <g>
       <use style="stroke:#000000;stroke-width:0.8;" x="140.50402" xlink:href="#m93c96c3459" y="112.766376"/>
      </g>
     </g>
     <g id="text_2">
      <!-- $10^{-1}$ -->
      <g transform="translate(130.423734 126.684874)scale(0.1 -0.1)">
       <use transform="scale(0.996264)" xlink:href="#CMR17-49"/>
       <use transform="translate(45.690477 0)scale(0.996264)" xlink:href="#CMR17-48"/>
       <use transform="translate(91.380954 36.153639)scale(0.697382)" xlink:href="#CMSY10-0"/>
       <use transform="translate(145.621947 36.153639)scale(0.697382)" xlink:href="#CMR17-49"/>
      </g>
     </g>
    </g>
    <g id="xtick_3">
     <g id="line2d_5">
      <path clip-path="url(#pe5526bfb5c)" d="M 216.594929 112.766376 
L 216.594929 22.166376 
" style="fill:none;stroke:#b0b0b0;stroke-linecap:square;stroke-width:0.8;"/>
     </g>
     <g id="line2d_6">
      <g>
       <use style="stroke:#000000;stroke-width:0.8;" x="216.594929" xlink:href="#m93c96c3459" y="112.766376"/>
      </g>
     </g>
     <g id="text_3">
      <!-- $10^{0}$ -->
      <g transform="translate(209.627975 126.684874)scale(0.1 -0.1)">
       <use transform="scale(0.996264)" xlink:href="#CMR17-49"/>
       <use transform="translate(45.690477 0)scale(0.996264)" xlink:href="#CMR17-48"/>
       <use transform="translate(91.380954 36.153639)scale(0.697382)" xlink:href="#CMR17-48"/>
      </g>
     </g>
    </g>
    <g id="xtick_4">
     <g id="line2d_7">
      <path clip-path="url(#pe5526bfb5c)" d="M 292.685838 112.766376 
L 292.685838 22.166376 
" style="fill:none;stroke:#b0b0b0;stroke-linecap:square;stroke-width:0.8;"/>
     </g>
     <g id="line2d_8">
      <g>
       <use style="stroke:#000000;stroke-width:0.8;" x="292.685838" xlink:href="#m93c96c3459" y="112.766376"/>
      </g>
     </g>
     <g id="text_4">
      <!-- $10^{1}$ -->
      <g transform="translate(285.718884 126.684874)scale(0.1 -0.1)">
       <use transform="scale(0.996264)" xlink:href="#CMR17-49"/>
       <use transform="translate(45.690477 0)scale(0.996264)" xlink:href="#CMR17-48"/>
       <use transform="translate(91.380954 36.153639)scale(0.697382)" xlink:href="#CMR17-49"/>
      </g>
     </g>
    </g>
    <g id="xtick_5">
     <g id="line2d_9">
      <path clip-path="url(#pe5526bfb5c)" d="M 368.776747 112.766376 
L 368.776747 22.166376 
" style="fill:none;stroke:#b0b0b0;stroke-linecap:square;stroke-width:0.8;"/>
     </g>
     <g id="line2d_10">
      <g>
       <use style="stroke:#000000;stroke-width:0.8;" x="368.776747" xlink:href="#m93c96c3459" y="112.766376"/>
      </g>
     </g>
     <g id="text_5">
      <!-- $10^{2}$ -->
      <g transform="translate(361.809793 126.684874)scale(0.1 -0.1)">
       <use transform="scale(0.996264)" xlink:href="#CMR17-49"/>
       <use transform="translate(45.690477 0)scale(0.996264)" xlink:href="#CMR17-48"/>
       <use transform="translate(91.380954 36.153639)scale(0.697382)" xlink:href="#CMR17-50"/>
      </g>
     </g>
    </g>
    <g id="xtick_6">
     <g id="line2d_11">
      <path clip-path="url(#pe5526bfb5c)" d="M 52.62648 112.766376 
L 52.62648 22.166376 
" style="fill:none;stroke:#b0b0b0;stroke-linecap:square;stroke-width:0.8;"/>
     </g>
     <g id="line2d_12">
      <defs>
       <path d="M 0 0 
L 0 2 
" id="m9eae3d6702" style="stroke:#000000;stroke-width:0.6;"/>
      </defs>
      <g>
       <use style="stroke:#000000;stroke-width:0.6;" x="52.62648" xlink:href="#m9eae3d6702" y="112.766376"/>
      </g>
     </g>
    </g>
    <g id="xtick_7">
     <g id="line2d_13">
      <path clip-path="url(#pe5526bfb5c)" d="M 57.03914 112.766376 
L 57.03914 22.166376 
" style="fill:none;stroke:#b0b0b0;stroke-linecap:square;stroke-width:0.8;"/>
     </g>
     <g id="line2d_14">
      <g>
       <use style="stroke:#000000;stroke-width:0.6;" x="57.03914" xlink:href="#m9eae3d6702" y="112.766376"/>
      </g>
     </g>
    </g>
    <g id="xtick_8">
     <g id="line2d_15">
      <path clip-path="url(#pe5526bfb5c)" d="M 60.931382 112.766376 
L 60.931382 22.166376 
" style="fill:none;stroke:#b0b0b0;stroke-linecap:square;stroke-width:0.8;"/>
     </g>
     <g id="line2d_16">
      <g>
       <use style="stroke:#000000;stroke-width:0.6;" x="60.931382" xlink:href="#m9eae3d6702" y="112.766376"/>
      </g>
     </g>
    </g>
    <g id="xtick_9">
     <g id="line2d_17">
      <path clip-path="url(#pe5526bfb5c)" d="M 87.318757 112.766376 
L 87.318757 22.166376 
" style="fill:none;stroke:#b0b0b0;stroke-linecap:square;stroke-width:0.8;"/>
     </g>
     <g id="line2d_18">
      <g>
       <use style="stroke:#000000;stroke-width:0.6;" x="87.318757" xlink:href="#m9eae3d6702" y="112.766376"/>
      </g>
     </g>
    </g>
    <g id="xtick_10">
     <g id="line2d_19">
      <path clip-path="url(#pe5526bfb5c)" d="M 100.717701 112.766376 
L 100.717701 22.166376 
" style="fill:none;stroke:#b0b0b0;stroke-linecap:square;stroke-width:0.8;"/>
     </g>
     <g id="line2d_20">
      <g>
       <use style="stroke:#000000;stroke-width:0.6;" x="100.717701" xlink:href="#m9eae3d6702" y="112.766376"/>
      </g>
     </g>
    </g>
    <g id="xtick_11">
     <g id="line2d_21">
      <path clip-path="url(#pe5526bfb5c)" d="M 110.224403 112.766376 
L 110.224403 22.166376 
" style="fill:none;stroke:#b0b0b0;stroke-linecap:square;stroke-width:0.8;"/>
     </g>
     <g id="line2d_22">
      <g>
       <use style="stroke:#000000;stroke-width:0.6;" x="110.224403" xlink:href="#m9eae3d6702" y="112.766376"/>
      </g>
     </g>
    </g>
    <g id="xtick_12">
     <g id="line2d_23">
      <path clip-path="url(#pe5526bfb5c)" d="M 117.598374 112.766376 
L 117.598374 22.166376 
" style="fill:none;stroke:#b0b0b0;stroke-linecap:square;stroke-width:0.8;"/>
     </g>
     <g id="line2d_24">
      <g>
       <use style="stroke:#000000;stroke-width:0.6;" x="117.598374" xlink:href="#m9eae3d6702" y="112.766376"/>
      </g>
     </g>
    </g>
    <g id="xtick_13">
     <g id="line2d_25">
      <path clip-path="url(#pe5526bfb5c)" d="M 123.623347 112.766376 
L 123.623347 22.166376 
" style="fill:none;stroke:#b0b0b0;stroke-linecap:square;stroke-width:0.8;"/>
     </g>
     <g id="line2d_26">
      <g>
       <use style="stroke:#000000;stroke-width:0.6;" x="123.623347" xlink:href="#m9eae3d6702" y="112.766376"/>
      </g>
     </g>
    </g>
    <g id="xtick_14">
     <g id="line2d_27">
      <path clip-path="url(#pe5526bfb5c)" d="M 128.717389 112.766376 
L 128.717389 22.166376 
" style="fill:none;stroke:#b0b0b0;stroke-linecap:square;stroke-width:0.8;"/>
     </g>
     <g id="line2d_28">
      <g>
       <use style="stroke:#000000;stroke-width:0.6;" x="128.717389" xlink:href="#m9eae3d6702" y="112.766376"/>
      </g>
     </g>
    </g>
    <g id="xtick_15">
     <g id="line2d_29">
      <path clip-path="url(#pe5526bfb5c)" d="M 133.130049 112.766376 
L 133.130049 22.166376 
" style="fill:none;stroke:#b0b0b0;stroke-linecap:square;stroke-width:0.8;"/>
     </g>
     <g id="line2d_30">
      <g>
       <use style="stroke:#000000;stroke-width:0.6;" x="133.130049" xlink:href="#m9eae3d6702" y="112.766376"/>
      </g>
     </g>
    </g>
    <g id="xtick_16">
     <g id="line2d_31">
      <path clip-path="url(#pe5526bfb5c)" d="M 137.022291 112.766376 
L 137.022291 22.166376 
" style="fill:none;stroke:#b0b0b0;stroke-linecap:square;stroke-width:0.8;"/>
     </g>
     <g id="line2d_32">
      <g>
       <use style="stroke:#000000;stroke-width:0.6;" x="137.022291" xlink:href="#m9eae3d6702" y="112.766376"/>
      </g>
     </g>
    </g>
    <g id="xtick_17">
     <g id="line2d_33">
      <path clip-path="url(#pe5526bfb5c)" d="M 163.409666 112.766376 
L 163.409666 22.166376 
" style="fill:none;stroke:#b0b0b0;stroke-linecap:square;stroke-width:0.8;"/>
     </g>
     <g id="line2d_34">
      <g>
       <use style="stroke:#000000;stroke-width:0.6;" x="163.409666" xlink:href="#m9eae3d6702" y="112.766376"/>
      </g>
     </g>
    </g>
    <g id="xtick_18">
     <g id="line2d_35">
      <path clip-path="url(#pe5526bfb5c)" d="M 176.80861 112.766376 
L 176.80861 22.166376 
" style="fill:none;stroke:#b0b0b0;stroke-linecap:square;stroke-width:0.8;"/>
     </g>
     <g id="line2d_36">
      <g>
       <use style="stroke:#000000;stroke-width:0.6;" x="176.80861" xlink:href="#m9eae3d6702" y="112.766376"/>
      </g>
     </g>
    </g>
    <g id="xtick_19">
     <g id="line2d_37">
      <path clip-path="url(#pe5526bfb5c)" d="M 186.315312 112.766376 
L 186.315312 22.166376 
" style="fill:none;stroke:#b0b0b0;stroke-linecap:square;stroke-width:0.8;"/>
     </g>
     <g id="line2d_38">
      <g>
       <use style="stroke:#000000;stroke-width:0.6;" x="186.315312" xlink:href="#m9eae3d6702" y="112.766376"/>
      </g>
     </g>
    </g>
    <g id="xtick_20">
     <g id="line2d_39">
      <path clip-path="url(#pe5526bfb5c)" d="M 193.689283 112.766376 
L 193.689283 22.166376 
" style="fill:none;stroke:#b0b0b0;stroke-linecap:square;stroke-width:0.8;"/>
     </g>
     <g id="line2d_40">
      <g>
       <use style="stroke:#000000;stroke-width:0.6;" x="193.689283" xlink:href="#m9eae3d6702" y="112.766376"/>
      </g>
     </g>
    </g>
    <g id="xtick_21">
     <g id="line2d_41">
      <path clip-path="url(#pe5526bfb5c)" d="M 199.714256 112.766376 
L 199.714256 22.166376 
" style="fill:none;stroke:#b0b0b0;stroke-linecap:square;stroke-width:0.8;"/>
     </g>
     <g id="line2d_42">
      <g>
       <use style="stroke:#000000;stroke-width:0.6;" x="199.714256" xlink:href="#m9eae3d6702" y="112.766376"/>
      </g>
     </g>
    </g>
    <g id="xtick_22">
     <g id="line2d_43">
      <path clip-path="url(#pe5526bfb5c)" d="M 204.808298 112.766376 
L 204.808298 22.166376 
" style="fill:none;stroke:#b0b0b0;stroke-linecap:square;stroke-width:0.8;"/>
     </g>
     <g id="line2d_44">
      <g>
       <use style="stroke:#000000;stroke-width:0.6;" x="204.808298" xlink:href="#m9eae3d6702" y="112.766376"/>
      </g>
     </g>
    </g>
    <g id="xtick_23">
     <g id="line2d_45">
      <path clip-path="url(#pe5526bfb5c)" d="M 209.220958 112.766376 
L 209.220958 22.166376 
" style="fill:none;stroke:#b0b0b0;stroke-linecap:square;stroke-width:0.8;"/>
     </g>
     <g id="line2d_46">
      <g>
       <use style="stroke:#000000;stroke-width:0.6;" x="209.220958" xlink:href="#m9eae3d6702" y="112.766376"/>
      </g>
     </g>
    </g>
    <g id="xtick_24">
     <g id="line2d_47">
      <path clip-path="url(#pe5526bfb5c)" d="M 213.1132 112.766376 
L 213.1132 22.166376 
" style="fill:none;stroke:#b0b0b0;stroke-linecap:square;stroke-width:0.8;"/>
     </g>
     <g id="line2d_48">
      <g>
       <use style="stroke:#000000;stroke-width:0.6;" x="213.1132" xlink:href="#m9eae3d6702" y="112.766376"/>
      </g>
     </g>
    </g>
    <g id="xtick_25">
     <g id="line2d_49">
      <path clip-path="url(#pe5526bfb5c)" d="M 239.500575 112.766376 
L 239.500575 22.166376 
" style="fill:none;stroke:#b0b0b0;stroke-linecap:square;stroke-width:0.8;"/>
     </g>
     <g id="line2d_50">
      <g>
       <use style="stroke:#000000;stroke-width:0.6;" x="239.500575" xlink:href="#m9eae3d6702" y="112.766376"/>
      </g>
     </g>
    </g>
    <g id="xtick_26">
     <g id="line2d_51">
      <path clip-path="url(#pe5526bfb5c)" d="M 252.899519 112.766376 
L 252.899519 22.166376 
" style="fill:none;stroke:#b0b0b0;stroke-linecap:square;stroke-width:0.8;"/>
     </g>
     <g id="line2d_52">
      <g>
       <use style="stroke:#000000;stroke-width:0.6;" x="252.899519" xlink:href="#m9eae3d6702" y="112.766376"/>
      </g>
     </g>
    </g>
    <g id="xtick_27">
     <g id="line2d_53">
      <path clip-path="url(#pe5526bfb5c)" d="M 262.406221 112.766376 
L 262.406221 22.166376 
" style="fill:none;stroke:#b0b0b0;stroke-linecap:square;stroke-width:0.8;"/>
     </g>
     <g id="line2d_54">
      <g>
       <use style="stroke:#000000;stroke-width:0.6;" x="262.406221" xlink:href="#m9eae3d6702" y="112.766376"/>
      </g>
     </g>
    </g>
    <g id="xtick_28">
     <g id="line2d_55">
      <path clip-path="url(#pe5526bfb5c)" d="M 269.780192 112.766376 
L 269.780192 22.166376 
" style="fill:none;stroke:#b0b0b0;stroke-linecap:square;stroke-width:0.8;"/>
     </g>
     <g id="line2d_56">
      <g>
       <use style="stroke:#000000;stroke-width:0.6;" x="269.780192" xlink:href="#m9eae3d6702" y="112.766376"/>
      </g>
     </g>
    </g>
    <g id="xtick_29">
     <g id="line2d_57">
      <path clip-path="url(#pe5526bfb5c)" d="M 275.805165 112.766376 
L 275.805165 22.166376 
" style="fill:none;stroke:#b0b0b0;stroke-linecap:square;stroke-width:0.8;"/>
     </g>
     <g id="line2d_58">
      <g>
       <use style="stroke:#000000;stroke-width:0.6;" x="275.805165" xlink:href="#m9eae3d6702" y="112.766376"/>
      </g>
     </g>
    </g>
    <g id="xtick_30">
     <g id="line2d_59">
      <path clip-path="url(#pe5526bfb5c)" d="M 280.899207 112.766376 
L 280.899207 22.166376 
" style="fill:none;stroke:#b0b0b0;stroke-linecap:square;stroke-width:0.8;"/>
     </g>
     <g id="line2d_60">
      <g>
       <use style="stroke:#000000;stroke-width:0.6;" x="280.899207" xlink:href="#m9eae3d6702" y="112.766376"/>
      </g>
     </g>
    </g>
    <g id="xtick_31">
     <g id="line2d_61">
      <path clip-path="url(#pe5526bfb5c)" d="M 285.311867 112.766376 
L 285.311867 22.166376 
" style="fill:none;stroke:#b0b0b0;stroke-linecap:square;stroke-width:0.8;"/>
     </g>
     <g id="line2d_62">
      <g>
       <use style="stroke:#000000;stroke-width:0.6;" x="285.311867" xlink:href="#m9eae3d6702" y="112.766376"/>
      </g>
     </g>
    </g>
    <g id="xtick_32">
     <g id="line2d_63">
      <path clip-path="url(#pe5526bfb5c)" d="M 289.204109 112.766376 
L 289.204109 22.166376 
" style="fill:none;stroke:#b0b0b0;stroke-linecap:square;stroke-width:0.8;"/>
     </g>
     <g id="line2d_64">
      <g>
       <use style="stroke:#000000;stroke-width:0.6;" x="289.204109" xlink:href="#m9eae3d6702" y="112.766376"/>
      </g>
     </g>
    </g>
    <g id="xtick_33">
     <g id="line2d_65">
      <path clip-path="url(#pe5526bfb5c)" d="M 315.591484 112.766376 
L 315.591484 22.166376 
" style="fill:none;stroke:#b0b0b0;stroke-linecap:square;stroke-width:0.8;"/>
     </g>
     <g id="line2d_66">
      <g>
       <use style="stroke:#000000;stroke-width:0.6;" x="315.591484" xlink:href="#m9eae3d6702" y="112.766376"/>
      </g>
     </g>
    </g>
    <g id="xtick_34">
     <g id="line2d_67">
      <path clip-path="url(#pe5526bfb5c)" d="M 328.990428 112.766376 
L 328.990428 22.166376 
" style="fill:none;stroke:#b0b0b0;stroke-linecap:square;stroke-width:0.8;"/>
     </g>
     <g id="line2d_68">
      <g>
       <use style="stroke:#000000;stroke-width:0.6;" x="328.990428" xlink:href="#m9eae3d6702" y="112.766376"/>
      </g>
     </g>
    </g>
    <g id="xtick_35">
     <g id="line2d_69">
      <path clip-path="url(#pe5526bfb5c)" d="M 338.49713 112.766376 
L 338.49713 22.166376 
" style="fill:none;stroke:#b0b0b0;stroke-linecap:square;stroke-width:0.8;"/>
     </g>
     <g id="line2d_70">
      <g>
       <use style="stroke:#000000;stroke-width:0.6;" x="338.49713" xlink:href="#m9eae3d6702" y="112.766376"/>
      </g>
     </g>
    </g>
    <g id="xtick_36">
     <g id="line2d_71">
      <path clip-path="url(#pe5526bfb5c)" d="M 345.871101 112.766376 
L 345.871101 22.166376 
" style="fill:none;stroke:#b0b0b0;stroke-linecap:square;stroke-width:0.8;"/>
     </g>
     <g id="line2d_72">
      <g>
       <use style="stroke:#000000;stroke-width:0.6;" x="345.871101" xlink:href="#m9eae3d6702" y="112.766376"/>
      </g>
     </g>
    </g>
    <g id="xtick_37">
     <g id="line2d_73">
      <path clip-path="url(#pe5526bfb5c)" d="M 351.896074 112.766376 
L 351.896074 22.166376 
" style="fill:none;stroke:#b0b0b0;stroke-linecap:square;stroke-width:0.8;"/>
     </g>
     <g id="line2d_74">
      <g>
       <use style="stroke:#000000;stroke-width:0.6;" x="351.896074" xlink:href="#m9eae3d6702" y="112.766376"/>
      </g>
     </g>
    </g>
    <g id="xtick_38">
     <g id="line2d_75">
      <path clip-path="url(#pe5526bfb5c)" d="M 356.990117 112.766376 
L 356.990117 22.166376 
" style="fill:none;stroke:#b0b0b0;stroke-linecap:square;stroke-width:0.8;"/>
     </g>
     <g id="line2d_76">
      <g>
       <use style="stroke:#000000;stroke-width:0.6;" x="356.990117" xlink:href="#m9eae3d6702" y="112.766376"/>
      </g>
     </g>
    </g>
    <g id="xtick_39">
     <g id="line2d_77">
      <path clip-path="url(#pe5526bfb5c)" d="M 361.402776 112.766376 
L 361.402776 22.166376 
" style="fill:none;stroke:#b0b0b0;stroke-linecap:square;stroke-width:0.8;"/>
     </g>
     <g id="line2d_78">
      <g>
       <use style="stroke:#000000;stroke-width:0.6;" x="361.402776" xlink:href="#m9eae3d6702" y="112.766376"/>
      </g>
     </g>
    </g>
    <g id="xtick_40">
     <g id="line2d_79">
      <path clip-path="url(#pe5526bfb5c)" d="M 365.295018 112.766376 
L 365.295018 22.166376 
" style="fill:none;stroke:#b0b0b0;stroke-linecap:square;stroke-width:0.8;"/>
     </g>
     <g id="line2d_80">
      <g>
       <use style="stroke:#000000;stroke-width:0.6;" x="365.295018" xlink:href="#m9eae3d6702" y="112.766376"/>
      </g>
     </g>
    </g>
   </g>
   <g id="matplotlib.axis_2">
    <g id="ytick_1">
     <g id="line2d_81">
      <path clip-path="url(#pe5526bfb5c)" d="M 49.194929 22.166376 
L 383.994929 22.166376 
" style="fill:none;stroke:#b0b0b0;stroke-linecap:square;stroke-width:0.8;"/>
     </g>
     <g id="line2d_82">
      <defs>
       <path d="M 0 0 
L -3.5 0 
" id="mf58a15eee8" style="stroke:#000000;stroke-width:0.8;"/>
      </defs>
      <g>
       <use style="stroke:#000000;stroke-width:0.8;" x="49.194929" xlink:href="#mf58a15eee8" y="22.166376"/>
      </g>
     </g>
     <g id="text_6">
      <!-- 20.0 -->
      <defs>
       <path d="M 25.796875 21.203125 
C 28.59375 24.078125 32.796875 27.5625 35.703125 31.046875 
C 38.5 34.4375 42.203125 39.234375 42.203125 46.203125 
C 42.203125 57.140625 34.796875 67 22.203125 67 
C 12.296875 67 6.59375 60.828125 3.90625 51.15625 
L 7.796875 45.765625 
C 10 54.84375 13.09375 60.625 20.90625 60.625 
C 29.5 60.625 34.296875 53.640625 34.296875 45.96875 
C 34.296875 36.796875 27.296875 29.703125 22 24.421875 
C 16.09375 18.546875 10.296875 12.5625 4.703125 6.375 
L 4.703125 0 
L 42.203125 0 
L 42.203125 6.765625 
L 25.203125 6.765625 
C 24 6.765625 22.796875 6.765625 21.59375 6.765625 
L 11.59375 6.765625 
L 11.59375 6.859375 
z
" id="CMSS17-50"/>
       <path d="M 43.09375 31.9375 
C 43.09375 37.578125 43 48.078125 38.90625 56.1875 
C 34.796875 64 28.203125 66.078125 23.5 66.078125 
C 16.703125 66.078125 10.90625 62.125 7.90625 55.78125 
C 4.703125 49.15625 3.796875 42.328125 3.796875 31.9375 
C 3.796875 24.828125 4.09375 16.109375 7.703125 8.484375 
C 11.796875 0.078125 18.703125 -2 23.40625 -2 
C 29.59375 -2 35.59375 1.265625 39 8.09375 
C 42.5 15.21875 43.09375 23.03125 43.09375 31.9375 
M 23.40625 4.078125 
C 15.796875 4.078125 13.5 12.671875 12.796875 15.546875 
C 11.59375 20.46875 11.40625 25.21875 11.40625 33.03125 
C 11.40625 39.15625 11.40625 46.0625 13.296875 51.515625 
C 15.59375 57.828125 19.59375 60 23.40625 60 
C 30.796875 60 33.203125 52.6875 34 50.125 
C 35.5 44.890625 35.5 38.765625 35.5 33.03125 
C 35.5 23.84375 35.5 4.078125 23.40625 4.078125 
" id="CMSS17-48"/>
       <path d="M 17 7.96875 
L 9 7.96875 
L 9 0 
L 17 0 
z
" id="CMSS17-46"/>
      </defs>
      <g transform="translate(24.483515 25.625625)scale(0.1 -0.1)">
       <use transform="scale(0.996264)" xlink:href="#CMSS17-50"/>
       <use transform="translate(46.843624 0)scale(0.996264)" xlink:href="#CMSS17-48"/>
       <use transform="translate(93.687247 0)scale(0.996264)" xlink:href="#CMSS17-46"/>
       <use transform="translate(119.711452 0)scale(0.996264)" xlink:href="#CMSS17-48"/>
      </g>
     </g>
    </g>
    <g id="ytick_2">
     <g id="line2d_83">
      <path clip-path="url(#pe5526bfb5c)" d="M 49.194929 67.466376 
L 383.994929 67.466376 
" style="fill:none;stroke:#b0b0b0;stroke-linecap:square;stroke-width:0.8;"/>
     </g>
     <g id="line2d_84">
      <g>
       <use style="stroke:#000000;stroke-width:0.8;" x="49.194929" xlink:href="#mf58a15eee8" y="67.466376"/>
      </g>
     </g>
     <g id="text_7">
      <!-- 0.0 -->
      <g transform="translate(29.46485 70.925625)scale(0.1 -0.1)">
       <use transform="scale(0.996264)" xlink:href="#CMSS17-48"/>
       <use transform="translate(46.843624 0)scale(0.996264)" xlink:href="#CMSS17-46"/>
       <use transform="translate(72.867828 0)scale(0.996264)" xlink:href="#CMSS17-48"/>
      </g>
     </g>
    </g>
    <g id="ytick_3">
     <g id="line2d_85">
      <path clip-path="url(#pe5526bfb5c)" d="M 49.194929 112.766376 
L 383.994929 112.766376 
" style="fill:none;stroke:#b0b0b0;stroke-linecap:square;stroke-width:0.8;"/>
     </g>
     <g id="line2d_86">
      <g>
       <use style="stroke:#000000;stroke-width:0.8;" x="49.194929" xlink:href="#mf58a15eee8" y="112.766376"/>
      </g>
     </g>
     <g id="text_8">
      <!-- -20.0 -->
      <defs>
       <path d="M 26 19 
L 26 24.765625 
L 1 24.765625 
L 1 19 
z
" id="CMSS17-45"/>
      </defs>
      <g transform="translate(21.16264 116.225625)scale(0.1 -0.1)">
       <use transform="scale(0.996264)" xlink:href="#CMSS17-45"/>
       <use transform="translate(31.229113 0)scale(0.996264)" xlink:href="#CMSS17-50"/>
       <use transform="translate(78.072736 0)scale(0.996264)" xlink:href="#CMSS17-48"/>
       <use transform="translate(124.91636 0)scale(0.996264)" xlink:href="#CMSS17-46"/>
       <use transform="translate(150.940565 0)scale(0.996264)" xlink:href="#CMSS17-48"/>
      </g>
     </g>
    </g>
    <g id="text_9">
     <!-- Magnitude (dB) -->
     <defs>
      <path d="M 49.90625 37.046875 
L 45.09375 23.015625 
C 44.296875 20.421875 41.59375 12.359375 41 9.171875 
L 40.90625 9.171875 
C 40.59375 11.171875 40 13.265625 38.40625 18.34375 
C 37.5 21.328125 36.5 24.40625 35.5 27.203125 
L 20.703125 69 
L 9 69 
L 9 0 
L 16.796875 0 
L 16.796875 60.9375 
L 16.90625 60.9375 
C 16.90625 60.84375 17.796875 56.453125 23.90625 39.046875 
L 37.09375 1.5 
L 44.5 1.5 
L 56.40625 34.859375 
C 57.203125 37.15625 59.703125 44.421875 60.796875 47.90625 
C 61.796875 50.890625 64.296875 58.25 64.90625 61.140625 
L 65 61.140625 
L 65 0 
L 72.90625 0 
L 72.90625 69 
L 61.296875 69 
z
" id="CMSS17-77"/>
      <path d="M 37.59375 27.984375 
C 37.59375 37.375 30.90625 43.875 21.90625 43.875 
C 17.5 43.875 12.703125 43.078125 7.203125 39.890625 
L 7.796875 33.359375 
C 10.296875 35.125 14.59375 38 21.796875 38 
C 26.90625 38 30 34.0625 30 27.84375 
L 30 24 
C 14 24 4 19.34375 4 11.34375 
C 4 7.203125 6.5 -1 14.796875 -1 
C 16.296875 -1 24.40625 -1 30.203125 3.390625 
L 30.203125 -0.296875 
L 37.59375 -0.296875 
z
M 30 12.75 
C 30 10.953125 30 8.5625 27 6.78125 
C 24.40625 5.078125 21.09375 5.078125 19.703125 5.078125 
C 14.703125 5.078125 11.296875 7.984375 11.296875 11.625 
C 11.296875 18.921875 26.90625 18.921875 30 18.921875 
z
" id="CMSS17-97"/>
      <path d="M 44.5 43.875 
C 38.796875 43.875 33.90625 42.78125 29.90625 40.890625 
C 26.59375 43.390625 23.203125 43.875 20.90625 43.875 
C 12.203125 43.875 5.59375 36.703125 5.59375 28.34375 
C 5.59375 22.9375 8.59375 18.859375 8.796875 18.671875 
C 7 16.171875 6 13.484375 6 10.5 
C 6 7 7.40625 4.515625 8.5 3.125 
C 3.296875 -0.046875 2.59375 -4.90625 2.59375 -6.796875 
C 2.59375 -14.03125 11.703125 -20 23.40625 -20 
C 35.203125 -20 44.296875 -14.03125 44.296875 -6.6875 
C 44.296875 7 29 7 24.796875 7 
L 16.703125 7 
C 15.203125 7 11.203125 7 11.203125 12.359375 
C 11.203125 14.390625 12.09375 15.6875 12.203125 15.78125 
C 13.703125 14.6875 16.796875 13 20.90625 13 
C 29.203125 13 36.09375 19.96875 36.09375 28.546875 
C 36.09375 33.3125 33.90625 36.796875 33 38 
L 33.296875 38 
C 33.59375 38 37.796875 38 39.296875 38 
C 42.5 38 42.796875 37.9375 45.59375 37.796875 
z
M 20.90625 18.46875 
C 17.5 18.46875 12.703125 20.546875 12.703125 28.484375 
C 12.703125 37.109375 18.203125 38.5 20.796875 38.5 
C 24.203125 38.5 29 36.421875 29 28.484375 
C 29 19.859375 23.5 18.46875 20.90625 18.46875 
M 24.703125 -0.15625 
C 27.09375 -0.15625 37.203125 -0.15625 37.203125 -6.90625 
C 37.203125 -11.15625 31 -14.515625 23.5 -14.515625 
C 15.90625 -14.515625 9.703125 -11.25 9.703125 -6.796875 
C 9.703125 -6.296875 9.703125 -0.15625 16.59375 -0.15625 
z
" id="CMSS17-103"/>
      <path d="M 40.90625 29.328125 
C 40.90625 35.671875 39.40625 44 28.09375 44 
C 21.703125 44 17.5 40.71875 14.703125 37.328125 
L 14.703125 43.09375 
L 7.40625 43.09375 
L 7.40625 0 
L 15 0 
L 15 24.359375 
C 15 30.6875 17.40625 37.9375 24.203125 37.9375 
C 33 37.9375 33.296875 32 33.296875 28.578125 
L 33.296875 0 
L 40.90625 0 
z
" id="CMSS17-110"/>
      <path d="M 15.296875 65.359375 
L 6.90625 65.359375 
L 6.90625 57 
L 15.296875 57 
z
M 14.796875 42.796875 
L 7.40625 42.796875 
L 7.40625 0 
L 14.796875 0 
z
" id="CMSS17-105"/>
      <path d="M 16.703125 37 
L 29.703125 37 
L 29.703125 42.765625 
L 16.703125 42.765625 
L 16.703125 55 
L 9.59375 55 
L 9.59375 42.765625 
L 1.703125 42.765625 
L 1.703125 37 
L 9.40625 37 
L 9.40625 11.703125 
C 9.40625 6 10.703125 -1 17.296875 -1 
C 22.296875 -1 26.90625 0.390625 31.296875 2.6875 
L 29.703125 8.5625 
C 27.296875 6.46875 24.40625 5.265625 21.296875 5.265625 
C 16.90625 5.265625 16.703125 10.875 16.703125 13.375 
z
" id="CMSS17-116"/>
      <path d="M 40.90625 42.796875 
L 33.296875 42.796875 
L 33.296875 15.1875 
C 33.296875 7.78125 27.90625 4.78125 22.203125 4.78125 
C 15.59375 4.78125 15 6.984375 15 11.078125 
L 15 42.796875 
L 7.40625 42.796875 
L 7.40625 10.59375 
C 7.40625 2.796875 10.09375 -1 17 -1 
C 20.40625 -1 28.09375 -0.203125 33.5 4.78125 
L 33.5 0 
L 40.90625 0 
z
" id="CMSS17-117"/>
      <path d="M 40.796875 69 
L 33.40625 69 
L 33.40625 38.09375 
C 30.296875 40.671875 25.203125 43.0625 19.59375 43.0625 
C 10.5 43.0625 3.296875 33.296875 3.296875 21.03125 
C 3.296875 8.78125 10.40625 -1 19.296875 -1 
C 26.203125 -1 30.796875 2.6875 33.203125 4.78125 
L 33.203125 -0.203125 
L 40.796875 -0.203125 
z
M 33.203125 13.0625 
C 33.203125 11.671875 33.203125 10.203125 30.09375 7.53125 
C 28.09375 5.859375 25.703125 5.078125 23.40625 5.078125 
C 18 5.078125 10.90625 9 10.90625 20.9375 
C 10.90625 33.34375 18.90625 37 24.40625 37 
C 28.09375 37 31.09375 35.21875 33.203125 32.265625 
z
" id="CMSS17-100"/>
      <path d="M 39.09375 21.515625 
C 39.09375 24.84375 38.90625 31.296875 35.703125 36.640625 
C 32.203125 42.390625 26.5 44 22.203125 44 
C 11.796875 44 3 34.1875 3 21.484375 
C 3 9.09375 12.09375 -1 23.59375 -1 
C 28.09375 -1 33.59375 0.296875 38.59375 3.875 
C 38.59375 4.28125 38.40625 6.46875 38.296875 6.5625 
C 38.296875 6.765625 38 9.84375 38 10.25 
C 33.203125 6.359375 27.703125 5.078125 23.703125 5.078125 
C 17.296875 5.078125 10.40625 10.421875 10.09375 21.515625 
z
M 10.90625 27 
C 12.203125 32.5625 16.59375 37.828125 22.203125 37.828125 
C 23.703125 37.828125 30.703125 37.828125 32.5 27 
z
" id="CMSS17-101"/>
      <path d="M 25.203125 74.5 
C 19.796875 69.015625 7.40625 56.265625 7.40625 24.8125 
C 7.40625 -6.765625 19.796875 -19.421875 25.203125 -25 
L 31.296875 -25 
C 19 -12.25 15 5.578125 15 24.6875 
C 15 43.71875 18.796875 61.65625 31.296875 74.5 
z
" id="CMSS17-40"/>
      <path d="M 8.90625 69 
L 8.90625 0 
L 33.796875 0 
C 47.40625 0 57.296875 8.96875 57.296875 18.75 
C 57.296875 26.328125 50.796875 34 39.09375 36.203125 
C 52.09375 39.96875 54.703125 47.5 54.703125 51.765625 
C 54.703125 60.671875 44.90625 69 31.203125 69 
z
M 17 39 
L 17 63.421875 
L 28.5 63.421875 
C 38.796875 63.421875 46.90625 58.1875 46.90625 51.65625 
C 46.90625 45.71875 40.5 39 27.59375 39 
z
M 17 5.578125 
L 17 32.921875 
L 30.296875 32.921875 
C 41.09375 32.921875 49.40625 26.234375 49.40625 18.84375 
C 49.40625 12.0625 42.09375 5.578125 31 5.578125 
z
" id="CMSS17-66"/>
      <path d="M 11.296875 -25 
C 16.703125 -19.515625 29.09375 -6.765625 29.09375 24.6875 
C 29.09375 56.265625 16.703125 68.921875 11.296875 74.5 
L 5.203125 74.5 
C 17.5 61.75 21.5 43.921875 21.5 24.8125 
C 21.5 5.78125 17.703125 -12.15625 5.203125 -25 
z
" id="CMSS17-41"/>
     </defs>
     <g transform="translate(14.67198 101.06268)rotate(-90)scale(0.1 -0.1)">
      <use transform="scale(0.996264)" xlink:href="#CMSS17-77"/>
      <use transform="translate(81.67603 0)scale(0.996264)" xlink:href="#CMSS17-97"/>
      <use transform="translate(126.597951 0)scale(0.996264)" xlink:href="#CMSS17-103"/>
      <use transform="translate(173.441574 0)scale(0.996264)" xlink:href="#CMSS17-110"/>
      <use transform="translate(221.646517 0)scale(0.996264)" xlink:href="#CMSS17-105"/>
      <use transform="translate(243.82724 0)scale(0.996264)" xlink:href="#CMSS17-116"/>
      <use transform="translate(277.658807 0)scale(0.996264)" xlink:href="#CMSS17-117"/>
      <use transform="translate(325.86375 0)scale(0.996264)" xlink:href="#CMSS17-100"/>
      <use transform="translate(374.068693 0)scale(0.996264)" xlink:href="#CMSS17-101"/>
      <use transform="translate(446.936628 0)scale(0.996264)" xlink:href="#CMSS17-40"/>
      <use transform="translate(483.370542 0)scale(0.996264)" xlink:href="#CMSS17-100"/>
      <use transform="translate(531.575485 0)scale(0.996264)" xlink:href="#CMSS17-66"/>
      <use transform="translate(593.913526 0)scale(0.996264)" xlink:href="#CMSS17-41"/>
     </g>
    </g>
   </g>
   <g id="line2d_87">
    <path clip-path="url(#pe5526bfb5c)" d="M 64.413111 53.926613 
L 67.487491 53.946309 
L 70.561871 53.96998 
L 73.636252 53.998414 
L 76.710632 54.032552 
L 79.785012 54.073512 
L 82.859392 54.122619 
L 85.933772 54.181437 
L 89.008152 54.251811 
L 92.082533 54.335899 
L 95.156913 54.436219 
L 98.231293 54.555683 
L 101.305673 54.697637 
L 104.380053 54.865887 
L 107.454433 55.064714 
L 110.528814 55.298869 
L 113.603194 55.573538 
L 116.677574 55.894276 
L 119.751954 56.266894 
L 122.826334 56.697296 
L 125.900714 57.191276 
L 128.975095 57.754269 
L 132.049475 58.39107 
L 135.123855 59.105556 
L 138.198235 59.900424 
L 141.272615 60.776979 
L 144.346995 61.735003 
L 147.421376 62.772707 
L 150.495756 63.886789 
L 153.570136 65.072567 
L 156.644516 66.32418 
L 159.718896 67.634822 
L 162.793276 68.99698 
L 165.867657 70.402657 
L 168.942037 71.84355 
L 172.016417 73.311191 
L 175.090797 74.79704 
L 178.165177 76.29253 
L 181.239557 77.789091 
L 184.313938 79.278154 
L 187.388318 80.751149 
L 190.462698 82.199527 
L 193.537078 83.614795 
L 196.611458 84.988597 
L 199.685838 86.312845 
L 202.760219 87.579885 
L 205.834599 88.782712 
L 208.908979 89.915207 
L 211.983359 90.972372 
L 215.057739 91.950544 
L 218.132119 92.847548 
L 221.2065 93.662773 
L 224.28088 94.397154 
L 227.35526 95.053054 
L 230.42964 95.634081 
L 233.50402 96.144825 
L 236.5784 96.590588 
L 239.652781 96.977098 
L 242.727161 97.310255 
L 245.801541 97.595908 
L 248.875921 97.839689 
L 251.950301 98.046885 
L 255.024681 98.222359 
L 258.099062 98.370512 
L 261.173442 98.495267 
L 264.247822 98.600084 
L 267.322202 98.687979 
L 270.396582 98.761566 
L 273.470962 98.823089 
L 276.545343 98.874466 
L 279.619723 98.91733 
L 282.694103 98.953061 
L 285.768483 98.982827 
L 288.842863 99.007609 
L 291.917243 99.028232 
L 294.991624 99.045388 
L 298.066004 99.059653 
L 301.140384 99.071513 
L 304.214764 99.08137 
L 307.289144 99.089562 
L 310.363524 99.096368 
L 313.437905 99.102022 
L 316.512285 99.106718 
L 319.586665 99.110619 
L 322.661045 99.113859 
L 325.735425 99.11655 
L 328.809805 99.118784 
L 331.884185 99.120639 
L 334.958566 99.12218 
L 338.032946 99.123459 
L 341.107326 99.124522 
L 344.181706 99.125404 
L 347.256086 99.126136 
L 350.330466 99.126744 
L 353.404847 99.127249 
L 356.479227 99.127668 
L 359.553607 99.128016 
L 362.627987 99.128305 
L 365.702367 99.128544 
L 368.776747 99.128743 
" style="fill:none;stroke:#0000ff;stroke-linecap:square;stroke-width:1.5;"/>
   </g>
   <g id="patch_3">
    <path d="M 49.194929 112.766376 
L 49.194929 22.166376 
" style="fill:none;stroke:#000000;stroke-linecap:square;stroke-linejoin:miter;stroke-width:0.8;"/>
   </g>
   <g id="patch_4">
    <path d="M 383.994929 112.766376 
L 383.994929 22.166376 
" style="fill:none;stroke:#000000;stroke-linecap:square;stroke-linejoin:miter;stroke-width:0.8;"/>
   </g>
   <g id="patch_5">
    <path d="M 49.194929 112.766376 
L 383.994929 112.766376 
" style="fill:none;stroke:#000000;stroke-linecap:square;stroke-linejoin:miter;stroke-width:0.8;"/>
   </g>
   <g id="patch_6">
    <path d="M 49.194929 22.166376 
L 383.994929 22.166376 
" style="fill:none;stroke:#000000;stroke-linecap:square;stroke-linejoin:miter;stroke-width:0.8;"/>
   </g>
   <g id="text_10">
    <!-- Lead Compensator: $2(s+1)/(10s+1)$ -->
    <defs>
     <path d="M 26.09375 6.46875 
C 24.90625 6.46875 23.703125 6.46875 22.5 6.46875 
L 17.203125 6.46875 
L 17.203125 69 
L 8.796875 69 
L 8.796875 0 
L 46.90625 0 
L 46.90625 6.46875 
z
" id="CMSS17-76"/>
     <path d="M 54.703125 11.15625 
C 48 6.671875 44.90625 5.375 36.796875 5.375 
C 22.796875 5.375 14.59375 20.359375 14.59375 34.046875 
C 14.59375 48.625 23 63 37.203125 63 
C 43.59375 63 47.796875 61.21875 52.90625 58.046875 
L 54.296875 65.890625 
C 49.5 68.28125 43.40625 69.375 37.296875 69.375 
C 18.09375 69.375 6.203125 51.8125 6.203125 34.046875 
C 6.203125 14.484375 20.296875 -1 36.296875 -1 
C 44.90625 -1 47.90625 -0.296875 55.296875 4.375 
z
" id="CMSS17-67"/>
     <path d="M 44.203125 21.1875 
C 44.203125 34 34.703125 44 23.5 44 
C 12 44 2.703125 33.703125 2.703125 21.1875 
C 2.703125 8.5 12.296875 -1 23.40625 -1 
C 34.796875 -1 44.203125 8.796875 44.203125 21.1875 
M 23.5 5.265625 
C 16.40625 5.265625 10.296875 11.078125 10.296875 22 
C 10.296875 33.609375 17.40625 37.921875 23.40625 37.921875 
C 29.90625 37.921875 36.59375 33.21875 36.59375 22 
C 36.59375 10.671875 30.09375 5.265625 23.5 5.265625 
" id="CMSS17-111"/>
     <path d="M 67 29.328125 
C 67 36.0625 65.296875 44 54.09375 44 
C 46.59375 44 42.09375 39.3125 40.09375 36.421875 
C 38.296875 41.71875 34.09375 44 28.09375 44 
C 21.296875 44 17 40.125 14.703125 37.328125 
L 14.703125 43.09375 
L 7.40625 43.09375 
L 7.40625 0 
L 15 0 
L 15 24.359375 
C 15 30.296875 17.203125 37.9375 24.296875 37.9375 
C 33.40625 37.9375 33.40625 31.5 33.40625 28.578125 
L 33.40625 0 
L 41 0 
L 41 24.359375 
C 41 30.296875 43.203125 37.9375 50.296875 37.9375 
C 59.40625 37.9375 59.40625 31.5 59.40625 28.578125 
L 59.40625 0 
L 67 0 
z
" id="CMSS17-109"/>
     <path d="M 15.09375 5.203125 
C 18.40625 2.015625 22.90625 -0.078125 27.703125 -0.078125 
C 37 -0.078125 45 9.421875 45 22.0625 
C 45 33.734375 39 44 30.40625 44 
C 25.40625 44 19.40625 42.21875 14.90625 38.625 
L 14.90625 43.203125 
L 7.5 43.203125 
L 7.5 -19 
L 15.09375 -19 
z
M 15.09375 32.8125 
C 15.90625 34 19.296875 37.734375 24.796875 37.734375 
C 31.796875 37.734375 37.40625 30.625 37.40625 22.0625 
C 37.40625 12.296875 30.59375 6 23.90625 6 
C 21.90625 6 19.796875 6.484375 17.796875 8.171875 
C 15.09375 10.53125 15.09375 12 15.09375 13.390625 
z
" id="CMSS17-112"/>
     <path d="M 32.203125 41.046875 
C 26.296875 43.859375 21.703125 43.859375 18.703125 43.859375 
C 11.59375 43.859375 3.09375 41.375 3.09375 31.296875 
C 3.09375 21.234375 14.09375 19.03125 17.09375 18.421875 
C 21.703125 17.53125 26.796875 16.53125 26.796875 11.5625 
C 26.796875 5.265625 19.59375 5.265625 18.296875 5.265625 
C 14.296875 5.265625 8.796875 6.359375 3.796875 9.96875 
L 2.59375 3.28125 
C 8.296875 0 13.796875 -1 18.40625 -1 
C 30.703125 -1 33.796875 6.5 33.796875 12.203125 
C 33.796875 17.09375 31 20.390625 29.09375 21.890625 
C 25.796875 24.5 24.59375 24.796875 16.40625 26.5 
C 15 26.703125 10.09375 27.796875 10.09375 32.28125 
C 10.09375 38 16.40625 38 17.796875 38 
C 24.296875 38 28.296875 35.984375 31 34.5 
z
" id="CMSS17-115"/>
     <path d="M 14.90625 21.296875 
C 14.90625 30.703125 21.796875 37 30.59375 37 
L 30.59375 43.578125 
C 24.203125 43.578125 18.203125 40.390625 14.59375 35.203125 
L 14.59375 43.09375 
L 7.5 43.09375 
L 7.5 0 
L 14.90625 0 
z
" id="CMSS17-114"/>
     <path d="M 17 42.953125 
L 9 42.953125 
L 9 35 
L 17 35 
z
M 9 7.96875 
L 9 0 
L 17 0 
L 17 7.96875 
z
" id="CMSS17-58"/>
     <path d="M 30.59375 -24.390625 
C 30.59375 -24.296875 30.59375 -24.09375 30.296875 -23.796875 
C 25.703125 -19.125 13.40625 -6.359375 13.40625 24.6875 
C 13.40625 55.765625 25.5 68.421875 30.40625 73.390625 
C 30.40625 73.5 30.59375 73.703125 30.59375 74 
C 30.59375 74.296875 30.296875 74.5 29.90625 74.5 
C 28.796875 74.5 20.296875 67.125 15.40625 56.15625 
C 10.40625 45.109375 9 34.359375 9 24.8125 
C 9 17.625 9.703125 5.484375 15.703125 -7.359375 
C 20.5 -17.734375 28.703125 -25 29.90625 -25 
C 30.40625 -25 30.59375 -24.796875 30.59375 -24.390625 
" id="CMR17-40"/>
     <path d="M 22.796875 20 
C 24.5 19.703125 27.203125 19.109375 27.796875 19 
C 29.09375 18.625 33.59375 17.03125 33.59375 12.234375 
C 33.59375 9.15625 30.796875 1.09375 19.203125 1.09375 
C 17.09375 1.09375 9.59375 1.09375 7.59375 6.8125 
C 11.59375 6.3125 13.59375 9.421875 13.59375 11.640625 
C 13.59375 13.75 12.203125 14.84375 10.203125 14.84375 
C 8 14.84375 5.09375 13.140625 5.09375 8.625 
C 5.09375 2.703125 11.09375 -1 19.09375 -1 
C 34.296875 -1 38.796875 10.171875 38.796875 15.375 
C 38.796875 16.859375 38.796875 19.65625 35.59375 22.84375 
C 33.09375 25.25 30.703125 25.75 25.296875 26.84375 
C 22.59375 27.4375 18.296875 28.34375 18.296875 32.828125 
C 18.296875 34.828125 20.09375 42.015625 29.59375 42.015625 
C 33.796875 42.015625 37.90625 40.453125 38.90625 37 
C 34.5 37 34.296875 33.203125 34.296875 33.109375 
C 34.296875 31 36.203125 30.40625 37.09375 30.40625 
C 38.5 30.40625 41.296875 31.484375 41.296875 35.640625 
C 41.296875 39.765625 37.5 44 29.703125 44 
C 16.59375 44 13.09375 33.75 13.09375 29.671875 
C 13.09375 22.09375 20.5 20.5 22.796875 20 
" id="CMMI12-115"/>
     <path d="M 37.703125 23 
L 64.203125 23 
C 65.59375 23 67.296875 23 67.296875 24.6875 
C 67.296875 26.484375 65.703125 26.484375 64.203125 26.484375 
L 37.703125 26.484375 
L 37.703125 52.90625 
C 37.703125 54.296875 37.703125 56 36 56 
C 34.203125 56 34.203125 54.40625 34.203125 52.90625 
L 34.203125 26.484375 
L 7.703125 26.484375 
C 6.296875 26.484375 4.59375 26.484375 4.59375 24.796875 
C 4.59375 23 6.203125 23 7.703125 23 
L 34.203125 23 
L 34.203125 -3.40625 
C 34.203125 -4.796875 34.203125 -6.5 35.90625 -6.5 
C 37.703125 -6.5 37.703125 -4.90625 37.703125 -3.40625 
z
" id="CMR17-43"/>
     <path d="M 26.296875 24.6875 
C 26.296875 31.875 25.59375 44.015625 19.59375 56.859375 
C 14.796875 67.234375 6.59375 74.5 5.40625 74.5 
C 5.09375 74.5 4.703125 74.390625 4.703125 73.890625 
C 4.703125 73.703125 4.796875 73.59375 4.90625 73.390625 
C 9.703125 68.40625 21.90625 55.75 21.90625 24.75 
C 21.90625 -6.359375 9.796875 -19.015625 4.90625 -24.015625 
C 4.796875 -24.203125 4.703125 -24.3125 4.703125 -24.5 
C 4.703125 -25 5.09375 -25 5.40625 -25 
C 6.5 -25 15 -17.625 19.90625 -6.65625 
C 24.90625 4.390625 26.296875 15.140625 26.296875 24.6875 
" id="CMR17-41"/>
     <path d="M 42.90625 71.296875 
C 42.90625 71.40625 43.5 72.90625 43.5 73.09375 
C 43.5 74.296875 42.5 75 41.703125 75 
C 41.203125 75 40.296875 75 39.5 72.796875 
L 6 -21.296875 
C 6 -21.40625 5.40625 -22.890625 5.40625 -23.09375 
C 5.40625 -24.296875 6.40625 -25 7.203125 -25 
C 7.796875 -25 8.703125 -24.890625 9.40625 -22.796875 
z
" id="CMMI12-61"/>
    </defs>
    <g transform="translate(120.278025 16.166376)scale(0.12 -0.12)">
     <use transform="scale(0.996264)" xlink:href="#CMSS17-76"/>
     <use transform="translate(50.687105 0)scale(0.996264)" xlink:href="#CMSS17-101"/>
     <use transform="translate(92.325927 0)scale(0.996264)" xlink:href="#CMSS17-97"/>
     <use transform="translate(137.247848 0)scale(0.996264)" xlink:href="#CMSS17-100"/>
     <use transform="translate(216.681904 0)scale(0.996264)" xlink:href="#CMSS17-67"/>
     <use transform="translate(276.537675 0)scale(0.996264)" xlink:href="#CMSS17-111"/>
     <use transform="translate(323.381299 0)scale(0.996264)" xlink:href="#CMSS17-109"/>
     <use transform="translate(397.610553 0)scale(0.996264)" xlink:href="#CMSS17-112"/>
     <use transform="translate(448.417935 0)scale(0.996264)" xlink:href="#CMSS17-101"/>
     <use transform="translate(490.056757 0)scale(0.996264)" xlink:href="#CMSS17-110"/>
     <use transform="translate(538.261701 0)scale(0.996264)" xlink:href="#CMSS17-115"/>
     <use transform="translate(574.175242 0)scale(0.996264)" xlink:href="#CMSS17-97"/>
     <use transform="translate(619.097163 0)scale(0.996264)" xlink:href="#CMSS17-116"/>
     <use transform="translate(652.92873 0)scale(0.996264)" xlink:href="#CMSS17-111"/>
     <use transform="translate(697.169899 0)scale(0.996264)" xlink:href="#CMSS17-114"/>
     <use transform="translate(729.079672 0)scale(0.996264)" xlink:href="#CMSS17-58"/>
     <use transform="translate(796.742684 0)scale(0.996264)" xlink:href="#CMR17-50"/>
     <use transform="translate(842.433161 0)scale(0.996264)" xlink:href="#CMR17-40"/>
     <use transform="translate(877.713929 0)scale(0.996264)" xlink:href="#CMMI12-115"/>
     <use transform="translate(945.803183 0)scale(0.996264)" xlink:href="#CMR17-43"/>
     <use transform="translate(1039.657179 0)scale(0.996264)" xlink:href="#CMR17-49"/>
     <use transform="translate(1085.347656 0)scale(0.996264)" xlink:href="#CMR17-41"/>
     <use transform="translate(1120.628423 0)scale(0.996264)" xlink:href="#CMMI12-61"/>
     <use transform="translate(1169.403342 0)scale(0.996264)" xlink:href="#CMR17-40"/>
     <use transform="translate(1204.68411 0)scale(0.996264)" xlink:href="#CMR17-49"/>
     <use transform="translate(1250.374587 0)scale(0.996264)" xlink:href="#CMR17-48"/>
     <use transform="translate(1296.065064 0)scale(0.996264)" xlink:href="#CMMI12-115"/>
     <use transform="translate(1364.154319 0)scale(0.996264)" xlink:href="#CMR17-43"/>
     <use transform="translate(1458.008314 0)scale(0.996264)" xlink:href="#CMR17-49"/>
     <use transform="translate(1503.698791 0)scale(0.996264)" xlink:href="#CMR17-41"/>
    </g>
   </g>
  </g>
  <g id="axes_2">
   <g id="patch_7">
    <path d="M 49.194929 239.606376 
L 383.994929 239.606376 
L 383.994929 149.006376 
L 49.194929 149.006376 
z
" style="fill:#ffffff;"/>
   </g>
   <g id="matplotlib.axis_3">
    <g id="xtick_41">
     <g id="line2d_88">
      <path clip-path="url(#p4de734e5b0)" d="M 64.413111 239.606376 
L 64.413111 149.006376 
" style="fill:none;stroke:#b0b0b0;stroke-linecap:square;stroke-width:0.8;"/>
     </g>
     <g id="line2d_89">
      <g>
       <use style="stroke:#000000;stroke-width:0.8;" x="64.413111" xlink:href="#m93c96c3459" y="239.606376"/>
      </g>
     </g>
     <g id="text_11">
      <!-- $10^{-2}$ -->
      <g transform="translate(54.332824 253.524874)scale(0.1 -0.1)">
       <use transform="scale(0.996264)" xlink:href="#CMR17-49"/>
       <use transform="translate(45.690477 0)scale(0.996264)" xlink:href="#CMR17-48"/>
       <use transform="translate(91.380954 36.153639)scale(0.697382)" xlink:href="#CMSY10-0"/>
       <use transform="translate(145.621947 36.153639)scale(0.697382)" xlink:href="#CMR17-50"/>
      </g>
     </g>
    </g>
    <g id="xtick_42">
     <g id="line2d_90">
      <path clip-path="url(#p4de734e5b0)" d="M 140.50402 239.606376 
L 140.50402 149.006376 
" style="fill:none;stroke:#b0b0b0;stroke-linecap:square;stroke-width:0.8;"/>
     </g>
     <g id="line2d_91">
      <g>
       <use style="stroke:#000000;stroke-width:0.8;" x="140.50402" xlink:href="#m93c96c3459" y="239.606376"/>
      </g>
     </g>
     <g id="text_12">
      <!-- $10^{-1}$ -->
      <g transform="translate(130.423734 253.524874)scale(0.1 -0.1)">
       <use transform="scale(0.996264)" xlink:href="#CMR17-49"/>
       <use transform="translate(45.690477 0)scale(0.996264)" xlink:href="#CMR17-48"/>
       <use transform="translate(91.380954 36.153639)scale(0.697382)" xlink:href="#CMSY10-0"/>
       <use transform="translate(145.621947 36.153639)scale(0.697382)" xlink:href="#CMR17-49"/>
      </g>
     </g>
    </g>
    <g id="xtick_43">
     <g id="line2d_92">
      <path clip-path="url(#p4de734e5b0)" d="M 216.594929 239.606376 
L 216.594929 149.006376 
" style="fill:none;stroke:#b0b0b0;stroke-linecap:square;stroke-width:0.8;"/>
     </g>
     <g id="line2d_93">
      <g>
       <use style="stroke:#000000;stroke-width:0.8;" x="216.594929" xlink:href="#m93c96c3459" y="239.606376"/>
      </g>
     </g>
     <g id="text_13">
      <!-- $10^{0}$ -->
      <g transform="translate(209.627975 253.524874)scale(0.1 -0.1)">
       <use transform="scale(0.996264)" xlink:href="#CMR17-49"/>
       <use transform="translate(45.690477 0)scale(0.996264)" xlink:href="#CMR17-48"/>
       <use transform="translate(91.380954 36.153639)scale(0.697382)" xlink:href="#CMR17-48"/>
      </g>
     </g>
    </g>
    <g id="xtick_44">
     <g id="line2d_94">
      <path clip-path="url(#p4de734e5b0)" d="M 292.685838 239.606376 
L 292.685838 149.006376 
" style="fill:none;stroke:#b0b0b0;stroke-linecap:square;stroke-width:0.8;"/>
     </g>
     <g id="line2d_95">
      <g>
       <use style="stroke:#000000;stroke-width:0.8;" x="292.685838" xlink:href="#m93c96c3459" y="239.606376"/>
      </g>
     </g>
     <g id="text_14">
      <!-- $10^{1}$ -->
      <g transform="translate(285.718884 253.524874)scale(0.1 -0.1)">
       <use transform="scale(0.996264)" xlink:href="#CMR17-49"/>
       <use transform="translate(45.690477 0)scale(0.996264)" xlink:href="#CMR17-48"/>
       <use transform="translate(91.380954 36.153639)scale(0.697382)" xlink:href="#CMR17-49"/>
      </g>
     </g>
    </g>
    <g id="xtick_45">
     <g id="line2d_96">
      <path clip-path="url(#p4de734e5b0)" d="M 368.776747 239.606376 
L 368.776747 149.006376 
" style="fill:none;stroke:#b0b0b0;stroke-linecap:square;stroke-width:0.8;"/>
     </g>
     <g id="line2d_97">
      <g>
       <use style="stroke:#000000;stroke-width:0.8;" x="368.776747" xlink:href="#m93c96c3459" y="239.606376"/>
      </g>
     </g>
     <g id="text_15">
      <!-- $10^{2}$ -->
      <g transform="translate(361.809793 253.524874)scale(0.1 -0.1)">
       <use transform="scale(0.996264)" xlink:href="#CMR17-49"/>
       <use transform="translate(45.690477 0)scale(0.996264)" xlink:href="#CMR17-48"/>
       <use transform="translate(91.380954 36.153639)scale(0.697382)" xlink:href="#CMR17-50"/>
      </g>
     </g>
    </g>
    <g id="xtick_46">
     <g id="line2d_98">
      <path clip-path="url(#p4de734e5b0)" d="M 52.62648 239.606376 
L 52.62648 149.006376 
" style="fill:none;stroke:#b0b0b0;stroke-linecap:square;stroke-width:0.8;"/>
     </g>
     <g id="line2d_99">
      <g>
       <use style="stroke:#000000;stroke-width:0.6;" x="52.62648" xlink:href="#m9eae3d6702" y="239.606376"/>
      </g>
     </g>
    </g>
    <g id="xtick_47">
     <g id="line2d_100">
      <path clip-path="url(#p4de734e5b0)" d="M 57.03914 239.606376 
L 57.03914 149.006376 
" style="fill:none;stroke:#b0b0b0;stroke-linecap:square;stroke-width:0.8;"/>
     </g>
     <g id="line2d_101">
      <g>
       <use style="stroke:#000000;stroke-width:0.6;" x="57.03914" xlink:href="#m9eae3d6702" y="239.606376"/>
      </g>
     </g>
    </g>
    <g id="xtick_48">
     <g id="line2d_102">
      <path clip-path="url(#p4de734e5b0)" d="M 60.931382 239.606376 
L 60.931382 149.006376 
" style="fill:none;stroke:#b0b0b0;stroke-linecap:square;stroke-width:0.8;"/>
     </g>
     <g id="line2d_103">
      <g>
       <use style="stroke:#000000;stroke-width:0.6;" x="60.931382" xlink:href="#m9eae3d6702" y="239.606376"/>
      </g>
     </g>
    </g>
    <g id="xtick_49">
     <g id="line2d_104">
      <path clip-path="url(#p4de734e5b0)" d="M 87.318757 239.606376 
L 87.318757 149.006376 
" style="fill:none;stroke:#b0b0b0;stroke-linecap:square;stroke-width:0.8;"/>
     </g>
     <g id="line2d_105">
      <g>
       <use style="stroke:#000000;stroke-width:0.6;" x="87.318757" xlink:href="#m9eae3d6702" y="239.606376"/>
      </g>
     </g>
    </g>
    <g id="xtick_50">
     <g id="line2d_106">
      <path clip-path="url(#p4de734e5b0)" d="M 100.717701 239.606376 
L 100.717701 149.006376 
" style="fill:none;stroke:#b0b0b0;stroke-linecap:square;stroke-width:0.8;"/>
     </g>
     <g id="line2d_107">
      <g>
       <use style="stroke:#000000;stroke-width:0.6;" x="100.717701" xlink:href="#m9eae3d6702" y="239.606376"/>
      </g>
     </g>
    </g>
    <g id="xtick_51">
     <g id="line2d_108">
      <path clip-path="url(#p4de734e5b0)" d="M 110.224403 239.606376 
L 110.224403 149.006376 
" style="fill:none;stroke:#b0b0b0;stroke-linecap:square;stroke-width:0.8;"/>
     </g>
     <g id="line2d_109">
      <g>
       <use style="stroke:#000000;stroke-width:0.6;" x="110.224403" xlink:href="#m9eae3d6702" y="239.606376"/>
      </g>
     </g>
    </g>
    <g id="xtick_52">
     <g id="line2d_110">
      <path clip-path="url(#p4de734e5b0)" d="M 117.598374 239.606376 
L 117.598374 149.006376 
" style="fill:none;stroke:#b0b0b0;stroke-linecap:square;stroke-width:0.8;"/>
     </g>
     <g id="line2d_111">
      <g>
       <use style="stroke:#000000;stroke-width:0.6;" x="117.598374" xlink:href="#m9eae3d6702" y="239.606376"/>
      </g>
     </g>
    </g>
    <g id="xtick_53">
     <g id="line2d_112">
      <path clip-path="url(#p4de734e5b0)" d="M 123.623347 239.606376 
L 123.623347 149.006376 
" style="fill:none;stroke:#b0b0b0;stroke-linecap:square;stroke-width:0.8;"/>
     </g>
     <g id="line2d_113">
      <g>
       <use style="stroke:#000000;stroke-width:0.6;" x="123.623347" xlink:href="#m9eae3d6702" y="239.606376"/>
      </g>
     </g>
    </g>
    <g id="xtick_54">
     <g id="line2d_114">
      <path clip-path="url(#p4de734e5b0)" d="M 128.717389 239.606376 
L 128.717389 149.006376 
" style="fill:none;stroke:#b0b0b0;stroke-linecap:square;stroke-width:0.8;"/>
     </g>
     <g id="line2d_115">
      <g>
       <use style="stroke:#000000;stroke-width:0.6;" x="128.717389" xlink:href="#m9eae3d6702" y="239.606376"/>
      </g>
     </g>
    </g>
    <g id="xtick_55">
     <g id="line2d_116">
      <path clip-path="url(#p4de734e5b0)" d="M 133.130049 239.606376 
L 133.130049 149.006376 
" style="fill:none;stroke:#b0b0b0;stroke-linecap:square;stroke-width:0.8;"/>
     </g>
     <g id="line2d_117">
      <g>
       <use style="stroke:#000000;stroke-width:0.6;" x="133.130049" xlink:href="#m9eae3d6702" y="239.606376"/>
      </g>
     </g>
    </g>
    <g id="xtick_56">
     <g id="line2d_118">
      <path clip-path="url(#p4de734e5b0)" d="M 137.022291 239.606376 
L 137.022291 149.006376 
" style="fill:none;stroke:#b0b0b0;stroke-linecap:square;stroke-width:0.8;"/>
     </g>
     <g id="line2d_119">
      <g>
       <use style="stroke:#000000;stroke-width:0.6;" x="137.022291" xlink:href="#m9eae3d6702" y="239.606376"/>
      </g>
     </g>
    </g>
    <g id="xtick_57">
     <g id="line2d_120">
      <path clip-path="url(#p4de734e5b0)" d="M 163.409666 239.606376 
L 163.409666 149.006376 
" style="fill:none;stroke:#b0b0b0;stroke-linecap:square;stroke-width:0.8;"/>
     </g>
     <g id="line2d_121">
      <g>
       <use style="stroke:#000000;stroke-width:0.6;" x="163.409666" xlink:href="#m9eae3d6702" y="239.606376"/>
      </g>
     </g>
    </g>
    <g id="xtick_58">
     <g id="line2d_122">
      <path clip-path="url(#p4de734e5b0)" d="M 176.80861 239.606376 
L 176.80861 149.006376 
" style="fill:none;stroke:#b0b0b0;stroke-linecap:square;stroke-width:0.8;"/>
     </g>
     <g id="line2d_123">
      <g>
       <use style="stroke:#000000;stroke-width:0.6;" x="176.80861" xlink:href="#m9eae3d6702" y="239.606376"/>
      </g>
     </g>
    </g>
    <g id="xtick_59">
     <g id="line2d_124">
      <path clip-path="url(#p4de734e5b0)" d="M 186.315312 239.606376 
L 186.315312 149.006376 
" style="fill:none;stroke:#b0b0b0;stroke-linecap:square;stroke-width:0.8;"/>
     </g>
     <g id="line2d_125">
      <g>
       <use style="stroke:#000000;stroke-width:0.6;" x="186.315312" xlink:href="#m9eae3d6702" y="239.606376"/>
      </g>
     </g>
    </g>
    <g id="xtick_60">
     <g id="line2d_126">
      <path clip-path="url(#p4de734e5b0)" d="M 193.689283 239.606376 
L 193.689283 149.006376 
" style="fill:none;stroke:#b0b0b0;stroke-linecap:square;stroke-width:0.8;"/>
     </g>
     <g id="line2d_127">
      <g>
       <use style="stroke:#000000;stroke-width:0.6;" x="193.689283" xlink:href="#m9eae3d6702" y="239.606376"/>
      </g>
     </g>
    </g>
    <g id="xtick_61">
     <g id="line2d_128">
      <path clip-path="url(#p4de734e5b0)" d="M 199.714256 239.606376 
L 199.714256 149.006376 
" style="fill:none;stroke:#b0b0b0;stroke-linecap:square;stroke-width:0.8;"/>
     </g>
     <g id="line2d_129">
      <g>
       <use style="stroke:#000000;stroke-width:0.6;" x="199.714256" xlink:href="#m9eae3d6702" y="239.606376"/>
      </g>
     </g>
    </g>
    <g id="xtick_62">
     <g id="line2d_130">
      <path clip-path="url(#p4de734e5b0)" d="M 204.808298 239.606376 
L 204.808298 149.006376 
" style="fill:none;stroke:#b0b0b0;stroke-linecap:square;stroke-width:0.8;"/>
     </g>
     <g id="line2d_131">
      <g>
       <use style="stroke:#000000;stroke-width:0.6;" x="204.808298" xlink:href="#m9eae3d6702" y="239.606376"/>
      </g>
     </g>
    </g>
    <g id="xtick_63">
     <g id="line2d_132">
      <path clip-path="url(#p4de734e5b0)" d="M 209.220958 239.606376 
L 209.220958 149.006376 
" style="fill:none;stroke:#b0b0b0;stroke-linecap:square;stroke-width:0.8;"/>
     </g>
     <g id="line2d_133">
      <g>
       <use style="stroke:#000000;stroke-width:0.6;" x="209.220958" xlink:href="#m9eae3d6702" y="239.606376"/>
      </g>
     </g>
    </g>
    <g id="xtick_64">
     <g id="line2d_134">
      <path clip-path="url(#p4de734e5b0)" d="M 213.1132 239.606376 
L 213.1132 149.006376 
" style="fill:none;stroke:#b0b0b0;stroke-linecap:square;stroke-width:0.8;"/>
     </g>
     <g id="line2d_135">
      <g>
       <use style="stroke:#000000;stroke-width:0.6;" x="213.1132" xlink:href="#m9eae3d6702" y="239.606376"/>
      </g>
     </g>
    </g>
    <g id="xtick_65">
     <g id="line2d_136">
      <path clip-path="url(#p4de734e5b0)" d="M 239.500575 239.606376 
L 239.500575 149.006376 
" style="fill:none;stroke:#b0b0b0;stroke-linecap:square;stroke-width:0.8;"/>
     </g>
     <g id="line2d_137">
      <g>
       <use style="stroke:#000000;stroke-width:0.6;" x="239.500575" xlink:href="#m9eae3d6702" y="239.606376"/>
      </g>
     </g>
    </g>
    <g id="xtick_66">
     <g id="line2d_138">
      <path clip-path="url(#p4de734e5b0)" d="M 252.899519 239.606376 
L 252.899519 149.006376 
" style="fill:none;stroke:#b0b0b0;stroke-linecap:square;stroke-width:0.8;"/>
     </g>
     <g id="line2d_139">
      <g>
       <use style="stroke:#000000;stroke-width:0.6;" x="252.899519" xlink:href="#m9eae3d6702" y="239.606376"/>
      </g>
     </g>
    </g>
    <g id="xtick_67">
     <g id="line2d_140">
      <path clip-path="url(#p4de734e5b0)" d="M 262.406221 239.606376 
L 262.406221 149.006376 
" style="fill:none;stroke:#b0b0b0;stroke-linecap:square;stroke-width:0.8;"/>
     </g>
     <g id="line2d_141">
      <g>
       <use style="stroke:#000000;stroke-width:0.6;" x="262.406221" xlink:href="#m9eae3d6702" y="239.606376"/>
      </g>
     </g>
    </g>
    <g id="xtick_68">
     <g id="line2d_142">
      <path clip-path="url(#p4de734e5b0)" d="M 269.780192 239.606376 
L 269.780192 149.006376 
" style="fill:none;stroke:#b0b0b0;stroke-linecap:square;stroke-width:0.8;"/>
     </g>
     <g id="line2d_143">
      <g>
       <use style="stroke:#000000;stroke-width:0.6;" x="269.780192" xlink:href="#m9eae3d6702" y="239.606376"/>
      </g>
     </g>
    </g>
    <g id="xtick_69">
     <g id="line2d_144">
      <path clip-path="url(#p4de734e5b0)" d="M 275.805165 239.606376 
L 275.805165 149.006376 
" style="fill:none;stroke:#b0b0b0;stroke-linecap:square;stroke-width:0.8;"/>
     </g>
     <g id="line2d_145">
      <g>
       <use style="stroke:#000000;stroke-width:0.6;" x="275.805165" xlink:href="#m9eae3d6702" y="239.606376"/>
      </g>
     </g>
    </g>
    <g id="xtick_70">
     <g id="line2d_146">
      <path clip-path="url(#p4de734e5b0)" d="M 280.899207 239.606376 
L 280.899207 149.006376 
" style="fill:none;stroke:#b0b0b0;stroke-linecap:square;stroke-width:0.8;"/>
     </g>
     <g id="line2d_147">
      <g>
       <use style="stroke:#000000;stroke-width:0.6;" x="280.899207" xlink:href="#m9eae3d6702" y="239.606376"/>
      </g>
     </g>
    </g>
    <g id="xtick_71">
     <g id="line2d_148">
      <path clip-path="url(#p4de734e5b0)" d="M 285.311867 239.606376 
L 285.311867 149.006376 
" style="fill:none;stroke:#b0b0b0;stroke-linecap:square;stroke-width:0.8;"/>
     </g>
     <g id="line2d_149">
      <g>
       <use style="stroke:#000000;stroke-width:0.6;" x="285.311867" xlink:href="#m9eae3d6702" y="239.606376"/>
      </g>
     </g>
    </g>
    <g id="xtick_72">
     <g id="line2d_150">
      <path clip-path="url(#p4de734e5b0)" d="M 289.204109 239.606376 
L 289.204109 149.006376 
" style="fill:none;stroke:#b0b0b0;stroke-linecap:square;stroke-width:0.8;"/>
     </g>
     <g id="line2d_151">
      <g>
       <use style="stroke:#000000;stroke-width:0.6;" x="289.204109" xlink:href="#m9eae3d6702" y="239.606376"/>
      </g>
     </g>
    </g>
    <g id="xtick_73">
     <g id="line2d_152">
      <path clip-path="url(#p4de734e5b0)" d="M 315.591484 239.606376 
L 315.591484 149.006376 
" style="fill:none;stroke:#b0b0b0;stroke-linecap:square;stroke-width:0.8;"/>
     </g>
     <g id="line2d_153">
      <g>
       <use style="stroke:#000000;stroke-width:0.6;" x="315.591484" xlink:href="#m9eae3d6702" y="239.606376"/>
      </g>
     </g>
    </g>
    <g id="xtick_74">
     <g id="line2d_154">
      <path clip-path="url(#p4de734e5b0)" d="M 328.990428 239.606376 
L 328.990428 149.006376 
" style="fill:none;stroke:#b0b0b0;stroke-linecap:square;stroke-width:0.8;"/>
     </g>
     <g id="line2d_155">
      <g>
       <use style="stroke:#000000;stroke-width:0.6;" x="328.990428" xlink:href="#m9eae3d6702" y="239.606376"/>
      </g>
     </g>
    </g>
    <g id="xtick_75">
     <g id="line2d_156">
      <path clip-path="url(#p4de734e5b0)" d="M 338.49713 239.606376 
L 338.49713 149.006376 
" style="fill:none;stroke:#b0b0b0;stroke-linecap:square;stroke-width:0.8;"/>
     </g>
     <g id="line2d_157">
      <g>
       <use style="stroke:#000000;stroke-width:0.6;" x="338.49713" xlink:href="#m9eae3d6702" y="239.606376"/>
      </g>
     </g>
    </g>
    <g id="xtick_76">
     <g id="line2d_158">
      <path clip-path="url(#p4de734e5b0)" d="M 345.871101 239.606376 
L 345.871101 149.006376 
" style="fill:none;stroke:#b0b0b0;stroke-linecap:square;stroke-width:0.8;"/>
     </g>
     <g id="line2d_159">
      <g>
       <use style="stroke:#000000;stroke-width:0.6;" x="345.871101" xlink:href="#m9eae3d6702" y="239.606376"/>
      </g>
     </g>
    </g>
    <g id="xtick_77">
     <g id="line2d_160">
      <path clip-path="url(#p4de734e5b0)" d="M 351.896074 239.606376 
L 351.896074 149.006376 
" style="fill:none;stroke:#b0b0b0;stroke-linecap:square;stroke-width:0.8;"/>
     </g>
     <g id="line2d_161">
      <g>
       <use style="stroke:#000000;stroke-width:0.6;" x="351.896074" xlink:href="#m9eae3d6702" y="239.606376"/>
      </g>
     </g>
    </g>
    <g id="xtick_78">
     <g id="line2d_162">
      <path clip-path="url(#p4de734e5b0)" d="M 356.990117 239.606376 
L 356.990117 149.006376 
" style="fill:none;stroke:#b0b0b0;stroke-linecap:square;stroke-width:0.8;"/>
     </g>
     <g id="line2d_163">
      <g>
       <use style="stroke:#000000;stroke-width:0.6;" x="356.990117" xlink:href="#m9eae3d6702" y="239.606376"/>
      </g>
     </g>
    </g>
    <g id="xtick_79">
     <g id="line2d_164">
      <path clip-path="url(#p4de734e5b0)" d="M 361.402776 239.606376 
L 361.402776 149.006376 
" style="fill:none;stroke:#b0b0b0;stroke-linecap:square;stroke-width:0.8;"/>
     </g>
     <g id="line2d_165">
      <g>
       <use style="stroke:#000000;stroke-width:0.6;" x="361.402776" xlink:href="#m9eae3d6702" y="239.606376"/>
      </g>
     </g>
    </g>
    <g id="xtick_80">
     <g id="line2d_166">
      <path clip-path="url(#p4de734e5b0)" d="M 365.295018 239.606376 
L 365.295018 149.006376 
" style="fill:none;stroke:#b0b0b0;stroke-linecap:square;stroke-width:0.8;"/>
     </g>
     <g id="line2d_167">
      <g>
       <use style="stroke:#000000;stroke-width:0.6;" x="365.295018" xlink:href="#m9eae3d6702" y="239.606376"/>
      </g>
     </g>
    </g>
    <g id="text_16">
     <!-- Frequency (rad/sec) -->
     <defs>
      <path d="M 45.59375 31 
L 45.59375 37.078125 
L 17.203125 37.078125 
L 17.203125 62 
L 29.40625 62 
C 30.59375 62 31.796875 62 33 62 
L 49.5 62 
L 49.5 68.359375 
L 8.796875 68.359375 
L 8.796875 -0.5 
L 17.203125 -0.5 
L 17.203125 31 
z
" id="CMSS17-70"/>
      <path d="M 40.796875 44 
L 33.40625 44 
L 33.40625 37.9375 
C 33 38.4375 28.40625 44 20.59375 44 
C 11.5 44 3.296875 34.8125 3.296875 21.859375 
C 3.296875 9.890625 10.203125 -0.078125 19.203125 -0.078125 
C 23.40625 -0.078125 28.703125 1.421875 33.203125 5.703125 
L 33.203125 -19 
L 40.796875 -19 
z
M 33.40625 14.28125 
C 33.40625 13 33.40625 11.21875 30.296875 8.65625 
C 29.5 7.96875 27.296875 6 23.5 6 
C 16.40625 6 10.90625 13.28125 10.90625 21.859375 
C 10.90625 31.421875 17.59375 37.734375 24.40625 37.734375 
C 30.09375 37.734375 33.40625 32.203125 33.40625 28.078125 
z
" id="CMSS17-113"/>
      <path d="M 38.5 39.703125 
C 38.5 40.390625 33.90625 42.40625 32.703125 42.796875 
C 29.40625 44 25.203125 44 24.09375 44 
C 11.09375 44 3.296875 32.703125 3.296875 21.296875 
C 3.296875 9.296875 12 -1 23.703125 -1 
C 30.40625 -1 35.203125 1.1875 39.09375 3.78125 
L 38.5 10.375 
C 34.203125 7.078125 29.203125 5.265625 23.796875 5.265625 
C 16 5.265625 10.90625 12.09375 10.90625 21.390625 
C 10.90625 28.609375 14.203125 37.71875 24.203125 37.71875 
C 29.703125 37.71875 32.796875 36.609375 37.40625 33.515625 
z
" id="CMSS17-99"/>
      <path d="M 41.796875 43 
L 34 43 
C 25.5 20.21875 22.59375 10.96875 22.40625 5.984375 
L 22.296875 5.984375 
C 22 10.875 17.59375 22.8125 14.09375 31.359375 
L 9.40625 43 
L 1.296875 43 
L 19 0.203125 
C 17.90625 -2.78125 16.296875 -7.265625 15.796875 -8.265625 
C 13.59375 -13.828125 12.09375 -13.828125 10.5 -13.828125 
C 10.09375 -13.828125 6.90625 -13.828125 3.296875 -12.640625 
L 3.90625 -19.203125 
C 6.40625 -19.703125 8.90625 -20 10.703125 -20 
C 13.203125 -20 18.203125 -20 22.796875 -7.765625 
z
" id="CMSS17-121"/>
      <path d="M 41.203125 71.015625 
C 41.703125 72.296875 41.703125 72.5 41.703125 72.703125 
C 41.703125 73.890625 40.796875 74.5 40 74.5 
C 38.796875 74.5 38.40625 73.703125 38 72.5 
L 5.703125 -21.515625 
C 5.203125 -22.8125 5.203125 -23.015625 5.203125 -23.21875 
C 5.203125 -24.40625 6.09375 -25 6.90625 -25 
C 8.09375 -25 8.5 -24.203125 8.90625 -23.015625 
z
" id="CMSS17-47"/>
     </defs>
     <g transform="translate(174.502706 266.934033)scale(0.1 -0.1)">
      <use transform="scale(0.996264)" xlink:href="#CMSS17-70"/>
      <use transform="translate(50.687105 0)scale(0.996264)" xlink:href="#CMSS17-114"/>
      <use transform="translate(82.596878 0)scale(0.996264)" xlink:href="#CMSS17-101"/>
      <use transform="translate(124.2357 0)scale(0.996264)" xlink:href="#CMSS17-113"/>
      <use transform="translate(172.440643 0)scale(0.996264)" xlink:href="#CMSS17-117"/>
      <use transform="translate(220.645586 0)scale(0.996264)" xlink:href="#CMSS17-101"/>
      <use transform="translate(262.284408 0)scale(0.996264)" xlink:href="#CMSS17-110"/>
      <use transform="translate(310.489351 0)scale(0.996264)" xlink:href="#CMSS17-99"/>
      <use transform="translate(352.128174 0)scale(0.996264)" xlink:href="#CMSS17-121"/>
      <use transform="translate(426.357428 0)scale(0.996264)" xlink:href="#CMSS17-40"/>
      <use transform="translate(462.791342 0)scale(0.996264)" xlink:href="#CMSS17-114"/>
      <use transform="translate(494.701115 0)scale(0.996264)" xlink:href="#CMSS17-97"/>
      <use transform="translate(539.623035 0)scale(0.996264)" xlink:href="#CMSS17-100"/>
      <use transform="translate(587.827978 0)scale(0.996264)" xlink:href="#CMSS17-47"/>
      <use transform="translate(634.671602 0)scale(0.996264)" xlink:href="#CMSS17-115"/>
      <use transform="translate(670.585144 0)scale(0.996264)" xlink:href="#CMSS17-101"/>
      <use transform="translate(712.223966 0)scale(0.996264)" xlink:href="#CMSS17-99"/>
      <use transform="translate(753.862788 0)scale(0.996264)" xlink:href="#CMSS17-41"/>
     </g>
    </g>
   </g>
   <g id="matplotlib.axis_4">
    <g id="ytick_4">
     <g id="line2d_168">
      <path clip-path="url(#p4de734e5b0)" d="M 49.194929 151.171693 
L 383.994929 151.171693 
" style="fill:none;stroke:#b0b0b0;stroke-linecap:square;stroke-width:0.8;"/>
     </g>
     <g id="line2d_169">
      <g>
       <use style="stroke:#000000;stroke-width:0.8;" x="49.194929" xlink:href="#mf58a15eee8" y="151.171693"/>
      </g>
     </g>
     <g id="text_17">
      <!-- 0.0 -->
      <g transform="translate(29.46485 154.630942)scale(0.1 -0.1)">
       <use transform="scale(0.996264)" xlink:href="#CMSS17-48"/>
       <use transform="translate(46.843624 0)scale(0.996264)" xlink:href="#CMSS17-46"/>
       <use transform="translate(72.867828 0)scale(0.996264)" xlink:href="#CMSS17-48"/>
      </g>
     </g>
    </g>
    <g id="ytick_5">
     <g id="line2d_170">
      <path clip-path="url(#p4de734e5b0)" d="M 49.194929 195.389035 
L 383.994929 195.389035 
" style="fill:none;stroke:#b0b0b0;stroke-linecap:square;stroke-width:0.8;"/>
     </g>
     <g id="line2d_171">
      <g>
       <use style="stroke:#000000;stroke-width:0.8;" x="49.194929" xlink:href="#mf58a15eee8" y="195.389035"/>
      </g>
     </g>
     <g id="text_18">
      <!-- -45.0 -->
      <defs>
       <path d="M 35.203125 17 
L 44.296875 17 
L 44.296875 23.078125 
L 35.203125 23.078125 
L 35.203125 65.5 
L 26.40625 65.5 
L 2.59375 23.078125 
L 2.59375 17 
L 27.296875 17 
L 27.296875 0 
L 35.203125 0 
z
M 10.296875 23.078125 
C 16.09375 33.234375 27.59375 53.734375 27.59375 60.703125 
L 27.59375 23.078125 
z
" id="CMSS17-52"/>
       <path d="M 14.59375 58.625 
L 39.09375 58.625 
L 39.09375 65 
L 7.296875 65 
L 7.296875 27.828125 
L 14 27.828125 
C 15.796875 31.96875 19.5 35 24.296875 35 
C 28.796875 35 33.796875 31.078125 33.796875 19.78125 
C 33.796875 7.703125 26.703125 4.171875 21.5 4.171875 
C 15.09375 4.171875 9.203125 8 6.59375 13.296875 
L 3.40625 7.796875 
C 8 0.765625 15.5 -2 21.5 -2 
C 33.09375 -2 42.203125 7.765625 42.203125 19.578125 
C 42.203125 31.71875 34.09375 41.078125 24.40625 41.078125 
C 20.90625 41.078125 17.5 39.890625 14.59375 37.484375 
z
" id="CMSS17-53"/>
      </defs>
      <g transform="translate(21.16264 198.848284)scale(0.1 -0.1)">
       <use transform="scale(0.996264)" xlink:href="#CMSS17-45"/>
       <use transform="translate(31.229113 0)scale(0.996264)" xlink:href="#CMSS17-52"/>
       <use transform="translate(78.072736 0)scale(0.996264)" xlink:href="#CMSS17-53"/>
       <use transform="translate(124.91636 0)scale(0.996264)" xlink:href="#CMSS17-46"/>
       <use transform="translate(150.940565 0)scale(0.996264)" xlink:href="#CMSS17-48"/>
      </g>
     </g>
    </g>
    <g id="ytick_6">
     <g id="line2d_172">
      <path clip-path="url(#p4de734e5b0)" d="M 49.194929 239.606376 
L 383.994929 239.606376 
" style="fill:none;stroke:#b0b0b0;stroke-linecap:square;stroke-width:0.8;"/>
     </g>
     <g id="line2d_173">
      <g>
       <use style="stroke:#000000;stroke-width:0.8;" x="49.194929" xlink:href="#mf58a15eee8" y="239.606376"/>
      </g>
     </g>
     <g id="text_19">
      <!-- -90.0 -->
      <defs>
       <path d="M 6.796875 2.71875 
C 9.59375 0.328125 13.203125 -2 19.296875 -2 
C 31.40625 -2 43 11.265625 43 32.734375 
C 43 61.4375 30.5 66.078125 23.796875 66.078125 
C 17.09375 66.078125 12.796875 63.140625 9.09375 58.453125 
C 4.703125 53.078125 3.90625 48.28125 3.90625 42.703125 
C 3.90625 36.046875 5.09375 31.953125 7.90625 27.265625 
C 11.703125 21.203125 15.203125 19.921875 19.09375 19.921875 
C 25 19.921875 30.90625 22.796875 34.90625 27.75 
C 34.203125 14.09375 28.09375 4.171875 19.296875 4.171875 
C 15.703125 4.171875 12.796875 5.296875 9.90625 8.0625 
z
M 34.59375 42.90625 
C 34.703125 42.234375 34.703125 40.96875 34.703125 40.5625 
C 34.703125 32.40625 29.90625 26 22.90625 26 
C 18.296875 26 15.90625 28.328125 14.09375 31.34375 
C 11.90625 35.140625 11.796875 38.828125 11.796875 42.703125 
C 11.796875 46.5 11.796875 50.6875 14.59375 54.859375 
C 16.703125 57.859375 19.296875 60 23.796875 60 
C 33 60 34.5 46.875 34.59375 42.90625 
" id="CMSS17-57"/>
      </defs>
      <g transform="translate(21.16264 243.065625)scale(0.1 -0.1)">
       <use transform="scale(0.996264)" xlink:href="#CMSS17-45"/>
       <use transform="translate(31.229113 0)scale(0.996264)" xlink:href="#CMSS17-57"/>
       <use transform="translate(78.072736 0)scale(0.996264)" xlink:href="#CMSS17-48"/>
       <use transform="translate(124.91636 0)scale(0.996264)" xlink:href="#CMSS17-46"/>
       <use transform="translate(150.940565 0)scale(0.996264)" xlink:href="#CMSS17-48"/>
      </g>
     </g>
    </g>
    <g id="text_20">
     <!-- Phase (deg) -->
     <defs>
      <path d="M 32.90625 29 
C 44.90625 29 54.703125 38.328125 54.703125 49.34375 
C 54.703125 60.15625 45.296875 69.578125 32.296875 69.578125 
L 8.90625 69.578125 
L 8.90625 0 
L 17.296875 0 
L 17.296875 29 
z
M 30.09375 64 
C 41.703125 64 46.796875 56.671875 46.796875 49.328125 
C 46.796875 42.5 42.09375 34.78125 30.09375 34.78125 
L 17.09375 34.78125 
L 17.09375 64 
z
" id="CMSS17-80"/>
      <path d="M 40.90625 29.546875 
C 40.90625 35.8125 39.40625 44.0625 28.09375 44.0625 
C 21.796875 44.0625 17.703125 40.984375 14.796875 37.609375 
L 14.796875 69.5 
L 7.40625 69.5 
L 7.40625 0.5 
L 15 0.5 
L 15 24.578125 
C 15 30.828125 17.40625 38 24.203125 38 
C 33 38 33.296875 32.125 33.296875 28.734375 
L 33.296875 0.5 
L 40.90625 0.5 
z
" id="CMSS17-104"/>
     </defs>
     <g transform="translate(14.67198 219.392889)rotate(-90)scale(0.1 -0.1)">
      <use transform="scale(0.996264)" xlink:href="#CMSS17-80"/>
      <use transform="translate(59.735586 0)scale(0.996264)" xlink:href="#CMSS17-104"/>
      <use transform="translate(107.940529 0)scale(0.996264)" xlink:href="#CMSS17-97"/>
      <use transform="translate(152.86245 0)scale(0.996264)" xlink:href="#CMSS17-115"/>
      <use transform="translate(188.775992 0)scale(0.996264)" xlink:href="#CMSS17-101"/>
      <use transform="translate(261.643927 0)scale(0.996264)" xlink:href="#CMSS17-40"/>
      <use transform="translate(298.077841 0)scale(0.996264)" xlink:href="#CMSS17-100"/>
      <use transform="translate(346.282784 0)scale(0.996264)" xlink:href="#CMSS17-101"/>
      <use transform="translate(387.921606 0)scale(0.996264)" xlink:href="#CMSS17-103"/>
      <use transform="translate(434.76523 0)scale(0.996264)" xlink:href="#CMSS17-41"/>
     </g>
    </g>
   </g>
   <g id="line2d_174">
    <path clip-path="url(#p4de734e5b0)" d="M 64.413111 156.219991 
L 67.487491 156.708042 
L 70.561871 157.242354 
L 73.636252 157.827021 
L 76.710632 158.466407 
L 79.785012 159.165133 
L 82.859392 159.92805 
L 85.933772 160.760204 
L 89.008152 161.666773 
L 92.082533 162.652975 
L 95.156913 163.723958 
L 98.231293 164.884635 
L 101.305673 166.139487 
L 104.380053 167.492311 
L 107.454433 168.945917 
L 110.528814 170.501775 
L 113.603194 172.15962 
L 116.677574 173.917031 
L 119.751954 175.769008 
L 122.826334 177.707599 
L 125.900714 179.721604 
L 128.975095 181.796422 
L 132.049475 183.914091 
L 135.123855 186.053549 
L 138.198235 188.191132 
L 141.272615 190.301284 
L 144.346995 192.357432 
L 147.421376 194.332927 
L 150.495756 196.201972 
L 153.570136 197.940439 
L 156.644516 199.526504 
L 159.718896 200.941066 
L 162.793276 202.167953 
L 165.867657 203.193931 
L 168.942037 204.008585 
L 172.016417 204.604105 
L 175.090797 204.975064 
L 178.165177 205.118202 
L 181.239557 205.032289 
L 184.313938 204.718061 
L 187.388318 204.17826 
L 190.462698 203.417754 
L 193.537078 202.443736 
L 196.611458 201.265949 
L 199.685838 199.896905 
L 202.760219 198.352038 
L 205.834599 196.649726 
L 208.908979 194.811144 
L 211.983359 192.859896 
L 215.057739 190.821431 
L 218.132119 188.722269 
L 221.2065 186.589093 
L 224.28088 184.447797 
L 227.35526 182.322595 
L 230.42964 180.235252 
L 233.50402 178.204542 
L 236.5784 176.245916 
L 239.652781 174.371417 
L 242.727161 172.589787 
L 245.801541 170.90673 
L 248.875921 169.325273 
L 251.950301 167.846181 
L 255.024681 166.468379 
L 258.099062 165.189357 
L 261.173442 164.005534 
L 264.247822 162.912575 
L 267.322202 161.905654 
L 270.396582 160.979666 
L 273.470962 160.129397 
L 276.545343 159.34965 
L 279.619723 158.63534 
L 282.694103 157.981562 
L 285.768483 157.383634 
L 288.842863 156.837127 
L 291.917243 156.33788 
L 294.991624 155.882005 
L 298.066004 155.465884 
L 301.140384 155.086165 
L 304.214764 154.739752 
L 307.289144 154.423788 
L 310.363524 154.135648 
L 313.437905 153.872919 
L 316.512285 153.633389 
L 319.586665 153.415031 
L 322.661045 153.215991 
L 325.735425 153.034572 
L 328.809805 152.869223 
L 331.884185 152.718528 
L 334.958566 152.581194 
L 338.032946 152.45604 
L 341.107326 152.34199 
L 344.181706 152.238059 
L 347.256086 152.143353 
L 350.330466 152.057054 
L 353.404847 151.978417 
L 356.479227 151.906761 
L 359.553607 151.841469 
L 362.627987 151.781974 
L 365.702367 151.727764 
L 368.776747 151.678368 
" style="fill:none;stroke:#0000ff;stroke-linecap:square;stroke-width:1.5;"/>
   </g>
   <g id="patch_8">
    <path d="M 49.194929 239.606376 
L 49.194929 149.006376 
" style="fill:none;stroke:#000000;stroke-linecap:square;stroke-linejoin:miter;stroke-width:0.8;"/>
   </g>
   <g id="patch_9">
    <path d="M 383.994929 239.606376 
L 383.994929 149.006376 
" style="fill:none;stroke:#000000;stroke-linecap:square;stroke-linejoin:miter;stroke-width:0.8;"/>
   </g>
   <g id="patch_10">
    <path d="M 49.194929 239.606376 
L 383.994929 239.606376 
" style="fill:none;stroke:#000000;stroke-linecap:square;stroke-linejoin:miter;stroke-width:0.8;"/>
   </g>
   <g id="patch_11">
    <path d="M 49.194929 149.006376 
L 383.994929 149.006376 
" style="fill:none;stroke:#000000;stroke-linecap:square;stroke-linejoin:miter;stroke-width:0.8;"/>
   </g>
  </g>
 </g>
 <defs>
  <clipPath id="pe5526bfb5c">
   <rect height="90.6" width="334.8" x="49.194929" y="22.166376"/>
  </clipPath>
  <clipPath id="p4de734e5b0">
   <rect height="90.6" width="334.8" x="49.194929" y="149.006376"/>
  </clipPath>
 </defs>
</svg>
